G04 #@! TF.GenerationSoftware,KiCad,Pcbnew,9.0.1*
G04 #@! TF.CreationDate,2026-06-14T16:48:45+03:00*
G04 #@! TF.ProjectId,arco,6172636f-2e6b-4696-9361-645f70636258,rev?*
G04 #@! TF.SameCoordinates,Original*
G04 #@! TF.FileFunction,Paste,Top*
G04 #@! TF.FilePolarity,Positive*
%FSLAX46Y46*%
G04 Gerber Fmt 4.6, Leading zero omitted, Abs format (unit mm)*
G04 Created by KiCad (PCBNEW 9.0.1) date 2026-06-14 16:48:45*
%MOMM*%
%LPD*%
G01*
G04 APERTURE LIST*
G04 Aperture macros list*
%AMRoundRect*
0 Rectangle with rounded corners*
0 $1 Rounding radius*
0 $2 $3 $4 $5 $6 $7 $8 $9 X,Y pos of 4 corners*
0 Add a 4 corners polygon primitive as box body*
4,1,4,$2,$3,$4,$5,$6,$7,$8,$9,$2,$3,0*
0 Add four circle primitives for the rounded corners*
1,1,$1+$1,$2,$3*
1,1,$1+$1,$4,$5*
1,1,$1+$1,$6,$7*
1,1,$1+$1,$8,$9*
0 Add four rect primitives between the rounded corners*
20,1,$1+$1,$2,$3,$4,$5,0*
20,1,$1+$1,$4,$5,$6,$7,0*
20,1,$1+$1,$6,$7,$8,$9,0*
20,1,$1+$1,$8,$9,$2,$3,0*%
G04 Aperture macros list end*
%ADD10RoundRect,0.250000X0.450000X-0.350000X0.450000X0.350000X-0.450000X0.350000X-0.450000X-0.350000X0*%
%ADD11RoundRect,0.250000X0.475000X-0.337500X0.475000X0.337500X-0.475000X0.337500X-0.475000X-0.337500X0*%
%ADD12RoundRect,0.250000X-0.900000X1.500000X-0.900000X-1.500000X0.900000X-1.500000X0.900000X1.500000X0*%
%ADD13RoundRect,0.250000X0.650000X-0.412500X0.650000X0.412500X-0.650000X0.412500X-0.650000X-0.412500X0*%
%ADD14RoundRect,0.250000X-0.650000X0.412500X-0.650000X-0.412500X0.650000X-0.412500X0.650000X0.412500X0*%
%ADD15RoundRect,0.250000X-0.450000X0.350000X-0.450000X-0.350000X0.450000X-0.350000X0.450000X0.350000X0*%
%ADD16RoundRect,0.250000X-0.337500X-0.475000X0.337500X-0.475000X0.337500X0.475000X-0.337500X0.475000X0*%
%ADD17RoundRect,0.250000X-0.475000X0.337500X-0.475000X-0.337500X0.475000X-0.337500X0.475000X0.337500X0*%
%ADD18RoundRect,0.250000X0.337500X0.475000X-0.337500X0.475000X-0.337500X-0.475000X0.337500X-0.475000X0*%
%ADD19RoundRect,0.250000X-2.375000X2.025000X-2.375000X-2.025000X2.375000X-2.025000X2.375000X2.025000X0*%
%ADD20RoundRect,0.250000X-0.300000X2.050000X-0.300000X-2.050000X0.300000X-2.050000X0.300000X2.050000X0*%
%ADD21RoundRect,0.250000X0.900000X-1.500000X0.900000X1.500000X-0.900000X1.500000X-0.900000X-1.500000X0*%
G04 APERTURE END LIST*
D10*
X67375000Y-69370000D03*
X67375000Y-67370000D03*
D11*
X78500000Y-122352500D03*
X78500000Y-120277500D03*
D12*
X92255000Y-115985000D03*
X92255000Y-121385000D03*
D13*
X76000000Y-123125000D03*
X76000000Y-120000000D03*
D14*
X51476750Y-53602500D03*
X51476750Y-56727500D03*
D10*
X54875000Y-108870000D03*
X54875000Y-106870000D03*
D15*
X88000000Y-70500000D03*
X88000000Y-72500000D03*
D16*
X100217500Y-111185000D03*
X102292500Y-111185000D03*
D17*
X49000000Y-54000000D03*
X49000000Y-56075000D03*
D18*
X64875000Y-61870000D03*
X62800000Y-61870000D03*
D10*
X54375000Y-69370000D03*
X54375000Y-67370000D03*
D16*
X64837500Y-111870000D03*
X66912500Y-111870000D03*
D19*
X133275000Y-89075000D03*
X127725000Y-89075000D03*
X133275000Y-93925000D03*
X127725000Y-93925000D03*
D20*
X133900000Y-82350000D03*
X132200000Y-82350000D03*
X130500000Y-82350000D03*
X128800000Y-82350000D03*
X127100000Y-82350000D03*
D21*
X69185000Y-57746750D03*
X69185000Y-52346750D03*
D18*
X99500000Y-61500000D03*
X97425000Y-61500000D03*
D10*
X89255000Y-108185000D03*
X89255000Y-106185000D03*
X91215000Y-69740000D03*
X91215000Y-67740000D03*
D15*
X49500000Y-63000000D03*
X49500000Y-65000000D03*
D17*
X83500000Y-50925000D03*
X83500000Y-53000000D03*
D11*
X112500000Y-120475000D03*
X112500000Y-118400000D03*
D21*
X106065000Y-56570000D03*
X106065000Y-51170000D03*
D13*
X110000000Y-121000000D03*
X110000000Y-117875000D03*
D12*
X57375000Y-116470000D03*
X57375000Y-121870000D03*
D10*
X66875000Y-107370000D03*
X66875000Y-105370000D03*
X105255000Y-108685000D03*
X105255000Y-106685000D03*
D14*
X86500000Y-50500000D03*
X86500000Y-53625000D03*
D10*
X102795000Y-69240000D03*
X102795000Y-67240000D03*
M02*
