G04 #@! TF.GenerationSoftware,KiCad,Pcbnew,9.0.1*
G04 #@! TF.CreationDate,2026-06-14T16:48:45+03:00*
G04 #@! TF.ProjectId,arco,6172636f-2e6b-4696-9361-645f70636258,rev?*
G04 #@! TF.SameCoordinates,Original*
G04 #@! TF.FileFunction,Copper,L3,Inr*
G04 #@! TF.FilePolarity,Positive*
%FSLAX46Y46*%
G04 Gerber Fmt 4.6, Leading zero omitted, Abs format (unit mm)*
G04 Created by KiCad (PCBNEW 9.0.1) date 2026-06-14 16:48:45*
%MOMM*%
%LPD*%
G01*
G04 APERTURE LIST*
G04 Aperture macros list*
%AMRoundRect*
0 Rectangle with rounded corners*
0 $1 Rounding radius*
0 $2 $3 $4 $5 $6 $7 $8 $9 X,Y pos of 4 corners*
0 Add a 4 corners polygon primitive as box body*
4,1,4,$2,$3,$4,$5,$6,$7,$8,$9,$2,$3,0*
0 Add four circle primitives for the rounded corners*
1,1,$1+$1,$2,$3*
1,1,$1+$1,$4,$5*
1,1,$1+$1,$6,$7*
1,1,$1+$1,$8,$9*
0 Add four rect primitives between the rounded corners*
20,1,$1+$1,$2,$3,$4,$5,0*
20,1,$1+$1,$4,$5,$6,$7,0*
20,1,$1+$1,$6,$7,$8,$9,0*
20,1,$1+$1,$8,$9,$2,$3,0*%
G04 Aperture macros list end*
G04 #@! TA.AperFunction,ComponentPad*
%ADD10R,2.400000X2.400000*%
G04 #@! TD*
G04 #@! TA.AperFunction,ComponentPad*
%ADD11C,2.400000*%
G04 #@! TD*
G04 #@! TA.AperFunction,ComponentPad*
%ADD12R,1.905000X2.000000*%
G04 #@! TD*
G04 #@! TA.AperFunction,ComponentPad*
%ADD13O,1.905000X2.000000*%
G04 #@! TD*
G04 #@! TA.AperFunction,ComponentPad*
%ADD14C,1.600000*%
G04 #@! TD*
G04 #@! TA.AperFunction,ComponentPad*
%ADD15R,1.700000X1.700000*%
G04 #@! TD*
G04 #@! TA.AperFunction,ComponentPad*
%ADD16C,1.700000*%
G04 #@! TD*
G04 #@! TA.AperFunction,ComponentPad*
%ADD17R,1.600000X1.600000*%
G04 #@! TD*
G04 #@! TA.AperFunction,ComponentPad*
%ADD18O,1.600000X1.600000*%
G04 #@! TD*
G04 #@! TA.AperFunction,ComponentPad*
%ADD19RoundRect,0.250001X1.149999X1.149999X-1.149999X1.149999X-1.149999X-1.149999X1.149999X-1.149999X0*%
G04 #@! TD*
G04 #@! TA.AperFunction,ComponentPad*
%ADD20C,2.800000*%
G04 #@! TD*
G04 #@! TA.AperFunction,ComponentPad*
%ADD21RoundRect,0.250000X0.550000X-0.550000X0.550000X0.550000X-0.550000X0.550000X-0.550000X-0.550000X0*%
G04 #@! TD*
G04 #@! TA.AperFunction,ComponentPad*
%ADD22RoundRect,0.250001X1.149999X-1.149999X1.149999X1.149999X-1.149999X1.149999X-1.149999X-1.149999X0*%
G04 #@! TD*
G04 #@! TA.AperFunction,ComponentPad*
%ADD23C,2.600000*%
G04 #@! TD*
G04 #@! TA.AperFunction,ComponentPad*
%ADD24RoundRect,0.250000X-0.550000X0.550000X-0.550000X-0.550000X0.550000X-0.550000X0.550000X0.550000X0*%
G04 #@! TD*
G04 #@! TA.AperFunction,ComponentPad*
%ADD25R,3.200000X3.200000*%
G04 #@! TD*
G04 #@! TA.AperFunction,ComponentPad*
%ADD26O,3.200000X3.200000*%
G04 #@! TD*
G04 #@! TA.AperFunction,ViaPad*
%ADD27C,0.600000*%
G04 #@! TD*
G04 APERTURE END LIST*
D10*
X134100000Y-62850000D03*
D11*
X116100000Y-62850000D03*
D12*
X94295000Y-76240000D03*
D13*
X91755000Y-76240000D03*
X89215000Y-76240000D03*
D14*
X48000000Y-123100000D03*
X48000000Y-108100000D03*
D15*
X83000000Y-76580000D03*
D16*
X83000000Y-74040000D03*
X83000000Y-71500000D03*
D17*
X71375000Y-111370000D03*
D18*
X71375000Y-103750000D03*
D19*
X133100000Y-72350000D03*
D20*
X128100000Y-72350000D03*
D17*
X108255000Y-111495000D03*
D18*
X108255000Y-103875000D03*
D21*
X98215000Y-122490000D03*
D14*
X100755000Y-122490000D03*
X103295000Y-122490000D03*
X105835000Y-122490000D03*
X105835000Y-114870000D03*
X103295000Y-114870000D03*
X100755000Y-114870000D03*
X98215000Y-114870000D03*
D17*
X60375000Y-111870000D03*
D18*
X60375000Y-104250000D03*
D22*
X62875000Y-88870000D03*
D20*
X62875000Y-83870000D03*
D12*
X58875000Y-75370000D03*
D13*
X56335000Y-75370000D03*
X53795000Y-75370000D03*
D23*
X117600000Y-81850000D03*
X117600000Y-86850000D03*
D12*
X106795000Y-76240000D03*
D13*
X104255000Y-76240000D03*
X101715000Y-76240000D03*
D10*
X115600000Y-102742500D03*
D11*
X133600000Y-102742500D03*
D24*
X100875000Y-50065000D03*
D14*
X98335000Y-50065000D03*
X95795000Y-50065000D03*
X93255000Y-50065000D03*
X93255000Y-57685000D03*
X95795000Y-57685000D03*
X98335000Y-57685000D03*
X100875000Y-57685000D03*
D17*
X106295000Y-62930000D03*
D18*
X106295000Y-70550000D03*
D17*
X92255000Y-111185000D03*
D18*
X92255000Y-103565000D03*
D24*
X64185000Y-51226750D03*
D14*
X61645000Y-51226750D03*
X59105000Y-51226750D03*
X56565000Y-51226750D03*
X56565000Y-58846750D03*
X59105000Y-58846750D03*
X61645000Y-58846750D03*
X64185000Y-58846750D03*
D17*
X58875000Y-63750000D03*
D18*
X58875000Y-71370000D03*
D12*
X70375000Y-75370000D03*
D13*
X67835000Y-75370000D03*
X65295000Y-75370000D03*
D17*
X70875000Y-63750000D03*
D18*
X70875000Y-71370000D03*
D21*
X63565000Y-122675000D03*
D14*
X66105000Y-122675000D03*
X68645000Y-122675000D03*
X71185000Y-122675000D03*
X71185000Y-115055000D03*
X68645000Y-115055000D03*
X66105000Y-115055000D03*
X63565000Y-115055000D03*
D12*
X59375000Y-97370000D03*
D13*
X56835000Y-97370000D03*
X54295000Y-97370000D03*
D14*
X81755000Y-84185000D03*
X81755000Y-99185000D03*
D17*
X94215000Y-62930000D03*
D18*
X94215000Y-70550000D03*
D25*
X117100000Y-74390000D03*
D26*
X117100000Y-69310000D03*
D12*
X101675000Y-98685000D03*
D13*
X104215000Y-98685000D03*
X106755000Y-98685000D03*
D15*
X78000000Y-76500000D03*
D16*
X78000000Y-73960000D03*
X78000000Y-71420000D03*
X78000000Y-68880000D03*
X78000000Y-66340000D03*
X78000000Y-63800000D03*
X78000000Y-61260000D03*
D22*
X99222500Y-89435000D03*
D20*
X99222500Y-84435000D03*
D12*
X70955000Y-97370000D03*
D13*
X68415000Y-97370000D03*
X65875000Y-97370000D03*
D12*
X90255000Y-98685000D03*
D13*
X92795000Y-98685000D03*
X95335000Y-98685000D03*
D27*
X110065000Y-54870000D03*
X67924500Y-92870000D03*
X95565000Y-122870000D03*
X102565000Y-104870000D03*
X98565000Y-111370000D03*
X67565000Y-64870000D03*
X102065000Y-86870000D03*
M02*
