%TF.GenerationSoftware,KiCad,Pcbnew,9.0.1*%
%TF.CreationDate,2026-06-14T16:48:36+03:00*%
%TF.ProjectId,arco,6172636f-2e6b-4696-9361-645f70636258,rev?*%
%TF.SameCoordinates,Original*%
%TF.FileFunction,Drillmap*%
%TF.FilePolarity,Positive*%
%FSLAX45Y45*%
G04 Gerber Fmt 4.5, Leading zero omitted, Abs format (unit mm)*
G04 Created by KiCad (PCBNEW 9.0.1) date 2026-06-14 16:48:36*
%MOMM*%
%LPD*%
G01*
G04 APERTURE LIST*
%ADD10C,0.038100*%
%ADD11C,0.200000*%
%ADD12C,0.100000*%
%ADD13C,0.110000*%
%ADD14C,0.120000*%
%ADD15C,0.130000*%
%ADD16C,0.160000*%
G04 APERTURE END LIST*
D10*
X4120000Y-4580000D02*
X13760000Y-4580000D01*
X13760000Y-12640000D01*
X4120000Y-12640000D01*
X4120000Y-4580000D01*
D11*
D12*
X6741500Y-6472000D02*
X6771500Y-6502000D01*
X6771500Y-6472000D02*
X6741500Y-6502000D01*
X6777450Y-9272000D02*
X6807450Y-9302000D01*
X6807450Y-9272000D02*
X6777450Y-9302000D01*
X9541500Y-12272000D02*
X9571500Y-12302000D01*
X9571500Y-12272000D02*
X9541500Y-12302000D01*
X9841500Y-11122000D02*
X9871500Y-11152000D01*
X9871500Y-11122000D02*
X9841500Y-11152000D01*
X10191500Y-8672000D02*
X10221500Y-8702000D01*
X10221500Y-8672000D02*
X10191500Y-8702000D01*
X10241500Y-10472000D02*
X10271500Y-10502000D01*
X10271500Y-10472000D02*
X10241500Y-10502000D01*
X10991500Y-5472000D02*
X11021500Y-5502000D01*
X11021500Y-5472000D02*
X10991500Y-5502000D01*
X4840000Y-10810000D02*
G75*
G02*
X4760000Y-10810000I-40000J0D01*
G01*
X4760000Y-10810000D02*
G75*
G02*
X4840000Y-10810000I40000J0D01*
G01*
X4840000Y-12310000D02*
G75*
G02*
X4760000Y-12310000I-40000J0D01*
G01*
X4760000Y-12310000D02*
G75*
G02*
X4840000Y-12310000I40000J0D01*
G01*
X5696500Y-5122675D02*
G75*
G02*
X5616500Y-5122675I-40000J0D01*
G01*
X5616500Y-5122675D02*
G75*
G02*
X5696500Y-5122675I40000J0D01*
G01*
X5696500Y-5884675D02*
G75*
G02*
X5616500Y-5884675I-40000J0D01*
G01*
X5616500Y-5884675D02*
G75*
G02*
X5696500Y-5884675I40000J0D01*
G01*
X5927500Y-6375000D02*
G75*
G02*
X5847500Y-6375000I-40000J0D01*
G01*
X5847500Y-6375000D02*
G75*
G02*
X5927500Y-6375000I40000J0D01*
G01*
X5927500Y-7137000D02*
G75*
G02*
X5847500Y-7137000I-40000J0D01*
G01*
X5847500Y-7137000D02*
G75*
G02*
X5927500Y-7137000I40000J0D01*
G01*
X5950500Y-5122675D02*
G75*
G02*
X5870500Y-5122675I-40000J0D01*
G01*
X5870500Y-5122675D02*
G75*
G02*
X5950500Y-5122675I40000J0D01*
G01*
X5950500Y-5884675D02*
G75*
G02*
X5870500Y-5884675I-40000J0D01*
G01*
X5870500Y-5884675D02*
G75*
G02*
X5950500Y-5884675I40000J0D01*
G01*
X6077500Y-10425000D02*
G75*
G02*
X5997500Y-10425000I-40000J0D01*
G01*
X5997500Y-10425000D02*
G75*
G02*
X6077500Y-10425000I40000J0D01*
G01*
X6077500Y-11187000D02*
G75*
G02*
X5997500Y-11187000I-40000J0D01*
G01*
X5997500Y-11187000D02*
G75*
G02*
X6077500Y-11187000I40000J0D01*
G01*
X6204500Y-5122675D02*
G75*
G02*
X6124500Y-5122675I-40000J0D01*
G01*
X6124500Y-5122675D02*
G75*
G02*
X6204500Y-5122675I40000J0D01*
G01*
X6204500Y-5884675D02*
G75*
G02*
X6124500Y-5884675I-40000J0D01*
G01*
X6124500Y-5884675D02*
G75*
G02*
X6204500Y-5884675I40000J0D01*
G01*
X6396500Y-11505500D02*
G75*
G02*
X6316500Y-11505500I-40000J0D01*
G01*
X6316500Y-11505500D02*
G75*
G02*
X6396500Y-11505500I40000J0D01*
G01*
X6396500Y-12267500D02*
G75*
G02*
X6316500Y-12267500I-40000J0D01*
G01*
X6316500Y-12267500D02*
G75*
G02*
X6396500Y-12267500I40000J0D01*
G01*
X6458500Y-5122675D02*
G75*
G02*
X6378500Y-5122675I-40000J0D01*
G01*
X6378500Y-5122675D02*
G75*
G02*
X6458500Y-5122675I40000J0D01*
G01*
X6458500Y-5884675D02*
G75*
G02*
X6378500Y-5884675I-40000J0D01*
G01*
X6378500Y-5884675D02*
G75*
G02*
X6458500Y-5884675I40000J0D01*
G01*
X6650500Y-11505500D02*
G75*
G02*
X6570500Y-11505500I-40000J0D01*
G01*
X6570500Y-11505500D02*
G75*
G02*
X6650500Y-11505500I40000J0D01*
G01*
X6650500Y-12267500D02*
G75*
G02*
X6570500Y-12267500I-40000J0D01*
G01*
X6570500Y-12267500D02*
G75*
G02*
X6650500Y-12267500I40000J0D01*
G01*
X6904500Y-11505500D02*
G75*
G02*
X6824500Y-11505500I-40000J0D01*
G01*
X6824500Y-11505500D02*
G75*
G02*
X6904500Y-11505500I40000J0D01*
G01*
X6904500Y-12267500D02*
G75*
G02*
X6824500Y-12267500I-40000J0D01*
G01*
X6824500Y-12267500D02*
G75*
G02*
X6904500Y-12267500I40000J0D01*
G01*
X7127500Y-6375000D02*
G75*
G02*
X7047500Y-6375000I-40000J0D01*
G01*
X7047500Y-6375000D02*
G75*
G02*
X7127500Y-6375000I40000J0D01*
G01*
X7127500Y-7137000D02*
G75*
G02*
X7047500Y-7137000I-40000J0D01*
G01*
X7047500Y-7137000D02*
G75*
G02*
X7127500Y-7137000I40000J0D01*
G01*
X7158500Y-11505500D02*
G75*
G02*
X7078500Y-11505500I-40000J0D01*
G01*
X7078500Y-11505500D02*
G75*
G02*
X7158500Y-11505500I40000J0D01*
G01*
X7158500Y-12267500D02*
G75*
G02*
X7078500Y-12267500I-40000J0D01*
G01*
X7078500Y-12267500D02*
G75*
G02*
X7158500Y-12267500I40000J0D01*
G01*
X7177500Y-10375000D02*
G75*
G02*
X7097500Y-10375000I-40000J0D01*
G01*
X7097500Y-10375000D02*
G75*
G02*
X7177500Y-10375000I40000J0D01*
G01*
X7177500Y-11137000D02*
G75*
G02*
X7097500Y-11137000I-40000J0D01*
G01*
X7097500Y-11137000D02*
G75*
G02*
X7177500Y-11137000I40000J0D01*
G01*
X8215500Y-8418500D02*
G75*
G02*
X8135500Y-8418500I-40000J0D01*
G01*
X8135500Y-8418500D02*
G75*
G02*
X8215500Y-8418500I40000J0D01*
G01*
X8215500Y-9918500D02*
G75*
G02*
X8135500Y-9918500I-40000J0D01*
G01*
X8135500Y-9918500D02*
G75*
G02*
X8215500Y-9918500I40000J0D01*
G01*
X9265500Y-10356500D02*
G75*
G02*
X9185500Y-10356500I-40000J0D01*
G01*
X9185500Y-10356500D02*
G75*
G02*
X9265500Y-10356500I40000J0D01*
G01*
X9265500Y-11118500D02*
G75*
G02*
X9185500Y-11118500I-40000J0D01*
G01*
X9185500Y-11118500D02*
G75*
G02*
X9265500Y-11118500I40000J0D01*
G01*
X9365500Y-5006500D02*
G75*
G02*
X9285500Y-5006500I-40000J0D01*
G01*
X9285500Y-5006500D02*
G75*
G02*
X9365500Y-5006500I40000J0D01*
G01*
X9365500Y-5768500D02*
G75*
G02*
X9285500Y-5768500I-40000J0D01*
G01*
X9285500Y-5768500D02*
G75*
G02*
X9365500Y-5768500I40000J0D01*
G01*
X9461500Y-6293000D02*
G75*
G02*
X9381500Y-6293000I-40000J0D01*
G01*
X9381500Y-6293000D02*
G75*
G02*
X9461500Y-6293000I40000J0D01*
G01*
X9461500Y-7055000D02*
G75*
G02*
X9381500Y-7055000I-40000J0D01*
G01*
X9381500Y-7055000D02*
G75*
G02*
X9461500Y-7055000I40000J0D01*
G01*
X9619500Y-5006500D02*
G75*
G02*
X9539500Y-5006500I-40000J0D01*
G01*
X9539500Y-5006500D02*
G75*
G02*
X9619500Y-5006500I40000J0D01*
G01*
X9619500Y-5768500D02*
G75*
G02*
X9539500Y-5768500I-40000J0D01*
G01*
X9539500Y-5768500D02*
G75*
G02*
X9619500Y-5768500I40000J0D01*
G01*
X9861500Y-11487000D02*
G75*
G02*
X9781500Y-11487000I-40000J0D01*
G01*
X9781500Y-11487000D02*
G75*
G02*
X9861500Y-11487000I40000J0D01*
G01*
X9861500Y-12249000D02*
G75*
G02*
X9781500Y-12249000I-40000J0D01*
G01*
X9781500Y-12249000D02*
G75*
G02*
X9861500Y-12249000I40000J0D01*
G01*
X9873500Y-5006500D02*
G75*
G02*
X9793500Y-5006500I-40000J0D01*
G01*
X9793500Y-5006500D02*
G75*
G02*
X9873500Y-5006500I40000J0D01*
G01*
X9873500Y-5768500D02*
G75*
G02*
X9793500Y-5768500I-40000J0D01*
G01*
X9793500Y-5768500D02*
G75*
G02*
X9873500Y-5768500I40000J0D01*
G01*
X10115500Y-11487000D02*
G75*
G02*
X10035500Y-11487000I-40000J0D01*
G01*
X10035500Y-11487000D02*
G75*
G02*
X10115500Y-11487000I40000J0D01*
G01*
X10115500Y-12249000D02*
G75*
G02*
X10035500Y-12249000I-40000J0D01*
G01*
X10035500Y-12249000D02*
G75*
G02*
X10115500Y-12249000I40000J0D01*
G01*
X10127500Y-5006500D02*
G75*
G02*
X10047500Y-5006500I-40000J0D01*
G01*
X10047500Y-5006500D02*
G75*
G02*
X10127500Y-5006500I40000J0D01*
G01*
X10127500Y-5768500D02*
G75*
G02*
X10047500Y-5768500I-40000J0D01*
G01*
X10047500Y-5768500D02*
G75*
G02*
X10127500Y-5768500I40000J0D01*
G01*
X10369500Y-11487000D02*
G75*
G02*
X10289500Y-11487000I-40000J0D01*
G01*
X10289500Y-11487000D02*
G75*
G02*
X10369500Y-11487000I40000J0D01*
G01*
X10369500Y-12249000D02*
G75*
G02*
X10289500Y-12249000I-40000J0D01*
G01*
X10289500Y-12249000D02*
G75*
G02*
X10369500Y-12249000I40000J0D01*
G01*
X10623500Y-11487000D02*
G75*
G02*
X10543500Y-11487000I-40000J0D01*
G01*
X10543500Y-11487000D02*
G75*
G02*
X10623500Y-11487000I40000J0D01*
G01*
X10623500Y-12249000D02*
G75*
G02*
X10543500Y-12249000I-40000J0D01*
G01*
X10543500Y-12249000D02*
G75*
G02*
X10623500Y-12249000I40000J0D01*
G01*
X10669500Y-6293000D02*
G75*
G02*
X10589500Y-6293000I-40000J0D01*
G01*
X10589500Y-6293000D02*
G75*
G02*
X10669500Y-6293000I40000J0D01*
G01*
X10669500Y-7055000D02*
G75*
G02*
X10589500Y-7055000I-40000J0D01*
G01*
X10589500Y-7055000D02*
G75*
G02*
X10669500Y-7055000I40000J0D01*
G01*
X10865500Y-10387500D02*
G75*
G02*
X10785500Y-10387500I-40000J0D01*
G01*
X10785500Y-10387500D02*
G75*
G02*
X10865500Y-10387500I40000J0D01*
G01*
X10865500Y-11149500D02*
G75*
G02*
X10785500Y-11149500I-40000J0D01*
G01*
X10785500Y-11149500D02*
G75*
G02*
X10865500Y-11149500I40000J0D01*
G01*
X7800000Y-6076000D02*
X7800000Y-6176000D01*
X7750000Y-6126000D02*
X7850000Y-6126000D01*
X7800000Y-6330000D02*
X7800000Y-6430000D01*
X7750000Y-6380000D02*
X7850000Y-6380000D01*
X7800000Y-6584000D02*
X7800000Y-6684000D01*
X7750000Y-6634000D02*
X7850000Y-6634000D01*
X7800000Y-6838000D02*
X7800000Y-6938000D01*
X7750000Y-6888000D02*
X7850000Y-6888000D01*
X7800000Y-7092000D02*
X7800000Y-7192000D01*
X7750000Y-7142000D02*
X7850000Y-7142000D01*
X7800000Y-7346000D02*
X7800000Y-7446000D01*
X7750000Y-7396000D02*
X7850000Y-7396000D01*
X7800000Y-7600000D02*
X7800000Y-7700000D01*
X7750000Y-7650000D02*
X7850000Y-7650000D01*
X8300000Y-7100000D02*
X8300000Y-7200000D01*
X8250000Y-7150000D02*
X8350000Y-7150000D01*
X8300000Y-7354000D02*
X8300000Y-7454000D01*
X8250000Y-7404000D02*
X8350000Y-7404000D01*
X8300000Y-7608000D02*
X8300000Y-7708000D01*
X8250000Y-7658000D02*
X8350000Y-7658000D01*
D13*
X5418391Y-7575891D02*
X5418391Y-7498109D01*
X5340609Y-7498109D01*
X5340609Y-7575891D01*
X5418391Y-7575891D01*
X5468391Y-9775891D02*
X5468391Y-9698109D01*
X5390609Y-9698109D01*
X5390609Y-9775891D01*
X5468391Y-9775891D01*
X5672391Y-7575891D02*
X5672391Y-7498109D01*
X5594609Y-7498109D01*
X5594609Y-7575891D01*
X5672391Y-7575891D01*
X5722391Y-9775891D02*
X5722391Y-9698109D01*
X5644609Y-9698109D01*
X5644609Y-9775891D01*
X5722391Y-9775891D01*
X5926391Y-7575891D02*
X5926391Y-7498109D01*
X5848609Y-7498109D01*
X5848609Y-7575891D01*
X5926391Y-7575891D01*
X5976391Y-9775891D02*
X5976391Y-9698109D01*
X5898609Y-9698109D01*
X5898609Y-9775891D01*
X5976391Y-9775891D01*
X6568391Y-7575891D02*
X6568391Y-7498109D01*
X6490609Y-7498109D01*
X6490609Y-7575891D01*
X6568391Y-7575891D01*
X6626391Y-9775891D02*
X6626391Y-9698109D01*
X6548609Y-9698109D01*
X6548609Y-9775891D01*
X6626391Y-9775891D01*
X6822391Y-7575891D02*
X6822391Y-7498109D01*
X6744609Y-7498109D01*
X6744609Y-7575891D01*
X6822391Y-7575891D01*
X6880391Y-9775891D02*
X6880391Y-9698109D01*
X6802609Y-9698109D01*
X6802609Y-9775891D01*
X6880391Y-9775891D01*
X7076391Y-7575891D02*
X7076391Y-7498109D01*
X6998609Y-7498109D01*
X6998609Y-7575891D01*
X7076391Y-7575891D01*
X7134391Y-9775891D02*
X7134391Y-9698109D01*
X7056609Y-9698109D01*
X7056609Y-9775891D01*
X7134391Y-9775891D01*
X8960391Y-7662891D02*
X8960391Y-7585109D01*
X8882609Y-7585109D01*
X8882609Y-7662891D01*
X8960391Y-7662891D01*
X9064391Y-9907391D02*
X9064391Y-9829609D01*
X8986609Y-9829609D01*
X8986609Y-9907391D01*
X9064391Y-9907391D01*
X9214391Y-7662891D02*
X9214391Y-7585109D01*
X9136609Y-7585109D01*
X9136609Y-7662891D01*
X9214391Y-7662891D01*
X9318391Y-9907391D02*
X9318391Y-9829609D01*
X9240609Y-9829609D01*
X9240609Y-9907391D01*
X9318391Y-9907391D01*
X9468391Y-7662891D02*
X9468391Y-7585109D01*
X9390609Y-7585109D01*
X9390609Y-7662891D01*
X9468391Y-7662891D01*
X9572391Y-9907391D02*
X9572391Y-9829609D01*
X9494609Y-9829609D01*
X9494609Y-9907391D01*
X9572391Y-9907391D01*
X10206391Y-9907391D02*
X10206391Y-9829609D01*
X10128609Y-9829609D01*
X10128609Y-9907391D01*
X10206391Y-9907391D01*
X10210391Y-7662891D02*
X10210391Y-7585109D01*
X10132609Y-7585109D01*
X10132609Y-7662891D01*
X10210391Y-7662891D01*
X10460391Y-9907391D02*
X10460391Y-9829609D01*
X10382609Y-9829609D01*
X10382609Y-9907391D01*
X10460391Y-9907391D01*
X10464391Y-7662891D02*
X10464391Y-7585109D01*
X10386609Y-7585109D01*
X10386609Y-7662891D01*
X10464391Y-7662891D01*
X10714391Y-9907391D02*
X10714391Y-9829609D01*
X10636609Y-9829609D01*
X10636609Y-9907391D01*
X10714391Y-9907391D01*
X10718391Y-7662891D02*
X10718391Y-7585109D01*
X10640609Y-7585109D01*
X10640609Y-7662891D01*
X10718391Y-7662891D01*
D14*
X11560000Y-10334250D02*
X11620000Y-10274250D01*
X11560000Y-10214250D01*
X11500000Y-10274250D01*
X11560000Y-10334250D01*
X11610000Y-6345000D02*
X11670000Y-6285000D01*
X11610000Y-6225000D01*
X11550000Y-6285000D01*
X11610000Y-6345000D01*
X13360000Y-10334250D02*
X13420000Y-10274250D01*
X13360000Y-10214250D01*
X13300000Y-10274250D01*
X13360000Y-10334250D01*
X13410000Y-6345000D02*
X13470000Y-6285000D01*
X13410000Y-6225000D01*
X13350000Y-6285000D01*
X13410000Y-6345000D01*
D15*
X6222500Y-8322000D02*
X6352500Y-8452000D01*
X6352500Y-8322000D02*
X6222500Y-8452000D01*
X6352500Y-8387000D02*
G75*
G02*
X6222500Y-8387000I-65000J0D01*
G01*
X6222500Y-8387000D02*
G75*
G02*
X6352500Y-8387000I65000J0D01*
G01*
X6222500Y-8822000D02*
X6352500Y-8952000D01*
X6352500Y-8822000D02*
X6222500Y-8952000D01*
X6352500Y-8887000D02*
G75*
G02*
X6222500Y-8887000I-65000J0D01*
G01*
X6222500Y-8887000D02*
G75*
G02*
X6352500Y-8887000I65000J0D01*
G01*
X9857250Y-8378500D02*
X9987250Y-8508500D01*
X9987250Y-8378500D02*
X9857250Y-8508500D01*
X9987250Y-8443500D02*
G75*
G02*
X9857250Y-8443500I-65000J0D01*
G01*
X9857250Y-8443500D02*
G75*
G02*
X9987250Y-8443500I65000J0D01*
G01*
X9857250Y-8878500D02*
X9987250Y-9008500D01*
X9987250Y-8878500D02*
X9857250Y-9008500D01*
X9987250Y-8943500D02*
G75*
G02*
X9857250Y-8943500I-65000J0D01*
G01*
X9857250Y-8943500D02*
G75*
G02*
X9987250Y-8943500I65000J0D01*
G01*
X11695000Y-8120000D02*
X11825000Y-8250000D01*
X11825000Y-8120000D02*
X11695000Y-8250000D01*
X11825000Y-8185000D02*
G75*
G02*
X11695000Y-8185000I-65000J0D01*
G01*
X11695000Y-8185000D02*
G75*
G02*
X11825000Y-8185000I65000J0D01*
G01*
X11695000Y-8620000D02*
X11825000Y-8750000D01*
X11825000Y-8620000D02*
X11695000Y-8750000D01*
X11825000Y-8685000D02*
G75*
G02*
X11695000Y-8685000I-65000J0D01*
G01*
X11695000Y-8685000D02*
G75*
G02*
X11825000Y-8685000I65000J0D01*
G01*
X12745000Y-7170000D02*
X12875000Y-7300000D01*
X12875000Y-7170000D02*
X12745000Y-7300000D01*
X12875000Y-7235000D02*
G75*
G02*
X12745000Y-7235000I-65000J0D01*
G01*
X12745000Y-7235000D02*
G75*
G02*
X12875000Y-7235000I65000J0D01*
G01*
X13245000Y-7170000D02*
X13375000Y-7300000D01*
X13375000Y-7170000D02*
X13245000Y-7300000D01*
X13375000Y-7235000D02*
G75*
G02*
X13245000Y-7235000I-65000J0D01*
G01*
X13245000Y-7235000D02*
G75*
G02*
X13375000Y-7235000I65000J0D01*
G01*
D16*
X11630000Y-6851000D02*
X11790000Y-7011000D01*
X11790000Y-6851000D02*
X11630000Y-7011000D01*
X11710000Y-6851000D02*
X11710000Y-7011000D01*
X11630000Y-6931000D02*
X11790000Y-6931000D01*
X11630000Y-7359000D02*
X11790000Y-7519000D01*
X11790000Y-7359000D02*
X11630000Y-7519000D01*
X11710000Y-7359000D02*
X11710000Y-7519000D01*
X11630000Y-7439000D02*
X11790000Y-7439000D01*
D11*
X4378872Y-12953389D02*
X4378872Y-12753389D01*
X4378872Y-12753389D02*
X4426491Y-12753389D01*
X4426491Y-12753389D02*
X4455062Y-12762913D01*
X4455062Y-12762913D02*
X4474110Y-12781960D01*
X4474110Y-12781960D02*
X4483634Y-12801008D01*
X4483634Y-12801008D02*
X4493158Y-12839103D01*
X4493158Y-12839103D02*
X4493158Y-12867674D01*
X4493158Y-12867674D02*
X4483634Y-12905770D01*
X4483634Y-12905770D02*
X4474110Y-12924817D01*
X4474110Y-12924817D02*
X4455062Y-12943865D01*
X4455062Y-12943865D02*
X4426491Y-12953389D01*
X4426491Y-12953389D02*
X4378872Y-12953389D01*
X4578872Y-12953389D02*
X4578872Y-12820055D01*
X4578872Y-12858151D02*
X4588396Y-12839103D01*
X4588396Y-12839103D02*
X4597919Y-12829579D01*
X4597919Y-12829579D02*
X4616967Y-12820055D01*
X4616967Y-12820055D02*
X4636015Y-12820055D01*
X4702681Y-12953389D02*
X4702681Y-12820055D01*
X4702681Y-12753389D02*
X4693158Y-12762913D01*
X4693158Y-12762913D02*
X4702681Y-12772436D01*
X4702681Y-12772436D02*
X4712205Y-12762913D01*
X4712205Y-12762913D02*
X4702681Y-12753389D01*
X4702681Y-12753389D02*
X4702681Y-12772436D01*
X4826491Y-12953389D02*
X4807443Y-12943865D01*
X4807443Y-12943865D02*
X4797919Y-12924817D01*
X4797919Y-12924817D02*
X4797919Y-12753389D01*
X4931253Y-12953389D02*
X4912205Y-12943865D01*
X4912205Y-12943865D02*
X4902681Y-12924817D01*
X4902681Y-12924817D02*
X4902681Y-12753389D01*
X5159824Y-12953389D02*
X5159824Y-12753389D01*
X5159824Y-12753389D02*
X5226491Y-12896246D01*
X5226491Y-12896246D02*
X5293158Y-12753389D01*
X5293158Y-12753389D02*
X5293158Y-12953389D01*
X5474110Y-12953389D02*
X5474110Y-12848627D01*
X5474110Y-12848627D02*
X5464586Y-12829579D01*
X5464586Y-12829579D02*
X5445539Y-12820055D01*
X5445539Y-12820055D02*
X5407443Y-12820055D01*
X5407443Y-12820055D02*
X5388396Y-12829579D01*
X5474110Y-12943865D02*
X5455062Y-12953389D01*
X5455062Y-12953389D02*
X5407443Y-12953389D01*
X5407443Y-12953389D02*
X5388396Y-12943865D01*
X5388396Y-12943865D02*
X5378872Y-12924817D01*
X5378872Y-12924817D02*
X5378872Y-12905770D01*
X5378872Y-12905770D02*
X5388396Y-12886722D01*
X5388396Y-12886722D02*
X5407443Y-12877198D01*
X5407443Y-12877198D02*
X5455062Y-12877198D01*
X5455062Y-12877198D02*
X5474110Y-12867674D01*
X5569348Y-12820055D02*
X5569348Y-13020055D01*
X5569348Y-12829579D02*
X5588396Y-12820055D01*
X5588396Y-12820055D02*
X5626491Y-12820055D01*
X5626491Y-12820055D02*
X5645538Y-12829579D01*
X5645538Y-12829579D02*
X5655062Y-12839103D01*
X5655062Y-12839103D02*
X5664586Y-12858151D01*
X5664586Y-12858151D02*
X5664586Y-12915293D01*
X5664586Y-12915293D02*
X5655062Y-12934341D01*
X5655062Y-12934341D02*
X5645538Y-12943865D01*
X5645538Y-12943865D02*
X5626491Y-12953389D01*
X5626491Y-12953389D02*
X5588396Y-12953389D01*
X5588396Y-12953389D02*
X5569348Y-12943865D01*
X5750300Y-12934341D02*
X5759824Y-12943865D01*
X5759824Y-12943865D02*
X5750300Y-12953389D01*
X5750300Y-12953389D02*
X5740777Y-12943865D01*
X5740777Y-12943865D02*
X5750300Y-12934341D01*
X5750300Y-12934341D02*
X5750300Y-12953389D01*
X5750300Y-12829579D02*
X5759824Y-12839103D01*
X5759824Y-12839103D02*
X5750300Y-12848627D01*
X5750300Y-12848627D02*
X5740777Y-12839103D01*
X5740777Y-12839103D02*
X5750300Y-12829579D01*
X5750300Y-12829579D02*
X5750300Y-12848627D01*
D12*
X4088095Y-13266905D02*
X4118095Y-13296905D01*
X4118095Y-13266905D02*
X4088095Y-13296905D01*
D11*
X4416967Y-13173389D02*
X4436015Y-13173389D01*
X4436015Y-13173389D02*
X4455062Y-13182913D01*
X4455062Y-13182913D02*
X4464586Y-13192436D01*
X4464586Y-13192436D02*
X4474110Y-13211484D01*
X4474110Y-13211484D02*
X4483634Y-13249579D01*
X4483634Y-13249579D02*
X4483634Y-13297198D01*
X4483634Y-13297198D02*
X4474110Y-13335293D01*
X4474110Y-13335293D02*
X4464586Y-13354341D01*
X4464586Y-13354341D02*
X4455062Y-13363865D01*
X4455062Y-13363865D02*
X4436015Y-13373389D01*
X4436015Y-13373389D02*
X4416967Y-13373389D01*
X4416967Y-13373389D02*
X4397919Y-13363865D01*
X4397919Y-13363865D02*
X4388396Y-13354341D01*
X4388396Y-13354341D02*
X4378872Y-13335293D01*
X4378872Y-13335293D02*
X4369348Y-13297198D01*
X4369348Y-13297198D02*
X4369348Y-13249579D01*
X4369348Y-13249579D02*
X4378872Y-13211484D01*
X4378872Y-13211484D02*
X4388396Y-13192436D01*
X4388396Y-13192436D02*
X4397919Y-13182913D01*
X4397919Y-13182913D02*
X4416967Y-13173389D01*
X4569348Y-13354341D02*
X4578872Y-13363865D01*
X4578872Y-13363865D02*
X4569348Y-13373389D01*
X4569348Y-13373389D02*
X4559824Y-13363865D01*
X4559824Y-13363865D02*
X4569348Y-13354341D01*
X4569348Y-13354341D02*
X4569348Y-13373389D01*
X4645539Y-13173389D02*
X4769348Y-13173389D01*
X4769348Y-13173389D02*
X4702681Y-13249579D01*
X4702681Y-13249579D02*
X4731253Y-13249579D01*
X4731253Y-13249579D02*
X4750300Y-13259103D01*
X4750300Y-13259103D02*
X4759824Y-13268627D01*
X4759824Y-13268627D02*
X4769348Y-13287674D01*
X4769348Y-13287674D02*
X4769348Y-13335293D01*
X4769348Y-13335293D02*
X4759824Y-13354341D01*
X4759824Y-13354341D02*
X4750300Y-13363865D01*
X4750300Y-13363865D02*
X4731253Y-13373389D01*
X4731253Y-13373389D02*
X4674110Y-13373389D01*
X4674110Y-13373389D02*
X4655062Y-13363865D01*
X4655062Y-13363865D02*
X4645539Y-13354341D01*
X4893158Y-13173389D02*
X4912205Y-13173389D01*
X4912205Y-13173389D02*
X4931253Y-13182913D01*
X4931253Y-13182913D02*
X4940777Y-13192436D01*
X4940777Y-13192436D02*
X4950300Y-13211484D01*
X4950300Y-13211484D02*
X4959824Y-13249579D01*
X4959824Y-13249579D02*
X4959824Y-13297198D01*
X4959824Y-13297198D02*
X4950300Y-13335293D01*
X4950300Y-13335293D02*
X4940777Y-13354341D01*
X4940777Y-13354341D02*
X4931253Y-13363865D01*
X4931253Y-13363865D02*
X4912205Y-13373389D01*
X4912205Y-13373389D02*
X4893158Y-13373389D01*
X4893158Y-13373389D02*
X4874110Y-13363865D01*
X4874110Y-13363865D02*
X4864586Y-13354341D01*
X4864586Y-13354341D02*
X4855062Y-13335293D01*
X4855062Y-13335293D02*
X4845539Y-13297198D01*
X4845539Y-13297198D02*
X4845539Y-13249579D01*
X4845539Y-13249579D02*
X4855062Y-13211484D01*
X4855062Y-13211484D02*
X4864586Y-13192436D01*
X4864586Y-13192436D02*
X4874110Y-13182913D01*
X4874110Y-13182913D02*
X4893158Y-13173389D01*
X5083634Y-13173389D02*
X5102681Y-13173389D01*
X5102681Y-13173389D02*
X5121729Y-13182913D01*
X5121729Y-13182913D02*
X5131253Y-13192436D01*
X5131253Y-13192436D02*
X5140777Y-13211484D01*
X5140777Y-13211484D02*
X5150300Y-13249579D01*
X5150300Y-13249579D02*
X5150300Y-13297198D01*
X5150300Y-13297198D02*
X5140777Y-13335293D01*
X5140777Y-13335293D02*
X5131253Y-13354341D01*
X5131253Y-13354341D02*
X5121729Y-13363865D01*
X5121729Y-13363865D02*
X5102681Y-13373389D01*
X5102681Y-13373389D02*
X5083634Y-13373389D01*
X5083634Y-13373389D02*
X5064586Y-13363865D01*
X5064586Y-13363865D02*
X5055062Y-13354341D01*
X5055062Y-13354341D02*
X5045539Y-13335293D01*
X5045539Y-13335293D02*
X5036015Y-13297198D01*
X5036015Y-13297198D02*
X5036015Y-13249579D01*
X5036015Y-13249579D02*
X5045539Y-13211484D01*
X5045539Y-13211484D02*
X5055062Y-13192436D01*
X5055062Y-13192436D02*
X5064586Y-13182913D01*
X5064586Y-13182913D02*
X5083634Y-13173389D01*
X5236015Y-13373389D02*
X5236015Y-13240055D01*
X5236015Y-13259103D02*
X5245539Y-13249579D01*
X5245539Y-13249579D02*
X5264586Y-13240055D01*
X5264586Y-13240055D02*
X5293158Y-13240055D01*
X5293158Y-13240055D02*
X5312205Y-13249579D01*
X5312205Y-13249579D02*
X5321729Y-13268627D01*
X5321729Y-13268627D02*
X5321729Y-13373389D01*
X5321729Y-13268627D02*
X5331253Y-13249579D01*
X5331253Y-13249579D02*
X5350300Y-13240055D01*
X5350300Y-13240055D02*
X5378872Y-13240055D01*
X5378872Y-13240055D02*
X5397920Y-13249579D01*
X5397920Y-13249579D02*
X5407443Y-13268627D01*
X5407443Y-13268627D02*
X5407443Y-13373389D01*
X5502681Y-13373389D02*
X5502681Y-13240055D01*
X5502681Y-13259103D02*
X5512205Y-13249579D01*
X5512205Y-13249579D02*
X5531253Y-13240055D01*
X5531253Y-13240055D02*
X5559824Y-13240055D01*
X5559824Y-13240055D02*
X5578872Y-13249579D01*
X5578872Y-13249579D02*
X5588396Y-13268627D01*
X5588396Y-13268627D02*
X5588396Y-13373389D01*
X5588396Y-13268627D02*
X5597919Y-13249579D01*
X5597919Y-13249579D02*
X5616967Y-13240055D01*
X5616967Y-13240055D02*
X5645538Y-13240055D01*
X5645538Y-13240055D02*
X5664586Y-13249579D01*
X5664586Y-13249579D02*
X5674110Y-13268627D01*
X5674110Y-13268627D02*
X5674110Y-13373389D01*
X6064586Y-13163865D02*
X5893158Y-13421008D01*
X6321729Y-13173389D02*
X6340777Y-13173389D01*
X6340777Y-13173389D02*
X6359824Y-13182913D01*
X6359824Y-13182913D02*
X6369348Y-13192436D01*
X6369348Y-13192436D02*
X6378872Y-13211484D01*
X6378872Y-13211484D02*
X6388396Y-13249579D01*
X6388396Y-13249579D02*
X6388396Y-13297198D01*
X6388396Y-13297198D02*
X6378872Y-13335293D01*
X6378872Y-13335293D02*
X6369348Y-13354341D01*
X6369348Y-13354341D02*
X6359824Y-13363865D01*
X6359824Y-13363865D02*
X6340777Y-13373389D01*
X6340777Y-13373389D02*
X6321729Y-13373389D01*
X6321729Y-13373389D02*
X6302681Y-13363865D01*
X6302681Y-13363865D02*
X6293158Y-13354341D01*
X6293158Y-13354341D02*
X6283634Y-13335293D01*
X6283634Y-13335293D02*
X6274110Y-13297198D01*
X6274110Y-13297198D02*
X6274110Y-13249579D01*
X6274110Y-13249579D02*
X6283634Y-13211484D01*
X6283634Y-13211484D02*
X6293158Y-13192436D01*
X6293158Y-13192436D02*
X6302681Y-13182913D01*
X6302681Y-13182913D02*
X6321729Y-13173389D01*
X6474110Y-13354341D02*
X6483634Y-13363865D01*
X6483634Y-13363865D02*
X6474110Y-13373389D01*
X6474110Y-13373389D02*
X6464586Y-13363865D01*
X6464586Y-13363865D02*
X6474110Y-13354341D01*
X6474110Y-13354341D02*
X6474110Y-13373389D01*
X6607443Y-13173389D02*
X6626491Y-13173389D01*
X6626491Y-13173389D02*
X6645539Y-13182913D01*
X6645539Y-13182913D02*
X6655062Y-13192436D01*
X6655062Y-13192436D02*
X6664586Y-13211484D01*
X6664586Y-13211484D02*
X6674110Y-13249579D01*
X6674110Y-13249579D02*
X6674110Y-13297198D01*
X6674110Y-13297198D02*
X6664586Y-13335293D01*
X6664586Y-13335293D02*
X6655062Y-13354341D01*
X6655062Y-13354341D02*
X6645539Y-13363865D01*
X6645539Y-13363865D02*
X6626491Y-13373389D01*
X6626491Y-13373389D02*
X6607443Y-13373389D01*
X6607443Y-13373389D02*
X6588396Y-13363865D01*
X6588396Y-13363865D02*
X6578872Y-13354341D01*
X6578872Y-13354341D02*
X6569348Y-13335293D01*
X6569348Y-13335293D02*
X6559824Y-13297198D01*
X6559824Y-13297198D02*
X6559824Y-13249579D01*
X6559824Y-13249579D02*
X6569348Y-13211484D01*
X6569348Y-13211484D02*
X6578872Y-13192436D01*
X6578872Y-13192436D02*
X6588396Y-13182913D01*
X6588396Y-13182913D02*
X6607443Y-13173389D01*
X6864586Y-13373389D02*
X6750301Y-13373389D01*
X6807443Y-13373389D02*
X6807443Y-13173389D01*
X6807443Y-13173389D02*
X6788396Y-13201960D01*
X6788396Y-13201960D02*
X6769348Y-13221008D01*
X6769348Y-13221008D02*
X6750301Y-13230532D01*
X7055062Y-13373389D02*
X6940777Y-13373389D01*
X6997920Y-13373389D02*
X6997920Y-13173389D01*
X6997920Y-13173389D02*
X6978872Y-13201960D01*
X6978872Y-13201960D02*
X6959824Y-13221008D01*
X6959824Y-13221008D02*
X6940777Y-13230532D01*
X7169348Y-13259103D02*
X7150301Y-13249579D01*
X7150301Y-13249579D02*
X7140777Y-13240055D01*
X7140777Y-13240055D02*
X7131253Y-13221008D01*
X7131253Y-13221008D02*
X7131253Y-13211484D01*
X7131253Y-13211484D02*
X7140777Y-13192436D01*
X7140777Y-13192436D02*
X7150301Y-13182913D01*
X7150301Y-13182913D02*
X7169348Y-13173389D01*
X7169348Y-13173389D02*
X7207443Y-13173389D01*
X7207443Y-13173389D02*
X7226491Y-13182913D01*
X7226491Y-13182913D02*
X7236015Y-13192436D01*
X7236015Y-13192436D02*
X7245539Y-13211484D01*
X7245539Y-13211484D02*
X7245539Y-13221008D01*
X7245539Y-13221008D02*
X7236015Y-13240055D01*
X7236015Y-13240055D02*
X7226491Y-13249579D01*
X7226491Y-13249579D02*
X7207443Y-13259103D01*
X7207443Y-13259103D02*
X7169348Y-13259103D01*
X7169348Y-13259103D02*
X7150301Y-13268627D01*
X7150301Y-13268627D02*
X7140777Y-13278151D01*
X7140777Y-13278151D02*
X7131253Y-13297198D01*
X7131253Y-13297198D02*
X7131253Y-13335293D01*
X7131253Y-13335293D02*
X7140777Y-13354341D01*
X7140777Y-13354341D02*
X7150301Y-13363865D01*
X7150301Y-13363865D02*
X7169348Y-13373389D01*
X7169348Y-13373389D02*
X7207443Y-13373389D01*
X7207443Y-13373389D02*
X7226491Y-13363865D01*
X7226491Y-13363865D02*
X7236015Y-13354341D01*
X7236015Y-13354341D02*
X7245539Y-13335293D01*
X7245539Y-13335293D02*
X7245539Y-13297198D01*
X7245539Y-13297198D02*
X7236015Y-13278151D01*
X7236015Y-13278151D02*
X7226491Y-13268627D01*
X7226491Y-13268627D02*
X7207443Y-13259103D01*
X7321729Y-13173389D02*
X7321729Y-13211484D01*
X7397920Y-13173389D02*
X7397920Y-13211484D01*
X7693158Y-13449579D02*
X7683634Y-13440055D01*
X7683634Y-13440055D02*
X7664586Y-13411484D01*
X7664586Y-13411484D02*
X7655063Y-13392436D01*
X7655063Y-13392436D02*
X7645539Y-13363865D01*
X7645539Y-13363865D02*
X7636015Y-13316246D01*
X7636015Y-13316246D02*
X7636015Y-13278151D01*
X7636015Y-13278151D02*
X7645539Y-13230532D01*
X7645539Y-13230532D02*
X7655063Y-13201960D01*
X7655063Y-13201960D02*
X7664586Y-13182913D01*
X7664586Y-13182913D02*
X7683634Y-13154341D01*
X7683634Y-13154341D02*
X7693158Y-13144817D01*
X7750301Y-13173389D02*
X7883634Y-13173389D01*
X7883634Y-13173389D02*
X7797920Y-13373389D01*
X8112205Y-13373389D02*
X8112205Y-13173389D01*
X8197920Y-13373389D02*
X8197920Y-13268627D01*
X8197920Y-13268627D02*
X8188396Y-13249579D01*
X8188396Y-13249579D02*
X8169348Y-13240055D01*
X8169348Y-13240055D02*
X8140777Y-13240055D01*
X8140777Y-13240055D02*
X8121729Y-13249579D01*
X8121729Y-13249579D02*
X8112205Y-13259103D01*
X8321729Y-13373389D02*
X8302682Y-13363865D01*
X8302682Y-13363865D02*
X8293158Y-13354341D01*
X8293158Y-13354341D02*
X8283634Y-13335293D01*
X8283634Y-13335293D02*
X8283634Y-13278151D01*
X8283634Y-13278151D02*
X8293158Y-13259103D01*
X8293158Y-13259103D02*
X8302682Y-13249579D01*
X8302682Y-13249579D02*
X8321729Y-13240055D01*
X8321729Y-13240055D02*
X8350301Y-13240055D01*
X8350301Y-13240055D02*
X8369348Y-13249579D01*
X8369348Y-13249579D02*
X8378872Y-13259103D01*
X8378872Y-13259103D02*
X8388396Y-13278151D01*
X8388396Y-13278151D02*
X8388396Y-13335293D01*
X8388396Y-13335293D02*
X8378872Y-13354341D01*
X8378872Y-13354341D02*
X8369348Y-13363865D01*
X8369348Y-13363865D02*
X8350301Y-13373389D01*
X8350301Y-13373389D02*
X8321729Y-13373389D01*
X8502682Y-13373389D02*
X8483634Y-13363865D01*
X8483634Y-13363865D02*
X8474110Y-13344817D01*
X8474110Y-13344817D02*
X8474110Y-13173389D01*
X8655063Y-13363865D02*
X8636015Y-13373389D01*
X8636015Y-13373389D02*
X8597920Y-13373389D01*
X8597920Y-13373389D02*
X8578872Y-13363865D01*
X8578872Y-13363865D02*
X8569348Y-13344817D01*
X8569348Y-13344817D02*
X8569348Y-13268627D01*
X8569348Y-13268627D02*
X8578872Y-13249579D01*
X8578872Y-13249579D02*
X8597920Y-13240055D01*
X8597920Y-13240055D02*
X8636015Y-13240055D01*
X8636015Y-13240055D02*
X8655063Y-13249579D01*
X8655063Y-13249579D02*
X8664587Y-13268627D01*
X8664587Y-13268627D02*
X8664587Y-13287674D01*
X8664587Y-13287674D02*
X8569348Y-13306722D01*
X8740777Y-13363865D02*
X8759825Y-13373389D01*
X8759825Y-13373389D02*
X8797920Y-13373389D01*
X8797920Y-13373389D02*
X8816968Y-13363865D01*
X8816968Y-13363865D02*
X8826491Y-13344817D01*
X8826491Y-13344817D02*
X8826491Y-13335293D01*
X8826491Y-13335293D02*
X8816968Y-13316246D01*
X8816968Y-13316246D02*
X8797920Y-13306722D01*
X8797920Y-13306722D02*
X8769348Y-13306722D01*
X8769348Y-13306722D02*
X8750301Y-13297198D01*
X8750301Y-13297198D02*
X8740777Y-13278151D01*
X8740777Y-13278151D02*
X8740777Y-13268627D01*
X8740777Y-13268627D02*
X8750301Y-13249579D01*
X8750301Y-13249579D02*
X8769348Y-13240055D01*
X8769348Y-13240055D02*
X8797920Y-13240055D01*
X8797920Y-13240055D02*
X8816968Y-13249579D01*
X8893158Y-13449579D02*
X8902682Y-13440055D01*
X8902682Y-13440055D02*
X8921729Y-13411484D01*
X8921729Y-13411484D02*
X8931253Y-13392436D01*
X8931253Y-13392436D02*
X8940777Y-13363865D01*
X8940777Y-13363865D02*
X8950301Y-13316246D01*
X8950301Y-13316246D02*
X8950301Y-13278151D01*
X8950301Y-13278151D02*
X8940777Y-13230532D01*
X8940777Y-13230532D02*
X8931253Y-13201960D01*
X8931253Y-13201960D02*
X8921729Y-13182913D01*
X8921729Y-13182913D02*
X8902682Y-13154341D01*
X8902682Y-13154341D02*
X8893158Y-13144817D01*
D12*
X4118095Y-13545905D02*
G75*
G02*
X4038095Y-13545905I-40000J0D01*
G01*
X4038095Y-13545905D02*
G75*
G02*
X4118095Y-13545905I40000J0D01*
G01*
D11*
X4416967Y-13437389D02*
X4436015Y-13437389D01*
X4436015Y-13437389D02*
X4455062Y-13446913D01*
X4455062Y-13446913D02*
X4464586Y-13456436D01*
X4464586Y-13456436D02*
X4474110Y-13475484D01*
X4474110Y-13475484D02*
X4483634Y-13513579D01*
X4483634Y-13513579D02*
X4483634Y-13561198D01*
X4483634Y-13561198D02*
X4474110Y-13599293D01*
X4474110Y-13599293D02*
X4464586Y-13618341D01*
X4464586Y-13618341D02*
X4455062Y-13627865D01*
X4455062Y-13627865D02*
X4436015Y-13637389D01*
X4436015Y-13637389D02*
X4416967Y-13637389D01*
X4416967Y-13637389D02*
X4397919Y-13627865D01*
X4397919Y-13627865D02*
X4388396Y-13618341D01*
X4388396Y-13618341D02*
X4378872Y-13599293D01*
X4378872Y-13599293D02*
X4369348Y-13561198D01*
X4369348Y-13561198D02*
X4369348Y-13513579D01*
X4369348Y-13513579D02*
X4378872Y-13475484D01*
X4378872Y-13475484D02*
X4388396Y-13456436D01*
X4388396Y-13456436D02*
X4397919Y-13446913D01*
X4397919Y-13446913D02*
X4416967Y-13437389D01*
X4569348Y-13618341D02*
X4578872Y-13627865D01*
X4578872Y-13627865D02*
X4569348Y-13637389D01*
X4569348Y-13637389D02*
X4559824Y-13627865D01*
X4559824Y-13627865D02*
X4569348Y-13618341D01*
X4569348Y-13618341D02*
X4569348Y-13637389D01*
X4693158Y-13523103D02*
X4674110Y-13513579D01*
X4674110Y-13513579D02*
X4664586Y-13504055D01*
X4664586Y-13504055D02*
X4655062Y-13485008D01*
X4655062Y-13485008D02*
X4655062Y-13475484D01*
X4655062Y-13475484D02*
X4664586Y-13456436D01*
X4664586Y-13456436D02*
X4674110Y-13446913D01*
X4674110Y-13446913D02*
X4693158Y-13437389D01*
X4693158Y-13437389D02*
X4731253Y-13437389D01*
X4731253Y-13437389D02*
X4750300Y-13446913D01*
X4750300Y-13446913D02*
X4759824Y-13456436D01*
X4759824Y-13456436D02*
X4769348Y-13475484D01*
X4769348Y-13475484D02*
X4769348Y-13485008D01*
X4769348Y-13485008D02*
X4759824Y-13504055D01*
X4759824Y-13504055D02*
X4750300Y-13513579D01*
X4750300Y-13513579D02*
X4731253Y-13523103D01*
X4731253Y-13523103D02*
X4693158Y-13523103D01*
X4693158Y-13523103D02*
X4674110Y-13532627D01*
X4674110Y-13532627D02*
X4664586Y-13542151D01*
X4664586Y-13542151D02*
X4655062Y-13561198D01*
X4655062Y-13561198D02*
X4655062Y-13599293D01*
X4655062Y-13599293D02*
X4664586Y-13618341D01*
X4664586Y-13618341D02*
X4674110Y-13627865D01*
X4674110Y-13627865D02*
X4693158Y-13637389D01*
X4693158Y-13637389D02*
X4731253Y-13637389D01*
X4731253Y-13637389D02*
X4750300Y-13627865D01*
X4750300Y-13627865D02*
X4759824Y-13618341D01*
X4759824Y-13618341D02*
X4769348Y-13599293D01*
X4769348Y-13599293D02*
X4769348Y-13561198D01*
X4769348Y-13561198D02*
X4759824Y-13542151D01*
X4759824Y-13542151D02*
X4750300Y-13532627D01*
X4750300Y-13532627D02*
X4731253Y-13523103D01*
X4893158Y-13437389D02*
X4912205Y-13437389D01*
X4912205Y-13437389D02*
X4931253Y-13446913D01*
X4931253Y-13446913D02*
X4940777Y-13456436D01*
X4940777Y-13456436D02*
X4950300Y-13475484D01*
X4950300Y-13475484D02*
X4959824Y-13513579D01*
X4959824Y-13513579D02*
X4959824Y-13561198D01*
X4959824Y-13561198D02*
X4950300Y-13599293D01*
X4950300Y-13599293D02*
X4940777Y-13618341D01*
X4940777Y-13618341D02*
X4931253Y-13627865D01*
X4931253Y-13627865D02*
X4912205Y-13637389D01*
X4912205Y-13637389D02*
X4893158Y-13637389D01*
X4893158Y-13637389D02*
X4874110Y-13627865D01*
X4874110Y-13627865D02*
X4864586Y-13618341D01*
X4864586Y-13618341D02*
X4855062Y-13599293D01*
X4855062Y-13599293D02*
X4845539Y-13561198D01*
X4845539Y-13561198D02*
X4845539Y-13513579D01*
X4845539Y-13513579D02*
X4855062Y-13475484D01*
X4855062Y-13475484D02*
X4864586Y-13456436D01*
X4864586Y-13456436D02*
X4874110Y-13446913D01*
X4874110Y-13446913D02*
X4893158Y-13437389D01*
X5083634Y-13437389D02*
X5102681Y-13437389D01*
X5102681Y-13437389D02*
X5121729Y-13446913D01*
X5121729Y-13446913D02*
X5131253Y-13456436D01*
X5131253Y-13456436D02*
X5140777Y-13475484D01*
X5140777Y-13475484D02*
X5150300Y-13513579D01*
X5150300Y-13513579D02*
X5150300Y-13561198D01*
X5150300Y-13561198D02*
X5140777Y-13599293D01*
X5140777Y-13599293D02*
X5131253Y-13618341D01*
X5131253Y-13618341D02*
X5121729Y-13627865D01*
X5121729Y-13627865D02*
X5102681Y-13637389D01*
X5102681Y-13637389D02*
X5083634Y-13637389D01*
X5083634Y-13637389D02*
X5064586Y-13627865D01*
X5064586Y-13627865D02*
X5055062Y-13618341D01*
X5055062Y-13618341D02*
X5045539Y-13599293D01*
X5045539Y-13599293D02*
X5036015Y-13561198D01*
X5036015Y-13561198D02*
X5036015Y-13513579D01*
X5036015Y-13513579D02*
X5045539Y-13475484D01*
X5045539Y-13475484D02*
X5055062Y-13456436D01*
X5055062Y-13456436D02*
X5064586Y-13446913D01*
X5064586Y-13446913D02*
X5083634Y-13437389D01*
X5236015Y-13637389D02*
X5236015Y-13504055D01*
X5236015Y-13523103D02*
X5245539Y-13513579D01*
X5245539Y-13513579D02*
X5264586Y-13504055D01*
X5264586Y-13504055D02*
X5293158Y-13504055D01*
X5293158Y-13504055D02*
X5312205Y-13513579D01*
X5312205Y-13513579D02*
X5321729Y-13532627D01*
X5321729Y-13532627D02*
X5321729Y-13637389D01*
X5321729Y-13532627D02*
X5331253Y-13513579D01*
X5331253Y-13513579D02*
X5350300Y-13504055D01*
X5350300Y-13504055D02*
X5378872Y-13504055D01*
X5378872Y-13504055D02*
X5397920Y-13513579D01*
X5397920Y-13513579D02*
X5407443Y-13532627D01*
X5407443Y-13532627D02*
X5407443Y-13637389D01*
X5502681Y-13637389D02*
X5502681Y-13504055D01*
X5502681Y-13523103D02*
X5512205Y-13513579D01*
X5512205Y-13513579D02*
X5531253Y-13504055D01*
X5531253Y-13504055D02*
X5559824Y-13504055D01*
X5559824Y-13504055D02*
X5578872Y-13513579D01*
X5578872Y-13513579D02*
X5588396Y-13532627D01*
X5588396Y-13532627D02*
X5588396Y-13637389D01*
X5588396Y-13532627D02*
X5597919Y-13513579D01*
X5597919Y-13513579D02*
X5616967Y-13504055D01*
X5616967Y-13504055D02*
X5645538Y-13504055D01*
X5645538Y-13504055D02*
X5664586Y-13513579D01*
X5664586Y-13513579D02*
X5674110Y-13532627D01*
X5674110Y-13532627D02*
X5674110Y-13637389D01*
X6064586Y-13427865D02*
X5893158Y-13685008D01*
X6321729Y-13437389D02*
X6340777Y-13437389D01*
X6340777Y-13437389D02*
X6359824Y-13446913D01*
X6359824Y-13446913D02*
X6369348Y-13456436D01*
X6369348Y-13456436D02*
X6378872Y-13475484D01*
X6378872Y-13475484D02*
X6388396Y-13513579D01*
X6388396Y-13513579D02*
X6388396Y-13561198D01*
X6388396Y-13561198D02*
X6378872Y-13599293D01*
X6378872Y-13599293D02*
X6369348Y-13618341D01*
X6369348Y-13618341D02*
X6359824Y-13627865D01*
X6359824Y-13627865D02*
X6340777Y-13637389D01*
X6340777Y-13637389D02*
X6321729Y-13637389D01*
X6321729Y-13637389D02*
X6302681Y-13627865D01*
X6302681Y-13627865D02*
X6293158Y-13618341D01*
X6293158Y-13618341D02*
X6283634Y-13599293D01*
X6283634Y-13599293D02*
X6274110Y-13561198D01*
X6274110Y-13561198D02*
X6274110Y-13513579D01*
X6274110Y-13513579D02*
X6283634Y-13475484D01*
X6283634Y-13475484D02*
X6293158Y-13456436D01*
X6293158Y-13456436D02*
X6302681Y-13446913D01*
X6302681Y-13446913D02*
X6321729Y-13437389D01*
X6474110Y-13618341D02*
X6483634Y-13627865D01*
X6483634Y-13627865D02*
X6474110Y-13637389D01*
X6474110Y-13637389D02*
X6464586Y-13627865D01*
X6464586Y-13627865D02*
X6474110Y-13618341D01*
X6474110Y-13618341D02*
X6474110Y-13637389D01*
X6607443Y-13437389D02*
X6626491Y-13437389D01*
X6626491Y-13437389D02*
X6645539Y-13446913D01*
X6645539Y-13446913D02*
X6655062Y-13456436D01*
X6655062Y-13456436D02*
X6664586Y-13475484D01*
X6664586Y-13475484D02*
X6674110Y-13513579D01*
X6674110Y-13513579D02*
X6674110Y-13561198D01*
X6674110Y-13561198D02*
X6664586Y-13599293D01*
X6664586Y-13599293D02*
X6655062Y-13618341D01*
X6655062Y-13618341D02*
X6645539Y-13627865D01*
X6645539Y-13627865D02*
X6626491Y-13637389D01*
X6626491Y-13637389D02*
X6607443Y-13637389D01*
X6607443Y-13637389D02*
X6588396Y-13627865D01*
X6588396Y-13627865D02*
X6578872Y-13618341D01*
X6578872Y-13618341D02*
X6569348Y-13599293D01*
X6569348Y-13599293D02*
X6559824Y-13561198D01*
X6559824Y-13561198D02*
X6559824Y-13513579D01*
X6559824Y-13513579D02*
X6569348Y-13475484D01*
X6569348Y-13475484D02*
X6578872Y-13456436D01*
X6578872Y-13456436D02*
X6588396Y-13446913D01*
X6588396Y-13446913D02*
X6607443Y-13437389D01*
X6740777Y-13437389D02*
X6864586Y-13437389D01*
X6864586Y-13437389D02*
X6797920Y-13513579D01*
X6797920Y-13513579D02*
X6826491Y-13513579D01*
X6826491Y-13513579D02*
X6845539Y-13523103D01*
X6845539Y-13523103D02*
X6855062Y-13532627D01*
X6855062Y-13532627D02*
X6864586Y-13551674D01*
X6864586Y-13551674D02*
X6864586Y-13599293D01*
X6864586Y-13599293D02*
X6855062Y-13618341D01*
X6855062Y-13618341D02*
X6845539Y-13627865D01*
X6845539Y-13627865D02*
X6826491Y-13637389D01*
X6826491Y-13637389D02*
X6769348Y-13637389D01*
X6769348Y-13637389D02*
X6750301Y-13627865D01*
X6750301Y-13627865D02*
X6740777Y-13618341D01*
X7055062Y-13637389D02*
X6940777Y-13637389D01*
X6997920Y-13637389D02*
X6997920Y-13437389D01*
X6997920Y-13437389D02*
X6978872Y-13465960D01*
X6978872Y-13465960D02*
X6959824Y-13485008D01*
X6959824Y-13485008D02*
X6940777Y-13494532D01*
X7236015Y-13437389D02*
X7140777Y-13437389D01*
X7140777Y-13437389D02*
X7131253Y-13532627D01*
X7131253Y-13532627D02*
X7140777Y-13523103D01*
X7140777Y-13523103D02*
X7159824Y-13513579D01*
X7159824Y-13513579D02*
X7207443Y-13513579D01*
X7207443Y-13513579D02*
X7226491Y-13523103D01*
X7226491Y-13523103D02*
X7236015Y-13532627D01*
X7236015Y-13532627D02*
X7245539Y-13551674D01*
X7245539Y-13551674D02*
X7245539Y-13599293D01*
X7245539Y-13599293D02*
X7236015Y-13618341D01*
X7236015Y-13618341D02*
X7226491Y-13627865D01*
X7226491Y-13627865D02*
X7207443Y-13637389D01*
X7207443Y-13637389D02*
X7159824Y-13637389D01*
X7159824Y-13637389D02*
X7140777Y-13627865D01*
X7140777Y-13627865D02*
X7131253Y-13618341D01*
X7321729Y-13437389D02*
X7321729Y-13475484D01*
X7397920Y-13437389D02*
X7397920Y-13475484D01*
X7693158Y-13713579D02*
X7683634Y-13704055D01*
X7683634Y-13704055D02*
X7664586Y-13675484D01*
X7664586Y-13675484D02*
X7655063Y-13656436D01*
X7655063Y-13656436D02*
X7645539Y-13627865D01*
X7645539Y-13627865D02*
X7636015Y-13580246D01*
X7636015Y-13580246D02*
X7636015Y-13542151D01*
X7636015Y-13542151D02*
X7645539Y-13494532D01*
X7645539Y-13494532D02*
X7655063Y-13465960D01*
X7655063Y-13465960D02*
X7664586Y-13446913D01*
X7664586Y-13446913D02*
X7683634Y-13418341D01*
X7683634Y-13418341D02*
X7693158Y-13408817D01*
X7864586Y-13437389D02*
X7769348Y-13437389D01*
X7769348Y-13437389D02*
X7759824Y-13532627D01*
X7759824Y-13532627D02*
X7769348Y-13523103D01*
X7769348Y-13523103D02*
X7788396Y-13513579D01*
X7788396Y-13513579D02*
X7836015Y-13513579D01*
X7836015Y-13513579D02*
X7855063Y-13523103D01*
X7855063Y-13523103D02*
X7864586Y-13532627D01*
X7864586Y-13532627D02*
X7874110Y-13551674D01*
X7874110Y-13551674D02*
X7874110Y-13599293D01*
X7874110Y-13599293D02*
X7864586Y-13618341D01*
X7864586Y-13618341D02*
X7855063Y-13627865D01*
X7855063Y-13627865D02*
X7836015Y-13637389D01*
X7836015Y-13637389D02*
X7788396Y-13637389D01*
X7788396Y-13637389D02*
X7769348Y-13627865D01*
X7769348Y-13627865D02*
X7759824Y-13618341D01*
X7950301Y-13456436D02*
X7959824Y-13446913D01*
X7959824Y-13446913D02*
X7978872Y-13437389D01*
X7978872Y-13437389D02*
X8026491Y-13437389D01*
X8026491Y-13437389D02*
X8045539Y-13446913D01*
X8045539Y-13446913D02*
X8055063Y-13456436D01*
X8055063Y-13456436D02*
X8064586Y-13475484D01*
X8064586Y-13475484D02*
X8064586Y-13494532D01*
X8064586Y-13494532D02*
X8055063Y-13523103D01*
X8055063Y-13523103D02*
X7940777Y-13637389D01*
X7940777Y-13637389D02*
X8064586Y-13637389D01*
X8302682Y-13637389D02*
X8302682Y-13437389D01*
X8388396Y-13637389D02*
X8388396Y-13532627D01*
X8388396Y-13532627D02*
X8378872Y-13513579D01*
X8378872Y-13513579D02*
X8359825Y-13504055D01*
X8359825Y-13504055D02*
X8331253Y-13504055D01*
X8331253Y-13504055D02*
X8312205Y-13513579D01*
X8312205Y-13513579D02*
X8302682Y-13523103D01*
X8512206Y-13637389D02*
X8493158Y-13627865D01*
X8493158Y-13627865D02*
X8483634Y-13618341D01*
X8483634Y-13618341D02*
X8474110Y-13599293D01*
X8474110Y-13599293D02*
X8474110Y-13542151D01*
X8474110Y-13542151D02*
X8483634Y-13523103D01*
X8483634Y-13523103D02*
X8493158Y-13513579D01*
X8493158Y-13513579D02*
X8512206Y-13504055D01*
X8512206Y-13504055D02*
X8540777Y-13504055D01*
X8540777Y-13504055D02*
X8559825Y-13513579D01*
X8559825Y-13513579D02*
X8569348Y-13523103D01*
X8569348Y-13523103D02*
X8578872Y-13542151D01*
X8578872Y-13542151D02*
X8578872Y-13599293D01*
X8578872Y-13599293D02*
X8569348Y-13618341D01*
X8569348Y-13618341D02*
X8559825Y-13627865D01*
X8559825Y-13627865D02*
X8540777Y-13637389D01*
X8540777Y-13637389D02*
X8512206Y-13637389D01*
X8693158Y-13637389D02*
X8674110Y-13627865D01*
X8674110Y-13627865D02*
X8664587Y-13608817D01*
X8664587Y-13608817D02*
X8664587Y-13437389D01*
X8845539Y-13627865D02*
X8826491Y-13637389D01*
X8826491Y-13637389D02*
X8788396Y-13637389D01*
X8788396Y-13637389D02*
X8769348Y-13627865D01*
X8769348Y-13627865D02*
X8759825Y-13608817D01*
X8759825Y-13608817D02*
X8759825Y-13532627D01*
X8759825Y-13532627D02*
X8769348Y-13513579D01*
X8769348Y-13513579D02*
X8788396Y-13504055D01*
X8788396Y-13504055D02*
X8826491Y-13504055D01*
X8826491Y-13504055D02*
X8845539Y-13513579D01*
X8845539Y-13513579D02*
X8855063Y-13532627D01*
X8855063Y-13532627D02*
X8855063Y-13551674D01*
X8855063Y-13551674D02*
X8759825Y-13570722D01*
X8931253Y-13627865D02*
X8950301Y-13637389D01*
X8950301Y-13637389D02*
X8988396Y-13637389D01*
X8988396Y-13637389D02*
X9007444Y-13627865D01*
X9007444Y-13627865D02*
X9016968Y-13608817D01*
X9016968Y-13608817D02*
X9016968Y-13599293D01*
X9016968Y-13599293D02*
X9007444Y-13580246D01*
X9007444Y-13580246D02*
X8988396Y-13570722D01*
X8988396Y-13570722D02*
X8959825Y-13570722D01*
X8959825Y-13570722D02*
X8940777Y-13561198D01*
X8940777Y-13561198D02*
X8931253Y-13542151D01*
X8931253Y-13542151D02*
X8931253Y-13532627D01*
X8931253Y-13532627D02*
X8940777Y-13513579D01*
X8940777Y-13513579D02*
X8959825Y-13504055D01*
X8959825Y-13504055D02*
X8988396Y-13504055D01*
X8988396Y-13504055D02*
X9007444Y-13513579D01*
X9083634Y-13713579D02*
X9093158Y-13704055D01*
X9093158Y-13704055D02*
X9112206Y-13675484D01*
X9112206Y-13675484D02*
X9121729Y-13656436D01*
X9121729Y-13656436D02*
X9131253Y-13627865D01*
X9131253Y-13627865D02*
X9140777Y-13580246D01*
X9140777Y-13580246D02*
X9140777Y-13542151D01*
X9140777Y-13542151D02*
X9131253Y-13494532D01*
X9131253Y-13494532D02*
X9121729Y-13465960D01*
X9121729Y-13465960D02*
X9112206Y-13446913D01*
X9112206Y-13446913D02*
X9093158Y-13418341D01*
X9093158Y-13418341D02*
X9083634Y-13408817D01*
D12*
X4068095Y-13759905D02*
X4068095Y-13859905D01*
X4018095Y-13809905D02*
X4118095Y-13809905D01*
D11*
X4483634Y-13901389D02*
X4369348Y-13901389D01*
X4426491Y-13901389D02*
X4426491Y-13701389D01*
X4426491Y-13701389D02*
X4407443Y-13729960D01*
X4407443Y-13729960D02*
X4388396Y-13749008D01*
X4388396Y-13749008D02*
X4369348Y-13758532D01*
X4569348Y-13882341D02*
X4578872Y-13891865D01*
X4578872Y-13891865D02*
X4569348Y-13901389D01*
X4569348Y-13901389D02*
X4559824Y-13891865D01*
X4559824Y-13891865D02*
X4569348Y-13882341D01*
X4569348Y-13882341D02*
X4569348Y-13901389D01*
X4702681Y-13701389D02*
X4721729Y-13701389D01*
X4721729Y-13701389D02*
X4740777Y-13710913D01*
X4740777Y-13710913D02*
X4750300Y-13720436D01*
X4750300Y-13720436D02*
X4759824Y-13739484D01*
X4759824Y-13739484D02*
X4769348Y-13777579D01*
X4769348Y-13777579D02*
X4769348Y-13825198D01*
X4769348Y-13825198D02*
X4759824Y-13863293D01*
X4759824Y-13863293D02*
X4750300Y-13882341D01*
X4750300Y-13882341D02*
X4740777Y-13891865D01*
X4740777Y-13891865D02*
X4721729Y-13901389D01*
X4721729Y-13901389D02*
X4702681Y-13901389D01*
X4702681Y-13901389D02*
X4683634Y-13891865D01*
X4683634Y-13891865D02*
X4674110Y-13882341D01*
X4674110Y-13882341D02*
X4664586Y-13863293D01*
X4664586Y-13863293D02*
X4655062Y-13825198D01*
X4655062Y-13825198D02*
X4655062Y-13777579D01*
X4655062Y-13777579D02*
X4664586Y-13739484D01*
X4664586Y-13739484D02*
X4674110Y-13720436D01*
X4674110Y-13720436D02*
X4683634Y-13710913D01*
X4683634Y-13710913D02*
X4702681Y-13701389D01*
X4893158Y-13701389D02*
X4912205Y-13701389D01*
X4912205Y-13701389D02*
X4931253Y-13710913D01*
X4931253Y-13710913D02*
X4940777Y-13720436D01*
X4940777Y-13720436D02*
X4950300Y-13739484D01*
X4950300Y-13739484D02*
X4959824Y-13777579D01*
X4959824Y-13777579D02*
X4959824Y-13825198D01*
X4959824Y-13825198D02*
X4950300Y-13863293D01*
X4950300Y-13863293D02*
X4940777Y-13882341D01*
X4940777Y-13882341D02*
X4931253Y-13891865D01*
X4931253Y-13891865D02*
X4912205Y-13901389D01*
X4912205Y-13901389D02*
X4893158Y-13901389D01*
X4893158Y-13901389D02*
X4874110Y-13891865D01*
X4874110Y-13891865D02*
X4864586Y-13882341D01*
X4864586Y-13882341D02*
X4855062Y-13863293D01*
X4855062Y-13863293D02*
X4845539Y-13825198D01*
X4845539Y-13825198D02*
X4845539Y-13777579D01*
X4845539Y-13777579D02*
X4855062Y-13739484D01*
X4855062Y-13739484D02*
X4864586Y-13720436D01*
X4864586Y-13720436D02*
X4874110Y-13710913D01*
X4874110Y-13710913D02*
X4893158Y-13701389D01*
X5083634Y-13701389D02*
X5102681Y-13701389D01*
X5102681Y-13701389D02*
X5121729Y-13710913D01*
X5121729Y-13710913D02*
X5131253Y-13720436D01*
X5131253Y-13720436D02*
X5140777Y-13739484D01*
X5140777Y-13739484D02*
X5150300Y-13777579D01*
X5150300Y-13777579D02*
X5150300Y-13825198D01*
X5150300Y-13825198D02*
X5140777Y-13863293D01*
X5140777Y-13863293D02*
X5131253Y-13882341D01*
X5131253Y-13882341D02*
X5121729Y-13891865D01*
X5121729Y-13891865D02*
X5102681Y-13901389D01*
X5102681Y-13901389D02*
X5083634Y-13901389D01*
X5083634Y-13901389D02*
X5064586Y-13891865D01*
X5064586Y-13891865D02*
X5055062Y-13882341D01*
X5055062Y-13882341D02*
X5045539Y-13863293D01*
X5045539Y-13863293D02*
X5036015Y-13825198D01*
X5036015Y-13825198D02*
X5036015Y-13777579D01*
X5036015Y-13777579D02*
X5045539Y-13739484D01*
X5045539Y-13739484D02*
X5055062Y-13720436D01*
X5055062Y-13720436D02*
X5064586Y-13710913D01*
X5064586Y-13710913D02*
X5083634Y-13701389D01*
X5236015Y-13901389D02*
X5236015Y-13768055D01*
X5236015Y-13787103D02*
X5245539Y-13777579D01*
X5245539Y-13777579D02*
X5264586Y-13768055D01*
X5264586Y-13768055D02*
X5293158Y-13768055D01*
X5293158Y-13768055D02*
X5312205Y-13777579D01*
X5312205Y-13777579D02*
X5321729Y-13796627D01*
X5321729Y-13796627D02*
X5321729Y-13901389D01*
X5321729Y-13796627D02*
X5331253Y-13777579D01*
X5331253Y-13777579D02*
X5350300Y-13768055D01*
X5350300Y-13768055D02*
X5378872Y-13768055D01*
X5378872Y-13768055D02*
X5397920Y-13777579D01*
X5397920Y-13777579D02*
X5407443Y-13796627D01*
X5407443Y-13796627D02*
X5407443Y-13901389D01*
X5502681Y-13901389D02*
X5502681Y-13768055D01*
X5502681Y-13787103D02*
X5512205Y-13777579D01*
X5512205Y-13777579D02*
X5531253Y-13768055D01*
X5531253Y-13768055D02*
X5559824Y-13768055D01*
X5559824Y-13768055D02*
X5578872Y-13777579D01*
X5578872Y-13777579D02*
X5588396Y-13796627D01*
X5588396Y-13796627D02*
X5588396Y-13901389D01*
X5588396Y-13796627D02*
X5597919Y-13777579D01*
X5597919Y-13777579D02*
X5616967Y-13768055D01*
X5616967Y-13768055D02*
X5645538Y-13768055D01*
X5645538Y-13768055D02*
X5664586Y-13777579D01*
X5664586Y-13777579D02*
X5674110Y-13796627D01*
X5674110Y-13796627D02*
X5674110Y-13901389D01*
X6064586Y-13691865D02*
X5893158Y-13949008D01*
X6321729Y-13701389D02*
X6340777Y-13701389D01*
X6340777Y-13701389D02*
X6359824Y-13710913D01*
X6359824Y-13710913D02*
X6369348Y-13720436D01*
X6369348Y-13720436D02*
X6378872Y-13739484D01*
X6378872Y-13739484D02*
X6388396Y-13777579D01*
X6388396Y-13777579D02*
X6388396Y-13825198D01*
X6388396Y-13825198D02*
X6378872Y-13863293D01*
X6378872Y-13863293D02*
X6369348Y-13882341D01*
X6369348Y-13882341D02*
X6359824Y-13891865D01*
X6359824Y-13891865D02*
X6340777Y-13901389D01*
X6340777Y-13901389D02*
X6321729Y-13901389D01*
X6321729Y-13901389D02*
X6302681Y-13891865D01*
X6302681Y-13891865D02*
X6293158Y-13882341D01*
X6293158Y-13882341D02*
X6283634Y-13863293D01*
X6283634Y-13863293D02*
X6274110Y-13825198D01*
X6274110Y-13825198D02*
X6274110Y-13777579D01*
X6274110Y-13777579D02*
X6283634Y-13739484D01*
X6283634Y-13739484D02*
X6293158Y-13720436D01*
X6293158Y-13720436D02*
X6302681Y-13710913D01*
X6302681Y-13710913D02*
X6321729Y-13701389D01*
X6474110Y-13882341D02*
X6483634Y-13891865D01*
X6483634Y-13891865D02*
X6474110Y-13901389D01*
X6474110Y-13901389D02*
X6464586Y-13891865D01*
X6464586Y-13891865D02*
X6474110Y-13882341D01*
X6474110Y-13882341D02*
X6474110Y-13901389D01*
X6607443Y-13701389D02*
X6626491Y-13701389D01*
X6626491Y-13701389D02*
X6645539Y-13710913D01*
X6645539Y-13710913D02*
X6655062Y-13720436D01*
X6655062Y-13720436D02*
X6664586Y-13739484D01*
X6664586Y-13739484D02*
X6674110Y-13777579D01*
X6674110Y-13777579D02*
X6674110Y-13825198D01*
X6674110Y-13825198D02*
X6664586Y-13863293D01*
X6664586Y-13863293D02*
X6655062Y-13882341D01*
X6655062Y-13882341D02*
X6645539Y-13891865D01*
X6645539Y-13891865D02*
X6626491Y-13901389D01*
X6626491Y-13901389D02*
X6607443Y-13901389D01*
X6607443Y-13901389D02*
X6588396Y-13891865D01*
X6588396Y-13891865D02*
X6578872Y-13882341D01*
X6578872Y-13882341D02*
X6569348Y-13863293D01*
X6569348Y-13863293D02*
X6559824Y-13825198D01*
X6559824Y-13825198D02*
X6559824Y-13777579D01*
X6559824Y-13777579D02*
X6569348Y-13739484D01*
X6569348Y-13739484D02*
X6578872Y-13720436D01*
X6578872Y-13720436D02*
X6588396Y-13710913D01*
X6588396Y-13710913D02*
X6607443Y-13701389D01*
X6740777Y-13701389D02*
X6864586Y-13701389D01*
X6864586Y-13701389D02*
X6797920Y-13777579D01*
X6797920Y-13777579D02*
X6826491Y-13777579D01*
X6826491Y-13777579D02*
X6845539Y-13787103D01*
X6845539Y-13787103D02*
X6855062Y-13796627D01*
X6855062Y-13796627D02*
X6864586Y-13815674D01*
X6864586Y-13815674D02*
X6864586Y-13863293D01*
X6864586Y-13863293D02*
X6855062Y-13882341D01*
X6855062Y-13882341D02*
X6845539Y-13891865D01*
X6845539Y-13891865D02*
X6826491Y-13901389D01*
X6826491Y-13901389D02*
X6769348Y-13901389D01*
X6769348Y-13901389D02*
X6750301Y-13891865D01*
X6750301Y-13891865D02*
X6740777Y-13882341D01*
X6959824Y-13901389D02*
X6997920Y-13901389D01*
X6997920Y-13901389D02*
X7016967Y-13891865D01*
X7016967Y-13891865D02*
X7026491Y-13882341D01*
X7026491Y-13882341D02*
X7045539Y-13853770D01*
X7045539Y-13853770D02*
X7055062Y-13815674D01*
X7055062Y-13815674D02*
X7055062Y-13739484D01*
X7055062Y-13739484D02*
X7045539Y-13720436D01*
X7045539Y-13720436D02*
X7036015Y-13710913D01*
X7036015Y-13710913D02*
X7016967Y-13701389D01*
X7016967Y-13701389D02*
X6978872Y-13701389D01*
X6978872Y-13701389D02*
X6959824Y-13710913D01*
X6959824Y-13710913D02*
X6950301Y-13720436D01*
X6950301Y-13720436D02*
X6940777Y-13739484D01*
X6940777Y-13739484D02*
X6940777Y-13787103D01*
X6940777Y-13787103D02*
X6950301Y-13806151D01*
X6950301Y-13806151D02*
X6959824Y-13815674D01*
X6959824Y-13815674D02*
X6978872Y-13825198D01*
X6978872Y-13825198D02*
X7016967Y-13825198D01*
X7016967Y-13825198D02*
X7036015Y-13815674D01*
X7036015Y-13815674D02*
X7045539Y-13806151D01*
X7045539Y-13806151D02*
X7055062Y-13787103D01*
X7226491Y-13768055D02*
X7226491Y-13901389D01*
X7178872Y-13691865D02*
X7131253Y-13834722D01*
X7131253Y-13834722D02*
X7255062Y-13834722D01*
X7321729Y-13701389D02*
X7321729Y-13739484D01*
X7397920Y-13701389D02*
X7397920Y-13739484D01*
X7693158Y-13977579D02*
X7683634Y-13968055D01*
X7683634Y-13968055D02*
X7664586Y-13939484D01*
X7664586Y-13939484D02*
X7655063Y-13920436D01*
X7655063Y-13920436D02*
X7645539Y-13891865D01*
X7645539Y-13891865D02*
X7636015Y-13844246D01*
X7636015Y-13844246D02*
X7636015Y-13806151D01*
X7636015Y-13806151D02*
X7645539Y-13758532D01*
X7645539Y-13758532D02*
X7655063Y-13729960D01*
X7655063Y-13729960D02*
X7664586Y-13710913D01*
X7664586Y-13710913D02*
X7683634Y-13682341D01*
X7683634Y-13682341D02*
X7693158Y-13672817D01*
X7874110Y-13901389D02*
X7759824Y-13901389D01*
X7816967Y-13901389D02*
X7816967Y-13701389D01*
X7816967Y-13701389D02*
X7797920Y-13729960D01*
X7797920Y-13729960D02*
X7778872Y-13749008D01*
X7778872Y-13749008D02*
X7759824Y-13758532D01*
X7997920Y-13701389D02*
X8016967Y-13701389D01*
X8016967Y-13701389D02*
X8036015Y-13710913D01*
X8036015Y-13710913D02*
X8045539Y-13720436D01*
X8045539Y-13720436D02*
X8055063Y-13739484D01*
X8055063Y-13739484D02*
X8064586Y-13777579D01*
X8064586Y-13777579D02*
X8064586Y-13825198D01*
X8064586Y-13825198D02*
X8055063Y-13863293D01*
X8055063Y-13863293D02*
X8045539Y-13882341D01*
X8045539Y-13882341D02*
X8036015Y-13891865D01*
X8036015Y-13891865D02*
X8016967Y-13901389D01*
X8016967Y-13901389D02*
X7997920Y-13901389D01*
X7997920Y-13901389D02*
X7978872Y-13891865D01*
X7978872Y-13891865D02*
X7969348Y-13882341D01*
X7969348Y-13882341D02*
X7959824Y-13863293D01*
X7959824Y-13863293D02*
X7950301Y-13825198D01*
X7950301Y-13825198D02*
X7950301Y-13777579D01*
X7950301Y-13777579D02*
X7959824Y-13739484D01*
X7959824Y-13739484D02*
X7969348Y-13720436D01*
X7969348Y-13720436D02*
X7978872Y-13710913D01*
X7978872Y-13710913D02*
X7997920Y-13701389D01*
X8302682Y-13901389D02*
X8302682Y-13701389D01*
X8388396Y-13901389D02*
X8388396Y-13796627D01*
X8388396Y-13796627D02*
X8378872Y-13777579D01*
X8378872Y-13777579D02*
X8359825Y-13768055D01*
X8359825Y-13768055D02*
X8331253Y-13768055D01*
X8331253Y-13768055D02*
X8312205Y-13777579D01*
X8312205Y-13777579D02*
X8302682Y-13787103D01*
X8512206Y-13901389D02*
X8493158Y-13891865D01*
X8493158Y-13891865D02*
X8483634Y-13882341D01*
X8483634Y-13882341D02*
X8474110Y-13863293D01*
X8474110Y-13863293D02*
X8474110Y-13806151D01*
X8474110Y-13806151D02*
X8483634Y-13787103D01*
X8483634Y-13787103D02*
X8493158Y-13777579D01*
X8493158Y-13777579D02*
X8512206Y-13768055D01*
X8512206Y-13768055D02*
X8540777Y-13768055D01*
X8540777Y-13768055D02*
X8559825Y-13777579D01*
X8559825Y-13777579D02*
X8569348Y-13787103D01*
X8569348Y-13787103D02*
X8578872Y-13806151D01*
X8578872Y-13806151D02*
X8578872Y-13863293D01*
X8578872Y-13863293D02*
X8569348Y-13882341D01*
X8569348Y-13882341D02*
X8559825Y-13891865D01*
X8559825Y-13891865D02*
X8540777Y-13901389D01*
X8540777Y-13901389D02*
X8512206Y-13901389D01*
X8693158Y-13901389D02*
X8674110Y-13891865D01*
X8674110Y-13891865D02*
X8664587Y-13872817D01*
X8664587Y-13872817D02*
X8664587Y-13701389D01*
X8845539Y-13891865D02*
X8826491Y-13901389D01*
X8826491Y-13901389D02*
X8788396Y-13901389D01*
X8788396Y-13901389D02*
X8769348Y-13891865D01*
X8769348Y-13891865D02*
X8759825Y-13872817D01*
X8759825Y-13872817D02*
X8759825Y-13796627D01*
X8759825Y-13796627D02*
X8769348Y-13777579D01*
X8769348Y-13777579D02*
X8788396Y-13768055D01*
X8788396Y-13768055D02*
X8826491Y-13768055D01*
X8826491Y-13768055D02*
X8845539Y-13777579D01*
X8845539Y-13777579D02*
X8855063Y-13796627D01*
X8855063Y-13796627D02*
X8855063Y-13815674D01*
X8855063Y-13815674D02*
X8759825Y-13834722D01*
X8931253Y-13891865D02*
X8950301Y-13901389D01*
X8950301Y-13901389D02*
X8988396Y-13901389D01*
X8988396Y-13901389D02*
X9007444Y-13891865D01*
X9007444Y-13891865D02*
X9016968Y-13872817D01*
X9016968Y-13872817D02*
X9016968Y-13863293D01*
X9016968Y-13863293D02*
X9007444Y-13844246D01*
X9007444Y-13844246D02*
X8988396Y-13834722D01*
X8988396Y-13834722D02*
X8959825Y-13834722D01*
X8959825Y-13834722D02*
X8940777Y-13825198D01*
X8940777Y-13825198D02*
X8931253Y-13806151D01*
X8931253Y-13806151D02*
X8931253Y-13796627D01*
X8931253Y-13796627D02*
X8940777Y-13777579D01*
X8940777Y-13777579D02*
X8959825Y-13768055D01*
X8959825Y-13768055D02*
X8988396Y-13768055D01*
X8988396Y-13768055D02*
X9007444Y-13777579D01*
X9083634Y-13977579D02*
X9093158Y-13968055D01*
X9093158Y-13968055D02*
X9112206Y-13939484D01*
X9112206Y-13939484D02*
X9121729Y-13920436D01*
X9121729Y-13920436D02*
X9131253Y-13891865D01*
X9131253Y-13891865D02*
X9140777Y-13844246D01*
X9140777Y-13844246D02*
X9140777Y-13806151D01*
X9140777Y-13806151D02*
X9131253Y-13758532D01*
X9131253Y-13758532D02*
X9121729Y-13729960D01*
X9121729Y-13729960D02*
X9112206Y-13710913D01*
X9112206Y-13710913D02*
X9093158Y-13682341D01*
X9093158Y-13682341D02*
X9083634Y-13672817D01*
D13*
X4101986Y-14112796D02*
X4101986Y-14035014D01*
X4024204Y-14035014D01*
X4024204Y-14112796D01*
X4101986Y-14112796D01*
D11*
X4483634Y-14165389D02*
X4369348Y-14165389D01*
X4426491Y-14165389D02*
X4426491Y-13965389D01*
X4426491Y-13965389D02*
X4407443Y-13993960D01*
X4407443Y-13993960D02*
X4388396Y-14013008D01*
X4388396Y-14013008D02*
X4369348Y-14022532D01*
X4569348Y-14146341D02*
X4578872Y-14155865D01*
X4578872Y-14155865D02*
X4569348Y-14165389D01*
X4569348Y-14165389D02*
X4559824Y-14155865D01*
X4559824Y-14155865D02*
X4569348Y-14146341D01*
X4569348Y-14146341D02*
X4569348Y-14165389D01*
X4769348Y-14165389D02*
X4655062Y-14165389D01*
X4712205Y-14165389D02*
X4712205Y-13965389D01*
X4712205Y-13965389D02*
X4693158Y-13993960D01*
X4693158Y-13993960D02*
X4674110Y-14013008D01*
X4674110Y-14013008D02*
X4655062Y-14022532D01*
X4893158Y-13965389D02*
X4912205Y-13965389D01*
X4912205Y-13965389D02*
X4931253Y-13974913D01*
X4931253Y-13974913D02*
X4940777Y-13984436D01*
X4940777Y-13984436D02*
X4950300Y-14003484D01*
X4950300Y-14003484D02*
X4959824Y-14041579D01*
X4959824Y-14041579D02*
X4959824Y-14089198D01*
X4959824Y-14089198D02*
X4950300Y-14127293D01*
X4950300Y-14127293D02*
X4940777Y-14146341D01*
X4940777Y-14146341D02*
X4931253Y-14155865D01*
X4931253Y-14155865D02*
X4912205Y-14165389D01*
X4912205Y-14165389D02*
X4893158Y-14165389D01*
X4893158Y-14165389D02*
X4874110Y-14155865D01*
X4874110Y-14155865D02*
X4864586Y-14146341D01*
X4864586Y-14146341D02*
X4855062Y-14127293D01*
X4855062Y-14127293D02*
X4845539Y-14089198D01*
X4845539Y-14089198D02*
X4845539Y-14041579D01*
X4845539Y-14041579D02*
X4855062Y-14003484D01*
X4855062Y-14003484D02*
X4864586Y-13984436D01*
X4864586Y-13984436D02*
X4874110Y-13974913D01*
X4874110Y-13974913D02*
X4893158Y-13965389D01*
X5083634Y-13965389D02*
X5102681Y-13965389D01*
X5102681Y-13965389D02*
X5121729Y-13974913D01*
X5121729Y-13974913D02*
X5131253Y-13984436D01*
X5131253Y-13984436D02*
X5140777Y-14003484D01*
X5140777Y-14003484D02*
X5150300Y-14041579D01*
X5150300Y-14041579D02*
X5150300Y-14089198D01*
X5150300Y-14089198D02*
X5140777Y-14127293D01*
X5140777Y-14127293D02*
X5131253Y-14146341D01*
X5131253Y-14146341D02*
X5121729Y-14155865D01*
X5121729Y-14155865D02*
X5102681Y-14165389D01*
X5102681Y-14165389D02*
X5083634Y-14165389D01*
X5083634Y-14165389D02*
X5064586Y-14155865D01*
X5064586Y-14155865D02*
X5055062Y-14146341D01*
X5055062Y-14146341D02*
X5045539Y-14127293D01*
X5045539Y-14127293D02*
X5036015Y-14089198D01*
X5036015Y-14089198D02*
X5036015Y-14041579D01*
X5036015Y-14041579D02*
X5045539Y-14003484D01*
X5045539Y-14003484D02*
X5055062Y-13984436D01*
X5055062Y-13984436D02*
X5064586Y-13974913D01*
X5064586Y-13974913D02*
X5083634Y-13965389D01*
X5236015Y-14165389D02*
X5236015Y-14032055D01*
X5236015Y-14051103D02*
X5245539Y-14041579D01*
X5245539Y-14041579D02*
X5264586Y-14032055D01*
X5264586Y-14032055D02*
X5293158Y-14032055D01*
X5293158Y-14032055D02*
X5312205Y-14041579D01*
X5312205Y-14041579D02*
X5321729Y-14060627D01*
X5321729Y-14060627D02*
X5321729Y-14165389D01*
X5321729Y-14060627D02*
X5331253Y-14041579D01*
X5331253Y-14041579D02*
X5350300Y-14032055D01*
X5350300Y-14032055D02*
X5378872Y-14032055D01*
X5378872Y-14032055D02*
X5397920Y-14041579D01*
X5397920Y-14041579D02*
X5407443Y-14060627D01*
X5407443Y-14060627D02*
X5407443Y-14165389D01*
X5502681Y-14165389D02*
X5502681Y-14032055D01*
X5502681Y-14051103D02*
X5512205Y-14041579D01*
X5512205Y-14041579D02*
X5531253Y-14032055D01*
X5531253Y-14032055D02*
X5559824Y-14032055D01*
X5559824Y-14032055D02*
X5578872Y-14041579D01*
X5578872Y-14041579D02*
X5588396Y-14060627D01*
X5588396Y-14060627D02*
X5588396Y-14165389D01*
X5588396Y-14060627D02*
X5597919Y-14041579D01*
X5597919Y-14041579D02*
X5616967Y-14032055D01*
X5616967Y-14032055D02*
X5645538Y-14032055D01*
X5645538Y-14032055D02*
X5664586Y-14041579D01*
X5664586Y-14041579D02*
X5674110Y-14060627D01*
X5674110Y-14060627D02*
X5674110Y-14165389D01*
X6064586Y-13955865D02*
X5893158Y-14213008D01*
X6321729Y-13965389D02*
X6340777Y-13965389D01*
X6340777Y-13965389D02*
X6359824Y-13974913D01*
X6359824Y-13974913D02*
X6369348Y-13984436D01*
X6369348Y-13984436D02*
X6378872Y-14003484D01*
X6378872Y-14003484D02*
X6388396Y-14041579D01*
X6388396Y-14041579D02*
X6388396Y-14089198D01*
X6388396Y-14089198D02*
X6378872Y-14127293D01*
X6378872Y-14127293D02*
X6369348Y-14146341D01*
X6369348Y-14146341D02*
X6359824Y-14155865D01*
X6359824Y-14155865D02*
X6340777Y-14165389D01*
X6340777Y-14165389D02*
X6321729Y-14165389D01*
X6321729Y-14165389D02*
X6302681Y-14155865D01*
X6302681Y-14155865D02*
X6293158Y-14146341D01*
X6293158Y-14146341D02*
X6283634Y-14127293D01*
X6283634Y-14127293D02*
X6274110Y-14089198D01*
X6274110Y-14089198D02*
X6274110Y-14041579D01*
X6274110Y-14041579D02*
X6283634Y-14003484D01*
X6283634Y-14003484D02*
X6293158Y-13984436D01*
X6293158Y-13984436D02*
X6302681Y-13974913D01*
X6302681Y-13974913D02*
X6321729Y-13965389D01*
X6474110Y-14146341D02*
X6483634Y-14155865D01*
X6483634Y-14155865D02*
X6474110Y-14165389D01*
X6474110Y-14165389D02*
X6464586Y-14155865D01*
X6464586Y-14155865D02*
X6474110Y-14146341D01*
X6474110Y-14146341D02*
X6474110Y-14165389D01*
X6607443Y-13965389D02*
X6626491Y-13965389D01*
X6626491Y-13965389D02*
X6645539Y-13974913D01*
X6645539Y-13974913D02*
X6655062Y-13984436D01*
X6655062Y-13984436D02*
X6664586Y-14003484D01*
X6664586Y-14003484D02*
X6674110Y-14041579D01*
X6674110Y-14041579D02*
X6674110Y-14089198D01*
X6674110Y-14089198D02*
X6664586Y-14127293D01*
X6664586Y-14127293D02*
X6655062Y-14146341D01*
X6655062Y-14146341D02*
X6645539Y-14155865D01*
X6645539Y-14155865D02*
X6626491Y-14165389D01*
X6626491Y-14165389D02*
X6607443Y-14165389D01*
X6607443Y-14165389D02*
X6588396Y-14155865D01*
X6588396Y-14155865D02*
X6578872Y-14146341D01*
X6578872Y-14146341D02*
X6569348Y-14127293D01*
X6569348Y-14127293D02*
X6559824Y-14089198D01*
X6559824Y-14089198D02*
X6559824Y-14041579D01*
X6559824Y-14041579D02*
X6569348Y-14003484D01*
X6569348Y-14003484D02*
X6578872Y-13984436D01*
X6578872Y-13984436D02*
X6588396Y-13974913D01*
X6588396Y-13974913D02*
X6607443Y-13965389D01*
X6845539Y-14032055D02*
X6845539Y-14165389D01*
X6797920Y-13955865D02*
X6750301Y-14098722D01*
X6750301Y-14098722D02*
X6874110Y-14098722D01*
X6931253Y-13965389D02*
X7055062Y-13965389D01*
X7055062Y-13965389D02*
X6988396Y-14041579D01*
X6988396Y-14041579D02*
X7016967Y-14041579D01*
X7016967Y-14041579D02*
X7036015Y-14051103D01*
X7036015Y-14051103D02*
X7045539Y-14060627D01*
X7045539Y-14060627D02*
X7055062Y-14079674D01*
X7055062Y-14079674D02*
X7055062Y-14127293D01*
X7055062Y-14127293D02*
X7045539Y-14146341D01*
X7045539Y-14146341D02*
X7036015Y-14155865D01*
X7036015Y-14155865D02*
X7016967Y-14165389D01*
X7016967Y-14165389D02*
X6959824Y-14165389D01*
X6959824Y-14165389D02*
X6940777Y-14155865D01*
X6940777Y-14155865D02*
X6931253Y-14146341D01*
X7121729Y-13965389D02*
X7245539Y-13965389D01*
X7245539Y-13965389D02*
X7178872Y-14041579D01*
X7178872Y-14041579D02*
X7207443Y-14041579D01*
X7207443Y-14041579D02*
X7226491Y-14051103D01*
X7226491Y-14051103D02*
X7236015Y-14060627D01*
X7236015Y-14060627D02*
X7245539Y-14079674D01*
X7245539Y-14079674D02*
X7245539Y-14127293D01*
X7245539Y-14127293D02*
X7236015Y-14146341D01*
X7236015Y-14146341D02*
X7226491Y-14155865D01*
X7226491Y-14155865D02*
X7207443Y-14165389D01*
X7207443Y-14165389D02*
X7150301Y-14165389D01*
X7150301Y-14165389D02*
X7131253Y-14155865D01*
X7131253Y-14155865D02*
X7121729Y-14146341D01*
X7321729Y-13965389D02*
X7321729Y-14003484D01*
X7397920Y-13965389D02*
X7397920Y-14003484D01*
X7693158Y-14241579D02*
X7683634Y-14232055D01*
X7683634Y-14232055D02*
X7664586Y-14203484D01*
X7664586Y-14203484D02*
X7655063Y-14184436D01*
X7655063Y-14184436D02*
X7645539Y-14155865D01*
X7645539Y-14155865D02*
X7636015Y-14108246D01*
X7636015Y-14108246D02*
X7636015Y-14070151D01*
X7636015Y-14070151D02*
X7645539Y-14022532D01*
X7645539Y-14022532D02*
X7655063Y-13993960D01*
X7655063Y-13993960D02*
X7664586Y-13974913D01*
X7664586Y-13974913D02*
X7683634Y-13946341D01*
X7683634Y-13946341D02*
X7693158Y-13936817D01*
X7759824Y-13984436D02*
X7769348Y-13974913D01*
X7769348Y-13974913D02*
X7788396Y-13965389D01*
X7788396Y-13965389D02*
X7836015Y-13965389D01*
X7836015Y-13965389D02*
X7855063Y-13974913D01*
X7855063Y-13974913D02*
X7864586Y-13984436D01*
X7864586Y-13984436D02*
X7874110Y-14003484D01*
X7874110Y-14003484D02*
X7874110Y-14022532D01*
X7874110Y-14022532D02*
X7864586Y-14051103D01*
X7864586Y-14051103D02*
X7750301Y-14165389D01*
X7750301Y-14165389D02*
X7874110Y-14165389D01*
X8045539Y-14032055D02*
X8045539Y-14165389D01*
X7997920Y-13955865D02*
X7950301Y-14098722D01*
X7950301Y-14098722D02*
X8074110Y-14098722D01*
X8302682Y-14165389D02*
X8302682Y-13965389D01*
X8388396Y-14165389D02*
X8388396Y-14060627D01*
X8388396Y-14060627D02*
X8378872Y-14041579D01*
X8378872Y-14041579D02*
X8359825Y-14032055D01*
X8359825Y-14032055D02*
X8331253Y-14032055D01*
X8331253Y-14032055D02*
X8312205Y-14041579D01*
X8312205Y-14041579D02*
X8302682Y-14051103D01*
X8512206Y-14165389D02*
X8493158Y-14155865D01*
X8493158Y-14155865D02*
X8483634Y-14146341D01*
X8483634Y-14146341D02*
X8474110Y-14127293D01*
X8474110Y-14127293D02*
X8474110Y-14070151D01*
X8474110Y-14070151D02*
X8483634Y-14051103D01*
X8483634Y-14051103D02*
X8493158Y-14041579D01*
X8493158Y-14041579D02*
X8512206Y-14032055D01*
X8512206Y-14032055D02*
X8540777Y-14032055D01*
X8540777Y-14032055D02*
X8559825Y-14041579D01*
X8559825Y-14041579D02*
X8569348Y-14051103D01*
X8569348Y-14051103D02*
X8578872Y-14070151D01*
X8578872Y-14070151D02*
X8578872Y-14127293D01*
X8578872Y-14127293D02*
X8569348Y-14146341D01*
X8569348Y-14146341D02*
X8559825Y-14155865D01*
X8559825Y-14155865D02*
X8540777Y-14165389D01*
X8540777Y-14165389D02*
X8512206Y-14165389D01*
X8693158Y-14165389D02*
X8674110Y-14155865D01*
X8674110Y-14155865D02*
X8664587Y-14136817D01*
X8664587Y-14136817D02*
X8664587Y-13965389D01*
X8845539Y-14155865D02*
X8826491Y-14165389D01*
X8826491Y-14165389D02*
X8788396Y-14165389D01*
X8788396Y-14165389D02*
X8769348Y-14155865D01*
X8769348Y-14155865D02*
X8759825Y-14136817D01*
X8759825Y-14136817D02*
X8759825Y-14060627D01*
X8759825Y-14060627D02*
X8769348Y-14041579D01*
X8769348Y-14041579D02*
X8788396Y-14032055D01*
X8788396Y-14032055D02*
X8826491Y-14032055D01*
X8826491Y-14032055D02*
X8845539Y-14041579D01*
X8845539Y-14041579D02*
X8855063Y-14060627D01*
X8855063Y-14060627D02*
X8855063Y-14079674D01*
X8855063Y-14079674D02*
X8759825Y-14098722D01*
X8931253Y-14155865D02*
X8950301Y-14165389D01*
X8950301Y-14165389D02*
X8988396Y-14165389D01*
X8988396Y-14165389D02*
X9007444Y-14155865D01*
X9007444Y-14155865D02*
X9016968Y-14136817D01*
X9016968Y-14136817D02*
X9016968Y-14127293D01*
X9016968Y-14127293D02*
X9007444Y-14108246D01*
X9007444Y-14108246D02*
X8988396Y-14098722D01*
X8988396Y-14098722D02*
X8959825Y-14098722D01*
X8959825Y-14098722D02*
X8940777Y-14089198D01*
X8940777Y-14089198D02*
X8931253Y-14070151D01*
X8931253Y-14070151D02*
X8931253Y-14060627D01*
X8931253Y-14060627D02*
X8940777Y-14041579D01*
X8940777Y-14041579D02*
X8959825Y-14032055D01*
X8959825Y-14032055D02*
X8988396Y-14032055D01*
X8988396Y-14032055D02*
X9007444Y-14041579D01*
X9083634Y-14241579D02*
X9093158Y-14232055D01*
X9093158Y-14232055D02*
X9112206Y-14203484D01*
X9112206Y-14203484D02*
X9121729Y-14184436D01*
X9121729Y-14184436D02*
X9131253Y-14155865D01*
X9131253Y-14155865D02*
X9140777Y-14108246D01*
X9140777Y-14108246D02*
X9140777Y-14070151D01*
X9140777Y-14070151D02*
X9131253Y-14022532D01*
X9131253Y-14022532D02*
X9121729Y-13993960D01*
X9121729Y-13993960D02*
X9112206Y-13974913D01*
X9112206Y-13974913D02*
X9093158Y-13946341D01*
X9093158Y-13946341D02*
X9083634Y-13936817D01*
D14*
X4058095Y-14397905D02*
X4118095Y-14337905D01*
X4058095Y-14277905D01*
X3998095Y-14337905D01*
X4058095Y-14397905D01*
D11*
X4483634Y-14429389D02*
X4369348Y-14429389D01*
X4426491Y-14429389D02*
X4426491Y-14229389D01*
X4426491Y-14229389D02*
X4407443Y-14257960D01*
X4407443Y-14257960D02*
X4388396Y-14277008D01*
X4388396Y-14277008D02*
X4369348Y-14286532D01*
X4569348Y-14410341D02*
X4578872Y-14419865D01*
X4578872Y-14419865D02*
X4569348Y-14429389D01*
X4569348Y-14429389D02*
X4559824Y-14419865D01*
X4559824Y-14419865D02*
X4569348Y-14410341D01*
X4569348Y-14410341D02*
X4569348Y-14429389D01*
X4655062Y-14248436D02*
X4664586Y-14238913D01*
X4664586Y-14238913D02*
X4683634Y-14229389D01*
X4683634Y-14229389D02*
X4731253Y-14229389D01*
X4731253Y-14229389D02*
X4750300Y-14238913D01*
X4750300Y-14238913D02*
X4759824Y-14248436D01*
X4759824Y-14248436D02*
X4769348Y-14267484D01*
X4769348Y-14267484D02*
X4769348Y-14286532D01*
X4769348Y-14286532D02*
X4759824Y-14315103D01*
X4759824Y-14315103D02*
X4645539Y-14429389D01*
X4645539Y-14429389D02*
X4769348Y-14429389D01*
X4893158Y-14229389D02*
X4912205Y-14229389D01*
X4912205Y-14229389D02*
X4931253Y-14238913D01*
X4931253Y-14238913D02*
X4940777Y-14248436D01*
X4940777Y-14248436D02*
X4950300Y-14267484D01*
X4950300Y-14267484D02*
X4959824Y-14305579D01*
X4959824Y-14305579D02*
X4959824Y-14353198D01*
X4959824Y-14353198D02*
X4950300Y-14391293D01*
X4950300Y-14391293D02*
X4940777Y-14410341D01*
X4940777Y-14410341D02*
X4931253Y-14419865D01*
X4931253Y-14419865D02*
X4912205Y-14429389D01*
X4912205Y-14429389D02*
X4893158Y-14429389D01*
X4893158Y-14429389D02*
X4874110Y-14419865D01*
X4874110Y-14419865D02*
X4864586Y-14410341D01*
X4864586Y-14410341D02*
X4855062Y-14391293D01*
X4855062Y-14391293D02*
X4845539Y-14353198D01*
X4845539Y-14353198D02*
X4845539Y-14305579D01*
X4845539Y-14305579D02*
X4855062Y-14267484D01*
X4855062Y-14267484D02*
X4864586Y-14248436D01*
X4864586Y-14248436D02*
X4874110Y-14238913D01*
X4874110Y-14238913D02*
X4893158Y-14229389D01*
X5083634Y-14229389D02*
X5102681Y-14229389D01*
X5102681Y-14229389D02*
X5121729Y-14238913D01*
X5121729Y-14238913D02*
X5131253Y-14248436D01*
X5131253Y-14248436D02*
X5140777Y-14267484D01*
X5140777Y-14267484D02*
X5150300Y-14305579D01*
X5150300Y-14305579D02*
X5150300Y-14353198D01*
X5150300Y-14353198D02*
X5140777Y-14391293D01*
X5140777Y-14391293D02*
X5131253Y-14410341D01*
X5131253Y-14410341D02*
X5121729Y-14419865D01*
X5121729Y-14419865D02*
X5102681Y-14429389D01*
X5102681Y-14429389D02*
X5083634Y-14429389D01*
X5083634Y-14429389D02*
X5064586Y-14419865D01*
X5064586Y-14419865D02*
X5055062Y-14410341D01*
X5055062Y-14410341D02*
X5045539Y-14391293D01*
X5045539Y-14391293D02*
X5036015Y-14353198D01*
X5036015Y-14353198D02*
X5036015Y-14305579D01*
X5036015Y-14305579D02*
X5045539Y-14267484D01*
X5045539Y-14267484D02*
X5055062Y-14248436D01*
X5055062Y-14248436D02*
X5064586Y-14238913D01*
X5064586Y-14238913D02*
X5083634Y-14229389D01*
X5236015Y-14429389D02*
X5236015Y-14296055D01*
X5236015Y-14315103D02*
X5245539Y-14305579D01*
X5245539Y-14305579D02*
X5264586Y-14296055D01*
X5264586Y-14296055D02*
X5293158Y-14296055D01*
X5293158Y-14296055D02*
X5312205Y-14305579D01*
X5312205Y-14305579D02*
X5321729Y-14324627D01*
X5321729Y-14324627D02*
X5321729Y-14429389D01*
X5321729Y-14324627D02*
X5331253Y-14305579D01*
X5331253Y-14305579D02*
X5350300Y-14296055D01*
X5350300Y-14296055D02*
X5378872Y-14296055D01*
X5378872Y-14296055D02*
X5397920Y-14305579D01*
X5397920Y-14305579D02*
X5407443Y-14324627D01*
X5407443Y-14324627D02*
X5407443Y-14429389D01*
X5502681Y-14429389D02*
X5502681Y-14296055D01*
X5502681Y-14315103D02*
X5512205Y-14305579D01*
X5512205Y-14305579D02*
X5531253Y-14296055D01*
X5531253Y-14296055D02*
X5559824Y-14296055D01*
X5559824Y-14296055D02*
X5578872Y-14305579D01*
X5578872Y-14305579D02*
X5588396Y-14324627D01*
X5588396Y-14324627D02*
X5588396Y-14429389D01*
X5588396Y-14324627D02*
X5597919Y-14305579D01*
X5597919Y-14305579D02*
X5616967Y-14296055D01*
X5616967Y-14296055D02*
X5645538Y-14296055D01*
X5645538Y-14296055D02*
X5664586Y-14305579D01*
X5664586Y-14305579D02*
X5674110Y-14324627D01*
X5674110Y-14324627D02*
X5674110Y-14429389D01*
X6064586Y-14219865D02*
X5893158Y-14477008D01*
X6321729Y-14229389D02*
X6340777Y-14229389D01*
X6340777Y-14229389D02*
X6359824Y-14238913D01*
X6359824Y-14238913D02*
X6369348Y-14248436D01*
X6369348Y-14248436D02*
X6378872Y-14267484D01*
X6378872Y-14267484D02*
X6388396Y-14305579D01*
X6388396Y-14305579D02*
X6388396Y-14353198D01*
X6388396Y-14353198D02*
X6378872Y-14391293D01*
X6378872Y-14391293D02*
X6369348Y-14410341D01*
X6369348Y-14410341D02*
X6359824Y-14419865D01*
X6359824Y-14419865D02*
X6340777Y-14429389D01*
X6340777Y-14429389D02*
X6321729Y-14429389D01*
X6321729Y-14429389D02*
X6302681Y-14419865D01*
X6302681Y-14419865D02*
X6293158Y-14410341D01*
X6293158Y-14410341D02*
X6283634Y-14391293D01*
X6283634Y-14391293D02*
X6274110Y-14353198D01*
X6274110Y-14353198D02*
X6274110Y-14305579D01*
X6274110Y-14305579D02*
X6283634Y-14267484D01*
X6283634Y-14267484D02*
X6293158Y-14248436D01*
X6293158Y-14248436D02*
X6302681Y-14238913D01*
X6302681Y-14238913D02*
X6321729Y-14229389D01*
X6474110Y-14410341D02*
X6483634Y-14419865D01*
X6483634Y-14419865D02*
X6474110Y-14429389D01*
X6474110Y-14429389D02*
X6464586Y-14419865D01*
X6464586Y-14419865D02*
X6474110Y-14410341D01*
X6474110Y-14410341D02*
X6474110Y-14429389D01*
X6607443Y-14229389D02*
X6626491Y-14229389D01*
X6626491Y-14229389D02*
X6645539Y-14238913D01*
X6645539Y-14238913D02*
X6655062Y-14248436D01*
X6655062Y-14248436D02*
X6664586Y-14267484D01*
X6664586Y-14267484D02*
X6674110Y-14305579D01*
X6674110Y-14305579D02*
X6674110Y-14353198D01*
X6674110Y-14353198D02*
X6664586Y-14391293D01*
X6664586Y-14391293D02*
X6655062Y-14410341D01*
X6655062Y-14410341D02*
X6645539Y-14419865D01*
X6645539Y-14419865D02*
X6626491Y-14429389D01*
X6626491Y-14429389D02*
X6607443Y-14429389D01*
X6607443Y-14429389D02*
X6588396Y-14419865D01*
X6588396Y-14419865D02*
X6578872Y-14410341D01*
X6578872Y-14410341D02*
X6569348Y-14391293D01*
X6569348Y-14391293D02*
X6559824Y-14353198D01*
X6559824Y-14353198D02*
X6559824Y-14305579D01*
X6559824Y-14305579D02*
X6569348Y-14267484D01*
X6569348Y-14267484D02*
X6578872Y-14248436D01*
X6578872Y-14248436D02*
X6588396Y-14238913D01*
X6588396Y-14238913D02*
X6607443Y-14229389D01*
X6845539Y-14296055D02*
X6845539Y-14429389D01*
X6797920Y-14219865D02*
X6750301Y-14362722D01*
X6750301Y-14362722D02*
X6874110Y-14362722D01*
X6931253Y-14229389D02*
X7064586Y-14229389D01*
X7064586Y-14229389D02*
X6978872Y-14429389D01*
X7131253Y-14248436D02*
X7140777Y-14238913D01*
X7140777Y-14238913D02*
X7159824Y-14229389D01*
X7159824Y-14229389D02*
X7207443Y-14229389D01*
X7207443Y-14229389D02*
X7226491Y-14238913D01*
X7226491Y-14238913D02*
X7236015Y-14248436D01*
X7236015Y-14248436D02*
X7245539Y-14267484D01*
X7245539Y-14267484D02*
X7245539Y-14286532D01*
X7245539Y-14286532D02*
X7236015Y-14315103D01*
X7236015Y-14315103D02*
X7121729Y-14429389D01*
X7121729Y-14429389D02*
X7245539Y-14429389D01*
X7321729Y-14229389D02*
X7321729Y-14267484D01*
X7397920Y-14229389D02*
X7397920Y-14267484D01*
X7693158Y-14505579D02*
X7683634Y-14496055D01*
X7683634Y-14496055D02*
X7664586Y-14467484D01*
X7664586Y-14467484D02*
X7655063Y-14448436D01*
X7655063Y-14448436D02*
X7645539Y-14419865D01*
X7645539Y-14419865D02*
X7636015Y-14372246D01*
X7636015Y-14372246D02*
X7636015Y-14334151D01*
X7636015Y-14334151D02*
X7645539Y-14286532D01*
X7645539Y-14286532D02*
X7655063Y-14257960D01*
X7655063Y-14257960D02*
X7664586Y-14238913D01*
X7664586Y-14238913D02*
X7683634Y-14210341D01*
X7683634Y-14210341D02*
X7693158Y-14200817D01*
X7855063Y-14296055D02*
X7855063Y-14429389D01*
X7807443Y-14219865D02*
X7759824Y-14362722D01*
X7759824Y-14362722D02*
X7883634Y-14362722D01*
X8112205Y-14429389D02*
X8112205Y-14229389D01*
X8197920Y-14429389D02*
X8197920Y-14324627D01*
X8197920Y-14324627D02*
X8188396Y-14305579D01*
X8188396Y-14305579D02*
X8169348Y-14296055D01*
X8169348Y-14296055D02*
X8140777Y-14296055D01*
X8140777Y-14296055D02*
X8121729Y-14305579D01*
X8121729Y-14305579D02*
X8112205Y-14315103D01*
X8321729Y-14429389D02*
X8302682Y-14419865D01*
X8302682Y-14419865D02*
X8293158Y-14410341D01*
X8293158Y-14410341D02*
X8283634Y-14391293D01*
X8283634Y-14391293D02*
X8283634Y-14334151D01*
X8283634Y-14334151D02*
X8293158Y-14315103D01*
X8293158Y-14315103D02*
X8302682Y-14305579D01*
X8302682Y-14305579D02*
X8321729Y-14296055D01*
X8321729Y-14296055D02*
X8350301Y-14296055D01*
X8350301Y-14296055D02*
X8369348Y-14305579D01*
X8369348Y-14305579D02*
X8378872Y-14315103D01*
X8378872Y-14315103D02*
X8388396Y-14334151D01*
X8388396Y-14334151D02*
X8388396Y-14391293D01*
X8388396Y-14391293D02*
X8378872Y-14410341D01*
X8378872Y-14410341D02*
X8369348Y-14419865D01*
X8369348Y-14419865D02*
X8350301Y-14429389D01*
X8350301Y-14429389D02*
X8321729Y-14429389D01*
X8502682Y-14429389D02*
X8483634Y-14419865D01*
X8483634Y-14419865D02*
X8474110Y-14400817D01*
X8474110Y-14400817D02*
X8474110Y-14229389D01*
X8655063Y-14419865D02*
X8636015Y-14429389D01*
X8636015Y-14429389D02*
X8597920Y-14429389D01*
X8597920Y-14429389D02*
X8578872Y-14419865D01*
X8578872Y-14419865D02*
X8569348Y-14400817D01*
X8569348Y-14400817D02*
X8569348Y-14324627D01*
X8569348Y-14324627D02*
X8578872Y-14305579D01*
X8578872Y-14305579D02*
X8597920Y-14296055D01*
X8597920Y-14296055D02*
X8636015Y-14296055D01*
X8636015Y-14296055D02*
X8655063Y-14305579D01*
X8655063Y-14305579D02*
X8664587Y-14324627D01*
X8664587Y-14324627D02*
X8664587Y-14343674D01*
X8664587Y-14343674D02*
X8569348Y-14362722D01*
X8740777Y-14419865D02*
X8759825Y-14429389D01*
X8759825Y-14429389D02*
X8797920Y-14429389D01*
X8797920Y-14429389D02*
X8816968Y-14419865D01*
X8816968Y-14419865D02*
X8826491Y-14400817D01*
X8826491Y-14400817D02*
X8826491Y-14391293D01*
X8826491Y-14391293D02*
X8816968Y-14372246D01*
X8816968Y-14372246D02*
X8797920Y-14362722D01*
X8797920Y-14362722D02*
X8769348Y-14362722D01*
X8769348Y-14362722D02*
X8750301Y-14353198D01*
X8750301Y-14353198D02*
X8740777Y-14334151D01*
X8740777Y-14334151D02*
X8740777Y-14324627D01*
X8740777Y-14324627D02*
X8750301Y-14305579D01*
X8750301Y-14305579D02*
X8769348Y-14296055D01*
X8769348Y-14296055D02*
X8797920Y-14296055D01*
X8797920Y-14296055D02*
X8816968Y-14305579D01*
X8893158Y-14505579D02*
X8902682Y-14496055D01*
X8902682Y-14496055D02*
X8921729Y-14467484D01*
X8921729Y-14467484D02*
X8931253Y-14448436D01*
X8931253Y-14448436D02*
X8940777Y-14419865D01*
X8940777Y-14419865D02*
X8950301Y-14372246D01*
X8950301Y-14372246D02*
X8950301Y-14334151D01*
X8950301Y-14334151D02*
X8940777Y-14286532D01*
X8940777Y-14286532D02*
X8931253Y-14257960D01*
X8931253Y-14257960D02*
X8921729Y-14238913D01*
X8921729Y-14238913D02*
X8902682Y-14210341D01*
X8902682Y-14210341D02*
X8893158Y-14200817D01*
D15*
X3988095Y-14536905D02*
X4118095Y-14666905D01*
X4118095Y-14536905D02*
X3988095Y-14666905D01*
X4118095Y-14601905D02*
G75*
G02*
X3988095Y-14601905I-65000J0D01*
G01*
X3988095Y-14601905D02*
G75*
G02*
X4118095Y-14601905I65000J0D01*
G01*
D11*
X4483634Y-14693389D02*
X4369348Y-14693389D01*
X4426491Y-14693389D02*
X4426491Y-14493389D01*
X4426491Y-14493389D02*
X4407443Y-14521960D01*
X4407443Y-14521960D02*
X4388396Y-14541008D01*
X4388396Y-14541008D02*
X4369348Y-14550532D01*
X4569348Y-14674341D02*
X4578872Y-14683865D01*
X4578872Y-14683865D02*
X4569348Y-14693389D01*
X4569348Y-14693389D02*
X4559824Y-14683865D01*
X4559824Y-14683865D02*
X4569348Y-14674341D01*
X4569348Y-14674341D02*
X4569348Y-14693389D01*
X4645539Y-14493389D02*
X4769348Y-14493389D01*
X4769348Y-14493389D02*
X4702681Y-14569579D01*
X4702681Y-14569579D02*
X4731253Y-14569579D01*
X4731253Y-14569579D02*
X4750300Y-14579103D01*
X4750300Y-14579103D02*
X4759824Y-14588627D01*
X4759824Y-14588627D02*
X4769348Y-14607674D01*
X4769348Y-14607674D02*
X4769348Y-14655293D01*
X4769348Y-14655293D02*
X4759824Y-14674341D01*
X4759824Y-14674341D02*
X4750300Y-14683865D01*
X4750300Y-14683865D02*
X4731253Y-14693389D01*
X4731253Y-14693389D02*
X4674110Y-14693389D01*
X4674110Y-14693389D02*
X4655062Y-14683865D01*
X4655062Y-14683865D02*
X4645539Y-14674341D01*
X4893158Y-14493389D02*
X4912205Y-14493389D01*
X4912205Y-14493389D02*
X4931253Y-14502913D01*
X4931253Y-14502913D02*
X4940777Y-14512436D01*
X4940777Y-14512436D02*
X4950300Y-14531484D01*
X4950300Y-14531484D02*
X4959824Y-14569579D01*
X4959824Y-14569579D02*
X4959824Y-14617198D01*
X4959824Y-14617198D02*
X4950300Y-14655293D01*
X4950300Y-14655293D02*
X4940777Y-14674341D01*
X4940777Y-14674341D02*
X4931253Y-14683865D01*
X4931253Y-14683865D02*
X4912205Y-14693389D01*
X4912205Y-14693389D02*
X4893158Y-14693389D01*
X4893158Y-14693389D02*
X4874110Y-14683865D01*
X4874110Y-14683865D02*
X4864586Y-14674341D01*
X4864586Y-14674341D02*
X4855062Y-14655293D01*
X4855062Y-14655293D02*
X4845539Y-14617198D01*
X4845539Y-14617198D02*
X4845539Y-14569579D01*
X4845539Y-14569579D02*
X4855062Y-14531484D01*
X4855062Y-14531484D02*
X4864586Y-14512436D01*
X4864586Y-14512436D02*
X4874110Y-14502913D01*
X4874110Y-14502913D02*
X4893158Y-14493389D01*
X5083634Y-14493389D02*
X5102681Y-14493389D01*
X5102681Y-14493389D02*
X5121729Y-14502913D01*
X5121729Y-14502913D02*
X5131253Y-14512436D01*
X5131253Y-14512436D02*
X5140777Y-14531484D01*
X5140777Y-14531484D02*
X5150300Y-14569579D01*
X5150300Y-14569579D02*
X5150300Y-14617198D01*
X5150300Y-14617198D02*
X5140777Y-14655293D01*
X5140777Y-14655293D02*
X5131253Y-14674341D01*
X5131253Y-14674341D02*
X5121729Y-14683865D01*
X5121729Y-14683865D02*
X5102681Y-14693389D01*
X5102681Y-14693389D02*
X5083634Y-14693389D01*
X5083634Y-14693389D02*
X5064586Y-14683865D01*
X5064586Y-14683865D02*
X5055062Y-14674341D01*
X5055062Y-14674341D02*
X5045539Y-14655293D01*
X5045539Y-14655293D02*
X5036015Y-14617198D01*
X5036015Y-14617198D02*
X5036015Y-14569579D01*
X5036015Y-14569579D02*
X5045539Y-14531484D01*
X5045539Y-14531484D02*
X5055062Y-14512436D01*
X5055062Y-14512436D02*
X5064586Y-14502913D01*
X5064586Y-14502913D02*
X5083634Y-14493389D01*
X5236015Y-14693389D02*
X5236015Y-14560055D01*
X5236015Y-14579103D02*
X5245539Y-14569579D01*
X5245539Y-14569579D02*
X5264586Y-14560055D01*
X5264586Y-14560055D02*
X5293158Y-14560055D01*
X5293158Y-14560055D02*
X5312205Y-14569579D01*
X5312205Y-14569579D02*
X5321729Y-14588627D01*
X5321729Y-14588627D02*
X5321729Y-14693389D01*
X5321729Y-14588627D02*
X5331253Y-14569579D01*
X5331253Y-14569579D02*
X5350300Y-14560055D01*
X5350300Y-14560055D02*
X5378872Y-14560055D01*
X5378872Y-14560055D02*
X5397920Y-14569579D01*
X5397920Y-14569579D02*
X5407443Y-14588627D01*
X5407443Y-14588627D02*
X5407443Y-14693389D01*
X5502681Y-14693389D02*
X5502681Y-14560055D01*
X5502681Y-14579103D02*
X5512205Y-14569579D01*
X5512205Y-14569579D02*
X5531253Y-14560055D01*
X5531253Y-14560055D02*
X5559824Y-14560055D01*
X5559824Y-14560055D02*
X5578872Y-14569579D01*
X5578872Y-14569579D02*
X5588396Y-14588627D01*
X5588396Y-14588627D02*
X5588396Y-14693389D01*
X5588396Y-14588627D02*
X5597919Y-14569579D01*
X5597919Y-14569579D02*
X5616967Y-14560055D01*
X5616967Y-14560055D02*
X5645538Y-14560055D01*
X5645538Y-14560055D02*
X5664586Y-14569579D01*
X5664586Y-14569579D02*
X5674110Y-14588627D01*
X5674110Y-14588627D02*
X5674110Y-14693389D01*
X6064586Y-14483865D02*
X5893158Y-14741008D01*
X6321729Y-14493389D02*
X6340777Y-14493389D01*
X6340777Y-14493389D02*
X6359824Y-14502913D01*
X6359824Y-14502913D02*
X6369348Y-14512436D01*
X6369348Y-14512436D02*
X6378872Y-14531484D01*
X6378872Y-14531484D02*
X6388396Y-14569579D01*
X6388396Y-14569579D02*
X6388396Y-14617198D01*
X6388396Y-14617198D02*
X6378872Y-14655293D01*
X6378872Y-14655293D02*
X6369348Y-14674341D01*
X6369348Y-14674341D02*
X6359824Y-14683865D01*
X6359824Y-14683865D02*
X6340777Y-14693389D01*
X6340777Y-14693389D02*
X6321729Y-14693389D01*
X6321729Y-14693389D02*
X6302681Y-14683865D01*
X6302681Y-14683865D02*
X6293158Y-14674341D01*
X6293158Y-14674341D02*
X6283634Y-14655293D01*
X6283634Y-14655293D02*
X6274110Y-14617198D01*
X6274110Y-14617198D02*
X6274110Y-14569579D01*
X6274110Y-14569579D02*
X6283634Y-14531484D01*
X6283634Y-14531484D02*
X6293158Y-14512436D01*
X6293158Y-14512436D02*
X6302681Y-14502913D01*
X6302681Y-14502913D02*
X6321729Y-14493389D01*
X6474110Y-14674341D02*
X6483634Y-14683865D01*
X6483634Y-14683865D02*
X6474110Y-14693389D01*
X6474110Y-14693389D02*
X6464586Y-14683865D01*
X6464586Y-14683865D02*
X6474110Y-14674341D01*
X6474110Y-14674341D02*
X6474110Y-14693389D01*
X6607443Y-14493389D02*
X6626491Y-14493389D01*
X6626491Y-14493389D02*
X6645539Y-14502913D01*
X6645539Y-14502913D02*
X6655062Y-14512436D01*
X6655062Y-14512436D02*
X6664586Y-14531484D01*
X6664586Y-14531484D02*
X6674110Y-14569579D01*
X6674110Y-14569579D02*
X6674110Y-14617198D01*
X6674110Y-14617198D02*
X6664586Y-14655293D01*
X6664586Y-14655293D02*
X6655062Y-14674341D01*
X6655062Y-14674341D02*
X6645539Y-14683865D01*
X6645539Y-14683865D02*
X6626491Y-14693389D01*
X6626491Y-14693389D02*
X6607443Y-14693389D01*
X6607443Y-14693389D02*
X6588396Y-14683865D01*
X6588396Y-14683865D02*
X6578872Y-14674341D01*
X6578872Y-14674341D02*
X6569348Y-14655293D01*
X6569348Y-14655293D02*
X6559824Y-14617198D01*
X6559824Y-14617198D02*
X6559824Y-14569579D01*
X6559824Y-14569579D02*
X6569348Y-14531484D01*
X6569348Y-14531484D02*
X6578872Y-14512436D01*
X6578872Y-14512436D02*
X6588396Y-14502913D01*
X6588396Y-14502913D02*
X6607443Y-14493389D01*
X6855062Y-14493389D02*
X6759824Y-14493389D01*
X6759824Y-14493389D02*
X6750301Y-14588627D01*
X6750301Y-14588627D02*
X6759824Y-14579103D01*
X6759824Y-14579103D02*
X6778872Y-14569579D01*
X6778872Y-14569579D02*
X6826491Y-14569579D01*
X6826491Y-14569579D02*
X6845539Y-14579103D01*
X6845539Y-14579103D02*
X6855062Y-14588627D01*
X6855062Y-14588627D02*
X6864586Y-14607674D01*
X6864586Y-14607674D02*
X6864586Y-14655293D01*
X6864586Y-14655293D02*
X6855062Y-14674341D01*
X6855062Y-14674341D02*
X6845539Y-14683865D01*
X6845539Y-14683865D02*
X6826491Y-14693389D01*
X6826491Y-14693389D02*
X6778872Y-14693389D01*
X6778872Y-14693389D02*
X6759824Y-14683865D01*
X6759824Y-14683865D02*
X6750301Y-14674341D01*
X7055062Y-14693389D02*
X6940777Y-14693389D01*
X6997920Y-14693389D02*
X6997920Y-14493389D01*
X6997920Y-14493389D02*
X6978872Y-14521960D01*
X6978872Y-14521960D02*
X6959824Y-14541008D01*
X6959824Y-14541008D02*
X6940777Y-14550532D01*
X7131253Y-14512436D02*
X7140777Y-14502913D01*
X7140777Y-14502913D02*
X7159824Y-14493389D01*
X7159824Y-14493389D02*
X7207443Y-14493389D01*
X7207443Y-14493389D02*
X7226491Y-14502913D01*
X7226491Y-14502913D02*
X7236015Y-14512436D01*
X7236015Y-14512436D02*
X7245539Y-14531484D01*
X7245539Y-14531484D02*
X7245539Y-14550532D01*
X7245539Y-14550532D02*
X7236015Y-14579103D01*
X7236015Y-14579103D02*
X7121729Y-14693389D01*
X7121729Y-14693389D02*
X7245539Y-14693389D01*
X7321729Y-14493389D02*
X7321729Y-14531484D01*
X7397920Y-14493389D02*
X7397920Y-14531484D01*
X7693158Y-14769579D02*
X7683634Y-14760055D01*
X7683634Y-14760055D02*
X7664586Y-14731484D01*
X7664586Y-14731484D02*
X7655063Y-14712436D01*
X7655063Y-14712436D02*
X7645539Y-14683865D01*
X7645539Y-14683865D02*
X7636015Y-14636246D01*
X7636015Y-14636246D02*
X7636015Y-14598151D01*
X7636015Y-14598151D02*
X7645539Y-14550532D01*
X7645539Y-14550532D02*
X7655063Y-14521960D01*
X7655063Y-14521960D02*
X7664586Y-14502913D01*
X7664586Y-14502913D02*
X7683634Y-14474341D01*
X7683634Y-14474341D02*
X7693158Y-14464817D01*
X7797920Y-14579103D02*
X7778872Y-14569579D01*
X7778872Y-14569579D02*
X7769348Y-14560055D01*
X7769348Y-14560055D02*
X7759824Y-14541008D01*
X7759824Y-14541008D02*
X7759824Y-14531484D01*
X7759824Y-14531484D02*
X7769348Y-14512436D01*
X7769348Y-14512436D02*
X7778872Y-14502913D01*
X7778872Y-14502913D02*
X7797920Y-14493389D01*
X7797920Y-14493389D02*
X7836015Y-14493389D01*
X7836015Y-14493389D02*
X7855063Y-14502913D01*
X7855063Y-14502913D02*
X7864586Y-14512436D01*
X7864586Y-14512436D02*
X7874110Y-14531484D01*
X7874110Y-14531484D02*
X7874110Y-14541008D01*
X7874110Y-14541008D02*
X7864586Y-14560055D01*
X7864586Y-14560055D02*
X7855063Y-14569579D01*
X7855063Y-14569579D02*
X7836015Y-14579103D01*
X7836015Y-14579103D02*
X7797920Y-14579103D01*
X7797920Y-14579103D02*
X7778872Y-14588627D01*
X7778872Y-14588627D02*
X7769348Y-14598151D01*
X7769348Y-14598151D02*
X7759824Y-14617198D01*
X7759824Y-14617198D02*
X7759824Y-14655293D01*
X7759824Y-14655293D02*
X7769348Y-14674341D01*
X7769348Y-14674341D02*
X7778872Y-14683865D01*
X7778872Y-14683865D02*
X7797920Y-14693389D01*
X7797920Y-14693389D02*
X7836015Y-14693389D01*
X7836015Y-14693389D02*
X7855063Y-14683865D01*
X7855063Y-14683865D02*
X7864586Y-14674341D01*
X7864586Y-14674341D02*
X7874110Y-14655293D01*
X7874110Y-14655293D02*
X7874110Y-14617198D01*
X7874110Y-14617198D02*
X7864586Y-14598151D01*
X7864586Y-14598151D02*
X7855063Y-14588627D01*
X7855063Y-14588627D02*
X7836015Y-14579103D01*
X8112205Y-14693389D02*
X8112205Y-14493389D01*
X8197920Y-14693389D02*
X8197920Y-14588627D01*
X8197920Y-14588627D02*
X8188396Y-14569579D01*
X8188396Y-14569579D02*
X8169348Y-14560055D01*
X8169348Y-14560055D02*
X8140777Y-14560055D01*
X8140777Y-14560055D02*
X8121729Y-14569579D01*
X8121729Y-14569579D02*
X8112205Y-14579103D01*
X8321729Y-14693389D02*
X8302682Y-14683865D01*
X8302682Y-14683865D02*
X8293158Y-14674341D01*
X8293158Y-14674341D02*
X8283634Y-14655293D01*
X8283634Y-14655293D02*
X8283634Y-14598151D01*
X8283634Y-14598151D02*
X8293158Y-14579103D01*
X8293158Y-14579103D02*
X8302682Y-14569579D01*
X8302682Y-14569579D02*
X8321729Y-14560055D01*
X8321729Y-14560055D02*
X8350301Y-14560055D01*
X8350301Y-14560055D02*
X8369348Y-14569579D01*
X8369348Y-14569579D02*
X8378872Y-14579103D01*
X8378872Y-14579103D02*
X8388396Y-14598151D01*
X8388396Y-14598151D02*
X8388396Y-14655293D01*
X8388396Y-14655293D02*
X8378872Y-14674341D01*
X8378872Y-14674341D02*
X8369348Y-14683865D01*
X8369348Y-14683865D02*
X8350301Y-14693389D01*
X8350301Y-14693389D02*
X8321729Y-14693389D01*
X8502682Y-14693389D02*
X8483634Y-14683865D01*
X8483634Y-14683865D02*
X8474110Y-14664817D01*
X8474110Y-14664817D02*
X8474110Y-14493389D01*
X8655063Y-14683865D02*
X8636015Y-14693389D01*
X8636015Y-14693389D02*
X8597920Y-14693389D01*
X8597920Y-14693389D02*
X8578872Y-14683865D01*
X8578872Y-14683865D02*
X8569348Y-14664817D01*
X8569348Y-14664817D02*
X8569348Y-14588627D01*
X8569348Y-14588627D02*
X8578872Y-14569579D01*
X8578872Y-14569579D02*
X8597920Y-14560055D01*
X8597920Y-14560055D02*
X8636015Y-14560055D01*
X8636015Y-14560055D02*
X8655063Y-14569579D01*
X8655063Y-14569579D02*
X8664587Y-14588627D01*
X8664587Y-14588627D02*
X8664587Y-14607674D01*
X8664587Y-14607674D02*
X8569348Y-14626722D01*
X8740777Y-14683865D02*
X8759825Y-14693389D01*
X8759825Y-14693389D02*
X8797920Y-14693389D01*
X8797920Y-14693389D02*
X8816968Y-14683865D01*
X8816968Y-14683865D02*
X8826491Y-14664817D01*
X8826491Y-14664817D02*
X8826491Y-14655293D01*
X8826491Y-14655293D02*
X8816968Y-14636246D01*
X8816968Y-14636246D02*
X8797920Y-14626722D01*
X8797920Y-14626722D02*
X8769348Y-14626722D01*
X8769348Y-14626722D02*
X8750301Y-14617198D01*
X8750301Y-14617198D02*
X8740777Y-14598151D01*
X8740777Y-14598151D02*
X8740777Y-14588627D01*
X8740777Y-14588627D02*
X8750301Y-14569579D01*
X8750301Y-14569579D02*
X8769348Y-14560055D01*
X8769348Y-14560055D02*
X8797920Y-14560055D01*
X8797920Y-14560055D02*
X8816968Y-14569579D01*
X8893158Y-14769579D02*
X8902682Y-14760055D01*
X8902682Y-14760055D02*
X8921729Y-14731484D01*
X8921729Y-14731484D02*
X8931253Y-14712436D01*
X8931253Y-14712436D02*
X8940777Y-14683865D01*
X8940777Y-14683865D02*
X8950301Y-14636246D01*
X8950301Y-14636246D02*
X8950301Y-14598151D01*
X8950301Y-14598151D02*
X8940777Y-14550532D01*
X8940777Y-14550532D02*
X8931253Y-14521960D01*
X8931253Y-14521960D02*
X8921729Y-14502913D01*
X8921729Y-14502913D02*
X8902682Y-14474341D01*
X8902682Y-14474341D02*
X8893158Y-14464817D01*
D16*
X3958095Y-14785905D02*
X4118095Y-14945905D01*
X4118095Y-14785905D02*
X3958095Y-14945905D01*
X4038095Y-14785905D02*
X4038095Y-14945905D01*
X3958095Y-14865905D02*
X4118095Y-14865905D01*
D11*
X4483634Y-14957389D02*
X4369348Y-14957389D01*
X4426491Y-14957389D02*
X4426491Y-14757389D01*
X4426491Y-14757389D02*
X4407443Y-14785960D01*
X4407443Y-14785960D02*
X4388396Y-14805008D01*
X4388396Y-14805008D02*
X4369348Y-14814532D01*
X4569348Y-14938341D02*
X4578872Y-14947865D01*
X4578872Y-14947865D02*
X4569348Y-14957389D01*
X4569348Y-14957389D02*
X4559824Y-14947865D01*
X4559824Y-14947865D02*
X4569348Y-14938341D01*
X4569348Y-14938341D02*
X4569348Y-14957389D01*
X4750300Y-14757389D02*
X4712205Y-14757389D01*
X4712205Y-14757389D02*
X4693158Y-14766913D01*
X4693158Y-14766913D02*
X4683634Y-14776436D01*
X4683634Y-14776436D02*
X4664586Y-14805008D01*
X4664586Y-14805008D02*
X4655062Y-14843103D01*
X4655062Y-14843103D02*
X4655062Y-14919293D01*
X4655062Y-14919293D02*
X4664586Y-14938341D01*
X4664586Y-14938341D02*
X4674110Y-14947865D01*
X4674110Y-14947865D02*
X4693158Y-14957389D01*
X4693158Y-14957389D02*
X4731253Y-14957389D01*
X4731253Y-14957389D02*
X4750300Y-14947865D01*
X4750300Y-14947865D02*
X4759824Y-14938341D01*
X4759824Y-14938341D02*
X4769348Y-14919293D01*
X4769348Y-14919293D02*
X4769348Y-14871674D01*
X4769348Y-14871674D02*
X4759824Y-14852627D01*
X4759824Y-14852627D02*
X4750300Y-14843103D01*
X4750300Y-14843103D02*
X4731253Y-14833579D01*
X4731253Y-14833579D02*
X4693158Y-14833579D01*
X4693158Y-14833579D02*
X4674110Y-14843103D01*
X4674110Y-14843103D02*
X4664586Y-14852627D01*
X4664586Y-14852627D02*
X4655062Y-14871674D01*
X4893158Y-14757389D02*
X4912205Y-14757389D01*
X4912205Y-14757389D02*
X4931253Y-14766913D01*
X4931253Y-14766913D02*
X4940777Y-14776436D01*
X4940777Y-14776436D02*
X4950300Y-14795484D01*
X4950300Y-14795484D02*
X4959824Y-14833579D01*
X4959824Y-14833579D02*
X4959824Y-14881198D01*
X4959824Y-14881198D02*
X4950300Y-14919293D01*
X4950300Y-14919293D02*
X4940777Y-14938341D01*
X4940777Y-14938341D02*
X4931253Y-14947865D01*
X4931253Y-14947865D02*
X4912205Y-14957389D01*
X4912205Y-14957389D02*
X4893158Y-14957389D01*
X4893158Y-14957389D02*
X4874110Y-14947865D01*
X4874110Y-14947865D02*
X4864586Y-14938341D01*
X4864586Y-14938341D02*
X4855062Y-14919293D01*
X4855062Y-14919293D02*
X4845539Y-14881198D01*
X4845539Y-14881198D02*
X4845539Y-14833579D01*
X4845539Y-14833579D02*
X4855062Y-14795484D01*
X4855062Y-14795484D02*
X4864586Y-14776436D01*
X4864586Y-14776436D02*
X4874110Y-14766913D01*
X4874110Y-14766913D02*
X4893158Y-14757389D01*
X5083634Y-14757389D02*
X5102681Y-14757389D01*
X5102681Y-14757389D02*
X5121729Y-14766913D01*
X5121729Y-14766913D02*
X5131253Y-14776436D01*
X5131253Y-14776436D02*
X5140777Y-14795484D01*
X5140777Y-14795484D02*
X5150300Y-14833579D01*
X5150300Y-14833579D02*
X5150300Y-14881198D01*
X5150300Y-14881198D02*
X5140777Y-14919293D01*
X5140777Y-14919293D02*
X5131253Y-14938341D01*
X5131253Y-14938341D02*
X5121729Y-14947865D01*
X5121729Y-14947865D02*
X5102681Y-14957389D01*
X5102681Y-14957389D02*
X5083634Y-14957389D01*
X5083634Y-14957389D02*
X5064586Y-14947865D01*
X5064586Y-14947865D02*
X5055062Y-14938341D01*
X5055062Y-14938341D02*
X5045539Y-14919293D01*
X5045539Y-14919293D02*
X5036015Y-14881198D01*
X5036015Y-14881198D02*
X5036015Y-14833579D01*
X5036015Y-14833579D02*
X5045539Y-14795484D01*
X5045539Y-14795484D02*
X5055062Y-14776436D01*
X5055062Y-14776436D02*
X5064586Y-14766913D01*
X5064586Y-14766913D02*
X5083634Y-14757389D01*
X5236015Y-14957389D02*
X5236015Y-14824055D01*
X5236015Y-14843103D02*
X5245539Y-14833579D01*
X5245539Y-14833579D02*
X5264586Y-14824055D01*
X5264586Y-14824055D02*
X5293158Y-14824055D01*
X5293158Y-14824055D02*
X5312205Y-14833579D01*
X5312205Y-14833579D02*
X5321729Y-14852627D01*
X5321729Y-14852627D02*
X5321729Y-14957389D01*
X5321729Y-14852627D02*
X5331253Y-14833579D01*
X5331253Y-14833579D02*
X5350300Y-14824055D01*
X5350300Y-14824055D02*
X5378872Y-14824055D01*
X5378872Y-14824055D02*
X5397920Y-14833579D01*
X5397920Y-14833579D02*
X5407443Y-14852627D01*
X5407443Y-14852627D02*
X5407443Y-14957389D01*
X5502681Y-14957389D02*
X5502681Y-14824055D01*
X5502681Y-14843103D02*
X5512205Y-14833579D01*
X5512205Y-14833579D02*
X5531253Y-14824055D01*
X5531253Y-14824055D02*
X5559824Y-14824055D01*
X5559824Y-14824055D02*
X5578872Y-14833579D01*
X5578872Y-14833579D02*
X5588396Y-14852627D01*
X5588396Y-14852627D02*
X5588396Y-14957389D01*
X5588396Y-14852627D02*
X5597919Y-14833579D01*
X5597919Y-14833579D02*
X5616967Y-14824055D01*
X5616967Y-14824055D02*
X5645538Y-14824055D01*
X5645538Y-14824055D02*
X5664586Y-14833579D01*
X5664586Y-14833579D02*
X5674110Y-14852627D01*
X5674110Y-14852627D02*
X5674110Y-14957389D01*
X6064586Y-14747865D02*
X5893158Y-15005008D01*
X6321729Y-14757389D02*
X6340777Y-14757389D01*
X6340777Y-14757389D02*
X6359824Y-14766913D01*
X6359824Y-14766913D02*
X6369348Y-14776436D01*
X6369348Y-14776436D02*
X6378872Y-14795484D01*
X6378872Y-14795484D02*
X6388396Y-14833579D01*
X6388396Y-14833579D02*
X6388396Y-14881198D01*
X6388396Y-14881198D02*
X6378872Y-14919293D01*
X6378872Y-14919293D02*
X6369348Y-14938341D01*
X6369348Y-14938341D02*
X6359824Y-14947865D01*
X6359824Y-14947865D02*
X6340777Y-14957389D01*
X6340777Y-14957389D02*
X6321729Y-14957389D01*
X6321729Y-14957389D02*
X6302681Y-14947865D01*
X6302681Y-14947865D02*
X6293158Y-14938341D01*
X6293158Y-14938341D02*
X6283634Y-14919293D01*
X6283634Y-14919293D02*
X6274110Y-14881198D01*
X6274110Y-14881198D02*
X6274110Y-14833579D01*
X6274110Y-14833579D02*
X6283634Y-14795484D01*
X6283634Y-14795484D02*
X6293158Y-14776436D01*
X6293158Y-14776436D02*
X6302681Y-14766913D01*
X6302681Y-14766913D02*
X6321729Y-14757389D01*
X6474110Y-14938341D02*
X6483634Y-14947865D01*
X6483634Y-14947865D02*
X6474110Y-14957389D01*
X6474110Y-14957389D02*
X6464586Y-14947865D01*
X6464586Y-14947865D02*
X6474110Y-14938341D01*
X6474110Y-14938341D02*
X6474110Y-14957389D01*
X6607443Y-14757389D02*
X6626491Y-14757389D01*
X6626491Y-14757389D02*
X6645539Y-14766913D01*
X6645539Y-14766913D02*
X6655062Y-14776436D01*
X6655062Y-14776436D02*
X6664586Y-14795484D01*
X6664586Y-14795484D02*
X6674110Y-14833579D01*
X6674110Y-14833579D02*
X6674110Y-14881198D01*
X6674110Y-14881198D02*
X6664586Y-14919293D01*
X6664586Y-14919293D02*
X6655062Y-14938341D01*
X6655062Y-14938341D02*
X6645539Y-14947865D01*
X6645539Y-14947865D02*
X6626491Y-14957389D01*
X6626491Y-14957389D02*
X6607443Y-14957389D01*
X6607443Y-14957389D02*
X6588396Y-14947865D01*
X6588396Y-14947865D02*
X6578872Y-14938341D01*
X6578872Y-14938341D02*
X6569348Y-14919293D01*
X6569348Y-14919293D02*
X6559824Y-14881198D01*
X6559824Y-14881198D02*
X6559824Y-14833579D01*
X6559824Y-14833579D02*
X6569348Y-14795484D01*
X6569348Y-14795484D02*
X6578872Y-14776436D01*
X6578872Y-14776436D02*
X6588396Y-14766913D01*
X6588396Y-14766913D02*
X6607443Y-14757389D01*
X6845539Y-14757389D02*
X6807443Y-14757389D01*
X6807443Y-14757389D02*
X6788396Y-14766913D01*
X6788396Y-14766913D02*
X6778872Y-14776436D01*
X6778872Y-14776436D02*
X6759824Y-14805008D01*
X6759824Y-14805008D02*
X6750301Y-14843103D01*
X6750301Y-14843103D02*
X6750301Y-14919293D01*
X6750301Y-14919293D02*
X6759824Y-14938341D01*
X6759824Y-14938341D02*
X6769348Y-14947865D01*
X6769348Y-14947865D02*
X6788396Y-14957389D01*
X6788396Y-14957389D02*
X6826491Y-14957389D01*
X6826491Y-14957389D02*
X6845539Y-14947865D01*
X6845539Y-14947865D02*
X6855062Y-14938341D01*
X6855062Y-14938341D02*
X6864586Y-14919293D01*
X6864586Y-14919293D02*
X6864586Y-14871674D01*
X6864586Y-14871674D02*
X6855062Y-14852627D01*
X6855062Y-14852627D02*
X6845539Y-14843103D01*
X6845539Y-14843103D02*
X6826491Y-14833579D01*
X6826491Y-14833579D02*
X6788396Y-14833579D01*
X6788396Y-14833579D02*
X6769348Y-14843103D01*
X6769348Y-14843103D02*
X6759824Y-14852627D01*
X6759824Y-14852627D02*
X6750301Y-14871674D01*
X6931253Y-14757389D02*
X7055062Y-14757389D01*
X7055062Y-14757389D02*
X6988396Y-14833579D01*
X6988396Y-14833579D02*
X7016967Y-14833579D01*
X7016967Y-14833579D02*
X7036015Y-14843103D01*
X7036015Y-14843103D02*
X7045539Y-14852627D01*
X7045539Y-14852627D02*
X7055062Y-14871674D01*
X7055062Y-14871674D02*
X7055062Y-14919293D01*
X7055062Y-14919293D02*
X7045539Y-14938341D01*
X7045539Y-14938341D02*
X7036015Y-14947865D01*
X7036015Y-14947865D02*
X7016967Y-14957389D01*
X7016967Y-14957389D02*
X6959824Y-14957389D01*
X6959824Y-14957389D02*
X6940777Y-14947865D01*
X6940777Y-14947865D02*
X6931253Y-14938341D01*
X7178872Y-14757389D02*
X7197920Y-14757389D01*
X7197920Y-14757389D02*
X7216967Y-14766913D01*
X7216967Y-14766913D02*
X7226491Y-14776436D01*
X7226491Y-14776436D02*
X7236015Y-14795484D01*
X7236015Y-14795484D02*
X7245539Y-14833579D01*
X7245539Y-14833579D02*
X7245539Y-14881198D01*
X7245539Y-14881198D02*
X7236015Y-14919293D01*
X7236015Y-14919293D02*
X7226491Y-14938341D01*
X7226491Y-14938341D02*
X7216967Y-14947865D01*
X7216967Y-14947865D02*
X7197920Y-14957389D01*
X7197920Y-14957389D02*
X7178872Y-14957389D01*
X7178872Y-14957389D02*
X7159824Y-14947865D01*
X7159824Y-14947865D02*
X7150301Y-14938341D01*
X7150301Y-14938341D02*
X7140777Y-14919293D01*
X7140777Y-14919293D02*
X7131253Y-14881198D01*
X7131253Y-14881198D02*
X7131253Y-14833579D01*
X7131253Y-14833579D02*
X7140777Y-14795484D01*
X7140777Y-14795484D02*
X7150301Y-14776436D01*
X7150301Y-14776436D02*
X7159824Y-14766913D01*
X7159824Y-14766913D02*
X7178872Y-14757389D01*
X7321729Y-14757389D02*
X7321729Y-14795484D01*
X7397920Y-14757389D02*
X7397920Y-14795484D01*
X7693158Y-15033579D02*
X7683634Y-15024055D01*
X7683634Y-15024055D02*
X7664586Y-14995484D01*
X7664586Y-14995484D02*
X7655063Y-14976436D01*
X7655063Y-14976436D02*
X7645539Y-14947865D01*
X7645539Y-14947865D02*
X7636015Y-14900246D01*
X7636015Y-14900246D02*
X7636015Y-14862151D01*
X7636015Y-14862151D02*
X7645539Y-14814532D01*
X7645539Y-14814532D02*
X7655063Y-14785960D01*
X7655063Y-14785960D02*
X7664586Y-14766913D01*
X7664586Y-14766913D02*
X7683634Y-14738341D01*
X7683634Y-14738341D02*
X7693158Y-14728817D01*
X7759824Y-14776436D02*
X7769348Y-14766913D01*
X7769348Y-14766913D02*
X7788396Y-14757389D01*
X7788396Y-14757389D02*
X7836015Y-14757389D01*
X7836015Y-14757389D02*
X7855063Y-14766913D01*
X7855063Y-14766913D02*
X7864586Y-14776436D01*
X7864586Y-14776436D02*
X7874110Y-14795484D01*
X7874110Y-14795484D02*
X7874110Y-14814532D01*
X7874110Y-14814532D02*
X7864586Y-14843103D01*
X7864586Y-14843103D02*
X7750301Y-14957389D01*
X7750301Y-14957389D02*
X7874110Y-14957389D01*
X8112205Y-14957389D02*
X8112205Y-14757389D01*
X8197920Y-14957389D02*
X8197920Y-14852627D01*
X8197920Y-14852627D02*
X8188396Y-14833579D01*
X8188396Y-14833579D02*
X8169348Y-14824055D01*
X8169348Y-14824055D02*
X8140777Y-14824055D01*
X8140777Y-14824055D02*
X8121729Y-14833579D01*
X8121729Y-14833579D02*
X8112205Y-14843103D01*
X8321729Y-14957389D02*
X8302682Y-14947865D01*
X8302682Y-14947865D02*
X8293158Y-14938341D01*
X8293158Y-14938341D02*
X8283634Y-14919293D01*
X8283634Y-14919293D02*
X8283634Y-14862151D01*
X8283634Y-14862151D02*
X8293158Y-14843103D01*
X8293158Y-14843103D02*
X8302682Y-14833579D01*
X8302682Y-14833579D02*
X8321729Y-14824055D01*
X8321729Y-14824055D02*
X8350301Y-14824055D01*
X8350301Y-14824055D02*
X8369348Y-14833579D01*
X8369348Y-14833579D02*
X8378872Y-14843103D01*
X8378872Y-14843103D02*
X8388396Y-14862151D01*
X8388396Y-14862151D02*
X8388396Y-14919293D01*
X8388396Y-14919293D02*
X8378872Y-14938341D01*
X8378872Y-14938341D02*
X8369348Y-14947865D01*
X8369348Y-14947865D02*
X8350301Y-14957389D01*
X8350301Y-14957389D02*
X8321729Y-14957389D01*
X8502682Y-14957389D02*
X8483634Y-14947865D01*
X8483634Y-14947865D02*
X8474110Y-14928817D01*
X8474110Y-14928817D02*
X8474110Y-14757389D01*
X8655063Y-14947865D02*
X8636015Y-14957389D01*
X8636015Y-14957389D02*
X8597920Y-14957389D01*
X8597920Y-14957389D02*
X8578872Y-14947865D01*
X8578872Y-14947865D02*
X8569348Y-14928817D01*
X8569348Y-14928817D02*
X8569348Y-14852627D01*
X8569348Y-14852627D02*
X8578872Y-14833579D01*
X8578872Y-14833579D02*
X8597920Y-14824055D01*
X8597920Y-14824055D02*
X8636015Y-14824055D01*
X8636015Y-14824055D02*
X8655063Y-14833579D01*
X8655063Y-14833579D02*
X8664587Y-14852627D01*
X8664587Y-14852627D02*
X8664587Y-14871674D01*
X8664587Y-14871674D02*
X8569348Y-14890722D01*
X8740777Y-14947865D02*
X8759825Y-14957389D01*
X8759825Y-14957389D02*
X8797920Y-14957389D01*
X8797920Y-14957389D02*
X8816968Y-14947865D01*
X8816968Y-14947865D02*
X8826491Y-14928817D01*
X8826491Y-14928817D02*
X8826491Y-14919293D01*
X8826491Y-14919293D02*
X8816968Y-14900246D01*
X8816968Y-14900246D02*
X8797920Y-14890722D01*
X8797920Y-14890722D02*
X8769348Y-14890722D01*
X8769348Y-14890722D02*
X8750301Y-14881198D01*
X8750301Y-14881198D02*
X8740777Y-14862151D01*
X8740777Y-14862151D02*
X8740777Y-14852627D01*
X8740777Y-14852627D02*
X8750301Y-14833579D01*
X8750301Y-14833579D02*
X8769348Y-14824055D01*
X8769348Y-14824055D02*
X8797920Y-14824055D01*
X8797920Y-14824055D02*
X8816968Y-14833579D01*
X8893158Y-15033579D02*
X8902682Y-15024055D01*
X8902682Y-15024055D02*
X8921729Y-14995484D01*
X8921729Y-14995484D02*
X8931253Y-14976436D01*
X8931253Y-14976436D02*
X8940777Y-14947865D01*
X8940777Y-14947865D02*
X8950301Y-14900246D01*
X8950301Y-14900246D02*
X8950301Y-14862151D01*
X8950301Y-14862151D02*
X8940777Y-14814532D01*
X8940777Y-14814532D02*
X8931253Y-14785960D01*
X8931253Y-14785960D02*
X8921729Y-14766913D01*
X8921729Y-14766913D02*
X8902682Y-14738341D01*
X8902682Y-14738341D02*
X8893158Y-14728817D01*
M02*
