%TF.GenerationSoftware,KiCad,Pcbnew,9.0.1*%
%TF.CreationDate,2026-06-14T16:48:36+03:00*%
%TF.ProjectId,arco,6172636f-2e6b-4696-9361-645f70636258,rev?*%
%TF.SameCoordinates,Original*%
%TF.FileFunction,Drillmap*%
%TF.FilePolarity,Positive*%
%FSLAX45Y45*%
G04 Gerber Fmt 4.5, Leading zero omitted, Abs format (unit mm)*
G04 Created by KiCad (PCBNEW 9.0.1) date 2026-06-14 16:48:36*
%MOMM*%
%LPD*%
G01*
G04 APERTURE LIST*
%ADD10C,0.038100*%
%ADD11C,0.200000*%
G04 APERTURE END LIST*
D10*
X4120000Y-4580000D02*
X13760000Y-4580000D01*
X13760000Y-12640000D01*
X4120000Y-12640000D01*
X4120000Y-4580000D01*
D11*
X4378872Y-12953389D02*
X4378872Y-12753389D01*
X4378872Y-12753389D02*
X4426491Y-12753389D01*
X4426491Y-12753389D02*
X4455062Y-12762913D01*
X4455062Y-12762913D02*
X4474110Y-12781960D01*
X4474110Y-12781960D02*
X4483634Y-12801008D01*
X4483634Y-12801008D02*
X4493158Y-12839103D01*
X4493158Y-12839103D02*
X4493158Y-12867674D01*
X4493158Y-12867674D02*
X4483634Y-12905770D01*
X4483634Y-12905770D02*
X4474110Y-12924817D01*
X4474110Y-12924817D02*
X4455062Y-12943865D01*
X4455062Y-12943865D02*
X4426491Y-12953389D01*
X4426491Y-12953389D02*
X4378872Y-12953389D01*
X4578872Y-12953389D02*
X4578872Y-12820055D01*
X4578872Y-12858151D02*
X4588396Y-12839103D01*
X4588396Y-12839103D02*
X4597919Y-12829579D01*
X4597919Y-12829579D02*
X4616967Y-12820055D01*
X4616967Y-12820055D02*
X4636015Y-12820055D01*
X4702681Y-12953389D02*
X4702681Y-12820055D01*
X4702681Y-12753389D02*
X4693158Y-12762913D01*
X4693158Y-12762913D02*
X4702681Y-12772436D01*
X4702681Y-12772436D02*
X4712205Y-12762913D01*
X4712205Y-12762913D02*
X4702681Y-12753389D01*
X4702681Y-12753389D02*
X4702681Y-12772436D01*
X4826491Y-12953389D02*
X4807443Y-12943865D01*
X4807443Y-12943865D02*
X4797919Y-12924817D01*
X4797919Y-12924817D02*
X4797919Y-12753389D01*
X4931253Y-12953389D02*
X4912205Y-12943865D01*
X4912205Y-12943865D02*
X4902681Y-12924817D01*
X4902681Y-12924817D02*
X4902681Y-12753389D01*
X5159824Y-12953389D02*
X5159824Y-12753389D01*
X5159824Y-12753389D02*
X5226491Y-12896246D01*
X5226491Y-12896246D02*
X5293158Y-12753389D01*
X5293158Y-12753389D02*
X5293158Y-12953389D01*
X5474110Y-12953389D02*
X5474110Y-12848627D01*
X5474110Y-12848627D02*
X5464586Y-12829579D01*
X5464586Y-12829579D02*
X5445539Y-12820055D01*
X5445539Y-12820055D02*
X5407443Y-12820055D01*
X5407443Y-12820055D02*
X5388396Y-12829579D01*
X5474110Y-12943865D02*
X5455062Y-12953389D01*
X5455062Y-12953389D02*
X5407443Y-12953389D01*
X5407443Y-12953389D02*
X5388396Y-12943865D01*
X5388396Y-12943865D02*
X5378872Y-12924817D01*
X5378872Y-12924817D02*
X5378872Y-12905770D01*
X5378872Y-12905770D02*
X5388396Y-12886722D01*
X5388396Y-12886722D02*
X5407443Y-12877198D01*
X5407443Y-12877198D02*
X5455062Y-12877198D01*
X5455062Y-12877198D02*
X5474110Y-12867674D01*
X5569348Y-12820055D02*
X5569348Y-13020055D01*
X5569348Y-12829579D02*
X5588396Y-12820055D01*
X5588396Y-12820055D02*
X5626491Y-12820055D01*
X5626491Y-12820055D02*
X5645538Y-12829579D01*
X5645538Y-12829579D02*
X5655062Y-12839103D01*
X5655062Y-12839103D02*
X5664586Y-12858151D01*
X5664586Y-12858151D02*
X5664586Y-12915293D01*
X5664586Y-12915293D02*
X5655062Y-12934341D01*
X5655062Y-12934341D02*
X5645538Y-12943865D01*
X5645538Y-12943865D02*
X5626491Y-12953389D01*
X5626491Y-12953389D02*
X5588396Y-12953389D01*
X5588396Y-12953389D02*
X5569348Y-12943865D01*
X5750300Y-12934341D02*
X5759824Y-12943865D01*
X5759824Y-12943865D02*
X5750300Y-12953389D01*
X5750300Y-12953389D02*
X5740777Y-12943865D01*
X5740777Y-12943865D02*
X5750300Y-12934341D01*
X5750300Y-12934341D02*
X5750300Y-12953389D01*
X5750300Y-12829579D02*
X5759824Y-12839103D01*
X5759824Y-12839103D02*
X5750300Y-12848627D01*
X5750300Y-12848627D02*
X5740777Y-12839103D01*
X5740777Y-12839103D02*
X5750300Y-12829579D01*
X5750300Y-12829579D02*
X5750300Y-12848627D01*
M02*
