G04 #@! TF.GenerationSoftware,KiCad,Pcbnew,9.0.1*
G04 #@! TF.CreationDate,2026-06-14T16:48:45+03:00*
G04 #@! TF.ProjectId,arco,6172636f-2e6b-4696-9361-645f70636258,rev?*
G04 #@! TF.SameCoordinates,Original*
G04 #@! TF.FileFunction,Copper,L4,Bot*
G04 #@! TF.FilePolarity,Positive*
%FSLAX46Y46*%
G04 Gerber Fmt 4.6, Leading zero omitted, Abs format (unit mm)*
G04 Created by KiCad (PCBNEW 9.0.1) date 2026-06-14 16:48:45*
%MOMM*%
%LPD*%
G01*
G04 APERTURE LIST*
G04 Aperture macros list*
%AMRoundRect*
0 Rectangle with rounded corners*
0 $1 Rounding radius*
0 $2 $3 $4 $5 $6 $7 $8 $9 X,Y pos of 4 corners*
0 Add a 4 corners polygon primitive as box body*
4,1,4,$2,$3,$4,$5,$6,$7,$8,$9,$2,$3,0*
0 Add four circle primitives for the rounded corners*
1,1,$1+$1,$2,$3*
1,1,$1+$1,$4,$5*
1,1,$1+$1,$6,$7*
1,1,$1+$1,$8,$9*
0 Add four rect primitives between the rounded corners*
20,1,$1+$1,$2,$3,$4,$5,0*
20,1,$1+$1,$4,$5,$6,$7,0*
20,1,$1+$1,$6,$7,$8,$9,0*
20,1,$1+$1,$8,$9,$2,$3,0*%
G04 Aperture macros list end*
G04 #@! TA.AperFunction,ComponentPad*
%ADD10R,2.400000X2.400000*%
G04 #@! TD*
G04 #@! TA.AperFunction,ComponentPad*
%ADD11C,2.400000*%
G04 #@! TD*
G04 #@! TA.AperFunction,ComponentPad*
%ADD12R,1.905000X2.000000*%
G04 #@! TD*
G04 #@! TA.AperFunction,ComponentPad*
%ADD13O,1.905000X2.000000*%
G04 #@! TD*
G04 #@! TA.AperFunction,ComponentPad*
%ADD14C,1.600000*%
G04 #@! TD*
G04 #@! TA.AperFunction,ComponentPad*
%ADD15R,1.700000X1.700000*%
G04 #@! TD*
G04 #@! TA.AperFunction,ComponentPad*
%ADD16C,1.700000*%
G04 #@! TD*
G04 #@! TA.AperFunction,ComponentPad*
%ADD17R,1.600000X1.600000*%
G04 #@! TD*
G04 #@! TA.AperFunction,ComponentPad*
%ADD18O,1.600000X1.600000*%
G04 #@! TD*
G04 #@! TA.AperFunction,ComponentPad*
%ADD19RoundRect,0.250001X1.149999X1.149999X-1.149999X1.149999X-1.149999X-1.149999X1.149999X-1.149999X0*%
G04 #@! TD*
G04 #@! TA.AperFunction,ComponentPad*
%ADD20C,2.800000*%
G04 #@! TD*
G04 #@! TA.AperFunction,ComponentPad*
%ADD21RoundRect,0.250000X0.550000X-0.550000X0.550000X0.550000X-0.550000X0.550000X-0.550000X-0.550000X0*%
G04 #@! TD*
G04 #@! TA.AperFunction,ComponentPad*
%ADD22RoundRect,0.250001X1.149999X-1.149999X1.149999X1.149999X-1.149999X1.149999X-1.149999X-1.149999X0*%
G04 #@! TD*
G04 #@! TA.AperFunction,ComponentPad*
%ADD23C,2.600000*%
G04 #@! TD*
G04 #@! TA.AperFunction,ComponentPad*
%ADD24RoundRect,0.250000X-0.550000X0.550000X-0.550000X-0.550000X0.550000X-0.550000X0.550000X0.550000X0*%
G04 #@! TD*
G04 #@! TA.AperFunction,ComponentPad*
%ADD25R,3.200000X3.200000*%
G04 #@! TD*
G04 #@! TA.AperFunction,ComponentPad*
%ADD26O,3.200000X3.200000*%
G04 #@! TD*
G04 #@! TA.AperFunction,ViaPad*
%ADD27C,0.600000*%
G04 #@! TD*
G04 #@! TA.AperFunction,Conductor*
%ADD28C,0.127000*%
G04 #@! TD*
G04 #@! TA.AperFunction,Conductor*
%ADD29C,0.200000*%
G04 #@! TD*
G04 APERTURE END LIST*
D10*
X134100000Y-62850000D03*
D11*
X116100000Y-62850000D03*
D12*
X94295000Y-76240000D03*
D13*
X91755000Y-76240000D03*
X89215000Y-76240000D03*
D14*
X48000000Y-123100000D03*
X48000000Y-108100000D03*
D15*
X83000000Y-76580000D03*
D16*
X83000000Y-74040000D03*
X83000000Y-71500000D03*
D17*
X71375000Y-111370000D03*
D18*
X71375000Y-103750000D03*
D19*
X133100000Y-72350000D03*
D20*
X128100000Y-72350000D03*
D17*
X108255000Y-111495000D03*
D18*
X108255000Y-103875000D03*
D21*
X98215000Y-122490000D03*
D14*
X100755000Y-122490000D03*
X103295000Y-122490000D03*
X105835000Y-122490000D03*
X105835000Y-114870000D03*
X103295000Y-114870000D03*
X100755000Y-114870000D03*
X98215000Y-114870000D03*
D17*
X60375000Y-111870000D03*
D18*
X60375000Y-104250000D03*
D22*
X62875000Y-88870000D03*
D20*
X62875000Y-83870000D03*
D12*
X58875000Y-75370000D03*
D13*
X56335000Y-75370000D03*
X53795000Y-75370000D03*
D23*
X117600000Y-81850000D03*
X117600000Y-86850000D03*
D12*
X106795000Y-76240000D03*
D13*
X104255000Y-76240000D03*
X101715000Y-76240000D03*
D10*
X115600000Y-102742500D03*
D11*
X133600000Y-102742500D03*
D24*
X100875000Y-50065000D03*
D14*
X98335000Y-50065000D03*
X95795000Y-50065000D03*
X93255000Y-50065000D03*
X93255000Y-57685000D03*
X95795000Y-57685000D03*
X98335000Y-57685000D03*
X100875000Y-57685000D03*
D17*
X106295000Y-62930000D03*
D18*
X106295000Y-70550000D03*
D17*
X92255000Y-111185000D03*
D18*
X92255000Y-103565000D03*
D24*
X64185000Y-51226750D03*
D14*
X61645000Y-51226750D03*
X59105000Y-51226750D03*
X56565000Y-51226750D03*
X56565000Y-58846750D03*
X59105000Y-58846750D03*
X61645000Y-58846750D03*
X64185000Y-58846750D03*
D17*
X58875000Y-63750000D03*
D18*
X58875000Y-71370000D03*
D12*
X70375000Y-75370000D03*
D13*
X67835000Y-75370000D03*
X65295000Y-75370000D03*
D17*
X70875000Y-63750000D03*
D18*
X70875000Y-71370000D03*
D21*
X63565000Y-122675000D03*
D14*
X66105000Y-122675000D03*
X68645000Y-122675000D03*
X71185000Y-122675000D03*
X71185000Y-115055000D03*
X68645000Y-115055000D03*
X66105000Y-115055000D03*
X63565000Y-115055000D03*
D12*
X59375000Y-97370000D03*
D13*
X56835000Y-97370000D03*
X54295000Y-97370000D03*
D14*
X81755000Y-84185000D03*
X81755000Y-99185000D03*
D17*
X94215000Y-62930000D03*
D18*
X94215000Y-70550000D03*
D25*
X117100000Y-74390000D03*
D26*
X117100000Y-69310000D03*
D12*
X101675000Y-98685000D03*
D13*
X104215000Y-98685000D03*
X106755000Y-98685000D03*
D15*
X78000000Y-76500000D03*
D16*
X78000000Y-73960000D03*
X78000000Y-71420000D03*
X78000000Y-68880000D03*
X78000000Y-66340000D03*
X78000000Y-63800000D03*
X78000000Y-61260000D03*
D22*
X99222500Y-89435000D03*
D20*
X99222500Y-84435000D03*
D12*
X70955000Y-97370000D03*
D13*
X68415000Y-97370000D03*
X65875000Y-97370000D03*
D12*
X90255000Y-98685000D03*
D13*
X92795000Y-98685000D03*
X95335000Y-98685000D03*
D27*
X110065000Y-54870000D03*
X67924500Y-92870000D03*
X95565000Y-122870000D03*
X102565000Y-104870000D03*
X98565000Y-111370000D03*
X67565000Y-64870000D03*
X102065000Y-86870000D03*
D28*
X64600000Y-124800000D02*
X68000000Y-124800000D01*
X107565000Y-72930000D02*
X107565000Y-72870000D01*
X95565000Y-122870000D02*
X95565000Y-121870000D01*
X63565000Y-123765000D02*
X64600000Y-124800000D01*
X68000000Y-124800000D02*
X68645000Y-124155000D01*
D29*
X92795000Y-98685000D02*
X92795000Y-87700000D01*
X56835000Y-97370000D02*
X61335000Y-92870000D01*
X100095000Y-124370000D02*
X101415000Y-124370000D01*
D28*
X110065000Y-70370000D02*
X110065000Y-54870000D01*
D29*
X101415000Y-124370000D02*
X103295000Y-122490000D01*
X63565000Y-117870000D02*
X63565000Y-122675000D01*
X104255000Y-76240000D02*
X107565000Y-72930000D01*
X56835000Y-111140000D02*
X63565000Y-117870000D01*
D28*
X83000000Y-74040000D02*
X78080000Y-74040000D01*
X63565000Y-122675000D02*
X63565000Y-123765000D01*
X95945000Y-122490000D02*
X95565000Y-122870000D01*
D29*
X98215000Y-122490000D02*
X100095000Y-124370000D01*
D28*
X95565000Y-121870000D02*
X94565000Y-120870000D01*
D29*
X92795000Y-87700000D02*
X104255000Y-76240000D01*
D28*
X107565000Y-72870000D02*
X110065000Y-70370000D01*
D29*
X56835000Y-97370000D02*
X56835000Y-111140000D01*
X92795000Y-98685000D02*
X94565000Y-100455000D01*
D28*
X98215000Y-122490000D02*
X95945000Y-122490000D01*
D29*
X94565000Y-100455000D02*
X94565000Y-120870000D01*
D28*
X78080000Y-74040000D02*
X78000000Y-73960000D01*
D29*
X61335000Y-92870000D02*
X67924500Y-92870000D01*
D28*
X68645000Y-124155000D02*
X68645000Y-122675000D01*
D29*
X69565000Y-96220000D02*
X69565000Y-90370000D01*
X69565000Y-90370000D02*
X68065000Y-88870000D01*
X54295000Y-93140000D02*
X58565000Y-88870000D01*
X54295000Y-97370000D02*
X54295000Y-93140000D01*
X68415000Y-97370000D02*
X69565000Y-96220000D01*
X68065000Y-88870000D02*
X62875000Y-88870000D01*
X58565000Y-88870000D02*
X62875000Y-88870000D01*
X62875000Y-83870000D02*
X56335000Y-77330000D01*
X62875000Y-77790000D02*
X65295000Y-75370000D01*
X62875000Y-83870000D02*
X62875000Y-77790000D01*
X56335000Y-77330000D02*
X56335000Y-75370000D01*
X59375000Y-103250000D02*
X60375000Y-104250000D01*
X59375000Y-97370000D02*
X59375000Y-103250000D01*
X104215000Y-99220000D02*
X104215000Y-98685000D01*
X95335000Y-93322500D02*
X99222500Y-89435000D01*
D28*
X102565000Y-104870000D02*
X104215000Y-103220000D01*
X104215000Y-103220000D02*
X104215000Y-98685000D01*
D29*
X104215000Y-98685000D02*
X104215000Y-94427500D01*
X95335000Y-98685000D02*
X95335000Y-93322500D01*
X104215000Y-94427500D02*
X99222500Y-89435000D01*
D28*
X98215000Y-114870000D02*
X98215000Y-111720000D01*
X98215000Y-111720000D02*
X98565000Y-111370000D01*
D29*
X81755000Y-99185000D02*
X89755000Y-99185000D01*
X90255000Y-101565000D02*
X92255000Y-103565000D01*
X90255000Y-98685000D02*
X90255000Y-101565000D01*
X89755000Y-99185000D02*
X90255000Y-98685000D01*
D28*
X70875000Y-71370000D02*
X70875000Y-74870000D01*
X70875000Y-74870000D02*
X70375000Y-75370000D01*
X67565000Y-64250000D02*
X68065000Y-63750000D01*
X62445000Y-63750000D02*
X68065000Y-63750000D01*
X68065000Y-63750000D02*
X70875000Y-63750000D01*
X61645000Y-62950000D02*
X62445000Y-63750000D01*
X61645000Y-58846750D02*
X61645000Y-62950000D01*
X67565000Y-64870000D02*
X67565000Y-64250000D01*
X62920000Y-111870000D02*
X60375000Y-111870000D01*
X66105000Y-115055000D02*
X62920000Y-111870000D01*
D29*
X71185000Y-111560000D02*
X71375000Y-111370000D01*
X71185000Y-115055000D02*
X71185000Y-111560000D01*
X58875000Y-63750000D02*
X58185000Y-63750000D01*
X58875000Y-71370000D02*
X58875000Y-75370000D01*
X108255000Y-112450000D02*
X105835000Y-114870000D01*
X108255000Y-111495000D02*
X108255000Y-112450000D01*
X103580000Y-62930000D02*
X106295000Y-62930000D01*
X98335000Y-57685000D02*
X103580000Y-62930000D01*
X106755000Y-91560000D02*
X102065000Y-86870000D01*
X106755000Y-98685000D02*
X106755000Y-91560000D01*
D28*
X71180000Y-117600000D02*
X74800000Y-117600000D01*
X66105000Y-122675000D02*
X71180000Y-117600000D01*
X74800000Y-67000000D02*
X78000000Y-63800000D01*
X74800000Y-117600000D02*
X74800000Y-67000000D01*
X81060000Y-66340000D02*
X78000000Y-66340000D01*
X62000000Y-50871750D02*
X62000000Y-47800000D01*
X81200000Y-66200000D02*
X81060000Y-66340000D01*
X80800000Y-47800000D02*
X81200000Y-48200000D01*
X81200000Y-48200000D02*
X81200000Y-66200000D01*
X61645000Y-51226750D02*
X62000000Y-50871750D01*
X62000000Y-47800000D02*
X80800000Y-47800000D01*
X89600000Y-54200000D02*
X89800000Y-54000000D01*
X89600000Y-59820000D02*
X89600000Y-54200000D01*
X78000000Y-71420000D02*
X89600000Y-59820000D01*
X89800000Y-54000000D02*
X94400000Y-54000000D01*
X94400000Y-54000000D02*
X98335000Y-50065000D01*
G04 #@! TA.AperFunction,Conductor*
G36*
X137042539Y-46320185D02*
G01*
X137088294Y-46372989D01*
X137099500Y-46424500D01*
X137099500Y-125775500D01*
X137079815Y-125842539D01*
X137027011Y-125888294D01*
X136975500Y-125899500D01*
X41824500Y-125899500D01*
X41757461Y-125879815D01*
X41711706Y-125827011D01*
X41700500Y-125775500D01*
X41700500Y-122997682D01*
X46700000Y-122997682D01*
X46700000Y-123202317D01*
X46732009Y-123404417D01*
X46795244Y-123599031D01*
X46888141Y-123781350D01*
X46888147Y-123781359D01*
X46920523Y-123825921D01*
X46920524Y-123825922D01*
X47600000Y-123146446D01*
X47600000Y-123152661D01*
X47627259Y-123254394D01*
X47679920Y-123345606D01*
X47754394Y-123420080D01*
X47845606Y-123472741D01*
X47947339Y-123500000D01*
X47953553Y-123500000D01*
X47274076Y-124179474D01*
X47318650Y-124211859D01*
X47500968Y-124304755D01*
X47695582Y-124367990D01*
X47897683Y-124400000D01*
X48102317Y-124400000D01*
X48304417Y-124367990D01*
X48499031Y-124304755D01*
X48681349Y-124211859D01*
X48725921Y-124179474D01*
X48046447Y-123500000D01*
X48052661Y-123500000D01*
X48154394Y-123472741D01*
X48245606Y-123420080D01*
X48320080Y-123345606D01*
X48372741Y-123254394D01*
X48400000Y-123152661D01*
X48400000Y-123146448D01*
X49079474Y-123825922D01*
X49079474Y-123825921D01*
X49111859Y-123781349D01*
X49204755Y-123599031D01*
X49267990Y-123404417D01*
X49300000Y-123202317D01*
X49300000Y-122997682D01*
X49267990Y-122795582D01*
X49204755Y-122600968D01*
X49111859Y-122418650D01*
X49079474Y-122374077D01*
X49079474Y-122374076D01*
X48400000Y-123053551D01*
X48400000Y-123047339D01*
X48372741Y-122945606D01*
X48320080Y-122854394D01*
X48245606Y-122779920D01*
X48154394Y-122727259D01*
X48052661Y-122700000D01*
X48046446Y-122700000D01*
X48725922Y-122020524D01*
X48725921Y-122020523D01*
X48681359Y-121988147D01*
X48681350Y-121988141D01*
X48499031Y-121895244D01*
X48304417Y-121832009D01*
X48102317Y-121800000D01*
X47897683Y-121800000D01*
X47695582Y-121832009D01*
X47500968Y-121895244D01*
X47318644Y-121988143D01*
X47274077Y-122020523D01*
X47274077Y-122020524D01*
X47953554Y-122700000D01*
X47947339Y-122700000D01*
X47845606Y-122727259D01*
X47754394Y-122779920D01*
X47679920Y-122854394D01*
X47627259Y-122945606D01*
X47600000Y-123047339D01*
X47600000Y-123053553D01*
X46920524Y-122374077D01*
X46920523Y-122374077D01*
X46888143Y-122418644D01*
X46795244Y-122600968D01*
X46732009Y-122795582D01*
X46700000Y-122997682D01*
X41700500Y-122997682D01*
X41700500Y-107997648D01*
X46699500Y-107997648D01*
X46699500Y-108202351D01*
X46731522Y-108404534D01*
X46794781Y-108599223D01*
X46887715Y-108781613D01*
X47008028Y-108947213D01*
X47152786Y-109091971D01*
X47307749Y-109204556D01*
X47318390Y-109212287D01*
X47434607Y-109271503D01*
X47500776Y-109305218D01*
X47500778Y-109305218D01*
X47500781Y-109305220D01*
X47605137Y-109339127D01*
X47695465Y-109368477D01*
X47796557Y-109384488D01*
X47897648Y-109400500D01*
X47897649Y-109400500D01*
X48102351Y-109400500D01*
X48102352Y-109400500D01*
X48304534Y-109368477D01*
X48499219Y-109305220D01*
X48681610Y-109212287D01*
X48774590Y-109144732D01*
X48847213Y-109091971D01*
X48847215Y-109091968D01*
X48847219Y-109091966D01*
X48991966Y-108947219D01*
X48991968Y-108947215D01*
X48991971Y-108947213D01*
X49044732Y-108874590D01*
X49112287Y-108781610D01*
X49205220Y-108599219D01*
X49268477Y-108404534D01*
X49300500Y-108202352D01*
X49300500Y-107997648D01*
X49268477Y-107795466D01*
X49205220Y-107600781D01*
X49205218Y-107600778D01*
X49205218Y-107600776D01*
X49171503Y-107534607D01*
X49112287Y-107418390D01*
X49104556Y-107407749D01*
X48991971Y-107252786D01*
X48847213Y-107108028D01*
X48681613Y-106987715D01*
X48681612Y-106987714D01*
X48681610Y-106987713D01*
X48624653Y-106958691D01*
X48499223Y-106894781D01*
X48304534Y-106831522D01*
X48129995Y-106803878D01*
X48102352Y-106799500D01*
X47897648Y-106799500D01*
X47873329Y-106803351D01*
X47695465Y-106831522D01*
X47500776Y-106894781D01*
X47318386Y-106987715D01*
X47152786Y-107108028D01*
X47008028Y-107252786D01*
X46887715Y-107418386D01*
X46794781Y-107600776D01*
X46731522Y-107795465D01*
X46699500Y-107997648D01*
X41700500Y-107997648D01*
X41700500Y-97208146D01*
X52842000Y-97208146D01*
X52842000Y-97531853D01*
X52877778Y-97757746D01*
X52877778Y-97757749D01*
X52948450Y-97975255D01*
X52998108Y-98072713D01*
X53052283Y-98179038D01*
X53186714Y-98364066D01*
X53348434Y-98525786D01*
X53533462Y-98660217D01*
X53737242Y-98764048D01*
X53737244Y-98764049D01*
X53954751Y-98834721D01*
X53954752Y-98834721D01*
X53954755Y-98834722D01*
X54180646Y-98870500D01*
X54180647Y-98870500D01*
X54409353Y-98870500D01*
X54409354Y-98870500D01*
X54635245Y-98834722D01*
X54635248Y-98834721D01*
X54635249Y-98834721D01*
X54852755Y-98764049D01*
X54852755Y-98764048D01*
X54852758Y-98764048D01*
X55056538Y-98660217D01*
X55241566Y-98525786D01*
X55403286Y-98364066D01*
X55464683Y-98279559D01*
X55520012Y-98236896D01*
X55589625Y-98230917D01*
X55651420Y-98263523D01*
X55665314Y-98279556D01*
X55726714Y-98364066D01*
X55888434Y-98525786D01*
X56073462Y-98660217D01*
X56166795Y-98707772D01*
X56217590Y-98755745D01*
X56234500Y-98818256D01*
X56234500Y-111053330D01*
X56234499Y-111053348D01*
X56234499Y-111219054D01*
X56234498Y-111219054D01*
X56234499Y-111219057D01*
X56275423Y-111371785D01*
X56295356Y-111406309D01*
X56334772Y-111474580D01*
X56354479Y-111508715D01*
X56473349Y-111627585D01*
X56473355Y-111627590D01*
X62928181Y-118082416D01*
X62961666Y-118143739D01*
X62964500Y-118170097D01*
X62964500Y-121262837D01*
X62944815Y-121329876D01*
X62892011Y-121375631D01*
X62866459Y-121384089D01*
X62862207Y-121384999D01*
X62695668Y-121440185D01*
X62695663Y-121440187D01*
X62546342Y-121532289D01*
X62422289Y-121656342D01*
X62330187Y-121805663D01*
X62330185Y-121805668D01*
X62329283Y-121808390D01*
X62275001Y-121972203D01*
X62275001Y-121972204D01*
X62275000Y-121972204D01*
X62264500Y-122074983D01*
X62264500Y-123275001D01*
X62264501Y-123275018D01*
X62275000Y-123377796D01*
X62275001Y-123377799D01*
X62330185Y-123544331D01*
X62330187Y-123544336D01*
X62351811Y-123579394D01*
X62422288Y-123693656D01*
X62546344Y-123817712D01*
X62695666Y-123909814D01*
X62862203Y-123964999D01*
X62964991Y-123975500D01*
X62965003Y-123975499D01*
X62968139Y-123975660D01*
X62968130Y-123975820D01*
X62968132Y-123975821D01*
X62968129Y-123975844D01*
X62968080Y-123976805D01*
X63030671Y-123995147D01*
X63071075Y-124037498D01*
X63113687Y-124111304D01*
X63113689Y-124111306D01*
X63225761Y-124223378D01*
X63225767Y-124223383D01*
X64144346Y-125141962D01*
X64144356Y-125141973D01*
X64148686Y-125146303D01*
X64148687Y-125146304D01*
X64253696Y-125251313D01*
X64382304Y-125325565D01*
X64525747Y-125364000D01*
X64525748Y-125364000D01*
X64525749Y-125364000D01*
X68074251Y-125364000D01*
X68074253Y-125364000D01*
X68217696Y-125325565D01*
X68346304Y-125251313D01*
X68451313Y-125146304D01*
X68451313Y-125146302D01*
X68461517Y-125136099D01*
X68461521Y-125136094D01*
X68981094Y-124616521D01*
X68981099Y-124616517D01*
X68991302Y-124606313D01*
X68991304Y-124606313D01*
X69096313Y-124501304D01*
X69170565Y-124372696D01*
X69182273Y-124329000D01*
X69209001Y-124229252D01*
X69209001Y-124080747D01*
X69209001Y-124073152D01*
X69209000Y-124073134D01*
X69209000Y-123923199D01*
X69228685Y-123856160D01*
X69276706Y-123812714D01*
X69326610Y-123787287D01*
X69404983Y-123730346D01*
X69492213Y-123666971D01*
X69492215Y-123666968D01*
X69492219Y-123666966D01*
X69636966Y-123522219D01*
X69636970Y-123522215D01*
X69636971Y-123522213D01*
X69741894Y-123377797D01*
X69757287Y-123356610D01*
X69804795Y-123263369D01*
X69852769Y-123212573D01*
X69920590Y-123195778D01*
X69986725Y-123218315D01*
X70025765Y-123263369D01*
X70073141Y-123356350D01*
X70073147Y-123356359D01*
X70105523Y-123400921D01*
X70105524Y-123400922D01*
X70785000Y-122721446D01*
X70785000Y-122727661D01*
X70812259Y-122829394D01*
X70864920Y-122920606D01*
X70939394Y-122995080D01*
X71030606Y-123047741D01*
X71132339Y-123075000D01*
X71138553Y-123075000D01*
X70459076Y-123754474D01*
X70503650Y-123786859D01*
X70685968Y-123879755D01*
X70880582Y-123942990D01*
X71082683Y-123975000D01*
X71287317Y-123975000D01*
X71489417Y-123942990D01*
X71684031Y-123879755D01*
X71866349Y-123786859D01*
X71910921Y-123754474D01*
X71231447Y-123075000D01*
X71237661Y-123075000D01*
X71339394Y-123047741D01*
X71430606Y-122995080D01*
X71505080Y-122920606D01*
X71557741Y-122829394D01*
X71585000Y-122727661D01*
X71585000Y-122721447D01*
X72264474Y-123400921D01*
X72296859Y-123356349D01*
X72389755Y-123174031D01*
X72452990Y-122979417D01*
X72485000Y-122777317D01*
X72485000Y-122572682D01*
X72452990Y-122370582D01*
X72389755Y-122175968D01*
X72296859Y-121993650D01*
X72264474Y-121949077D01*
X72264474Y-121949076D01*
X71585000Y-122628551D01*
X71585000Y-122622339D01*
X71557741Y-122520606D01*
X71505080Y-122429394D01*
X71430606Y-122354920D01*
X71339394Y-122302259D01*
X71237661Y-122275000D01*
X71231446Y-122275000D01*
X71910922Y-121595524D01*
X71910921Y-121595523D01*
X71866359Y-121563147D01*
X71866350Y-121563141D01*
X71684031Y-121470244D01*
X71489417Y-121407009D01*
X71287317Y-121375000D01*
X71082683Y-121375000D01*
X70880582Y-121407009D01*
X70685968Y-121470244D01*
X70503644Y-121563143D01*
X70459077Y-121595523D01*
X70459077Y-121595524D01*
X71138554Y-122275000D01*
X71132339Y-122275000D01*
X71030606Y-122302259D01*
X70939394Y-122354920D01*
X70864920Y-122429394D01*
X70812259Y-122520606D01*
X70785000Y-122622339D01*
X70785000Y-122628553D01*
X70105524Y-121949077D01*
X70105523Y-121949077D01*
X70073143Y-121993644D01*
X70025765Y-122086630D01*
X69977790Y-122137426D01*
X69909969Y-122154221D01*
X69843834Y-122131683D01*
X69804795Y-122086630D01*
X69798861Y-122074983D01*
X69757287Y-121993390D01*
X69757285Y-121993387D01*
X69757284Y-121993385D01*
X69636971Y-121827786D01*
X69492213Y-121683028D01*
X69326613Y-121562715D01*
X69326612Y-121562714D01*
X69326610Y-121562713D01*
X69250029Y-121523693D01*
X69144223Y-121469781D01*
X68949534Y-121406522D01*
X68770378Y-121378147D01*
X68747352Y-121374500D01*
X68542648Y-121374500D01*
X68525414Y-121377229D01*
X68516148Y-121378697D01*
X68446854Y-121369740D01*
X68393404Y-121324742D01*
X68372766Y-121257990D01*
X68391493Y-121190677D01*
X68409067Y-121168547D01*
X71377297Y-118200319D01*
X71438620Y-118166834D01*
X71464978Y-118164000D01*
X74874250Y-118164000D01*
X74874252Y-118164000D01*
X75017696Y-118125565D01*
X75146304Y-118051313D01*
X75251313Y-117946304D01*
X75325565Y-117817696D01*
X75364000Y-117674252D01*
X75364000Y-110337135D01*
X90954500Y-110337135D01*
X90954500Y-112032870D01*
X90954501Y-112032876D01*
X90960908Y-112092483D01*
X91011202Y-112227328D01*
X91011206Y-112227335D01*
X91097452Y-112342544D01*
X91097455Y-112342547D01*
X91212664Y-112428793D01*
X91212671Y-112428797D01*
X91347517Y-112479091D01*
X91347516Y-112479091D01*
X91354444Y-112479835D01*
X91407127Y-112485500D01*
X93102872Y-112485499D01*
X93162483Y-112479091D01*
X93297331Y-112428796D01*
X93412546Y-112342546D01*
X93498796Y-112227331D01*
X93549091Y-112092483D01*
X93555500Y-112032873D01*
X93555499Y-110337128D01*
X93549091Y-110277517D01*
X93524824Y-110212455D01*
X93498797Y-110142671D01*
X93498793Y-110142664D01*
X93412547Y-110027455D01*
X93412544Y-110027452D01*
X93297335Y-109941206D01*
X93297328Y-109941202D01*
X93162482Y-109890908D01*
X93162483Y-109890908D01*
X93102883Y-109884501D01*
X93102881Y-109884500D01*
X93102873Y-109884500D01*
X93102864Y-109884500D01*
X91407129Y-109884500D01*
X91407123Y-109884501D01*
X91347516Y-109890908D01*
X91212671Y-109941202D01*
X91212664Y-109941206D01*
X91097455Y-110027452D01*
X91097452Y-110027455D01*
X91011206Y-110142664D01*
X91011202Y-110142671D01*
X90960908Y-110277517D01*
X90954501Y-110337116D01*
X90954501Y-110337123D01*
X90954500Y-110337135D01*
X75364000Y-110337135D01*
X75364000Y-99082648D01*
X80454500Y-99082648D01*
X80454500Y-99287351D01*
X80486522Y-99489534D01*
X80549781Y-99684223D01*
X80601385Y-99785500D01*
X80642487Y-99866167D01*
X80642715Y-99866613D01*
X80763028Y-100032213D01*
X80907786Y-100176971D01*
X81038234Y-100271745D01*
X81073390Y-100297287D01*
X81189607Y-100356503D01*
X81255776Y-100390218D01*
X81255778Y-100390218D01*
X81255781Y-100390220D01*
X81360137Y-100424127D01*
X81450465Y-100453477D01*
X81551557Y-100469488D01*
X81652648Y-100485500D01*
X81652649Y-100485500D01*
X81857351Y-100485500D01*
X81857352Y-100485500D01*
X82059534Y-100453477D01*
X82254219Y-100390220D01*
X82436610Y-100297287D01*
X82558388Y-100208811D01*
X82602213Y-100176971D01*
X82602215Y-100176968D01*
X82602219Y-100176966D01*
X82746966Y-100032219D01*
X82746968Y-100032215D01*
X82746971Y-100032213D01*
X82867284Y-99866614D01*
X82867285Y-99866613D01*
X82867287Y-99866610D01*
X82874117Y-99853204D01*
X82922091Y-99802409D01*
X82984602Y-99785500D01*
X88719709Y-99785500D01*
X88786748Y-99805185D01*
X88832503Y-99857989D01*
X88835891Y-99866167D01*
X88858702Y-99927328D01*
X88858706Y-99927335D01*
X88944952Y-100042544D01*
X88944955Y-100042547D01*
X89060164Y-100128793D01*
X89060171Y-100128797D01*
X89079358Y-100135953D01*
X89195017Y-100179091D01*
X89254627Y-100185500D01*
X89530501Y-100185499D01*
X89597539Y-100205183D01*
X89643294Y-100257987D01*
X89654500Y-100309499D01*
X89654500Y-101478330D01*
X89654499Y-101478348D01*
X89654499Y-101644054D01*
X89654498Y-101644054D01*
X89695423Y-101796785D01*
X89724358Y-101846900D01*
X89724359Y-101846904D01*
X89724360Y-101846904D01*
X89774479Y-101933714D01*
X89774481Y-101933717D01*
X89893349Y-102052585D01*
X89893355Y-102052590D01*
X90960922Y-103120157D01*
X90994407Y-103181480D01*
X90991173Y-103246155D01*
X90986522Y-103260468D01*
X90963982Y-103402781D01*
X90954500Y-103462648D01*
X90954500Y-103667352D01*
X90955128Y-103671314D01*
X90986522Y-103869534D01*
X91049781Y-104064223D01*
X91142715Y-104246613D01*
X91263028Y-104412213D01*
X91407786Y-104556971D01*
X91562749Y-104669556D01*
X91573390Y-104677287D01*
X91661574Y-104722219D01*
X91755776Y-104770218D01*
X91755778Y-104770218D01*
X91755781Y-104770220D01*
X91820222Y-104791158D01*
X91950465Y-104833477D01*
X92051557Y-104849488D01*
X92152648Y-104865500D01*
X92152649Y-104865500D01*
X92357351Y-104865500D01*
X92357352Y-104865500D01*
X92559534Y-104833477D01*
X92754219Y-104770220D01*
X92936610Y-104677287D01*
X93046815Y-104597219D01*
X93102213Y-104556971D01*
X93102215Y-104556968D01*
X93102219Y-104556966D01*
X93246966Y-104412219D01*
X93246968Y-104412215D01*
X93246971Y-104412213D01*
X93328463Y-104300047D01*
X93367287Y-104246610D01*
X93460220Y-104064219D01*
X93523477Y-103869534D01*
X93555500Y-103667352D01*
X93555500Y-103462648D01*
X93534341Y-103329057D01*
X93523477Y-103260465D01*
X93477888Y-103120157D01*
X93460220Y-103065781D01*
X93460218Y-103065778D01*
X93460218Y-103065776D01*
X93417288Y-102981522D01*
X93367287Y-102883390D01*
X93344029Y-102851378D01*
X93246971Y-102717786D01*
X93102213Y-102573028D01*
X92936613Y-102452715D01*
X92936612Y-102452714D01*
X92936610Y-102452713D01*
X92853066Y-102410145D01*
X92754223Y-102359781D01*
X92559534Y-102296522D01*
X92384995Y-102268878D01*
X92357352Y-102264500D01*
X92152648Y-102264500D01*
X92114599Y-102270526D01*
X91950468Y-102296522D01*
X91941717Y-102299365D01*
X91936154Y-102301173D01*
X91866313Y-102303167D01*
X91810157Y-102270922D01*
X90891819Y-101352584D01*
X90858334Y-101291261D01*
X90855500Y-101264903D01*
X90855500Y-100309499D01*
X90875185Y-100242460D01*
X90927989Y-100196705D01*
X90979500Y-100185499D01*
X91255371Y-100185499D01*
X91255372Y-100185499D01*
X91314983Y-100179091D01*
X91449831Y-100128796D01*
X91565046Y-100042546D01*
X91651296Y-99927331D01*
X91661690Y-99899460D01*
X91703560Y-99843527D01*
X91769023Y-99819108D01*
X91837297Y-99833958D01*
X91850746Y-99842465D01*
X92033462Y-99975217D01*
X92145335Y-100032219D01*
X92237244Y-100079049D01*
X92454751Y-100149721D01*
X92454752Y-100149721D01*
X92454755Y-100149722D01*
X92680646Y-100185500D01*
X92680647Y-100185500D01*
X92909353Y-100185500D01*
X92909354Y-100185500D01*
X93135245Y-100149722D01*
X93270720Y-100105702D01*
X93340560Y-100103708D01*
X93396718Y-100135953D01*
X93928181Y-100667416D01*
X93961666Y-100728739D01*
X93964500Y-100755097D01*
X93964500Y-120949056D01*
X94005423Y-121101783D01*
X94005426Y-121101790D01*
X94084475Y-121238709D01*
X94084479Y-121238714D01*
X94084480Y-121238716D01*
X94196284Y-121350520D01*
X94304279Y-121412870D01*
X94329961Y-121432577D01*
X94964681Y-122067297D01*
X94979384Y-122094224D01*
X94995977Y-122120043D01*
X94996868Y-122126243D01*
X94998166Y-122128620D01*
X95001000Y-122154978D01*
X95001000Y-122250559D01*
X94981315Y-122317598D01*
X94964681Y-122338240D01*
X94943213Y-122359707D01*
X94943210Y-122359711D01*
X94855609Y-122490814D01*
X94855602Y-122490827D01*
X94795264Y-122636498D01*
X94795261Y-122636510D01*
X94764500Y-122791153D01*
X94764500Y-122948846D01*
X94795261Y-123103489D01*
X94795264Y-123103501D01*
X94855602Y-123249172D01*
X94855609Y-123249185D01*
X94943210Y-123380288D01*
X94943213Y-123380292D01*
X95054707Y-123491786D01*
X95054711Y-123491789D01*
X95185814Y-123579390D01*
X95185827Y-123579397D01*
X95282728Y-123619534D01*
X95331503Y-123639737D01*
X95468392Y-123666966D01*
X95486153Y-123670499D01*
X95486156Y-123670500D01*
X95486158Y-123670500D01*
X95643844Y-123670500D01*
X95643845Y-123670499D01*
X95798497Y-123639737D01*
X95944179Y-123579394D01*
X96075289Y-123491789D01*
X96186789Y-123380289D01*
X96274394Y-123249179D01*
X96305521Y-123174031D01*
X96323533Y-123130547D01*
X96367374Y-123076144D01*
X96433668Y-123054079D01*
X96438094Y-123054000D01*
X96798844Y-123054000D01*
X96865883Y-123073685D01*
X96911638Y-123126489D01*
X96922202Y-123165398D01*
X96925001Y-123192797D01*
X96925001Y-123192799D01*
X96980185Y-123359331D01*
X96980187Y-123359336D01*
X97007993Y-123404417D01*
X97072288Y-123508656D01*
X97196344Y-123632712D01*
X97345666Y-123724814D01*
X97512203Y-123779999D01*
X97614991Y-123790500D01*
X98614902Y-123790499D01*
X98681941Y-123810183D01*
X98702583Y-123826818D01*
X99610139Y-124734374D01*
X99610149Y-124734385D01*
X99614479Y-124738715D01*
X99614480Y-124738716D01*
X99726284Y-124850520D01*
X99726286Y-124850521D01*
X99726290Y-124850524D01*
X99863209Y-124929573D01*
X99863216Y-124929577D01*
X99975019Y-124959534D01*
X100015942Y-124970500D01*
X100015943Y-124970500D01*
X101328331Y-124970500D01*
X101328347Y-124970501D01*
X101335943Y-124970501D01*
X101494054Y-124970501D01*
X101494057Y-124970501D01*
X101646785Y-124929577D01*
X101696904Y-124900639D01*
X101783716Y-124850520D01*
X101895520Y-124738716D01*
X101895520Y-124738714D01*
X101905728Y-124728507D01*
X101905730Y-124728504D01*
X102850158Y-123784075D01*
X102911479Y-123750592D01*
X102976151Y-123753825D01*
X102990466Y-123758477D01*
X103192648Y-123790500D01*
X103192649Y-123790500D01*
X103397351Y-123790500D01*
X103397352Y-123790500D01*
X103599534Y-123758477D01*
X103794219Y-123695220D01*
X103976610Y-123602287D01*
X104086821Y-123522215D01*
X104142213Y-123481971D01*
X104142215Y-123481968D01*
X104142219Y-123481966D01*
X104286966Y-123337219D01*
X104286968Y-123337215D01*
X104286971Y-123337213D01*
X104407286Y-123171611D01*
X104407415Y-123171359D01*
X104454795Y-123078369D01*
X104502769Y-123027573D01*
X104570590Y-123010778D01*
X104636725Y-123033315D01*
X104675765Y-123078369D01*
X104723141Y-123171350D01*
X104723147Y-123171359D01*
X104755523Y-123215921D01*
X104755524Y-123215922D01*
X105435000Y-122536446D01*
X105435000Y-122542661D01*
X105462259Y-122644394D01*
X105514920Y-122735606D01*
X105589394Y-122810080D01*
X105680606Y-122862741D01*
X105782339Y-122890000D01*
X105788553Y-122890000D01*
X105109076Y-123569474D01*
X105153650Y-123601859D01*
X105335968Y-123694755D01*
X105530582Y-123757990D01*
X105732683Y-123790000D01*
X105937317Y-123790000D01*
X106139417Y-123757990D01*
X106334031Y-123694755D01*
X106516349Y-123601859D01*
X106560921Y-123569474D01*
X105881447Y-122890000D01*
X105887661Y-122890000D01*
X105989394Y-122862741D01*
X106080606Y-122810080D01*
X106155080Y-122735606D01*
X106207741Y-122644394D01*
X106235000Y-122542661D01*
X106235000Y-122536447D01*
X106914474Y-123215921D01*
X106946859Y-123171349D01*
X107039755Y-122989031D01*
X107102990Y-122794417D01*
X107135000Y-122592317D01*
X107135000Y-122387682D01*
X107102990Y-122185582D01*
X107039755Y-121990968D01*
X106946859Y-121808650D01*
X106914474Y-121764077D01*
X106914474Y-121764076D01*
X106235000Y-122443551D01*
X106235000Y-122437339D01*
X106207741Y-122335606D01*
X106155080Y-122244394D01*
X106080606Y-122169920D01*
X105989394Y-122117259D01*
X105887661Y-122090000D01*
X105881446Y-122090000D01*
X106560922Y-121410524D01*
X106560921Y-121410523D01*
X106516359Y-121378147D01*
X106516350Y-121378141D01*
X106334031Y-121285244D01*
X106139417Y-121222009D01*
X105937317Y-121190000D01*
X105732683Y-121190000D01*
X105530582Y-121222009D01*
X105335968Y-121285244D01*
X105153644Y-121378143D01*
X105109077Y-121410523D01*
X105109077Y-121410524D01*
X105788554Y-122090000D01*
X105782339Y-122090000D01*
X105680606Y-122117259D01*
X105589394Y-122169920D01*
X105514920Y-122244394D01*
X105462259Y-122335606D01*
X105435000Y-122437339D01*
X105435000Y-122443553D01*
X104755524Y-121764077D01*
X104755523Y-121764077D01*
X104723143Y-121808644D01*
X104675765Y-121901630D01*
X104627790Y-121952426D01*
X104559969Y-121969221D01*
X104493834Y-121946683D01*
X104454795Y-121901630D01*
X104430277Y-121853511D01*
X104407287Y-121808390D01*
X104407285Y-121808387D01*
X104407284Y-121808385D01*
X104286969Y-121642784D01*
X104142213Y-121498028D01*
X103976613Y-121377715D01*
X103976612Y-121377714D01*
X103976610Y-121377713D01*
X103872649Y-121324742D01*
X103794223Y-121284781D01*
X103599534Y-121221522D01*
X103424995Y-121193878D01*
X103397352Y-121189500D01*
X103192648Y-121189500D01*
X103168329Y-121193351D01*
X102990465Y-121221522D01*
X102795776Y-121284781D01*
X102613386Y-121377715D01*
X102447786Y-121498028D01*
X102303032Y-121642782D01*
X102303031Y-121642784D01*
X102182715Y-121808386D01*
X102135485Y-121901080D01*
X102087510Y-121951876D01*
X102019689Y-121968671D01*
X101953554Y-121946134D01*
X101914515Y-121901080D01*
X101890277Y-121853511D01*
X101867287Y-121808390D01*
X101790405Y-121702570D01*
X101746969Y-121642784D01*
X101602213Y-121498028D01*
X101436613Y-121377715D01*
X101436612Y-121377714D01*
X101436610Y-121377713D01*
X101332649Y-121324742D01*
X101254223Y-121284781D01*
X101059534Y-121221522D01*
X100884995Y-121193878D01*
X100857352Y-121189500D01*
X100652648Y-121189500D01*
X100628329Y-121193351D01*
X100450465Y-121221522D01*
X100255776Y-121284781D01*
X100073386Y-121377715D01*
X99907786Y-121498028D01*
X99763032Y-121642782D01*
X99763031Y-121642784D01*
X99694978Y-121736451D01*
X99639648Y-121779117D01*
X99570035Y-121785096D01*
X99508240Y-121752490D01*
X99476954Y-121702570D01*
X99449814Y-121620666D01*
X99357712Y-121471344D01*
X99233656Y-121347288D01*
X99132314Y-121284780D01*
X99084336Y-121255187D01*
X99084331Y-121255185D01*
X99082862Y-121254698D01*
X98917797Y-121200001D01*
X98917795Y-121200000D01*
X98815010Y-121189500D01*
X97614998Y-121189500D01*
X97614981Y-121189501D01*
X97512203Y-121200000D01*
X97512200Y-121200001D01*
X97345668Y-121255185D01*
X97345663Y-121255187D01*
X97196342Y-121347289D01*
X97072289Y-121471342D01*
X96980187Y-121620663D01*
X96980185Y-121620668D01*
X96969702Y-121652304D01*
X96925700Y-121785096D01*
X96925001Y-121787204D01*
X96925000Y-121787205D01*
X96922202Y-121814602D01*
X96895806Y-121879294D01*
X96838626Y-121919445D01*
X96798844Y-121926000D01*
X96253001Y-121926000D01*
X96185962Y-121906315D01*
X96140207Y-121853511D01*
X96129001Y-121802000D01*
X96129001Y-121795750D01*
X96129001Y-121795748D01*
X96090565Y-121652304D01*
X96085067Y-121642782D01*
X96016315Y-121523699D01*
X96016310Y-121523693D01*
X95201819Y-120709202D01*
X95168334Y-120647879D01*
X95165500Y-120621521D01*
X95165500Y-114767648D01*
X96914500Y-114767648D01*
X96914500Y-114972351D01*
X96946522Y-115174534D01*
X97009781Y-115369223D01*
X97073691Y-115494653D01*
X97086579Y-115519946D01*
X97102715Y-115551613D01*
X97223028Y-115717213D01*
X97367786Y-115861971D01*
X97522749Y-115974556D01*
X97533390Y-115982287D01*
X97649607Y-116041503D01*
X97715776Y-116075218D01*
X97715778Y-116075218D01*
X97715781Y-116075220D01*
X97820137Y-116109127D01*
X97910465Y-116138477D01*
X98011557Y-116154488D01*
X98112648Y-116170500D01*
X98112649Y-116170500D01*
X98317351Y-116170500D01*
X98317352Y-116170500D01*
X98519534Y-116138477D01*
X98714219Y-116075220D01*
X98896610Y-115982287D01*
X99006815Y-115902219D01*
X99062213Y-115861971D01*
X99062215Y-115861968D01*
X99062219Y-115861966D01*
X99206966Y-115717219D01*
X99206968Y-115717215D01*
X99206971Y-115717213D01*
X99311913Y-115572770D01*
X99327287Y-115551610D01*
X99374516Y-115458917D01*
X99422489Y-115408123D01*
X99490310Y-115391328D01*
X99556445Y-115413865D01*
X99595483Y-115458917D01*
X99639348Y-115545006D01*
X99642715Y-115551614D01*
X99763028Y-115717213D01*
X99907786Y-115861971D01*
X100062749Y-115974556D01*
X100073390Y-115982287D01*
X100189607Y-116041503D01*
X100255776Y-116075218D01*
X100255778Y-116075218D01*
X100255781Y-116075220D01*
X100360137Y-116109127D01*
X100450465Y-116138477D01*
X100551557Y-116154488D01*
X100652648Y-116170500D01*
X100652649Y-116170500D01*
X100857351Y-116170500D01*
X100857352Y-116170500D01*
X101059534Y-116138477D01*
X101254219Y-116075220D01*
X101436610Y-115982287D01*
X101546815Y-115902219D01*
X101602213Y-115861971D01*
X101602215Y-115861968D01*
X101602219Y-115861966D01*
X101746966Y-115717219D01*
X101746968Y-115717215D01*
X101746971Y-115717213D01*
X101851913Y-115572770D01*
X101867287Y-115551610D01*
X101914516Y-115458917D01*
X101962489Y-115408123D01*
X102030310Y-115391328D01*
X102096445Y-115413865D01*
X102135483Y-115458917D01*
X102179348Y-115545006D01*
X102182715Y-115551614D01*
X102303028Y-115717213D01*
X102447786Y-115861971D01*
X102602749Y-115974556D01*
X102613390Y-115982287D01*
X102729607Y-116041503D01*
X102795776Y-116075218D01*
X102795778Y-116075218D01*
X102795781Y-116075220D01*
X102900137Y-116109127D01*
X102990465Y-116138477D01*
X103091557Y-116154488D01*
X103192648Y-116170500D01*
X103192649Y-116170500D01*
X103397351Y-116170500D01*
X103397352Y-116170500D01*
X103599534Y-116138477D01*
X103794219Y-116075220D01*
X103976610Y-115982287D01*
X104086815Y-115902219D01*
X104142213Y-115861971D01*
X104142215Y-115861968D01*
X104142219Y-115861966D01*
X104286966Y-115717219D01*
X104286968Y-115717215D01*
X104286971Y-115717213D01*
X104391913Y-115572770D01*
X104407287Y-115551610D01*
X104454516Y-115458917D01*
X104502489Y-115408123D01*
X104570310Y-115391328D01*
X104636445Y-115413865D01*
X104675483Y-115458917D01*
X104719348Y-115545006D01*
X104722715Y-115551614D01*
X104843028Y-115717213D01*
X104987786Y-115861971D01*
X105142749Y-115974556D01*
X105153390Y-115982287D01*
X105269607Y-116041503D01*
X105335776Y-116075218D01*
X105335778Y-116075218D01*
X105335781Y-116075220D01*
X105440137Y-116109127D01*
X105530465Y-116138477D01*
X105631557Y-116154488D01*
X105732648Y-116170500D01*
X105732649Y-116170500D01*
X105937351Y-116170500D01*
X105937352Y-116170500D01*
X106139534Y-116138477D01*
X106334219Y-116075220D01*
X106516610Y-115982287D01*
X106626815Y-115902219D01*
X106682213Y-115861971D01*
X106682215Y-115861968D01*
X106682219Y-115861966D01*
X106826966Y-115717219D01*
X106826968Y-115717215D01*
X106826971Y-115717213D01*
X106880221Y-115643919D01*
X106947287Y-115551610D01*
X107040220Y-115369219D01*
X107103477Y-115174534D01*
X107135500Y-114972352D01*
X107135500Y-114767648D01*
X107103477Y-114565466D01*
X107098825Y-114551151D01*
X107096832Y-114481312D01*
X107129075Y-114425158D01*
X108623713Y-112930521D01*
X108623716Y-112930520D01*
X108722419Y-112831817D01*
X108783743Y-112798332D01*
X108783747Y-112798332D01*
X108810099Y-112795499D01*
X109102871Y-112795499D01*
X109102872Y-112795499D01*
X109162483Y-112789091D01*
X109297331Y-112738796D01*
X109412546Y-112652546D01*
X109498796Y-112537331D01*
X109549091Y-112402483D01*
X109555500Y-112342873D01*
X109555499Y-110647128D01*
X109549091Y-110587517D01*
X109542371Y-110569501D01*
X109498797Y-110452671D01*
X109498793Y-110452664D01*
X109412547Y-110337455D01*
X109412544Y-110337452D01*
X109297335Y-110251206D01*
X109297328Y-110251202D01*
X109162482Y-110200908D01*
X109162483Y-110200908D01*
X109102883Y-110194501D01*
X109102881Y-110194500D01*
X109102873Y-110194500D01*
X109102864Y-110194500D01*
X107407129Y-110194500D01*
X107407123Y-110194501D01*
X107347516Y-110200908D01*
X107212671Y-110251202D01*
X107212664Y-110251206D01*
X107097455Y-110337452D01*
X107097452Y-110337455D01*
X107011206Y-110452664D01*
X107011202Y-110452671D01*
X106960908Y-110587517D01*
X106956749Y-110626206D01*
X106954501Y-110647123D01*
X106954500Y-110647135D01*
X106954500Y-112342870D01*
X106954501Y-112342876D01*
X106960908Y-112402483D01*
X107011202Y-112537328D01*
X107011206Y-112537335D01*
X107078341Y-112627015D01*
X107102759Y-112692479D01*
X107087908Y-112760752D01*
X107066756Y-112789007D01*
X106279842Y-113575921D01*
X106218519Y-113609406D01*
X106153848Y-113606173D01*
X106139534Y-113601522D01*
X105964995Y-113573878D01*
X105937352Y-113569500D01*
X105732648Y-113569500D01*
X105708329Y-113573351D01*
X105530465Y-113601522D01*
X105335776Y-113664781D01*
X105153386Y-113757715D01*
X104987786Y-113878028D01*
X104843028Y-114022786D01*
X104722715Y-114188386D01*
X104675485Y-114281080D01*
X104627510Y-114331876D01*
X104559689Y-114348671D01*
X104493554Y-114326134D01*
X104454515Y-114281080D01*
X104453883Y-114279840D01*
X104407287Y-114188390D01*
X104399556Y-114177749D01*
X104286971Y-114022786D01*
X104142213Y-113878028D01*
X103976613Y-113757715D01*
X103976612Y-113757714D01*
X103976610Y-113757713D01*
X103919653Y-113728691D01*
X103794223Y-113664781D01*
X103599534Y-113601522D01*
X103424995Y-113573878D01*
X103397352Y-113569500D01*
X103192648Y-113569500D01*
X103168329Y-113573351D01*
X102990465Y-113601522D01*
X102795776Y-113664781D01*
X102613386Y-113757715D01*
X102447786Y-113878028D01*
X102303028Y-114022786D01*
X102182715Y-114188386D01*
X102135485Y-114281080D01*
X102087510Y-114331876D01*
X102019689Y-114348671D01*
X101953554Y-114326134D01*
X101914515Y-114281080D01*
X101913883Y-114279840D01*
X101867287Y-114188390D01*
X101859556Y-114177749D01*
X101746971Y-114022786D01*
X101602213Y-113878028D01*
X101436613Y-113757715D01*
X101436612Y-113757714D01*
X101436610Y-113757713D01*
X101379653Y-113728691D01*
X101254223Y-113664781D01*
X101059534Y-113601522D01*
X100884995Y-113573878D01*
X100857352Y-113569500D01*
X100652648Y-113569500D01*
X100628329Y-113573351D01*
X100450465Y-113601522D01*
X100255776Y-113664781D01*
X100073386Y-113757715D01*
X99907786Y-113878028D01*
X99763028Y-114022786D01*
X99642715Y-114188386D01*
X99595485Y-114281080D01*
X99547510Y-114331876D01*
X99479689Y-114348671D01*
X99413554Y-114326134D01*
X99374515Y-114281080D01*
X99373883Y-114279840D01*
X99327287Y-114188390D01*
X99319556Y-114177749D01*
X99206971Y-114022786D01*
X99062213Y-113878028D01*
X98896613Y-113757714D01*
X98846703Y-113732283D01*
X98795908Y-113684307D01*
X98779000Y-113621799D01*
X98779000Y-112230667D01*
X98798685Y-112163628D01*
X98851489Y-112117873D01*
X98855548Y-112116106D01*
X98944172Y-112079397D01*
X98944172Y-112079396D01*
X98944179Y-112079394D01*
X99075289Y-111991789D01*
X99186789Y-111880289D01*
X99274394Y-111749179D01*
X99334737Y-111603497D01*
X99365500Y-111448842D01*
X99365500Y-111291158D01*
X99365500Y-111291155D01*
X99365499Y-111291153D01*
X99351158Y-111219057D01*
X99334737Y-111136503D01*
X99334735Y-111136498D01*
X99274397Y-110990827D01*
X99274390Y-110990814D01*
X99186789Y-110859711D01*
X99186786Y-110859707D01*
X99075292Y-110748213D01*
X99075288Y-110748210D01*
X98944185Y-110660609D01*
X98944172Y-110660602D01*
X98798501Y-110600264D01*
X98798489Y-110600261D01*
X98643845Y-110569500D01*
X98643842Y-110569500D01*
X98486158Y-110569500D01*
X98486155Y-110569500D01*
X98331510Y-110600261D01*
X98331498Y-110600264D01*
X98185827Y-110660602D01*
X98185814Y-110660609D01*
X98054711Y-110748210D01*
X98054707Y-110748213D01*
X97943213Y-110859707D01*
X97943210Y-110859711D01*
X97855609Y-110990814D01*
X97855602Y-110990827D01*
X97795264Y-111136498D01*
X97795261Y-111136510D01*
X97764500Y-111291153D01*
X97764500Y-111339062D01*
X97760350Y-111354549D01*
X97761005Y-111368296D01*
X97747887Y-111401062D01*
X97714615Y-111458691D01*
X97689436Y-111502301D01*
X97689435Y-111502303D01*
X97689435Y-111502304D01*
X97681809Y-111530767D01*
X97657760Y-111620520D01*
X97651000Y-111645747D01*
X97651000Y-113621799D01*
X97631315Y-113688838D01*
X97583297Y-113732283D01*
X97533386Y-113757714D01*
X97367786Y-113878028D01*
X97223028Y-114022786D01*
X97102715Y-114188386D01*
X97009781Y-114370776D01*
X96946522Y-114565465D01*
X96914500Y-114767648D01*
X95165500Y-114767648D01*
X95165500Y-100547601D01*
X95165500Y-100534060D01*
X95165501Y-100534057D01*
X95165501Y-100375943D01*
X95153001Y-100329294D01*
X95152274Y-100316588D01*
X95157417Y-100294460D01*
X95157958Y-100271745D01*
X95165177Y-100261077D01*
X95168094Y-100248533D01*
X95184384Y-100232698D01*
X95197120Y-100213882D01*
X95208960Y-100208811D01*
X95218197Y-100199834D01*
X95240463Y-100195320D01*
X95261348Y-100186377D01*
X95276071Y-100185500D01*
X95449353Y-100185500D01*
X95449354Y-100185500D01*
X95675245Y-100149722D01*
X95675248Y-100149721D01*
X95675249Y-100149721D01*
X95892755Y-100079049D01*
X95892755Y-100079048D01*
X95892758Y-100079048D01*
X96096538Y-99975217D01*
X96281566Y-99840786D01*
X96443286Y-99679066D01*
X96577717Y-99494038D01*
X96681548Y-99290258D01*
X96682493Y-99287351D01*
X96752221Y-99072749D01*
X96752221Y-99072748D01*
X96752222Y-99072745D01*
X96788000Y-98846854D01*
X96788000Y-98523146D01*
X96752222Y-98297255D01*
X96752221Y-98297251D01*
X96752221Y-98297250D01*
X96681549Y-98079744D01*
X96628309Y-97975255D01*
X96577717Y-97875962D01*
X96443286Y-97690934D01*
X96281566Y-97529214D01*
X96096538Y-97394783D01*
X96003205Y-97347227D01*
X95952409Y-97299252D01*
X95935500Y-97236742D01*
X95935500Y-93622597D01*
X95955185Y-93555558D01*
X95971819Y-93534916D01*
X98134916Y-91371819D01*
X98196239Y-91338334D01*
X98222597Y-91335500D01*
X100222403Y-91335500D01*
X100289442Y-91355185D01*
X100310084Y-91371819D01*
X103578181Y-94639916D01*
X103611666Y-94701239D01*
X103614500Y-94727597D01*
X103614500Y-97236742D01*
X103594815Y-97303781D01*
X103546795Y-97347227D01*
X103453461Y-97394783D01*
X103270759Y-97527525D01*
X103204952Y-97551005D01*
X103136898Y-97535180D01*
X103088203Y-97485074D01*
X103081690Y-97470538D01*
X103071296Y-97442669D01*
X103071293Y-97442664D01*
X102985047Y-97327455D01*
X102985044Y-97327452D01*
X102869835Y-97241206D01*
X102869828Y-97241202D01*
X102734982Y-97190908D01*
X102734983Y-97190908D01*
X102675383Y-97184501D01*
X102675381Y-97184500D01*
X102675373Y-97184500D01*
X102675364Y-97184500D01*
X100674629Y-97184500D01*
X100674623Y-97184501D01*
X100615016Y-97190908D01*
X100480171Y-97241202D01*
X100480164Y-97241206D01*
X100364955Y-97327452D01*
X100364952Y-97327455D01*
X100278706Y-97442664D01*
X100278702Y-97442671D01*
X100228408Y-97577517D01*
X100222001Y-97637116D01*
X100222000Y-97637135D01*
X100222000Y-99732870D01*
X100222001Y-99732876D01*
X100228408Y-99792483D01*
X100278702Y-99927328D01*
X100278706Y-99927335D01*
X100364952Y-100042544D01*
X100364955Y-100042547D01*
X100480164Y-100128793D01*
X100480171Y-100128797D01*
X100615017Y-100179091D01*
X100615016Y-100179091D01*
X100621944Y-100179835D01*
X100674627Y-100185500D01*
X102675372Y-100185499D01*
X102734983Y-100179091D01*
X102869831Y-100128796D01*
X102985046Y-100042546D01*
X103071296Y-99927331D01*
X103081690Y-99899460D01*
X103123560Y-99843527D01*
X103189023Y-99819108D01*
X103257297Y-99833958D01*
X103270746Y-99842465D01*
X103419897Y-99950830D01*
X103453463Y-99975218D01*
X103535191Y-100016860D01*
X103583294Y-100041369D01*
X103634090Y-100089343D01*
X103651000Y-100151854D01*
X103651000Y-102935022D01*
X103631315Y-103002061D01*
X103614681Y-103022703D01*
X102604203Y-104033181D01*
X102542880Y-104066666D01*
X102516522Y-104069500D01*
X102486155Y-104069500D01*
X102331510Y-104100261D01*
X102331498Y-104100264D01*
X102185827Y-104160602D01*
X102185814Y-104160609D01*
X102054711Y-104248210D01*
X102054707Y-104248213D01*
X101943213Y-104359707D01*
X101943210Y-104359711D01*
X101855609Y-104490814D01*
X101855602Y-104490827D01*
X101795264Y-104636498D01*
X101795261Y-104636510D01*
X101764500Y-104791153D01*
X101764500Y-104948846D01*
X101795261Y-105103489D01*
X101795264Y-105103501D01*
X101855602Y-105249172D01*
X101855609Y-105249185D01*
X101943210Y-105380288D01*
X101943213Y-105380292D01*
X102054707Y-105491786D01*
X102054711Y-105491789D01*
X102185814Y-105579390D01*
X102185827Y-105579397D01*
X102331498Y-105639735D01*
X102331503Y-105639737D01*
X102486153Y-105670499D01*
X102486156Y-105670500D01*
X102486158Y-105670500D01*
X102643844Y-105670500D01*
X102643845Y-105670499D01*
X102798497Y-105639737D01*
X102944179Y-105579394D01*
X103075289Y-105491789D01*
X103186789Y-105380289D01*
X103274394Y-105249179D01*
X103334737Y-105103497D01*
X103365500Y-104948842D01*
X103365500Y-104918477D01*
X103385185Y-104851438D01*
X103401814Y-104830800D01*
X104459966Y-103772648D01*
X106954500Y-103772648D01*
X106954500Y-103977351D01*
X106986522Y-104179534D01*
X107049781Y-104374223D01*
X107109188Y-104490814D01*
X107141655Y-104554534D01*
X107142715Y-104556613D01*
X107263028Y-104722213D01*
X107407786Y-104866971D01*
X107520477Y-104948844D01*
X107573390Y-104987287D01*
X107689607Y-105046503D01*
X107755776Y-105080218D01*
X107755778Y-105080218D01*
X107755781Y-105080220D01*
X107827433Y-105103501D01*
X107950465Y-105143477D01*
X108051557Y-105159488D01*
X108152648Y-105175500D01*
X108152649Y-105175500D01*
X108357351Y-105175500D01*
X108357352Y-105175500D01*
X108559534Y-105143477D01*
X108754219Y-105080220D01*
X108936610Y-104987287D01*
X109102013Y-104867116D01*
X109102213Y-104866971D01*
X109102215Y-104866968D01*
X109102219Y-104866966D01*
X109246966Y-104722219D01*
X109246968Y-104722215D01*
X109246971Y-104722213D01*
X109337787Y-104597213D01*
X109367287Y-104556610D01*
X109460220Y-104374219D01*
X109523477Y-104179534D01*
X109555500Y-103977352D01*
X109555500Y-103772648D01*
X109549947Y-103737590D01*
X109523477Y-103570465D01*
X109460218Y-103375776D01*
X109401463Y-103260465D01*
X109367287Y-103193390D01*
X109353118Y-103173888D01*
X109246971Y-103027786D01*
X109102213Y-102883028D01*
X108936613Y-102762715D01*
X108936612Y-102762714D01*
X108936610Y-102762713D01*
X108848436Y-102717786D01*
X108754223Y-102669781D01*
X108559534Y-102606522D01*
X108384995Y-102578878D01*
X108357352Y-102574500D01*
X108152648Y-102574500D01*
X108128329Y-102578351D01*
X107950465Y-102606522D01*
X107755776Y-102669781D01*
X107573386Y-102762715D01*
X107407786Y-102883028D01*
X107263028Y-103027786D01*
X107142715Y-103193386D01*
X107049781Y-103375776D01*
X106986522Y-103570465D01*
X106954500Y-103772648D01*
X104459966Y-103772648D01*
X104551662Y-103680952D01*
X104552614Y-103680003D01*
X104584969Y-103647648D01*
X104666313Y-103566304D01*
X104732314Y-103451987D01*
X104740565Y-103437697D01*
X104779000Y-103294253D01*
X104779000Y-103145748D01*
X104779000Y-101494635D01*
X113899500Y-101494635D01*
X113899500Y-103990370D01*
X113899501Y-103990376D01*
X113905908Y-104049983D01*
X113956202Y-104184828D01*
X113956206Y-104184835D01*
X114042452Y-104300044D01*
X114042455Y-104300047D01*
X114157664Y-104386293D01*
X114157671Y-104386297D01*
X114292517Y-104436591D01*
X114292516Y-104436591D01*
X114299444Y-104437335D01*
X114352127Y-104443000D01*
X116847872Y-104442999D01*
X116907483Y-104436591D01*
X117042331Y-104386296D01*
X117157546Y-104300046D01*
X117243796Y-104184831D01*
X117294091Y-104049983D01*
X117300500Y-103990373D01*
X117300499Y-102631075D01*
X131900000Y-102631075D01*
X131900000Y-102853924D01*
X131929085Y-103074854D01*
X131929088Y-103074867D01*
X131986763Y-103290118D01*
X132072045Y-103496002D01*
X132072054Y-103496020D01*
X132183464Y-103688991D01*
X132183473Y-103689004D01*
X132234040Y-103754903D01*
X132234043Y-103754903D01*
X133035387Y-102953559D01*
X133040889Y-102974091D01*
X133119881Y-103110908D01*
X133231592Y-103222619D01*
X133368409Y-103301611D01*
X133388940Y-103307112D01*
X132587595Y-104108455D01*
X132587595Y-104108456D01*
X132653507Y-104159033D01*
X132846485Y-104270449D01*
X132846497Y-104270454D01*
X133052381Y-104355736D01*
X133267632Y-104413411D01*
X133267645Y-104413414D01*
X133488575Y-104442500D01*
X133711425Y-104442500D01*
X133932354Y-104413414D01*
X133932367Y-104413411D01*
X134147618Y-104355736D01*
X134353502Y-104270454D01*
X134353514Y-104270449D01*
X134546498Y-104159030D01*
X134612403Y-104108457D01*
X134612404Y-104108456D01*
X133811059Y-103307112D01*
X133831591Y-103301611D01*
X133968408Y-103222619D01*
X134080119Y-103110908D01*
X134159111Y-102974091D01*
X134164612Y-102953559D01*
X134965956Y-103754904D01*
X134965957Y-103754903D01*
X135016530Y-103688998D01*
X135127949Y-103496014D01*
X135127954Y-103496002D01*
X135213236Y-103290118D01*
X135270911Y-103074867D01*
X135270914Y-103074854D01*
X135300000Y-102853924D01*
X135300000Y-102631075D01*
X135270914Y-102410145D01*
X135270911Y-102410132D01*
X135213236Y-102194881D01*
X135127954Y-101988997D01*
X135127949Y-101988985D01*
X135016533Y-101796007D01*
X134965956Y-101730095D01*
X134965955Y-101730095D01*
X134164612Y-102531439D01*
X134159111Y-102510909D01*
X134080119Y-102374092D01*
X133968408Y-102262381D01*
X133831591Y-102183389D01*
X133811058Y-102177887D01*
X134612403Y-101376543D01*
X134612403Y-101376540D01*
X134546504Y-101325973D01*
X134546491Y-101325964D01*
X134353520Y-101214554D01*
X134353502Y-101214545D01*
X134147618Y-101129263D01*
X133932367Y-101071588D01*
X133932354Y-101071585D01*
X133711425Y-101042500D01*
X133488575Y-101042500D01*
X133267645Y-101071585D01*
X133267632Y-101071588D01*
X133052381Y-101129263D01*
X132846497Y-101214545D01*
X132846479Y-101214554D01*
X132653511Y-101325962D01*
X132587595Y-101376542D01*
X133388941Y-102177887D01*
X133368409Y-102183389D01*
X133231592Y-102262381D01*
X133119881Y-102374092D01*
X133040889Y-102510909D01*
X133035387Y-102531440D01*
X132234042Y-101730095D01*
X132183462Y-101796011D01*
X132072054Y-101988979D01*
X132072045Y-101988997D01*
X131986763Y-102194881D01*
X131929088Y-102410132D01*
X131929085Y-102410145D01*
X131900000Y-102631075D01*
X117300499Y-102631075D01*
X117300499Y-101494628D01*
X117294385Y-101437748D01*
X117294385Y-101437746D01*
X117294092Y-101435019D01*
X117243797Y-101300171D01*
X117243793Y-101300164D01*
X117157547Y-101184955D01*
X117157544Y-101184952D01*
X117042335Y-101098706D01*
X117042328Y-101098702D01*
X116907482Y-101048408D01*
X116907483Y-101048408D01*
X116847883Y-101042001D01*
X116847881Y-101042000D01*
X116847873Y-101042000D01*
X116847864Y-101042000D01*
X114352129Y-101042000D01*
X114352123Y-101042001D01*
X114292516Y-101048408D01*
X114157671Y-101098702D01*
X114157664Y-101098706D01*
X114042455Y-101184952D01*
X114042452Y-101184955D01*
X113956206Y-101300164D01*
X113956202Y-101300171D01*
X113905908Y-101435017D01*
X113899501Y-101494616D01*
X113899501Y-101494623D01*
X113899500Y-101494635D01*
X104779000Y-101494635D01*
X104779000Y-100151854D01*
X104798685Y-100084815D01*
X104846705Y-100041369D01*
X104976538Y-99975217D01*
X105161566Y-99840786D01*
X105323286Y-99679066D01*
X105384683Y-99594559D01*
X105440012Y-99551896D01*
X105509625Y-99545917D01*
X105571420Y-99578523D01*
X105585314Y-99594556D01*
X105646714Y-99679066D01*
X105808434Y-99840786D01*
X105993462Y-99975217D01*
X106105335Y-100032219D01*
X106197244Y-100079049D01*
X106414751Y-100149721D01*
X106414752Y-100149721D01*
X106414755Y-100149722D01*
X106640646Y-100185500D01*
X106640647Y-100185500D01*
X106869353Y-100185500D01*
X106869354Y-100185500D01*
X107095245Y-100149722D01*
X107095248Y-100149721D01*
X107095249Y-100149721D01*
X107312755Y-100079049D01*
X107312755Y-100079048D01*
X107312758Y-100079048D01*
X107516538Y-99975217D01*
X107701566Y-99840786D01*
X107863286Y-99679066D01*
X107997717Y-99494038D01*
X108101548Y-99290258D01*
X108102493Y-99287351D01*
X108172221Y-99072749D01*
X108172221Y-99072748D01*
X108172222Y-99072745D01*
X108208000Y-98846854D01*
X108208000Y-98523146D01*
X108172222Y-98297255D01*
X108172221Y-98297251D01*
X108172221Y-98297250D01*
X108101549Y-98079744D01*
X108048309Y-97975255D01*
X107997717Y-97875962D01*
X107863286Y-97690934D01*
X107701566Y-97529214D01*
X107516538Y-97394783D01*
X107423205Y-97347227D01*
X107372409Y-97299252D01*
X107355500Y-97236742D01*
X107355500Y-91649060D01*
X107355501Y-91649047D01*
X107355501Y-91480944D01*
X107355501Y-91480943D01*
X107314577Y-91328216D01*
X107314573Y-91328209D01*
X107235524Y-91191290D01*
X107235518Y-91191282D01*
X102899573Y-86855337D01*
X102890510Y-86838741D01*
X102877378Y-86825131D01*
X102866973Y-86795635D01*
X102866088Y-86794014D01*
X102865637Y-86791847D01*
X102857735Y-86752121D01*
X102853732Y-86731995D01*
X115799500Y-86731995D01*
X115799500Y-86968004D01*
X115799501Y-86968020D01*
X115817337Y-87103501D01*
X115830307Y-87202014D01*
X115843525Y-87251344D01*
X115891394Y-87429993D01*
X115981714Y-87648045D01*
X115981719Y-87648056D01*
X116052677Y-87770957D01*
X116099727Y-87852450D01*
X116099729Y-87852453D01*
X116099730Y-87852454D01*
X116243406Y-88039697D01*
X116243412Y-88039704D01*
X116410295Y-88206587D01*
X116410302Y-88206593D01*
X116447319Y-88234997D01*
X116597550Y-88350273D01*
X116728918Y-88426118D01*
X116801943Y-88468280D01*
X116801948Y-88468282D01*
X116801951Y-88468284D01*
X117020007Y-88558606D01*
X117247986Y-88619693D01*
X117481989Y-88650500D01*
X117481996Y-88650500D01*
X117718004Y-88650500D01*
X117718011Y-88650500D01*
X117952014Y-88619693D01*
X118179993Y-88558606D01*
X118398049Y-88468284D01*
X118602450Y-88350273D01*
X118789699Y-88206592D01*
X118956592Y-88039699D01*
X119100273Y-87852450D01*
X119218284Y-87648049D01*
X119308606Y-87429993D01*
X119369693Y-87202014D01*
X119400500Y-86968011D01*
X119400500Y-86731989D01*
X119369693Y-86497986D01*
X119308606Y-86270007D01*
X119218284Y-86051951D01*
X119218282Y-86051948D01*
X119218280Y-86051943D01*
X119176118Y-85978918D01*
X119100273Y-85847550D01*
X118979975Y-85690774D01*
X118956593Y-85660302D01*
X118956587Y-85660295D01*
X118789704Y-85493412D01*
X118789697Y-85493406D01*
X118602454Y-85349730D01*
X118602453Y-85349729D01*
X118602450Y-85349727D01*
X118510880Y-85296859D01*
X118398056Y-85231719D01*
X118398045Y-85231714D01*
X118179993Y-85141394D01*
X118121706Y-85125776D01*
X117952014Y-85080307D01*
X117952013Y-85080306D01*
X117952010Y-85080306D01*
X117718020Y-85049501D01*
X117718017Y-85049500D01*
X117718011Y-85049500D01*
X117481989Y-85049500D01*
X117481983Y-85049500D01*
X117481979Y-85049501D01*
X117247989Y-85080306D01*
X117020006Y-85141394D01*
X116801954Y-85231714D01*
X116801943Y-85231719D01*
X116597545Y-85349730D01*
X116410302Y-85493406D01*
X116410295Y-85493412D01*
X116243412Y-85660295D01*
X116243406Y-85660302D01*
X116099730Y-85847545D01*
X115981719Y-86051943D01*
X115981714Y-86051954D01*
X115891394Y-86270006D01*
X115830306Y-86497989D01*
X115799501Y-86731979D01*
X115799500Y-86731995D01*
X102853732Y-86731995D01*
X102834738Y-86636510D01*
X102834737Y-86636503D01*
X102834735Y-86636498D01*
X102774397Y-86490827D01*
X102774390Y-86490814D01*
X102686789Y-86359711D01*
X102686786Y-86359707D01*
X102575292Y-86248213D01*
X102575288Y-86248210D01*
X102444185Y-86160609D01*
X102444172Y-86160602D01*
X102298501Y-86100264D01*
X102298489Y-86100261D01*
X102143845Y-86069500D01*
X102143842Y-86069500D01*
X101986158Y-86069500D01*
X101986155Y-86069500D01*
X101831510Y-86100261D01*
X101831498Y-86100264D01*
X101685827Y-86160602D01*
X101685814Y-86160609D01*
X101554711Y-86248210D01*
X101554707Y-86248213D01*
X101443213Y-86359707D01*
X101443210Y-86359711D01*
X101355609Y-86490814D01*
X101355602Y-86490827D01*
X101295264Y-86636498D01*
X101295261Y-86636510D01*
X101264500Y-86791153D01*
X101264500Y-86948846D01*
X101295261Y-87103489D01*
X101295264Y-87103501D01*
X101355602Y-87249172D01*
X101355609Y-87249185D01*
X101443210Y-87380288D01*
X101443213Y-87380292D01*
X101554707Y-87491786D01*
X101554711Y-87491789D01*
X101685814Y-87579390D01*
X101685827Y-87579397D01*
X101831498Y-87639735D01*
X101831503Y-87639737D01*
X101896147Y-87652595D01*
X101986849Y-87670638D01*
X102048760Y-87703023D01*
X102050339Y-87704574D01*
X106118181Y-91772416D01*
X106151666Y-91833739D01*
X106154500Y-91860097D01*
X106154500Y-97236742D01*
X106134815Y-97303781D01*
X106086795Y-97347227D01*
X105993461Y-97394783D01*
X105927550Y-97442671D01*
X105808434Y-97529214D01*
X105808432Y-97529216D01*
X105808431Y-97529216D01*
X105646715Y-97690932D01*
X105585318Y-97775438D01*
X105529987Y-97818103D01*
X105460374Y-97824082D01*
X105398579Y-97791476D01*
X105384682Y-97775438D01*
X105371827Y-97757745D01*
X105323286Y-97690934D01*
X105161566Y-97529214D01*
X104976538Y-97394783D01*
X104883205Y-97347227D01*
X104832409Y-97299252D01*
X104815500Y-97236742D01*
X104815500Y-94348445D01*
X104815500Y-94348443D01*
X104774577Y-94195716D01*
X104774577Y-94195715D01*
X104774577Y-94195714D01*
X104745639Y-94145595D01*
X104745637Y-94145592D01*
X104695520Y-94058784D01*
X104583716Y-93946980D01*
X104583715Y-93946979D01*
X104579385Y-93942649D01*
X104579374Y-93942639D01*
X101159319Y-90522584D01*
X101125834Y-90461261D01*
X101123000Y-90434903D01*
X101123000Y-88234997D01*
X101122999Y-88234984D01*
X101120098Y-88206592D01*
X101112499Y-88132203D01*
X101057314Y-87965666D01*
X101037200Y-87933057D01*
X100965213Y-87816348D01*
X100965210Y-87816344D01*
X100841155Y-87692289D01*
X100841151Y-87692286D01*
X100691837Y-87600187D01*
X100691835Y-87600186D01*
X100592298Y-87567203D01*
X100525297Y-87545001D01*
X100525295Y-87545000D01*
X100422515Y-87534500D01*
X100422508Y-87534500D01*
X98022492Y-87534500D01*
X98022484Y-87534500D01*
X97919704Y-87545000D01*
X97919703Y-87545001D01*
X97753164Y-87600186D01*
X97753162Y-87600187D01*
X97603848Y-87692286D01*
X97603844Y-87692289D01*
X97479789Y-87816344D01*
X97479786Y-87816348D01*
X97387687Y-87965662D01*
X97387686Y-87965664D01*
X97332501Y-88132203D01*
X97332500Y-88132204D01*
X97322000Y-88234984D01*
X97322000Y-90434902D01*
X97302315Y-90501941D01*
X97285681Y-90522583D01*
X94854481Y-92953782D01*
X94854479Y-92953785D01*
X94804361Y-93040594D01*
X94804359Y-93040596D01*
X94775425Y-93090709D01*
X94775424Y-93090710D01*
X94775423Y-93090715D01*
X94734499Y-93243443D01*
X94734499Y-93243445D01*
X94734499Y-93411546D01*
X94734500Y-93411559D01*
X94734500Y-97236742D01*
X94714815Y-97303781D01*
X94666795Y-97347227D01*
X94573461Y-97394783D01*
X94507550Y-97442671D01*
X94388434Y-97529214D01*
X94388432Y-97529216D01*
X94388431Y-97529216D01*
X94226715Y-97690932D01*
X94165318Y-97775438D01*
X94109987Y-97818103D01*
X94040374Y-97824082D01*
X93978579Y-97791476D01*
X93964682Y-97775438D01*
X93951827Y-97757745D01*
X93903286Y-97690934D01*
X93741566Y-97529214D01*
X93556538Y-97394783D01*
X93463205Y-97347227D01*
X93412409Y-97299252D01*
X93395500Y-97236742D01*
X93395500Y-88000096D01*
X93415185Y-87933057D01*
X93431814Y-87912420D01*
X97110319Y-84233914D01*
X97171642Y-84200430D01*
X97241334Y-84205414D01*
X97297267Y-84247286D01*
X97321684Y-84312750D01*
X97322000Y-84321596D01*
X97322000Y-84559558D01*
X97322001Y-84559575D01*
X97354517Y-84806561D01*
X97418998Y-85047207D01*
X97514330Y-85277361D01*
X97514337Y-85277376D01*
X97638900Y-85493126D01*
X97790560Y-85690774D01*
X97790566Y-85690781D01*
X97966718Y-85866933D01*
X97966725Y-85866939D01*
X98164373Y-86018599D01*
X98380123Y-86143162D01*
X98380138Y-86143169D01*
X98479325Y-86184253D01*
X98610293Y-86238502D01*
X98850935Y-86302982D01*
X99097935Y-86335500D01*
X99097942Y-86335500D01*
X99347058Y-86335500D01*
X99347065Y-86335500D01*
X99594065Y-86302982D01*
X99834707Y-86238502D01*
X100064873Y-86143164D01*
X100280627Y-86018599D01*
X100478276Y-85866938D01*
X100654438Y-85690776D01*
X100806099Y-85493127D01*
X100930664Y-85277373D01*
X101026002Y-85047207D01*
X101090482Y-84806565D01*
X101123000Y-84559565D01*
X101123000Y-84310435D01*
X101090482Y-84063435D01*
X101026002Y-83822793D01*
X100930664Y-83592627D01*
X100911021Y-83558605D01*
X100806099Y-83376873D01*
X100654439Y-83179225D01*
X100654433Y-83179218D01*
X100478281Y-83003066D01*
X100478274Y-83003060D01*
X100280626Y-82851400D01*
X100064876Y-82726837D01*
X100064861Y-82726830D01*
X99834707Y-82631498D01*
X99594061Y-82567017D01*
X99347075Y-82534501D01*
X99347070Y-82534500D01*
X99347065Y-82534500D01*
X99109096Y-82534500D01*
X99042057Y-82514815D01*
X98996302Y-82462011D01*
X98986358Y-82392853D01*
X99015383Y-82329297D01*
X99021415Y-82322819D01*
X99612239Y-81731995D01*
X115799500Y-81731995D01*
X115799500Y-81968004D01*
X115799501Y-81968020D01*
X115825017Y-82161837D01*
X115830307Y-82202014D01*
X115881442Y-82392853D01*
X115891394Y-82429993D01*
X115981714Y-82648045D01*
X115981719Y-82648056D01*
X116027204Y-82726837D01*
X116099727Y-82852450D01*
X116099729Y-82852453D01*
X116099730Y-82852454D01*
X116243406Y-83039697D01*
X116243412Y-83039704D01*
X116410295Y-83206587D01*
X116410302Y-83206593D01*
X116520306Y-83291001D01*
X116597550Y-83350273D01*
X116728918Y-83426118D01*
X116801943Y-83468280D01*
X116801948Y-83468282D01*
X116801951Y-83468284D01*
X117020007Y-83558606D01*
X117247986Y-83619693D01*
X117481989Y-83650500D01*
X117481996Y-83650500D01*
X117718004Y-83650500D01*
X117718011Y-83650500D01*
X117952014Y-83619693D01*
X118179993Y-83558606D01*
X118398049Y-83468284D01*
X118602450Y-83350273D01*
X118789699Y-83206592D01*
X118956592Y-83039699D01*
X119100273Y-82852450D01*
X119218284Y-82648049D01*
X119308606Y-82429993D01*
X119369693Y-82202014D01*
X119400500Y-81968011D01*
X119400500Y-81731989D01*
X119369693Y-81497986D01*
X119308606Y-81270007D01*
X119218284Y-81051951D01*
X119218282Y-81051948D01*
X119218280Y-81051943D01*
X119176118Y-80978918D01*
X119100273Y-80847550D01*
X118956592Y-80660301D01*
X118956587Y-80660295D01*
X118789704Y-80493412D01*
X118789697Y-80493406D01*
X118602454Y-80349730D01*
X118602453Y-80349729D01*
X118602450Y-80349727D01*
X118520957Y-80302677D01*
X118398056Y-80231719D01*
X118398045Y-80231714D01*
X118179993Y-80141394D01*
X117952010Y-80080306D01*
X117718020Y-80049501D01*
X117718017Y-80049500D01*
X117718011Y-80049500D01*
X117481989Y-80049500D01*
X117481983Y-80049500D01*
X117481979Y-80049501D01*
X117247989Y-80080306D01*
X117020006Y-80141394D01*
X116801954Y-80231714D01*
X116801943Y-80231719D01*
X116597545Y-80349730D01*
X116410302Y-80493406D01*
X116410295Y-80493412D01*
X116243412Y-80660295D01*
X116243406Y-80660302D01*
X116099730Y-80847545D01*
X115981719Y-81051943D01*
X115981714Y-81051954D01*
X115891394Y-81270006D01*
X115830306Y-81497989D01*
X115799501Y-81731979D01*
X115799500Y-81731995D01*
X99612239Y-81731995D01*
X99703985Y-81640249D01*
X101294734Y-80049500D01*
X103653282Y-77690951D01*
X103714603Y-77657468D01*
X103779278Y-77660702D01*
X103914755Y-77704722D01*
X104140646Y-77740500D01*
X104140647Y-77740500D01*
X104369353Y-77740500D01*
X104369354Y-77740500D01*
X104595245Y-77704722D01*
X104595248Y-77704721D01*
X104595249Y-77704721D01*
X104812755Y-77634049D01*
X104812755Y-77634048D01*
X104812758Y-77634048D01*
X105016538Y-77530217D01*
X105199245Y-77397472D01*
X105265046Y-77373994D01*
X105333100Y-77389819D01*
X105381795Y-77439924D01*
X105388308Y-77454459D01*
X105398702Y-77482328D01*
X105398706Y-77482335D01*
X105484952Y-77597544D01*
X105484955Y-77597547D01*
X105600164Y-77683793D01*
X105600171Y-77683797D01*
X105735017Y-77734091D01*
X105735016Y-77734091D01*
X105741944Y-77734835D01*
X105794627Y-77740500D01*
X107795372Y-77740499D01*
X107854983Y-77734091D01*
X107989831Y-77683796D01*
X108105046Y-77597546D01*
X108191296Y-77482331D01*
X108241591Y-77347483D01*
X108248000Y-77287873D01*
X108247999Y-75192128D01*
X108241591Y-75132517D01*
X108231660Y-75105891D01*
X108191297Y-74997671D01*
X108191293Y-74997664D01*
X108105047Y-74882455D01*
X108105044Y-74882452D01*
X107989835Y-74796206D01*
X107989828Y-74796202D01*
X107854982Y-74745908D01*
X107854983Y-74745908D01*
X107795383Y-74739501D01*
X107795381Y-74739500D01*
X107795373Y-74739500D01*
X107795365Y-74739500D01*
X106904096Y-74739500D01*
X106837057Y-74719815D01*
X106791302Y-74667011D01*
X106781358Y-74597853D01*
X106810383Y-74534297D01*
X106816415Y-74527819D01*
X107286523Y-74057711D01*
X108045519Y-73298716D01*
X108124577Y-73161785D01*
X108135649Y-73120459D01*
X108167741Y-73064873D01*
X108490479Y-72742135D01*
X114999500Y-72742135D01*
X114999500Y-76037870D01*
X114999501Y-76037876D01*
X115005908Y-76097483D01*
X115056202Y-76232328D01*
X115056206Y-76232335D01*
X115142452Y-76347544D01*
X115142455Y-76347547D01*
X115257664Y-76433793D01*
X115257671Y-76433797D01*
X115392517Y-76484091D01*
X115392516Y-76484091D01*
X115399444Y-76484835D01*
X115452127Y-76490500D01*
X118747872Y-76490499D01*
X118807483Y-76484091D01*
X118942331Y-76433796D01*
X119057546Y-76347546D01*
X119143796Y-76232331D01*
X119194091Y-76097483D01*
X119200500Y-76037873D01*
X119200499Y-72742128D01*
X119194091Y-72682517D01*
X119190003Y-72671557D01*
X119143797Y-72547671D01*
X119143793Y-72547664D01*
X119057547Y-72432455D01*
X119057544Y-72432452D01*
X118942335Y-72346206D01*
X118942328Y-72346202D01*
X118919237Y-72337590D01*
X118807482Y-72295908D01*
X118807483Y-72295908D01*
X118747883Y-72289501D01*
X118747881Y-72289500D01*
X118747873Y-72289500D01*
X118747864Y-72289500D01*
X115452129Y-72289500D01*
X115452123Y-72289501D01*
X115392516Y-72295908D01*
X115257671Y-72346202D01*
X115257664Y-72346206D01*
X115142455Y-72432452D01*
X115142452Y-72432455D01*
X115056206Y-72547664D01*
X115056202Y-72547671D01*
X115005908Y-72682517D01*
X114999501Y-72742116D01*
X114999501Y-72742123D01*
X114999500Y-72742135D01*
X108490479Y-72742135D01*
X109007148Y-72225466D01*
X126200000Y-72225466D01*
X126200000Y-72474533D01*
X126232508Y-72721463D01*
X126296973Y-72962049D01*
X126392283Y-73192148D01*
X126392288Y-73192159D01*
X126516813Y-73407841D01*
X126516819Y-73407849D01*
X126591400Y-73505045D01*
X127498958Y-72597487D01*
X127523978Y-72657890D01*
X127595112Y-72764351D01*
X127685649Y-72854888D01*
X127792110Y-72926022D01*
X127852511Y-72951041D01*
X126944953Y-73858598D01*
X127042150Y-73933180D01*
X127042158Y-73933186D01*
X127257840Y-74057711D01*
X127257851Y-74057716D01*
X127487950Y-74153026D01*
X127728536Y-74217491D01*
X127975466Y-74250000D01*
X128224534Y-74250000D01*
X128471463Y-74217491D01*
X128712049Y-74153026D01*
X128942148Y-74057716D01*
X128942159Y-74057711D01*
X129157855Y-73933178D01*
X129255045Y-73858600D01*
X129255045Y-73858597D01*
X128347488Y-72951041D01*
X128407890Y-72926022D01*
X128514351Y-72854888D01*
X128604888Y-72764351D01*
X128676022Y-72657890D01*
X128701041Y-72597489D01*
X129608597Y-73505045D01*
X129608600Y-73505045D01*
X129683178Y-73407855D01*
X129807711Y-73192159D01*
X129807716Y-73192148D01*
X129903026Y-72962049D01*
X129967491Y-72721463D01*
X130000000Y-72474533D01*
X130000000Y-72225466D01*
X129967491Y-71978536D01*
X129903026Y-71737950D01*
X129807716Y-71507851D01*
X129807711Y-71507840D01*
X129683186Y-71292158D01*
X129683174Y-71292140D01*
X129629600Y-71222322D01*
X129629599Y-71222321D01*
X129608598Y-71194953D01*
X128701041Y-72102510D01*
X128676022Y-72042110D01*
X128604888Y-71935649D01*
X128514351Y-71845112D01*
X128407890Y-71773978D01*
X128347487Y-71748957D01*
X128946461Y-71149984D01*
X131199500Y-71149984D01*
X131199500Y-73550015D01*
X131210000Y-73652795D01*
X131210001Y-73652796D01*
X131265186Y-73819335D01*
X131265187Y-73819337D01*
X131357286Y-73968651D01*
X131357289Y-73968655D01*
X131481344Y-74092710D01*
X131481348Y-74092713D01*
X131630662Y-74184812D01*
X131630664Y-74184813D01*
X131630666Y-74184814D01*
X131797203Y-74239999D01*
X131899992Y-74250500D01*
X131899997Y-74250500D01*
X134300003Y-74250500D01*
X134300008Y-74250500D01*
X134402797Y-74239999D01*
X134569334Y-74184814D01*
X134718655Y-74092711D01*
X134842711Y-73968655D01*
X134934814Y-73819334D01*
X134989999Y-73652797D01*
X135000500Y-73550008D01*
X135000500Y-71149992D01*
X134989999Y-71047203D01*
X134934814Y-70880666D01*
X134918695Y-70854534D01*
X134842713Y-70731348D01*
X134842710Y-70731344D01*
X134718655Y-70607289D01*
X134718651Y-70607286D01*
X134569337Y-70515187D01*
X134569335Y-70515186D01*
X134486065Y-70487593D01*
X134402797Y-70460001D01*
X134402795Y-70460000D01*
X134300015Y-70449500D01*
X134300008Y-70449500D01*
X131899992Y-70449500D01*
X131899984Y-70449500D01*
X131797204Y-70460000D01*
X131797203Y-70460001D01*
X131630664Y-70515186D01*
X131630662Y-70515187D01*
X131481348Y-70607286D01*
X131481344Y-70607289D01*
X131357289Y-70731344D01*
X131357286Y-70731348D01*
X131265187Y-70880662D01*
X131265186Y-70880664D01*
X131210001Y-71047203D01*
X131210000Y-71047204D01*
X131199500Y-71149984D01*
X128946461Y-71149984D01*
X129255045Y-70841400D01*
X129157849Y-70766819D01*
X129157841Y-70766813D01*
X128942159Y-70642288D01*
X128942148Y-70642283D01*
X128712049Y-70546973D01*
X128471463Y-70482508D01*
X128224534Y-70450000D01*
X127975466Y-70450000D01*
X127728536Y-70482508D01*
X127487950Y-70546973D01*
X127257851Y-70642283D01*
X127257847Y-70642285D01*
X127042143Y-70766823D01*
X126944953Y-70841399D01*
X126944953Y-70841400D01*
X127852511Y-71748958D01*
X127792110Y-71773978D01*
X127685649Y-71845112D01*
X127595112Y-71935649D01*
X127523978Y-72042110D01*
X127498958Y-72102511D01*
X126591400Y-71194953D01*
X126591399Y-71194953D01*
X126516823Y-71292143D01*
X126392285Y-71507847D01*
X126392283Y-71507851D01*
X126296973Y-71737950D01*
X126232508Y-71978536D01*
X126200000Y-72225466D01*
X109007148Y-72225466D01*
X110401094Y-70831521D01*
X110401099Y-70831517D01*
X110411302Y-70821313D01*
X110411304Y-70821313D01*
X110516313Y-70716304D01*
X110590565Y-70587696D01*
X110590566Y-70587693D01*
X110603289Y-70540209D01*
X110603289Y-70540208D01*
X110607957Y-70522786D01*
X110629000Y-70444253D01*
X110629000Y-70295747D01*
X110629000Y-69060000D01*
X115014791Y-69060000D01*
X116337639Y-69060000D01*
X116330743Y-69076649D01*
X116300000Y-69231207D01*
X116300000Y-69388793D01*
X116330743Y-69543351D01*
X116337639Y-69560000D01*
X115014792Y-69560000D01*
X115035930Y-69720565D01*
X115107180Y-69986471D01*
X115212520Y-70240787D01*
X115212527Y-70240802D01*
X115350166Y-70479201D01*
X115517749Y-70697597D01*
X115517757Y-70697606D01*
X115712394Y-70892243D01*
X115712402Y-70892250D01*
X115930798Y-71059833D01*
X116169197Y-71197472D01*
X116169212Y-71197479D01*
X116423528Y-71302819D01*
X116689431Y-71374068D01*
X116689438Y-71374069D01*
X116849999Y-71395206D01*
X116850000Y-71395206D01*
X116850000Y-70072360D01*
X116866649Y-70079257D01*
X117021207Y-70110000D01*
X117178793Y-70110000D01*
X117333351Y-70079257D01*
X117350000Y-70072360D01*
X117350000Y-71395206D01*
X117510561Y-71374069D01*
X117510568Y-71374068D01*
X117776471Y-71302819D01*
X118030787Y-71197479D01*
X118030802Y-71197472D01*
X118269201Y-71059833D01*
X118487597Y-70892250D01*
X118487606Y-70892243D01*
X118682243Y-70697606D01*
X118682250Y-70697597D01*
X118849833Y-70479201D01*
X118987472Y-70240802D01*
X118987479Y-70240787D01*
X119092819Y-69986471D01*
X119164069Y-69720565D01*
X119185208Y-69560000D01*
X117862361Y-69560000D01*
X117869257Y-69543351D01*
X117900000Y-69388793D01*
X117900000Y-69231207D01*
X117869257Y-69076649D01*
X117862361Y-69060000D01*
X119185208Y-69060000D01*
X119164069Y-68899434D01*
X119092819Y-68633528D01*
X118987479Y-68379212D01*
X118987472Y-68379197D01*
X118849833Y-68140798D01*
X118682250Y-67922402D01*
X118682243Y-67922394D01*
X118487606Y-67727757D01*
X118487597Y-67727749D01*
X118269201Y-67560166D01*
X118030802Y-67422527D01*
X118030787Y-67422520D01*
X117776471Y-67317180D01*
X117510565Y-67245930D01*
X117350000Y-67224791D01*
X117350000Y-68547639D01*
X117333351Y-68540743D01*
X117178793Y-68510000D01*
X117021207Y-68510000D01*
X116866649Y-68540743D01*
X116850000Y-68547639D01*
X116850000Y-67224791D01*
X116689434Y-67245930D01*
X116423528Y-67317180D01*
X116169212Y-67422520D01*
X116169197Y-67422527D01*
X115930798Y-67560166D01*
X115712402Y-67727749D01*
X115517749Y-67922402D01*
X115350166Y-68140798D01*
X115212527Y-68379197D01*
X115212520Y-68379212D01*
X115107180Y-68633528D01*
X115035930Y-68899434D01*
X115014791Y-69060000D01*
X110629000Y-69060000D01*
X110629000Y-62738575D01*
X114400000Y-62738575D01*
X114400000Y-62961424D01*
X114429085Y-63182354D01*
X114429088Y-63182367D01*
X114486763Y-63397618D01*
X114572045Y-63603502D01*
X114572054Y-63603520D01*
X114683464Y-63796491D01*
X114683473Y-63796504D01*
X114734040Y-63862403D01*
X114734043Y-63862403D01*
X115535387Y-63061059D01*
X115540889Y-63081591D01*
X115619881Y-63218408D01*
X115731592Y-63330119D01*
X115868409Y-63409111D01*
X115888940Y-63414612D01*
X115087595Y-64215955D01*
X115087595Y-64215956D01*
X115153507Y-64266533D01*
X115346485Y-64377949D01*
X115346497Y-64377954D01*
X115552381Y-64463236D01*
X115767632Y-64520911D01*
X115767645Y-64520914D01*
X115988575Y-64550000D01*
X116211425Y-64550000D01*
X116432354Y-64520914D01*
X116432367Y-64520911D01*
X116647618Y-64463236D01*
X116853502Y-64377954D01*
X116853514Y-64377949D01*
X117046498Y-64266530D01*
X117112403Y-64215957D01*
X117112404Y-64215956D01*
X116311059Y-63414612D01*
X116331591Y-63409111D01*
X116468408Y-63330119D01*
X116580119Y-63218408D01*
X116659111Y-63081591D01*
X116664612Y-63061060D01*
X117465956Y-63862404D01*
X117465957Y-63862403D01*
X117516530Y-63796498D01*
X117627949Y-63603514D01*
X117627954Y-63603502D01*
X117713236Y-63397618D01*
X117770911Y-63182367D01*
X117770914Y-63182354D01*
X117800000Y-62961424D01*
X117800000Y-62738575D01*
X117770914Y-62517645D01*
X117770911Y-62517632D01*
X117713236Y-62302381D01*
X117627954Y-62096497D01*
X117627949Y-62096485D01*
X117516533Y-61903507D01*
X117465956Y-61837595D01*
X117465955Y-61837595D01*
X116664612Y-62638939D01*
X116659111Y-62618409D01*
X116580119Y-62481592D01*
X116468408Y-62369881D01*
X116331591Y-62290889D01*
X116311058Y-62285387D01*
X116994312Y-61602135D01*
X132399500Y-61602135D01*
X132399500Y-64097870D01*
X132399501Y-64097876D01*
X132405908Y-64157483D01*
X132456202Y-64292328D01*
X132456206Y-64292335D01*
X132542452Y-64407544D01*
X132542455Y-64407547D01*
X132657664Y-64493793D01*
X132657671Y-64493797D01*
X132792517Y-64544091D01*
X132792516Y-64544091D01*
X132799444Y-64544835D01*
X132852127Y-64550500D01*
X135347872Y-64550499D01*
X135407483Y-64544091D01*
X135542331Y-64493796D01*
X135657546Y-64407546D01*
X135743796Y-64292331D01*
X135794091Y-64157483D01*
X135800500Y-64097873D01*
X135800499Y-61602128D01*
X135794091Y-61542517D01*
X135772281Y-61484042D01*
X135743797Y-61407671D01*
X135743793Y-61407664D01*
X135657547Y-61292455D01*
X135657544Y-61292452D01*
X135542335Y-61206206D01*
X135542328Y-61206202D01*
X135407482Y-61155908D01*
X135407483Y-61155908D01*
X135347883Y-61149501D01*
X135347881Y-61149500D01*
X135347873Y-61149500D01*
X135347864Y-61149500D01*
X132852129Y-61149500D01*
X132852123Y-61149501D01*
X132792516Y-61155908D01*
X132657671Y-61206202D01*
X132657664Y-61206206D01*
X132542455Y-61292452D01*
X132542452Y-61292455D01*
X132456206Y-61407664D01*
X132456202Y-61407671D01*
X132405908Y-61542517D01*
X132399501Y-61602116D01*
X132399501Y-61602123D01*
X132399500Y-61602135D01*
X116994312Y-61602135D01*
X117085322Y-61511125D01*
X117112403Y-61484043D01*
X117112403Y-61484040D01*
X117046504Y-61433473D01*
X117046491Y-61433464D01*
X116853520Y-61322054D01*
X116853502Y-61322045D01*
X116647618Y-61236763D01*
X116432367Y-61179088D01*
X116432354Y-61179085D01*
X116211425Y-61150000D01*
X115988575Y-61150000D01*
X115767645Y-61179085D01*
X115767632Y-61179088D01*
X115552381Y-61236763D01*
X115346497Y-61322045D01*
X115346479Y-61322054D01*
X115153511Y-61433462D01*
X115087595Y-61484042D01*
X115888941Y-62285387D01*
X115868409Y-62290889D01*
X115731592Y-62369881D01*
X115619881Y-62481592D01*
X115540889Y-62618409D01*
X115535387Y-62638940D01*
X114734042Y-61837595D01*
X114683462Y-61903511D01*
X114572054Y-62096479D01*
X114572045Y-62096497D01*
X114486763Y-62302381D01*
X114429088Y-62517632D01*
X114429085Y-62517645D01*
X114400000Y-62738575D01*
X110629000Y-62738575D01*
X110629000Y-55489440D01*
X110648685Y-55422401D01*
X110665315Y-55401762D01*
X110686789Y-55380289D01*
X110774394Y-55249179D01*
X110834737Y-55103497D01*
X110865500Y-54948842D01*
X110865500Y-54791158D01*
X110865500Y-54791155D01*
X110865499Y-54791153D01*
X110834738Y-54636510D01*
X110834737Y-54636503D01*
X110804705Y-54563999D01*
X110774397Y-54490827D01*
X110774390Y-54490814D01*
X110686789Y-54359711D01*
X110686786Y-54359707D01*
X110575292Y-54248213D01*
X110575288Y-54248210D01*
X110444185Y-54160609D01*
X110444172Y-54160602D01*
X110298501Y-54100264D01*
X110298489Y-54100261D01*
X110143845Y-54069500D01*
X110143842Y-54069500D01*
X109986158Y-54069500D01*
X109986155Y-54069500D01*
X109831510Y-54100261D01*
X109831498Y-54100264D01*
X109685827Y-54160602D01*
X109685814Y-54160609D01*
X109554711Y-54248210D01*
X109554707Y-54248213D01*
X109443213Y-54359707D01*
X109443210Y-54359711D01*
X109355609Y-54490814D01*
X109355602Y-54490827D01*
X109295264Y-54636498D01*
X109295261Y-54636510D01*
X109264500Y-54791153D01*
X109264500Y-54948846D01*
X109295261Y-55103489D01*
X109295264Y-55103501D01*
X109355602Y-55249172D01*
X109355609Y-55249185D01*
X109443209Y-55380287D01*
X109443210Y-55380288D01*
X109443211Y-55380289D01*
X109464681Y-55401759D01*
X109498166Y-55463080D01*
X109501000Y-55489440D01*
X109501000Y-70085021D01*
X109481315Y-70152060D01*
X109464681Y-70172702D01*
X107113688Y-72523695D01*
X107113687Y-72523695D01*
X107110392Y-72529402D01*
X107090693Y-72555070D01*
X104856718Y-74789045D01*
X104795395Y-74822530D01*
X104730720Y-74819295D01*
X104595247Y-74775278D01*
X104595248Y-74775278D01*
X104409812Y-74745908D01*
X104369354Y-74739500D01*
X104140646Y-74739500D01*
X104088135Y-74747817D01*
X103914753Y-74775278D01*
X103914750Y-74775278D01*
X103697244Y-74845950D01*
X103493461Y-74949783D01*
X103427551Y-74997670D01*
X103308434Y-75084214D01*
X103308432Y-75084216D01*
X103308431Y-75084216D01*
X103146715Y-75245932D01*
X103085318Y-75330438D01*
X103029987Y-75373103D01*
X102960374Y-75379082D01*
X102898579Y-75346476D01*
X102884682Y-75330438D01*
X102852865Y-75286646D01*
X102823286Y-75245934D01*
X102661566Y-75084214D01*
X102476538Y-74949783D01*
X102272755Y-74845950D01*
X102055248Y-74775278D01*
X101869812Y-74745908D01*
X101829354Y-74739500D01*
X101600646Y-74739500D01*
X101548135Y-74747817D01*
X101374753Y-74775278D01*
X101374750Y-74775278D01*
X101157244Y-74845950D01*
X100953461Y-74949783D01*
X100887551Y-74997670D01*
X100768434Y-75084214D01*
X100768432Y-75084216D01*
X100768431Y-75084216D01*
X100606716Y-75245931D01*
X100606716Y-75245932D01*
X100606714Y-75245934D01*
X100577135Y-75286646D01*
X100472283Y-75430961D01*
X100368450Y-75634744D01*
X100297778Y-75852250D01*
X100297778Y-75852253D01*
X100262000Y-76078146D01*
X100262000Y-76401853D01*
X100297778Y-76627746D01*
X100297778Y-76627749D01*
X100368450Y-76845255D01*
X100381312Y-76870498D01*
X100472283Y-77049038D01*
X100606714Y-77234066D01*
X100768434Y-77395786D01*
X100953462Y-77530217D01*
X101015418Y-77561785D01*
X101157244Y-77634049D01*
X101374751Y-77704721D01*
X101374752Y-77704721D01*
X101374755Y-77704722D01*
X101600646Y-77740500D01*
X101600647Y-77740500D01*
X101605902Y-77740500D01*
X101672941Y-77760185D01*
X101718696Y-77812989D01*
X101728640Y-77882147D01*
X101699615Y-77945703D01*
X101693583Y-77952181D01*
X92314481Y-87331282D01*
X92314475Y-87331290D01*
X92274423Y-87400664D01*
X92274423Y-87400666D01*
X92235423Y-87468214D01*
X92235423Y-87468215D01*
X92194499Y-87620943D01*
X92194499Y-87620945D01*
X92194499Y-87789046D01*
X92194500Y-87789059D01*
X92194500Y-97236742D01*
X92174815Y-97303781D01*
X92126795Y-97347227D01*
X92033461Y-97394783D01*
X91850759Y-97527525D01*
X91784952Y-97551005D01*
X91716898Y-97535180D01*
X91668203Y-97485074D01*
X91661690Y-97470538D01*
X91651296Y-97442669D01*
X91651293Y-97442664D01*
X91565047Y-97327455D01*
X91565044Y-97327452D01*
X91449835Y-97241206D01*
X91449828Y-97241202D01*
X91314982Y-97190908D01*
X91314983Y-97190908D01*
X91255383Y-97184501D01*
X91255381Y-97184500D01*
X91255373Y-97184500D01*
X91255364Y-97184500D01*
X89254629Y-97184500D01*
X89254623Y-97184501D01*
X89195016Y-97190908D01*
X89060171Y-97241202D01*
X89060164Y-97241206D01*
X88944955Y-97327452D01*
X88944952Y-97327455D01*
X88858706Y-97442664D01*
X88858702Y-97442671D01*
X88808408Y-97577517D01*
X88802001Y-97637116D01*
X88802000Y-97637135D01*
X88802000Y-98460500D01*
X88782315Y-98527539D01*
X88729511Y-98573294D01*
X88678000Y-98584500D01*
X82984602Y-98584500D01*
X82917563Y-98564815D01*
X82874117Y-98516795D01*
X82867287Y-98503390D01*
X82867285Y-98503387D01*
X82867284Y-98503385D01*
X82746971Y-98337786D01*
X82602213Y-98193028D01*
X82436613Y-98072715D01*
X82436612Y-98072714D01*
X82436610Y-98072713D01*
X82379653Y-98043691D01*
X82254223Y-97979781D01*
X82059534Y-97916522D01*
X81884995Y-97888878D01*
X81857352Y-97884500D01*
X81652648Y-97884500D01*
X81628329Y-97888351D01*
X81450465Y-97916522D01*
X81255776Y-97979781D01*
X81073386Y-98072715D01*
X80907786Y-98193028D01*
X80763028Y-98337786D01*
X80642715Y-98503386D01*
X80549781Y-98685776D01*
X80486522Y-98880465D01*
X80454500Y-99082648D01*
X75364000Y-99082648D01*
X75364000Y-84082682D01*
X80455000Y-84082682D01*
X80455000Y-84287317D01*
X80487009Y-84489417D01*
X80550244Y-84684031D01*
X80643141Y-84866350D01*
X80643147Y-84866359D01*
X80675523Y-84910921D01*
X80675524Y-84910922D01*
X81355000Y-84231446D01*
X81355000Y-84237661D01*
X81382259Y-84339394D01*
X81434920Y-84430606D01*
X81509394Y-84505080D01*
X81600606Y-84557741D01*
X81702339Y-84585000D01*
X81708553Y-84585000D01*
X81029076Y-85264474D01*
X81073650Y-85296859D01*
X81255968Y-85389755D01*
X81450582Y-85452990D01*
X81652683Y-85485000D01*
X81857317Y-85485000D01*
X82059417Y-85452990D01*
X82254031Y-85389755D01*
X82436349Y-85296859D01*
X82480921Y-85264474D01*
X81801447Y-84585000D01*
X81807661Y-84585000D01*
X81909394Y-84557741D01*
X82000606Y-84505080D01*
X82075080Y-84430606D01*
X82127741Y-84339394D01*
X82155000Y-84237661D01*
X82155000Y-84231447D01*
X82834474Y-84910921D01*
X82866859Y-84866349D01*
X82959755Y-84684031D01*
X83022990Y-84489417D01*
X83055000Y-84287317D01*
X83055000Y-84082682D01*
X83022990Y-83880582D01*
X82959755Y-83685968D01*
X82866859Y-83503650D01*
X82834474Y-83459077D01*
X82834474Y-83459076D01*
X82155000Y-84138551D01*
X82155000Y-84132339D01*
X82127741Y-84030606D01*
X82075080Y-83939394D01*
X82000606Y-83864920D01*
X81909394Y-83812259D01*
X81807661Y-83785000D01*
X81801446Y-83785000D01*
X82480922Y-83105524D01*
X82480921Y-83105523D01*
X82436359Y-83073147D01*
X82436350Y-83073141D01*
X82254031Y-82980244D01*
X82059417Y-82917009D01*
X81857317Y-82885000D01*
X81652683Y-82885000D01*
X81450582Y-82917009D01*
X81255968Y-82980244D01*
X81073644Y-83073143D01*
X81029077Y-83105523D01*
X81029077Y-83105524D01*
X81708554Y-83785000D01*
X81702339Y-83785000D01*
X81600606Y-83812259D01*
X81509394Y-83864920D01*
X81434920Y-83939394D01*
X81382259Y-84030606D01*
X81355000Y-84132339D01*
X81355000Y-84138553D01*
X80675524Y-83459077D01*
X80675523Y-83459077D01*
X80643143Y-83503644D01*
X80550244Y-83685968D01*
X80487009Y-83880582D01*
X80455000Y-84082682D01*
X75364000Y-84082682D01*
X75364000Y-67284977D01*
X75383685Y-67217938D01*
X75400314Y-67197301D01*
X76437819Y-66159795D01*
X76499142Y-66126311D01*
X76568834Y-66131295D01*
X76624767Y-66173167D01*
X76649184Y-66238631D01*
X76649500Y-66247477D01*
X76649500Y-66446286D01*
X76682350Y-66653696D01*
X76682754Y-66656243D01*
X76726641Y-66791313D01*
X76748443Y-66858412D01*
X76844951Y-67047820D01*
X76969890Y-67219786D01*
X77120213Y-67370109D01*
X77292182Y-67495050D01*
X77300946Y-67499516D01*
X77351742Y-67547491D01*
X77368536Y-67615312D01*
X77345998Y-67681447D01*
X77300946Y-67720484D01*
X77292182Y-67724949D01*
X77120213Y-67849890D01*
X76969890Y-68000213D01*
X76844951Y-68172179D01*
X76748444Y-68361585D01*
X76682753Y-68563760D01*
X76649500Y-68773713D01*
X76649500Y-68986286D01*
X76666510Y-69093687D01*
X76682754Y-69196243D01*
X76710463Y-69281523D01*
X76748444Y-69398414D01*
X76844951Y-69587820D01*
X76969890Y-69759786D01*
X77120213Y-69910109D01*
X77292182Y-70035050D01*
X77300946Y-70039516D01*
X77351742Y-70087491D01*
X77368536Y-70155312D01*
X77345998Y-70221447D01*
X77300946Y-70260484D01*
X77292182Y-70264949D01*
X77120213Y-70389890D01*
X77120209Y-70389894D01*
X76969896Y-70540208D01*
X76969890Y-70540213D01*
X76844951Y-70712179D01*
X76748444Y-70901585D01*
X76682753Y-71103760D01*
X76649500Y-71313713D01*
X76649500Y-71526286D01*
X76677013Y-71700000D01*
X76682754Y-71736243D01*
X76747545Y-71935649D01*
X76748444Y-71938414D01*
X76844951Y-72127820D01*
X76969890Y-72299786D01*
X77120213Y-72450109D01*
X77292182Y-72575050D01*
X77300946Y-72579516D01*
X77351742Y-72627491D01*
X77368536Y-72695312D01*
X77345998Y-72761447D01*
X77300946Y-72800484D01*
X77292182Y-72804949D01*
X77120213Y-72929890D01*
X76969890Y-73080213D01*
X76844951Y-73252179D01*
X76748444Y-73441585D01*
X76682753Y-73643760D01*
X76658481Y-73797011D01*
X76649500Y-73853713D01*
X76649500Y-74066287D01*
X76659221Y-74127664D01*
X76678676Y-74250500D01*
X76682754Y-74276243D01*
X76708746Y-74356239D01*
X76748444Y-74478414D01*
X76844951Y-74667820D01*
X76969890Y-74839786D01*
X77083818Y-74953714D01*
X77117303Y-75015037D01*
X77112319Y-75084729D01*
X77070447Y-75140662D01*
X77039471Y-75157577D01*
X76907912Y-75206646D01*
X76907906Y-75206649D01*
X76792812Y-75292809D01*
X76792809Y-75292812D01*
X76706649Y-75407906D01*
X76706645Y-75407913D01*
X76656403Y-75542620D01*
X76656401Y-75542627D01*
X76650000Y-75602155D01*
X76650000Y-76250000D01*
X77566988Y-76250000D01*
X77534075Y-76307007D01*
X77500000Y-76434174D01*
X77500000Y-76565826D01*
X77534075Y-76692993D01*
X77566988Y-76750000D01*
X76650000Y-76750000D01*
X76650000Y-77397844D01*
X76656401Y-77457372D01*
X76656403Y-77457379D01*
X76706645Y-77592086D01*
X76706649Y-77592093D01*
X76792809Y-77707187D01*
X76792812Y-77707190D01*
X76907906Y-77793350D01*
X76907913Y-77793354D01*
X77042620Y-77843596D01*
X77042627Y-77843598D01*
X77102155Y-77849999D01*
X77102172Y-77850000D01*
X77750000Y-77850000D01*
X77750000Y-76933012D01*
X77807007Y-76965925D01*
X77934174Y-77000000D01*
X78065826Y-77000000D01*
X78192993Y-76965925D01*
X78250000Y-76933012D01*
X78250000Y-77850000D01*
X78897828Y-77850000D01*
X78897844Y-77849999D01*
X78957372Y-77843598D01*
X78957379Y-77843596D01*
X79092086Y-77793354D01*
X79092093Y-77793350D01*
X79207187Y-77707190D01*
X79207190Y-77707187D01*
X79293350Y-77592093D01*
X79293354Y-77592086D01*
X79343596Y-77457379D01*
X79343598Y-77457372D01*
X79349999Y-77397844D01*
X79350000Y-77397827D01*
X79350000Y-76750000D01*
X78433012Y-76750000D01*
X78465925Y-76692993D01*
X78500000Y-76565826D01*
X78500000Y-76434174D01*
X78465925Y-76307007D01*
X78433012Y-76250000D01*
X79350000Y-76250000D01*
X79350000Y-75602172D01*
X79349999Y-75602155D01*
X79343598Y-75542627D01*
X79343596Y-75542620D01*
X79293354Y-75407913D01*
X79293350Y-75407906D01*
X79207190Y-75292812D01*
X79207187Y-75292809D01*
X79092093Y-75206649D01*
X79092088Y-75206646D01*
X78960528Y-75157577D01*
X78904595Y-75115705D01*
X78880178Y-75050241D01*
X78895030Y-74981968D01*
X78916175Y-74953720D01*
X79030104Y-74839792D01*
X79042646Y-74822530D01*
X79084629Y-74764744D01*
X79155051Y-74667816D01*
X79155054Y-74667810D01*
X79157596Y-74663664D01*
X79159550Y-74664861D01*
X79200986Y-74620943D01*
X79263554Y-74604000D01*
X81695684Y-74604000D01*
X81762723Y-74623685D01*
X81806169Y-74671706D01*
X81844949Y-74747817D01*
X81969890Y-74919786D01*
X82083818Y-75033714D01*
X82117303Y-75095037D01*
X82112319Y-75164729D01*
X82070447Y-75220662D01*
X82039471Y-75237577D01*
X81907912Y-75286646D01*
X81907906Y-75286649D01*
X81792812Y-75372809D01*
X81792809Y-75372812D01*
X81706649Y-75487906D01*
X81706645Y-75487913D01*
X81656403Y-75622620D01*
X81656401Y-75622627D01*
X81650000Y-75682155D01*
X81650000Y-76330000D01*
X82566988Y-76330000D01*
X82534075Y-76387007D01*
X82500000Y-76514174D01*
X82500000Y-76645826D01*
X82534075Y-76772993D01*
X82566988Y-76830000D01*
X81650000Y-76830000D01*
X81650000Y-77477844D01*
X81656401Y-77537372D01*
X81656403Y-77537379D01*
X81706645Y-77672086D01*
X81706649Y-77672093D01*
X81792809Y-77787187D01*
X81792812Y-77787190D01*
X81907906Y-77873350D01*
X81907913Y-77873354D01*
X82042620Y-77923596D01*
X82042627Y-77923598D01*
X82102155Y-77929999D01*
X82102172Y-77930000D01*
X82750000Y-77930000D01*
X82750000Y-77013012D01*
X82807007Y-77045925D01*
X82934174Y-77080000D01*
X83065826Y-77080000D01*
X83192993Y-77045925D01*
X83250000Y-77013012D01*
X83250000Y-77930000D01*
X83897828Y-77930000D01*
X83897844Y-77929999D01*
X83957372Y-77923598D01*
X83957379Y-77923596D01*
X84092086Y-77873354D01*
X84092093Y-77873350D01*
X84207187Y-77787190D01*
X84207190Y-77787187D01*
X84293350Y-77672093D01*
X84293354Y-77672086D01*
X84343596Y-77537379D01*
X84343598Y-77537372D01*
X84349999Y-77477844D01*
X84350000Y-77477827D01*
X84350000Y-76830000D01*
X83433012Y-76830000D01*
X83465925Y-76772993D01*
X83500000Y-76645826D01*
X83500000Y-76514174D01*
X83465925Y-76387007D01*
X83433012Y-76330000D01*
X84350000Y-76330000D01*
X84350000Y-76078146D01*
X87762000Y-76078146D01*
X87762000Y-76401853D01*
X87797778Y-76627746D01*
X87797778Y-76627749D01*
X87868450Y-76845255D01*
X87881312Y-76870498D01*
X87972283Y-77049038D01*
X88106714Y-77234066D01*
X88268434Y-77395786D01*
X88453462Y-77530217D01*
X88515418Y-77561785D01*
X88657244Y-77634049D01*
X88874751Y-77704721D01*
X88874752Y-77704721D01*
X88874755Y-77704722D01*
X89100646Y-77740500D01*
X89100647Y-77740500D01*
X89329353Y-77740500D01*
X89329354Y-77740500D01*
X89555245Y-77704722D01*
X89555248Y-77704721D01*
X89555249Y-77704721D01*
X89772755Y-77634049D01*
X89772755Y-77634048D01*
X89772758Y-77634048D01*
X89976538Y-77530217D01*
X90161566Y-77395786D01*
X90323286Y-77234066D01*
X90384683Y-77149559D01*
X90440012Y-77106896D01*
X90509625Y-77100917D01*
X90571420Y-77133523D01*
X90585314Y-77149556D01*
X90646714Y-77234066D01*
X90808434Y-77395786D01*
X90993462Y-77530217D01*
X91055418Y-77561785D01*
X91197244Y-77634049D01*
X91414751Y-77704721D01*
X91414752Y-77704721D01*
X91414755Y-77704722D01*
X91640646Y-77740500D01*
X91640647Y-77740500D01*
X91869353Y-77740500D01*
X91869354Y-77740500D01*
X92095245Y-77704722D01*
X92095248Y-77704721D01*
X92095249Y-77704721D01*
X92312755Y-77634049D01*
X92312755Y-77634048D01*
X92312758Y-77634048D01*
X92516538Y-77530217D01*
X92699245Y-77397472D01*
X92765046Y-77373994D01*
X92833100Y-77389819D01*
X92881795Y-77439924D01*
X92888308Y-77454459D01*
X92898702Y-77482328D01*
X92898706Y-77482335D01*
X92984952Y-77597544D01*
X92984955Y-77597547D01*
X93100164Y-77683793D01*
X93100171Y-77683797D01*
X93235017Y-77734091D01*
X93235016Y-77734091D01*
X93241944Y-77734835D01*
X93294627Y-77740500D01*
X95295372Y-77740499D01*
X95354983Y-77734091D01*
X95489831Y-77683796D01*
X95605046Y-77597546D01*
X95691296Y-77482331D01*
X95741591Y-77347483D01*
X95748000Y-77287873D01*
X95747999Y-75192128D01*
X95741591Y-75132517D01*
X95731660Y-75105891D01*
X95691297Y-74997671D01*
X95691293Y-74997664D01*
X95605047Y-74882455D01*
X95605044Y-74882452D01*
X95489835Y-74796206D01*
X95489828Y-74796202D01*
X95354982Y-74745908D01*
X95354983Y-74745908D01*
X95295383Y-74739501D01*
X95295381Y-74739500D01*
X95295373Y-74739500D01*
X95295364Y-74739500D01*
X93294629Y-74739500D01*
X93294623Y-74739501D01*
X93235016Y-74745908D01*
X93100171Y-74796202D01*
X93100164Y-74796206D01*
X92984955Y-74882452D01*
X92984952Y-74882455D01*
X92898706Y-74997664D01*
X92898703Y-74997670D01*
X92888308Y-75025541D01*
X92846436Y-75081474D01*
X92780972Y-75105891D01*
X92712699Y-75091039D01*
X92699250Y-75082531D01*
X92516538Y-74949783D01*
X92312755Y-74845950D01*
X92095248Y-74775278D01*
X91909812Y-74745908D01*
X91869354Y-74739500D01*
X91640646Y-74739500D01*
X91588135Y-74747817D01*
X91414753Y-74775278D01*
X91414750Y-74775278D01*
X91197244Y-74845950D01*
X90993461Y-74949783D01*
X90927551Y-74997670D01*
X90808434Y-75084214D01*
X90808432Y-75084216D01*
X90808431Y-75084216D01*
X90646715Y-75245932D01*
X90585318Y-75330438D01*
X90529987Y-75373103D01*
X90460374Y-75379082D01*
X90398579Y-75346476D01*
X90384682Y-75330438D01*
X90352865Y-75286646D01*
X90323286Y-75245934D01*
X90161566Y-75084214D01*
X89976538Y-74949783D01*
X89772755Y-74845950D01*
X89555248Y-74775278D01*
X89369812Y-74745908D01*
X89329354Y-74739500D01*
X89100646Y-74739500D01*
X89048135Y-74747817D01*
X88874753Y-74775278D01*
X88874750Y-74775278D01*
X88657244Y-74845950D01*
X88453461Y-74949783D01*
X88387551Y-74997670D01*
X88268434Y-75084214D01*
X88268432Y-75084216D01*
X88268431Y-75084216D01*
X88106716Y-75245931D01*
X88106716Y-75245932D01*
X88106714Y-75245934D01*
X88077135Y-75286646D01*
X87972283Y-75430961D01*
X87868450Y-75634744D01*
X87797778Y-75852250D01*
X87797778Y-75852253D01*
X87762000Y-76078146D01*
X84350000Y-76078146D01*
X84350000Y-75682172D01*
X84349999Y-75682155D01*
X84343598Y-75622627D01*
X84343596Y-75622620D01*
X84293354Y-75487913D01*
X84293350Y-75487906D01*
X84207190Y-75372812D01*
X84207187Y-75372809D01*
X84092093Y-75286649D01*
X84092088Y-75286646D01*
X83960528Y-75237577D01*
X83904595Y-75195705D01*
X83880178Y-75130241D01*
X83895030Y-75061968D01*
X83916175Y-75033720D01*
X84030104Y-74919792D01*
X84057232Y-74882454D01*
X84155048Y-74747820D01*
X84155050Y-74747817D01*
X84155051Y-74747816D01*
X84251557Y-74558412D01*
X84317246Y-74356243D01*
X84350500Y-74146287D01*
X84350500Y-73933713D01*
X84317246Y-73723757D01*
X84251557Y-73521588D01*
X84155051Y-73332184D01*
X84155049Y-73332181D01*
X84155048Y-73332179D01*
X84030109Y-73160213D01*
X83879786Y-73009890D01*
X83707820Y-72884951D01*
X83707115Y-72884591D01*
X83699054Y-72880485D01*
X83648259Y-72832512D01*
X83631463Y-72764692D01*
X83653999Y-72698556D01*
X83699054Y-72659515D01*
X83707816Y-72655051D01*
X83745749Y-72627491D01*
X83879786Y-72530109D01*
X83879788Y-72530106D01*
X83879792Y-72530104D01*
X84030104Y-72379792D01*
X84030106Y-72379788D01*
X84030109Y-72379786D01*
X84155048Y-72207820D01*
X84155047Y-72207820D01*
X84155051Y-72207816D01*
X84251557Y-72018412D01*
X84317246Y-71816243D01*
X84350500Y-71606287D01*
X84350500Y-71393713D01*
X84317246Y-71183757D01*
X84251557Y-70981588D01*
X84155051Y-70792184D01*
X84155049Y-70792181D01*
X84155048Y-70792179D01*
X84030109Y-70620213D01*
X83879786Y-70469890D01*
X83849172Y-70447648D01*
X92914500Y-70447648D01*
X92914500Y-70652351D01*
X92946522Y-70854534D01*
X93009781Y-71049223D01*
X93037571Y-71103762D01*
X93085322Y-71197479D01*
X93102715Y-71231613D01*
X93223028Y-71397213D01*
X93367786Y-71541971D01*
X93522749Y-71654556D01*
X93533390Y-71662287D01*
X93649607Y-71721503D01*
X93715776Y-71755218D01*
X93715778Y-71755218D01*
X93715781Y-71755220D01*
X93820137Y-71789127D01*
X93910465Y-71818477D01*
X94011557Y-71834488D01*
X94112648Y-71850500D01*
X94112649Y-71850500D01*
X94317351Y-71850500D01*
X94317352Y-71850500D01*
X94519534Y-71818477D01*
X94714219Y-71755220D01*
X94896610Y-71662287D01*
X94989590Y-71594732D01*
X95062213Y-71541971D01*
X95062215Y-71541968D01*
X95062219Y-71541966D01*
X95206966Y-71397219D01*
X95206968Y-71397215D01*
X95206971Y-71397213D01*
X95275551Y-71302819D01*
X95327287Y-71231610D01*
X95420220Y-71049219D01*
X95483477Y-70854534D01*
X95515500Y-70652352D01*
X95515500Y-70447648D01*
X104994500Y-70447648D01*
X104994500Y-70652351D01*
X105026522Y-70854534D01*
X105089781Y-71049223D01*
X105117571Y-71103762D01*
X105165322Y-71197479D01*
X105182715Y-71231613D01*
X105303028Y-71397213D01*
X105447786Y-71541971D01*
X105602749Y-71654556D01*
X105613390Y-71662287D01*
X105729607Y-71721503D01*
X105795776Y-71755218D01*
X105795778Y-71755218D01*
X105795781Y-71755220D01*
X105900137Y-71789127D01*
X105990465Y-71818477D01*
X106091557Y-71834488D01*
X106192648Y-71850500D01*
X106192649Y-71850500D01*
X106397351Y-71850500D01*
X106397352Y-71850500D01*
X106599534Y-71818477D01*
X106794219Y-71755220D01*
X106976610Y-71662287D01*
X107069590Y-71594732D01*
X107142213Y-71541971D01*
X107142215Y-71541968D01*
X107142219Y-71541966D01*
X107286966Y-71397219D01*
X107286968Y-71397215D01*
X107286971Y-71397213D01*
X107355551Y-71302819D01*
X107407287Y-71231610D01*
X107500220Y-71049219D01*
X107563477Y-70854534D01*
X107595500Y-70652352D01*
X107595500Y-70447648D01*
X107563477Y-70245466D01*
X107500220Y-70050781D01*
X107500218Y-70050778D01*
X107500218Y-70050776D01*
X107466503Y-69984607D01*
X107407287Y-69868390D01*
X107328387Y-69759792D01*
X107286971Y-69702786D01*
X107142213Y-69558028D01*
X106976613Y-69437715D01*
X106976612Y-69437714D01*
X106976610Y-69437713D01*
X106919653Y-69408691D01*
X106794223Y-69344781D01*
X106599534Y-69281522D01*
X106424995Y-69253878D01*
X106397352Y-69249500D01*
X106192648Y-69249500D01*
X106168329Y-69253351D01*
X105990465Y-69281522D01*
X105795776Y-69344781D01*
X105613386Y-69437715D01*
X105447786Y-69558028D01*
X105303028Y-69702786D01*
X105182715Y-69868386D01*
X105089781Y-70050776D01*
X105026522Y-70245465D01*
X104994500Y-70447648D01*
X95515500Y-70447648D01*
X95483477Y-70245466D01*
X95420220Y-70050781D01*
X95420218Y-70050778D01*
X95420218Y-70050776D01*
X95386503Y-69984607D01*
X95327287Y-69868390D01*
X95248387Y-69759792D01*
X95206971Y-69702786D01*
X95062213Y-69558028D01*
X94896613Y-69437715D01*
X94896612Y-69437714D01*
X94896610Y-69437713D01*
X94839653Y-69408691D01*
X94714223Y-69344781D01*
X94519534Y-69281522D01*
X94344995Y-69253878D01*
X94317352Y-69249500D01*
X94112648Y-69249500D01*
X94088329Y-69253351D01*
X93910465Y-69281522D01*
X93715776Y-69344781D01*
X93533386Y-69437715D01*
X93367786Y-69558028D01*
X93223028Y-69702786D01*
X93102715Y-69868386D01*
X93009781Y-70050776D01*
X92946522Y-70245465D01*
X92914500Y-70447648D01*
X83849172Y-70447648D01*
X83707820Y-70344951D01*
X83518414Y-70248444D01*
X83518413Y-70248443D01*
X83518412Y-70248443D01*
X83316243Y-70182754D01*
X83316241Y-70182753D01*
X83316240Y-70182753D01*
X83142982Y-70155312D01*
X83106287Y-70149500D01*
X82893713Y-70149500D01*
X82857018Y-70155312D01*
X82683760Y-70182753D01*
X82683757Y-70182754D01*
X82505105Y-70240802D01*
X82481585Y-70248444D01*
X82292179Y-70344951D01*
X82120213Y-70469890D01*
X81969890Y-70620213D01*
X81844951Y-70792179D01*
X81748444Y-70981585D01*
X81682753Y-71183760D01*
X81649500Y-71393713D01*
X81649500Y-71606286D01*
X81673088Y-71755218D01*
X81682754Y-71816243D01*
X81735486Y-71978536D01*
X81748444Y-72018414D01*
X81844951Y-72207820D01*
X81969890Y-72379786D01*
X82120213Y-72530109D01*
X82292182Y-72655050D01*
X82300946Y-72659516D01*
X82351742Y-72707491D01*
X82368536Y-72775312D01*
X82345998Y-72841447D01*
X82300946Y-72880484D01*
X82292182Y-72884949D01*
X82120213Y-73009890D01*
X81969890Y-73160213D01*
X81844949Y-73332182D01*
X81806169Y-73408294D01*
X81758195Y-73459091D01*
X81695684Y-73476000D01*
X79345078Y-73476000D01*
X79278039Y-73456315D01*
X79234593Y-73408295D01*
X79155051Y-73252184D01*
X79155049Y-73252181D01*
X79155048Y-73252179D01*
X79030109Y-73080213D01*
X78879786Y-72929890D01*
X78707820Y-72804951D01*
X78707115Y-72804591D01*
X78699054Y-72800485D01*
X78648259Y-72752512D01*
X78631463Y-72684692D01*
X78653999Y-72618556D01*
X78699054Y-72579515D01*
X78707816Y-72575051D01*
X78778502Y-72523695D01*
X78879786Y-72450109D01*
X78879788Y-72450106D01*
X78879792Y-72450104D01*
X79030104Y-72299792D01*
X79030106Y-72299788D01*
X79030109Y-72299786D01*
X79155048Y-72127820D01*
X79155047Y-72127820D01*
X79155051Y-72127816D01*
X79251557Y-71938412D01*
X79317246Y-71736243D01*
X79350500Y-71526287D01*
X79350500Y-71313713D01*
X79317246Y-71103757D01*
X79290847Y-71022513D01*
X79288853Y-70952675D01*
X79321096Y-70896518D01*
X88135480Y-62082135D01*
X92914500Y-62082135D01*
X92914500Y-63777870D01*
X92914501Y-63777876D01*
X92920908Y-63837483D01*
X92971202Y-63972328D01*
X92971206Y-63972335D01*
X93057452Y-64087544D01*
X93057455Y-64087547D01*
X93172664Y-64173793D01*
X93172671Y-64173797D01*
X93307517Y-64224091D01*
X93307516Y-64224091D01*
X93314444Y-64224835D01*
X93367127Y-64230500D01*
X95062872Y-64230499D01*
X95122483Y-64224091D01*
X95257331Y-64173796D01*
X95372546Y-64087546D01*
X95458796Y-63972331D01*
X95509091Y-63837483D01*
X95515500Y-63777873D01*
X95515499Y-62082128D01*
X95509091Y-62022517D01*
X95488690Y-61967820D01*
X95458797Y-61887671D01*
X95458793Y-61887664D01*
X95372547Y-61772455D01*
X95372544Y-61772452D01*
X95257335Y-61686206D01*
X95257328Y-61686202D01*
X95122482Y-61635908D01*
X95122483Y-61635908D01*
X95062883Y-61629501D01*
X95062881Y-61629500D01*
X95062873Y-61629500D01*
X95062864Y-61629500D01*
X93367129Y-61629500D01*
X93367123Y-61629501D01*
X93307516Y-61635908D01*
X93172671Y-61686202D01*
X93172664Y-61686206D01*
X93057455Y-61772452D01*
X93057452Y-61772455D01*
X92971206Y-61887664D01*
X92971202Y-61887671D01*
X92920908Y-62022517D01*
X92914501Y-62082116D01*
X92914501Y-62082123D01*
X92914500Y-62082135D01*
X88135480Y-62082135D01*
X89936094Y-60281521D01*
X89936099Y-60281517D01*
X89946302Y-60271313D01*
X89946304Y-60271313D01*
X90051313Y-60166304D01*
X90125565Y-60037696D01*
X90151004Y-59942754D01*
X90164000Y-59894253D01*
X90164000Y-59745748D01*
X90164000Y-57582648D01*
X91954500Y-57582648D01*
X91954500Y-57787351D01*
X91986522Y-57989534D01*
X92049781Y-58184223D01*
X92110243Y-58302884D01*
X92132989Y-58347526D01*
X92142715Y-58366613D01*
X92263028Y-58532213D01*
X92407786Y-58676971D01*
X92562749Y-58789556D01*
X92573390Y-58797287D01*
X92689607Y-58856503D01*
X92755776Y-58890218D01*
X92755778Y-58890218D01*
X92755781Y-58890220D01*
X92860137Y-58924127D01*
X92950465Y-58953477D01*
X93051557Y-58969488D01*
X93152648Y-58985500D01*
X93152649Y-58985500D01*
X93357351Y-58985500D01*
X93357352Y-58985500D01*
X93559534Y-58953477D01*
X93754219Y-58890220D01*
X93936610Y-58797287D01*
X94029590Y-58729732D01*
X94102213Y-58676971D01*
X94102215Y-58676968D01*
X94102219Y-58676966D01*
X94246966Y-58532219D01*
X94246968Y-58532215D01*
X94246971Y-58532213D01*
X94367284Y-58366614D01*
X94367285Y-58366613D01*
X94367287Y-58366610D01*
X94414516Y-58273917D01*
X94462489Y-58223123D01*
X94530310Y-58206328D01*
X94596445Y-58228865D01*
X94635485Y-58273919D01*
X94682715Y-58366614D01*
X94803028Y-58532213D01*
X94947786Y-58676971D01*
X95102749Y-58789556D01*
X95113390Y-58797287D01*
X95229607Y-58856503D01*
X95295776Y-58890218D01*
X95295778Y-58890218D01*
X95295781Y-58890220D01*
X95400137Y-58924127D01*
X95490465Y-58953477D01*
X95591557Y-58969488D01*
X95692648Y-58985500D01*
X95692649Y-58985500D01*
X95897351Y-58985500D01*
X95897352Y-58985500D01*
X96099534Y-58953477D01*
X96294219Y-58890220D01*
X96476610Y-58797287D01*
X96569590Y-58729732D01*
X96642213Y-58676971D01*
X96642215Y-58676968D01*
X96642219Y-58676966D01*
X96786966Y-58532219D01*
X96786968Y-58532215D01*
X96786971Y-58532213D01*
X96907284Y-58366614D01*
X96907285Y-58366613D01*
X96907287Y-58366610D01*
X96954516Y-58273917D01*
X97002489Y-58223123D01*
X97070310Y-58206328D01*
X97136445Y-58228865D01*
X97175485Y-58273919D01*
X97222715Y-58366614D01*
X97343028Y-58532213D01*
X97487786Y-58676971D01*
X97642749Y-58789556D01*
X97653390Y-58797287D01*
X97769607Y-58856503D01*
X97835776Y-58890218D01*
X97835778Y-58890218D01*
X97835781Y-58890220D01*
X97940137Y-58924127D01*
X98030465Y-58953477D01*
X98131557Y-58969488D01*
X98232648Y-58985500D01*
X98232649Y-58985500D01*
X98437351Y-58985500D01*
X98437352Y-58985500D01*
X98639534Y-58953477D01*
X98653842Y-58948827D01*
X98723682Y-58946831D01*
X98779842Y-58979077D01*
X103095139Y-63294374D01*
X103095149Y-63294385D01*
X103099479Y-63298715D01*
X103099480Y-63298716D01*
X103211284Y-63410520D01*
X103286068Y-63453696D01*
X103338134Y-63483757D01*
X103348215Y-63489577D01*
X103500943Y-63530500D01*
X103659057Y-63530500D01*
X104870501Y-63530500D01*
X104937540Y-63550185D01*
X104983295Y-63602989D01*
X104994501Y-63654500D01*
X104994501Y-63777876D01*
X105000908Y-63837483D01*
X105051202Y-63972328D01*
X105051206Y-63972335D01*
X105137452Y-64087544D01*
X105137455Y-64087547D01*
X105252664Y-64173793D01*
X105252671Y-64173797D01*
X105387517Y-64224091D01*
X105387516Y-64224091D01*
X105394444Y-64224835D01*
X105447127Y-64230500D01*
X107142872Y-64230499D01*
X107202483Y-64224091D01*
X107337331Y-64173796D01*
X107452546Y-64087546D01*
X107538796Y-63972331D01*
X107589091Y-63837483D01*
X107595500Y-63777873D01*
X107595499Y-62082128D01*
X107589091Y-62022517D01*
X107568690Y-61967820D01*
X107538797Y-61887671D01*
X107538793Y-61887664D01*
X107452547Y-61772455D01*
X107452544Y-61772452D01*
X107337335Y-61686206D01*
X107337328Y-61686202D01*
X107202482Y-61635908D01*
X107202483Y-61635908D01*
X107142883Y-61629501D01*
X107142881Y-61629500D01*
X107142873Y-61629500D01*
X107142864Y-61629500D01*
X105447129Y-61629500D01*
X105447123Y-61629501D01*
X105387516Y-61635908D01*
X105252671Y-61686202D01*
X105252664Y-61686206D01*
X105137455Y-61772452D01*
X105137452Y-61772455D01*
X105051206Y-61887664D01*
X105051202Y-61887671D01*
X105000908Y-62022517D01*
X104994501Y-62082116D01*
X104994501Y-62082123D01*
X104994500Y-62082135D01*
X104994500Y-62205500D01*
X104974815Y-62272539D01*
X104922011Y-62318294D01*
X104870500Y-62329500D01*
X103880097Y-62329500D01*
X103813058Y-62309815D01*
X103792416Y-62293181D01*
X100696416Y-59197181D01*
X100662931Y-59135858D01*
X100667915Y-59066166D01*
X100709787Y-59010233D01*
X100775251Y-58985816D01*
X100784097Y-58985500D01*
X100977351Y-58985500D01*
X100977352Y-58985500D01*
X101179534Y-58953477D01*
X101374219Y-58890220D01*
X101556610Y-58797287D01*
X101649590Y-58729732D01*
X101722213Y-58676971D01*
X101722215Y-58676968D01*
X101722219Y-58676966D01*
X101866966Y-58532219D01*
X101866968Y-58532215D01*
X101866971Y-58532213D01*
X101919732Y-58459590D01*
X101987287Y-58366610D01*
X102080220Y-58184219D01*
X102143477Y-57989534D01*
X102175500Y-57787352D01*
X102175500Y-57582648D01*
X102143477Y-57380466D01*
X102080220Y-57185781D01*
X102080218Y-57185778D01*
X102080218Y-57185776D01*
X102034515Y-57096080D01*
X101987287Y-57003390D01*
X101979556Y-56992749D01*
X101866971Y-56837786D01*
X101722213Y-56693028D01*
X101556613Y-56572715D01*
X101556612Y-56572714D01*
X101556610Y-56572713D01*
X101499653Y-56543691D01*
X101374223Y-56479781D01*
X101179534Y-56416522D01*
X101004995Y-56388878D01*
X100977352Y-56384500D01*
X100772648Y-56384500D01*
X100748329Y-56388351D01*
X100570465Y-56416522D01*
X100375776Y-56479781D01*
X100193386Y-56572715D01*
X100027786Y-56693028D01*
X99883028Y-56837786D01*
X99762715Y-57003386D01*
X99715485Y-57096080D01*
X99667510Y-57146876D01*
X99599689Y-57163671D01*
X99533554Y-57141134D01*
X99494515Y-57096080D01*
X99493883Y-57094840D01*
X99447287Y-57003390D01*
X99439556Y-56992749D01*
X99326971Y-56837786D01*
X99182213Y-56693028D01*
X99016613Y-56572715D01*
X99016612Y-56572714D01*
X99016610Y-56572713D01*
X98959653Y-56543691D01*
X98834223Y-56479781D01*
X98639534Y-56416522D01*
X98464995Y-56388878D01*
X98437352Y-56384500D01*
X98232648Y-56384500D01*
X98208329Y-56388351D01*
X98030465Y-56416522D01*
X97835776Y-56479781D01*
X97653386Y-56572715D01*
X97487786Y-56693028D01*
X97343028Y-56837786D01*
X97222715Y-57003386D01*
X97175485Y-57096080D01*
X97127510Y-57146876D01*
X97059689Y-57163671D01*
X96993554Y-57141134D01*
X96954515Y-57096080D01*
X96953883Y-57094840D01*
X96907287Y-57003390D01*
X96899556Y-56992749D01*
X96786971Y-56837786D01*
X96642213Y-56693028D01*
X96476613Y-56572715D01*
X96476612Y-56572714D01*
X96476610Y-56572713D01*
X96419653Y-56543691D01*
X96294223Y-56479781D01*
X96099534Y-56416522D01*
X95924995Y-56388878D01*
X95897352Y-56384500D01*
X95692648Y-56384500D01*
X95668329Y-56388351D01*
X95490465Y-56416522D01*
X95295776Y-56479781D01*
X95113386Y-56572715D01*
X94947786Y-56693028D01*
X94803028Y-56837786D01*
X94682715Y-57003386D01*
X94635485Y-57096080D01*
X94587510Y-57146876D01*
X94519689Y-57163671D01*
X94453554Y-57141134D01*
X94414515Y-57096080D01*
X94413883Y-57094840D01*
X94367287Y-57003390D01*
X94359556Y-56992749D01*
X94246971Y-56837786D01*
X94102213Y-56693028D01*
X93936613Y-56572715D01*
X93936612Y-56572714D01*
X93936610Y-56572713D01*
X93879653Y-56543691D01*
X93754223Y-56479781D01*
X93559534Y-56416522D01*
X93384995Y-56388878D01*
X93357352Y-56384500D01*
X93152648Y-56384500D01*
X93128329Y-56388351D01*
X92950465Y-56416522D01*
X92755776Y-56479781D01*
X92573386Y-56572715D01*
X92407786Y-56693028D01*
X92263028Y-56837786D01*
X92142715Y-57003386D01*
X92049781Y-57185776D01*
X91986522Y-57380465D01*
X91954500Y-57582648D01*
X90164000Y-57582648D01*
X90164000Y-54688000D01*
X90183685Y-54620961D01*
X90236489Y-54575206D01*
X90288000Y-54564000D01*
X94474251Y-54564000D01*
X94474253Y-54564000D01*
X94617696Y-54525565D01*
X94620933Y-54523696D01*
X94746304Y-54451313D01*
X94851313Y-54346304D01*
X94851313Y-54346302D01*
X94861517Y-54336099D01*
X94861521Y-54336094D01*
X97851198Y-51346416D01*
X97912519Y-51312933D01*
X97977194Y-51316167D01*
X98030466Y-51333477D01*
X98232648Y-51365500D01*
X98232649Y-51365500D01*
X98437351Y-51365500D01*
X98437352Y-51365500D01*
X98639534Y-51333477D01*
X98834219Y-51270220D01*
X99016610Y-51177287D01*
X99145482Y-51083657D01*
X99182213Y-51056971D01*
X99182215Y-51056968D01*
X99182219Y-51056966D01*
X99326966Y-50912219D01*
X99395021Y-50818547D01*
X99450349Y-50775882D01*
X99519963Y-50769902D01*
X99581758Y-50802507D01*
X99613044Y-50852427D01*
X99640186Y-50934334D01*
X99732288Y-51083656D01*
X99856344Y-51207712D01*
X100005666Y-51299814D01*
X100172203Y-51354999D01*
X100274991Y-51365500D01*
X101475008Y-51365499D01*
X101577797Y-51354999D01*
X101744334Y-51299814D01*
X101893656Y-51207712D01*
X102017712Y-51083656D01*
X102109814Y-50934334D01*
X102164999Y-50767797D01*
X102175500Y-50665009D01*
X102175499Y-49464992D01*
X102164999Y-49362203D01*
X102109814Y-49195666D01*
X102017712Y-49046344D01*
X101893656Y-48922288D01*
X101744334Y-48830186D01*
X101577797Y-48775001D01*
X101577795Y-48775000D01*
X101475010Y-48764500D01*
X100274998Y-48764500D01*
X100274981Y-48764501D01*
X100172203Y-48775000D01*
X100172200Y-48775001D01*
X100005668Y-48830185D01*
X100005663Y-48830187D01*
X99856342Y-48922289D01*
X99732289Y-49046342D01*
X99640187Y-49195663D01*
X99640186Y-49195666D01*
X99613045Y-49277571D01*
X99573271Y-49335016D01*
X99508755Y-49361838D01*
X99439979Y-49349522D01*
X99395021Y-49311452D01*
X99326966Y-49217781D01*
X99182219Y-49073034D01*
X99182213Y-49073028D01*
X99016613Y-48952715D01*
X99016612Y-48952714D01*
X99016610Y-48952713D01*
X98956898Y-48922288D01*
X98834223Y-48859781D01*
X98639534Y-48796522D01*
X98464995Y-48768878D01*
X98437352Y-48764500D01*
X98232648Y-48764500D01*
X98208329Y-48768351D01*
X98030465Y-48796522D01*
X97835776Y-48859781D01*
X97653386Y-48952715D01*
X97487786Y-49073028D01*
X97343028Y-49217786D01*
X97222715Y-49383386D01*
X97175485Y-49476080D01*
X97127510Y-49526876D01*
X97059689Y-49543671D01*
X96993554Y-49521134D01*
X96954515Y-49476080D01*
X96907420Y-49383652D01*
X96907287Y-49383390D01*
X96875092Y-49339077D01*
X96786971Y-49217786D01*
X96642213Y-49073028D01*
X96476613Y-48952715D01*
X96476612Y-48952714D01*
X96476610Y-48952713D01*
X96416898Y-48922288D01*
X96294223Y-48859781D01*
X96099534Y-48796522D01*
X95924995Y-48768878D01*
X95897352Y-48764500D01*
X95692648Y-48764500D01*
X95668329Y-48768351D01*
X95490465Y-48796522D01*
X95295776Y-48859781D01*
X95113386Y-48952715D01*
X94947786Y-49073028D01*
X94803028Y-49217786D01*
X94682713Y-49383388D01*
X94635203Y-49476630D01*
X94587228Y-49527426D01*
X94519407Y-49544220D01*
X94453272Y-49521682D01*
X94414234Y-49476628D01*
X94366861Y-49383652D01*
X94334474Y-49339077D01*
X94334474Y-49339076D01*
X93655000Y-50018551D01*
X93655000Y-50012339D01*
X93627741Y-49910606D01*
X93575080Y-49819394D01*
X93500606Y-49744920D01*
X93409394Y-49692259D01*
X93307661Y-49665000D01*
X93301446Y-49665000D01*
X93980922Y-48985524D01*
X93980921Y-48985523D01*
X93936359Y-48953147D01*
X93936350Y-48953141D01*
X93754031Y-48860244D01*
X93559417Y-48797009D01*
X93357317Y-48765000D01*
X93152683Y-48765000D01*
X92950582Y-48797009D01*
X92755968Y-48860244D01*
X92573644Y-48953143D01*
X92529077Y-48985523D01*
X92529077Y-48985524D01*
X93208554Y-49665000D01*
X93202339Y-49665000D01*
X93100606Y-49692259D01*
X93009394Y-49744920D01*
X92934920Y-49819394D01*
X92882259Y-49910606D01*
X92855000Y-50012339D01*
X92855000Y-50018553D01*
X92175524Y-49339077D01*
X92175523Y-49339077D01*
X92143143Y-49383644D01*
X92050244Y-49565968D01*
X91987009Y-49760582D01*
X91955000Y-49962682D01*
X91955000Y-50167317D01*
X91987009Y-50369417D01*
X92050244Y-50564031D01*
X92143141Y-50746350D01*
X92143147Y-50746359D01*
X92175523Y-50790921D01*
X92175524Y-50790922D01*
X92855000Y-50111446D01*
X92855000Y-50117661D01*
X92882259Y-50219394D01*
X92934920Y-50310606D01*
X93009394Y-50385080D01*
X93100606Y-50437741D01*
X93202339Y-50465000D01*
X93208553Y-50465000D01*
X92529076Y-51144474D01*
X92573650Y-51176859D01*
X92755968Y-51269755D01*
X92950582Y-51332990D01*
X93152683Y-51365000D01*
X93357317Y-51365000D01*
X93559417Y-51332990D01*
X93754031Y-51269755D01*
X93936349Y-51176859D01*
X93980921Y-51144474D01*
X93301447Y-50465000D01*
X93307661Y-50465000D01*
X93409394Y-50437741D01*
X93500606Y-50385080D01*
X93575080Y-50310606D01*
X93627741Y-50219394D01*
X93655000Y-50117661D01*
X93655000Y-50111447D01*
X94334474Y-50790921D01*
X94366861Y-50746347D01*
X94366861Y-50746346D01*
X94414234Y-50653371D01*
X94462208Y-50602575D01*
X94530028Y-50585779D01*
X94596164Y-50608316D01*
X94635203Y-50653369D01*
X94682713Y-50746611D01*
X94803028Y-50912213D01*
X94947786Y-51056971D01*
X95068226Y-51144474D01*
X95113390Y-51177287D01*
X95218417Y-51230801D01*
X95295776Y-51270218D01*
X95295778Y-51270218D01*
X95295781Y-51270220D01*
X95386856Y-51299812D01*
X95490465Y-51333477D01*
X95572171Y-51346418D01*
X95692648Y-51365500D01*
X95692649Y-51365500D01*
X95897348Y-51365500D01*
X95897352Y-51365500D01*
X95923847Y-51361303D01*
X95993137Y-51370257D01*
X96046590Y-51415252D01*
X96067231Y-51482003D01*
X96048507Y-51549317D01*
X96030925Y-51571457D01*
X94202703Y-53399681D01*
X94141380Y-53433166D01*
X94115022Y-53436000D01*
X89881865Y-53436000D01*
X89881849Y-53435999D01*
X89874253Y-53435999D01*
X89725748Y-53435999D01*
X89594063Y-53471284D01*
X89582300Y-53474436D01*
X89453699Y-53548684D01*
X89453693Y-53548689D01*
X89148688Y-53853694D01*
X89148684Y-53853699D01*
X89112210Y-53916874D01*
X89112207Y-53916880D01*
X89107088Y-53925748D01*
X89074435Y-53982304D01*
X89042829Y-54100263D01*
X89041274Y-54106064D01*
X89041272Y-54106071D01*
X89036000Y-54125747D01*
X89036000Y-59535021D01*
X89016315Y-59602060D01*
X88999681Y-59622702D01*
X79562181Y-69060202D01*
X79500858Y-69093687D01*
X79431166Y-69088703D01*
X79375233Y-69046831D01*
X79350816Y-68981367D01*
X79350500Y-68972521D01*
X79350500Y-68773713D01*
X79337019Y-68688599D01*
X79317246Y-68563757D01*
X79251557Y-68361588D01*
X79155051Y-68172184D01*
X79155049Y-68172181D01*
X79155048Y-68172179D01*
X79030109Y-68000213D01*
X78879786Y-67849890D01*
X78707820Y-67724951D01*
X78707115Y-67724591D01*
X78699054Y-67720485D01*
X78648259Y-67672512D01*
X78631463Y-67604692D01*
X78653999Y-67538556D01*
X78699054Y-67499515D01*
X78707816Y-67495051D01*
X78729789Y-67479086D01*
X78879786Y-67370109D01*
X78879788Y-67370106D01*
X78879792Y-67370104D01*
X79030104Y-67219792D01*
X79030106Y-67219788D01*
X79030109Y-67219786D01*
X79155050Y-67047817D01*
X79193831Y-66971706D01*
X79241805Y-66920909D01*
X79304316Y-66904000D01*
X81134251Y-66904000D01*
X81134253Y-66904000D01*
X81277696Y-66865565D01*
X81290085Y-66858412D01*
X81406304Y-66791313D01*
X81511313Y-66686304D01*
X81511313Y-66686302D01*
X81521516Y-66676100D01*
X81521520Y-66676094D01*
X81536094Y-66661521D01*
X81536099Y-66661517D01*
X81546302Y-66651313D01*
X81546304Y-66651313D01*
X81651313Y-66546304D01*
X81725565Y-66417696D01*
X81764000Y-66274252D01*
X81764000Y-48125748D01*
X81725565Y-47982304D01*
X81725565Y-47982303D01*
X81698386Y-47935229D01*
X81651313Y-47853696D01*
X81546304Y-47748687D01*
X81546303Y-47748686D01*
X81541973Y-47744356D01*
X81541962Y-47744346D01*
X81258383Y-47460767D01*
X81258381Y-47460764D01*
X81146306Y-47348689D01*
X81146304Y-47348687D01*
X81017696Y-47274435D01*
X80874253Y-47236000D01*
X80874252Y-47236000D01*
X62074252Y-47236000D01*
X61925748Y-47236000D01*
X61782304Y-47274435D01*
X61782301Y-47274436D01*
X61653699Y-47348685D01*
X61653693Y-47348689D01*
X61548689Y-47453693D01*
X61548685Y-47453699D01*
X61474436Y-47582301D01*
X61474435Y-47582304D01*
X61436000Y-47725748D01*
X61436000Y-49837583D01*
X61416315Y-49904622D01*
X61363511Y-49950377D01*
X61345087Y-49956731D01*
X61345099Y-49956768D01*
X61343044Y-49957435D01*
X61340970Y-49958151D01*
X61340480Y-49958268D01*
X61145778Y-50021531D01*
X60963386Y-50114465D01*
X60797786Y-50234778D01*
X60653028Y-50379536D01*
X60532715Y-50545136D01*
X60485485Y-50637830D01*
X60437510Y-50688626D01*
X60369689Y-50705421D01*
X60303554Y-50682884D01*
X60264515Y-50637830D01*
X60249477Y-50608316D01*
X60217287Y-50545140D01*
X60192681Y-50511272D01*
X60096971Y-50379536D01*
X59952213Y-50234778D01*
X59786613Y-50114465D01*
X59786612Y-50114464D01*
X59786610Y-50114463D01*
X59689532Y-50064999D01*
X59604223Y-50021531D01*
X59409534Y-49958272D01*
X59234995Y-49930628D01*
X59207352Y-49926250D01*
X59002648Y-49926250D01*
X58978329Y-49930101D01*
X58800465Y-49958272D01*
X58605776Y-50021531D01*
X58423386Y-50114465D01*
X58257786Y-50234778D01*
X58113028Y-50379536D01*
X57992713Y-50545138D01*
X57945203Y-50638380D01*
X57897228Y-50689176D01*
X57829407Y-50705970D01*
X57763272Y-50683432D01*
X57724234Y-50638378D01*
X57676861Y-50545402D01*
X57644474Y-50500827D01*
X57644474Y-50500826D01*
X56965000Y-51180301D01*
X56965000Y-51174089D01*
X56937741Y-51072356D01*
X56885080Y-50981144D01*
X56810606Y-50906670D01*
X56719394Y-50854009D01*
X56617661Y-50826750D01*
X56611446Y-50826750D01*
X57290922Y-50147274D01*
X57290921Y-50147273D01*
X57246359Y-50114897D01*
X57246350Y-50114891D01*
X57064031Y-50021994D01*
X56869417Y-49958759D01*
X56667317Y-49926750D01*
X56462683Y-49926750D01*
X56260582Y-49958759D01*
X56065968Y-50021994D01*
X55883644Y-50114893D01*
X55839077Y-50147273D01*
X55839077Y-50147274D01*
X56518554Y-50826750D01*
X56512339Y-50826750D01*
X56410606Y-50854009D01*
X56319394Y-50906670D01*
X56244920Y-50981144D01*
X56192259Y-51072356D01*
X56165000Y-51174089D01*
X56165000Y-51180303D01*
X55485524Y-50500827D01*
X55485523Y-50500827D01*
X55453143Y-50545394D01*
X55360244Y-50727718D01*
X55297009Y-50922332D01*
X55265000Y-51124432D01*
X55265000Y-51329067D01*
X55297009Y-51531167D01*
X55360244Y-51725781D01*
X55453141Y-51908100D01*
X55453147Y-51908109D01*
X55485523Y-51952671D01*
X55485524Y-51952672D01*
X56165000Y-51273196D01*
X56165000Y-51279411D01*
X56192259Y-51381144D01*
X56244920Y-51472356D01*
X56319394Y-51546830D01*
X56410606Y-51599491D01*
X56512339Y-51626750D01*
X56518553Y-51626750D01*
X55839076Y-52306224D01*
X55883650Y-52338609D01*
X56065968Y-52431505D01*
X56260582Y-52494740D01*
X56462683Y-52526750D01*
X56667317Y-52526750D01*
X56869417Y-52494740D01*
X57064031Y-52431505D01*
X57246349Y-52338609D01*
X57290921Y-52306224D01*
X56611447Y-51626750D01*
X56617661Y-51626750D01*
X56719394Y-51599491D01*
X56810606Y-51546830D01*
X56885080Y-51472356D01*
X56937741Y-51381144D01*
X56965000Y-51279411D01*
X56965000Y-51273197D01*
X57644474Y-51952671D01*
X57676861Y-51908097D01*
X57676861Y-51908096D01*
X57724234Y-51815121D01*
X57772208Y-51764325D01*
X57840028Y-51747529D01*
X57906164Y-51770066D01*
X57945203Y-51815119D01*
X57992713Y-51908361D01*
X58113028Y-52073963D01*
X58257786Y-52218721D01*
X58378226Y-52306224D01*
X58423390Y-52339037D01*
X58539607Y-52398253D01*
X58605776Y-52431968D01*
X58605778Y-52431968D01*
X58605781Y-52431970D01*
X58696856Y-52461562D01*
X58800465Y-52495227D01*
X58901557Y-52511238D01*
X59002648Y-52527250D01*
X59002649Y-52527250D01*
X59207351Y-52527250D01*
X59207352Y-52527250D01*
X59409534Y-52495227D01*
X59604219Y-52431970D01*
X59786610Y-52339037D01*
X59915482Y-52245407D01*
X59952213Y-52218721D01*
X59952215Y-52218718D01*
X59952219Y-52218716D01*
X60096966Y-52073969D01*
X60096968Y-52073965D01*
X60096971Y-52073963D01*
X60217284Y-51908364D01*
X60217286Y-51908361D01*
X60217287Y-51908360D01*
X60264516Y-51815667D01*
X60312489Y-51764873D01*
X60380310Y-51748078D01*
X60446445Y-51770615D01*
X60485483Y-51815667D01*
X60491139Y-51826766D01*
X60532715Y-51908364D01*
X60653028Y-52073963D01*
X60797786Y-52218721D01*
X60918226Y-52306224D01*
X60963390Y-52339037D01*
X61079607Y-52398253D01*
X61145776Y-52431968D01*
X61145778Y-52431968D01*
X61145781Y-52431970D01*
X61236856Y-52461562D01*
X61340465Y-52495227D01*
X61441557Y-52511238D01*
X61542648Y-52527250D01*
X61542649Y-52527250D01*
X61747351Y-52527250D01*
X61747352Y-52527250D01*
X61949534Y-52495227D01*
X62144219Y-52431970D01*
X62326610Y-52339037D01*
X62455482Y-52245407D01*
X62492213Y-52218721D01*
X62492215Y-52218718D01*
X62492219Y-52218716D01*
X62636966Y-52073969D01*
X62705021Y-51980297D01*
X62760349Y-51937632D01*
X62829963Y-51931652D01*
X62891758Y-51964257D01*
X62923044Y-52014177D01*
X62950186Y-52096084D01*
X63042288Y-52245406D01*
X63166344Y-52369462D01*
X63315666Y-52461564D01*
X63482203Y-52516749D01*
X63584991Y-52527250D01*
X64785008Y-52527249D01*
X64887797Y-52516749D01*
X65054334Y-52461564D01*
X65203656Y-52369462D01*
X65327712Y-52245406D01*
X65419814Y-52096084D01*
X65474999Y-51929547D01*
X65485500Y-51826759D01*
X65485499Y-50626742D01*
X65474999Y-50523953D01*
X65419814Y-50357416D01*
X65327712Y-50208094D01*
X65203656Y-50084038D01*
X65054334Y-49991936D01*
X64887797Y-49936751D01*
X64887795Y-49936750D01*
X64785010Y-49926250D01*
X63584998Y-49926250D01*
X63584981Y-49926251D01*
X63482203Y-49936750D01*
X63482200Y-49936751D01*
X63315668Y-49991935D01*
X63315663Y-49991937D01*
X63166342Y-50084039D01*
X63042289Y-50208092D01*
X62950187Y-50357413D01*
X62950186Y-50357416D01*
X62923045Y-50439321D01*
X62917903Y-50446746D01*
X62916315Y-50455636D01*
X62898326Y-50475021D01*
X62883271Y-50496766D01*
X62874932Y-50500232D01*
X62868790Y-50506852D01*
X62843176Y-50513435D01*
X62818755Y-50523588D01*
X62809865Y-50521996D01*
X62801120Y-50524244D01*
X62776011Y-50515933D01*
X62749979Y-50511272D01*
X62741608Y-50504547D01*
X62734789Y-50502290D01*
X62716248Y-50484173D01*
X62708917Y-50478283D01*
X62706906Y-50475796D01*
X62636966Y-50379531D01*
X62595688Y-50338253D01*
X62591578Y-50333170D01*
X62580565Y-50306709D01*
X62566834Y-50281561D01*
X62565696Y-50270978D01*
X62564733Y-50268664D01*
X62565178Y-50266168D01*
X62564000Y-50255203D01*
X62564000Y-48488000D01*
X62583685Y-48420961D01*
X62636489Y-48375206D01*
X62688000Y-48364000D01*
X80512000Y-48364000D01*
X80579039Y-48383685D01*
X80624794Y-48436489D01*
X80636000Y-48488000D01*
X80636000Y-65652000D01*
X80616315Y-65719039D01*
X80563511Y-65764794D01*
X80512000Y-65776000D01*
X79304316Y-65776000D01*
X79237277Y-65756315D01*
X79193831Y-65708294D01*
X79155050Y-65632182D01*
X79030109Y-65460213D01*
X78879786Y-65309890D01*
X78707820Y-65184951D01*
X78707115Y-65184591D01*
X78699054Y-65180485D01*
X78648259Y-65132512D01*
X78631463Y-65064692D01*
X78653999Y-64998556D01*
X78699054Y-64959515D01*
X78707816Y-64955051D01*
X78773200Y-64907547D01*
X78879786Y-64830109D01*
X78879788Y-64830106D01*
X78879792Y-64830104D01*
X79030104Y-64679792D01*
X79030106Y-64679788D01*
X79030109Y-64679786D01*
X79155048Y-64507820D01*
X79155047Y-64507820D01*
X79155051Y-64507816D01*
X79251557Y-64318412D01*
X79317246Y-64116243D01*
X79350500Y-63906287D01*
X79350500Y-63693713D01*
X79317246Y-63483757D01*
X79251557Y-63281588D01*
X79155051Y-63092184D01*
X79155049Y-63092181D01*
X79155048Y-63092179D01*
X79030109Y-62920213D01*
X78879786Y-62769890D01*
X78707820Y-62644951D01*
X78707115Y-62644591D01*
X78699054Y-62640485D01*
X78648259Y-62592512D01*
X78631463Y-62524692D01*
X78653999Y-62458556D01*
X78699054Y-62419515D01*
X78707816Y-62415051D01*
X78840992Y-62318294D01*
X78879786Y-62290109D01*
X78879788Y-62290106D01*
X78879792Y-62290104D01*
X79030104Y-62139792D01*
X79030106Y-62139788D01*
X79030109Y-62139786D01*
X79155048Y-61967820D01*
X79155047Y-61967820D01*
X79155051Y-61967816D01*
X79251557Y-61778412D01*
X79317246Y-61576243D01*
X79350500Y-61366287D01*
X79350500Y-61153713D01*
X79317246Y-60943757D01*
X79251557Y-60741588D01*
X79155051Y-60552184D01*
X79155049Y-60552181D01*
X79155048Y-60552179D01*
X79030109Y-60380213D01*
X78879786Y-60229890D01*
X78707820Y-60104951D01*
X78518414Y-60008444D01*
X78518413Y-60008443D01*
X78518412Y-60008443D01*
X78316243Y-59942754D01*
X78316241Y-59942753D01*
X78316240Y-59942753D01*
X78154957Y-59917208D01*
X78106287Y-59909500D01*
X77893713Y-59909500D01*
X77845042Y-59917208D01*
X77683760Y-59942753D01*
X77481585Y-60008444D01*
X77292179Y-60104951D01*
X77120213Y-60229890D01*
X76969890Y-60380213D01*
X76844951Y-60552179D01*
X76748444Y-60741585D01*
X76682753Y-60943760D01*
X76650167Y-61149500D01*
X76649500Y-61153713D01*
X76649500Y-61366287D01*
X76682754Y-61576243D01*
X76746507Y-61772455D01*
X76748444Y-61778414D01*
X76844951Y-61967820D01*
X76969890Y-62139786D01*
X77120213Y-62290109D01*
X77292182Y-62415050D01*
X77300946Y-62419516D01*
X77351742Y-62467491D01*
X77368536Y-62535312D01*
X77345998Y-62601447D01*
X77300946Y-62640484D01*
X77292182Y-62644949D01*
X77120213Y-62769890D01*
X76969890Y-62920213D01*
X76844951Y-63092179D01*
X76748444Y-63281585D01*
X76682753Y-63483760D01*
X76649500Y-63693713D01*
X76649500Y-63906286D01*
X76682753Y-64116240D01*
X76682754Y-64116244D01*
X76709150Y-64197484D01*
X76711145Y-64267325D01*
X76678900Y-64323482D01*
X74453698Y-66548685D01*
X74348689Y-66653693D01*
X74348685Y-66653699D01*
X74274436Y-66782301D01*
X74274435Y-66782304D01*
X74236000Y-66925748D01*
X74236000Y-116912000D01*
X74216315Y-116979039D01*
X74163511Y-117024794D01*
X74112000Y-117036000D01*
X71261865Y-117036000D01*
X71261849Y-117035999D01*
X71254253Y-117035999D01*
X71105748Y-117035999D01*
X70974063Y-117071284D01*
X70962300Y-117074436D01*
X70833699Y-117148684D01*
X70833693Y-117148689D01*
X70728685Y-117253698D01*
X66588802Y-121393580D01*
X66527479Y-121427065D01*
X66462804Y-121423831D01*
X66409531Y-121406522D01*
X66233850Y-121378697D01*
X66207352Y-121374500D01*
X66002648Y-121374500D01*
X65982362Y-121377713D01*
X65800465Y-121406522D01*
X65605776Y-121469781D01*
X65423386Y-121562715D01*
X65257786Y-121683028D01*
X65113032Y-121827782D01*
X65113028Y-121827787D01*
X65044978Y-121921451D01*
X64989648Y-121964117D01*
X64920035Y-121970096D01*
X64858240Y-121937490D01*
X64826954Y-121887570D01*
X64807144Y-121827787D01*
X64799814Y-121805666D01*
X64707712Y-121656344D01*
X64583656Y-121532288D01*
X64490888Y-121475069D01*
X64434336Y-121440187D01*
X64434331Y-121440185D01*
X64267795Y-121385000D01*
X64263533Y-121384088D01*
X64202102Y-121350801D01*
X64168419Y-121289586D01*
X64165500Y-121262837D01*
X64165500Y-117790945D01*
X64165500Y-117790943D01*
X64124577Y-117638216D01*
X64124577Y-117638215D01*
X64124577Y-117638214D01*
X64095639Y-117588095D01*
X64095637Y-117588092D01*
X64045520Y-117501284D01*
X63933716Y-117389480D01*
X63933715Y-117389479D01*
X63929385Y-117385149D01*
X63929374Y-117385139D01*
X63043895Y-116499660D01*
X63010410Y-116438337D01*
X63015394Y-116368645D01*
X63057266Y-116312712D01*
X63122730Y-116288295D01*
X63169891Y-116294047D01*
X63227335Y-116312712D01*
X63260465Y-116323477D01*
X63361557Y-116339488D01*
X63462648Y-116355500D01*
X63462649Y-116355500D01*
X63667351Y-116355500D01*
X63667352Y-116355500D01*
X63869534Y-116323477D01*
X64064219Y-116260220D01*
X64246610Y-116167287D01*
X64339590Y-116099732D01*
X64412213Y-116046971D01*
X64412215Y-116046968D01*
X64412219Y-116046966D01*
X64556966Y-115902219D01*
X64556968Y-115902215D01*
X64556971Y-115902213D01*
X64677284Y-115736614D01*
X64677285Y-115736613D01*
X64677287Y-115736610D01*
X64724516Y-115643917D01*
X64772489Y-115593123D01*
X64840310Y-115576328D01*
X64906445Y-115598865D01*
X64945485Y-115643919D01*
X64992715Y-115736614D01*
X65113028Y-115902213D01*
X65257786Y-116046971D01*
X65383736Y-116138477D01*
X65423390Y-116167287D01*
X65539607Y-116226503D01*
X65605776Y-116260218D01*
X65605778Y-116260218D01*
X65605781Y-116260220D01*
X65692187Y-116288295D01*
X65800465Y-116323477D01*
X65901557Y-116339488D01*
X66002648Y-116355500D01*
X66002649Y-116355500D01*
X66207351Y-116355500D01*
X66207352Y-116355500D01*
X66409534Y-116323477D01*
X66604219Y-116260220D01*
X66786610Y-116167287D01*
X66879590Y-116099732D01*
X66952213Y-116046971D01*
X66952215Y-116046968D01*
X66952219Y-116046966D01*
X67096966Y-115902219D01*
X67096968Y-115902215D01*
X67096971Y-115902213D01*
X67217284Y-115736614D01*
X67217285Y-115736613D01*
X67217287Y-115736610D01*
X67264516Y-115643917D01*
X67312489Y-115593123D01*
X67380310Y-115576328D01*
X67446445Y-115598865D01*
X67485485Y-115643919D01*
X67532715Y-115736614D01*
X67653028Y-115902213D01*
X67797786Y-116046971D01*
X67923736Y-116138477D01*
X67963390Y-116167287D01*
X68079607Y-116226503D01*
X68145776Y-116260218D01*
X68145778Y-116260218D01*
X68145781Y-116260220D01*
X68232187Y-116288295D01*
X68340465Y-116323477D01*
X68441557Y-116339488D01*
X68542648Y-116355500D01*
X68542649Y-116355500D01*
X68747351Y-116355500D01*
X68747352Y-116355500D01*
X68949534Y-116323477D01*
X69144219Y-116260220D01*
X69326610Y-116167287D01*
X69419590Y-116099732D01*
X69492213Y-116046971D01*
X69492215Y-116046968D01*
X69492219Y-116046966D01*
X69636966Y-115902219D01*
X69636968Y-115902215D01*
X69636971Y-115902213D01*
X69757284Y-115736614D01*
X69757285Y-115736613D01*
X69757287Y-115736610D01*
X69804516Y-115643917D01*
X69852489Y-115593123D01*
X69920310Y-115576328D01*
X69986445Y-115598865D01*
X70025485Y-115643919D01*
X70072715Y-115736614D01*
X70193028Y-115902213D01*
X70337786Y-116046971D01*
X70463736Y-116138477D01*
X70503390Y-116167287D01*
X70619607Y-116226503D01*
X70685776Y-116260218D01*
X70685778Y-116260218D01*
X70685781Y-116260220D01*
X70772187Y-116288295D01*
X70880465Y-116323477D01*
X70981557Y-116339488D01*
X71082648Y-116355500D01*
X71082649Y-116355500D01*
X71287351Y-116355500D01*
X71287352Y-116355500D01*
X71489534Y-116323477D01*
X71684219Y-116260220D01*
X71866610Y-116167287D01*
X71959590Y-116099732D01*
X72032213Y-116046971D01*
X72032215Y-116046968D01*
X72032219Y-116046966D01*
X72176966Y-115902219D01*
X72176968Y-115902215D01*
X72176971Y-115902213D01*
X72229732Y-115829590D01*
X72297287Y-115736610D01*
X72390220Y-115554219D01*
X72453477Y-115359534D01*
X72485500Y-115157352D01*
X72485500Y-114952648D01*
X72453477Y-114750465D01*
X72396491Y-114575081D01*
X72390220Y-114555781D01*
X72390218Y-114555778D01*
X72390218Y-114555776D01*
X72323663Y-114425156D01*
X72297287Y-114373390D01*
X72262954Y-114326134D01*
X72176971Y-114207786D01*
X72032213Y-114063028D01*
X71866610Y-113942712D01*
X71853200Y-113935879D01*
X71802406Y-113887903D01*
X71785500Y-113825397D01*
X71785500Y-112794499D01*
X71805185Y-112727460D01*
X71857989Y-112681705D01*
X71909500Y-112670499D01*
X72222871Y-112670499D01*
X72222872Y-112670499D01*
X72282483Y-112664091D01*
X72417331Y-112613796D01*
X72532546Y-112527546D01*
X72618796Y-112412331D01*
X72669091Y-112277483D01*
X72675500Y-112217873D01*
X72675499Y-110522128D01*
X72669091Y-110462517D01*
X72622324Y-110337129D01*
X72618797Y-110327671D01*
X72618793Y-110327664D01*
X72532547Y-110212455D01*
X72532544Y-110212452D01*
X72417335Y-110126206D01*
X72417328Y-110126202D01*
X72282482Y-110075908D01*
X72282483Y-110075908D01*
X72222883Y-110069501D01*
X72222881Y-110069500D01*
X72222873Y-110069500D01*
X72222864Y-110069500D01*
X70527129Y-110069500D01*
X70527123Y-110069501D01*
X70467516Y-110075908D01*
X70332671Y-110126202D01*
X70332664Y-110126206D01*
X70217455Y-110212452D01*
X70217452Y-110212455D01*
X70131206Y-110327664D01*
X70131202Y-110327671D01*
X70080908Y-110462517D01*
X70074501Y-110522116D01*
X70074501Y-110522123D01*
X70074500Y-110522135D01*
X70074500Y-112217870D01*
X70074501Y-112217876D01*
X70080908Y-112277483D01*
X70131202Y-112412328D01*
X70131206Y-112412335D01*
X70217452Y-112527544D01*
X70217455Y-112527547D01*
X70332664Y-112613793D01*
X70332671Y-112613797D01*
X70467517Y-112664091D01*
X70467515Y-112664091D01*
X70473756Y-112664762D01*
X70538307Y-112691500D01*
X70578155Y-112748893D01*
X70584500Y-112788051D01*
X70584500Y-113825397D01*
X70564815Y-113892436D01*
X70516800Y-113935879D01*
X70503389Y-113942712D01*
X70337786Y-114063028D01*
X70193028Y-114207786D01*
X70072715Y-114373386D01*
X70025485Y-114466080D01*
X69977510Y-114516876D01*
X69909689Y-114533671D01*
X69843554Y-114511134D01*
X69804515Y-114466080D01*
X69783663Y-114425156D01*
X69757287Y-114373390D01*
X69722954Y-114326134D01*
X69636971Y-114207786D01*
X69492213Y-114063028D01*
X69326613Y-113942715D01*
X69326612Y-113942714D01*
X69326610Y-113942713D01*
X69269653Y-113913691D01*
X69144223Y-113849781D01*
X68949534Y-113786522D01*
X68767644Y-113757714D01*
X68747352Y-113754500D01*
X68542648Y-113754500D01*
X68522362Y-113757713D01*
X68340465Y-113786522D01*
X68145776Y-113849781D01*
X67963386Y-113942715D01*
X67797786Y-114063028D01*
X67653028Y-114207786D01*
X67532715Y-114373386D01*
X67485485Y-114466080D01*
X67437510Y-114516876D01*
X67369689Y-114533671D01*
X67303554Y-114511134D01*
X67264515Y-114466080D01*
X67243663Y-114425156D01*
X67217287Y-114373390D01*
X67182954Y-114326134D01*
X67096971Y-114207786D01*
X66952213Y-114063028D01*
X66786613Y-113942715D01*
X66786612Y-113942714D01*
X66786610Y-113942713D01*
X66729653Y-113913691D01*
X66604223Y-113849781D01*
X66409534Y-113786522D01*
X66227644Y-113757714D01*
X66207352Y-113754500D01*
X66002648Y-113754500D01*
X65935254Y-113765174D01*
X65800464Y-113786523D01*
X65747196Y-113803831D01*
X65677355Y-113805826D01*
X65621197Y-113773581D01*
X63378383Y-111530767D01*
X63378381Y-111530764D01*
X63266306Y-111418689D01*
X63266304Y-111418687D01*
X63137698Y-111344436D01*
X63137697Y-111344435D01*
X63107428Y-111336325D01*
X63077161Y-111328215D01*
X63077160Y-111328214D01*
X63016467Y-111311952D01*
X62994253Y-111306000D01*
X62994252Y-111306000D01*
X61799499Y-111306000D01*
X61732460Y-111286315D01*
X61686705Y-111233511D01*
X61675499Y-111182000D01*
X61675499Y-111022129D01*
X61675498Y-111022123D01*
X61675497Y-111022116D01*
X61669091Y-110962517D01*
X61630745Y-110859707D01*
X61618797Y-110827671D01*
X61618793Y-110827664D01*
X61532547Y-110712455D01*
X61532544Y-110712452D01*
X61417335Y-110626206D01*
X61417328Y-110626202D01*
X61282482Y-110575908D01*
X61282483Y-110575908D01*
X61222883Y-110569501D01*
X61222881Y-110569500D01*
X61222873Y-110569500D01*
X61222864Y-110569500D01*
X59527129Y-110569500D01*
X59527123Y-110569501D01*
X59467516Y-110575908D01*
X59332671Y-110626202D01*
X59332664Y-110626206D01*
X59217455Y-110712452D01*
X59217452Y-110712455D01*
X59131206Y-110827664D01*
X59131202Y-110827671D01*
X59080908Y-110962517D01*
X59077865Y-110990827D01*
X59074501Y-111022123D01*
X59074500Y-111022135D01*
X59074500Y-112230903D01*
X59054815Y-112297942D01*
X59002011Y-112343697D01*
X58932853Y-112353641D01*
X58869297Y-112324616D01*
X58862819Y-112318584D01*
X57471819Y-110927584D01*
X57438334Y-110866261D01*
X57435500Y-110839903D01*
X57435500Y-98818256D01*
X57455185Y-98751217D01*
X57503204Y-98707772D01*
X57596538Y-98660217D01*
X57779245Y-98527472D01*
X57845046Y-98503994D01*
X57913100Y-98519819D01*
X57961795Y-98569924D01*
X57968308Y-98584459D01*
X57978702Y-98612328D01*
X57978706Y-98612335D01*
X58064952Y-98727544D01*
X58064955Y-98727547D01*
X58180164Y-98813793D01*
X58180171Y-98813797D01*
X58225118Y-98830561D01*
X58315017Y-98864091D01*
X58374627Y-98870500D01*
X58650501Y-98870499D01*
X58717539Y-98890183D01*
X58763294Y-98942987D01*
X58774500Y-98994499D01*
X58774500Y-103163330D01*
X58774499Y-103163348D01*
X58774499Y-103329054D01*
X58774498Y-103329054D01*
X58815422Y-103481783D01*
X58817825Y-103485944D01*
X58817828Y-103485951D01*
X58894475Y-103618709D01*
X58894481Y-103618717D01*
X59013349Y-103737585D01*
X59013355Y-103737590D01*
X59080922Y-103805157D01*
X59114407Y-103866480D01*
X59111173Y-103931155D01*
X59106522Y-103945468D01*
X59074500Y-104147648D01*
X59074500Y-104352351D01*
X59106522Y-104554534D01*
X59169781Y-104749223D01*
X59227391Y-104862287D01*
X59256021Y-104918477D01*
X59262715Y-104931613D01*
X59383028Y-105097213D01*
X59527786Y-105241971D01*
X59682749Y-105354556D01*
X59693390Y-105362287D01*
X59809607Y-105421503D01*
X59875776Y-105455218D01*
X59875778Y-105455218D01*
X59875781Y-105455220D01*
X59980137Y-105489127D01*
X60070465Y-105518477D01*
X60171557Y-105534488D01*
X60272648Y-105550500D01*
X60272649Y-105550500D01*
X60477351Y-105550500D01*
X60477352Y-105550500D01*
X60679534Y-105518477D01*
X60874219Y-105455220D01*
X61056610Y-105362287D01*
X61149590Y-105294732D01*
X61222213Y-105241971D01*
X61222215Y-105241968D01*
X61222219Y-105241966D01*
X61366966Y-105097219D01*
X61366968Y-105097215D01*
X61366971Y-105097213D01*
X61424175Y-105018477D01*
X61487287Y-104931610D01*
X61580220Y-104749219D01*
X61643477Y-104554534D01*
X61675500Y-104352352D01*
X61675500Y-104147648D01*
X61669293Y-104108457D01*
X61643477Y-103945465D01*
X61613222Y-103852351D01*
X61580220Y-103750781D01*
X61580217Y-103750777D01*
X61580217Y-103750774D01*
X61553873Y-103699072D01*
X61553872Y-103699071D01*
X61544885Y-103681433D01*
X61527671Y-103647648D01*
X70074500Y-103647648D01*
X70074500Y-103852351D01*
X70106522Y-104054534D01*
X70169781Y-104249223D01*
X70262715Y-104431613D01*
X70383028Y-104597213D01*
X70527786Y-104741971D01*
X70682749Y-104854556D01*
X70693390Y-104862287D01*
X70803669Y-104918477D01*
X70875776Y-104955218D01*
X70875778Y-104955218D01*
X70875781Y-104955220D01*
X70974464Y-104987284D01*
X71070465Y-105018477D01*
X71171557Y-105034488D01*
X71272648Y-105050500D01*
X71272649Y-105050500D01*
X71477351Y-105050500D01*
X71477352Y-105050500D01*
X71679534Y-105018477D01*
X71874219Y-104955220D01*
X72056610Y-104862287D01*
X72149590Y-104794732D01*
X72222213Y-104741971D01*
X72222215Y-104741968D01*
X72222219Y-104741966D01*
X72366966Y-104597219D01*
X72366968Y-104597215D01*
X72366971Y-104597213D01*
X72419732Y-104524590D01*
X72487287Y-104431610D01*
X72580220Y-104249219D01*
X72643477Y-104054534D01*
X72675500Y-103852352D01*
X72675500Y-103647648D01*
X72662946Y-103568385D01*
X72643477Y-103445465D01*
X72605652Y-103329054D01*
X72580220Y-103250781D01*
X72580218Y-103250778D01*
X72580218Y-103250776D01*
X72539538Y-103170939D01*
X72487287Y-103068390D01*
X72470134Y-103044781D01*
X72366971Y-102902786D01*
X72222213Y-102758028D01*
X72056613Y-102637715D01*
X72056612Y-102637714D01*
X72056610Y-102637713D01*
X71995394Y-102606522D01*
X71874223Y-102544781D01*
X71679534Y-102481522D01*
X71497650Y-102452715D01*
X71477352Y-102449500D01*
X71272648Y-102449500D01*
X71252362Y-102452713D01*
X71070465Y-102481522D01*
X70875776Y-102544781D01*
X70693386Y-102637715D01*
X70527786Y-102758028D01*
X70383028Y-102902786D01*
X70262715Y-103068386D01*
X70169781Y-103250776D01*
X70106522Y-103445465D01*
X70074500Y-103647648D01*
X61527671Y-103647648D01*
X61487287Y-103568390D01*
X61487285Y-103568387D01*
X61487284Y-103568385D01*
X61366971Y-103402786D01*
X61222213Y-103258028D01*
X61056613Y-103137715D01*
X61056612Y-103137714D01*
X61056610Y-103137713D01*
X60974848Y-103096053D01*
X60874223Y-103044781D01*
X60679534Y-102981522D01*
X60504995Y-102953878D01*
X60477352Y-102949500D01*
X60272648Y-102949500D01*
X60118897Y-102973851D01*
X60049604Y-102964896D01*
X59996152Y-102919900D01*
X59975513Y-102853148D01*
X59975500Y-102851378D01*
X59975500Y-98994499D01*
X59995185Y-98927460D01*
X60047989Y-98881705D01*
X60099500Y-98870499D01*
X60375371Y-98870499D01*
X60375372Y-98870499D01*
X60434983Y-98864091D01*
X60569831Y-98813796D01*
X60685046Y-98727546D01*
X60771296Y-98612331D01*
X60821591Y-98477483D01*
X60828000Y-98417873D01*
X60827999Y-96322128D01*
X60821591Y-96262517D01*
X60771296Y-96127669D01*
X60771295Y-96127668D01*
X60771293Y-96127664D01*
X60685047Y-96012455D01*
X60685044Y-96012452D01*
X60569835Y-95926206D01*
X60569828Y-95926202D01*
X60434982Y-95875908D01*
X60434983Y-95875908D01*
X60375383Y-95869501D01*
X60375381Y-95869500D01*
X60375373Y-95869500D01*
X60375365Y-95869500D01*
X59484096Y-95869500D01*
X59417057Y-95849815D01*
X59371302Y-95797011D01*
X59361358Y-95727853D01*
X59390383Y-95664297D01*
X59396415Y-95657819D01*
X60414319Y-94639916D01*
X61547416Y-93506819D01*
X61608739Y-93473334D01*
X61635097Y-93470500D01*
X67344734Y-93470500D01*
X67411773Y-93490185D01*
X67413625Y-93491398D01*
X67545314Y-93579390D01*
X67545327Y-93579397D01*
X67649623Y-93622597D01*
X67691003Y-93639737D01*
X67845653Y-93670499D01*
X67845656Y-93670500D01*
X67845658Y-93670500D01*
X68003344Y-93670500D01*
X68003345Y-93670499D01*
X68157997Y-93639737D01*
X68303679Y-93579394D01*
X68434789Y-93491789D01*
X68546289Y-93380289D01*
X68633894Y-93249179D01*
X68694237Y-93103497D01*
X68706749Y-93040594D01*
X68718883Y-92979597D01*
X68751268Y-92917686D01*
X68811984Y-92883112D01*
X68881753Y-92886851D01*
X68938425Y-92927718D01*
X68964006Y-92992736D01*
X68964500Y-93003788D01*
X68964500Y-95802597D01*
X68944815Y-95869636D01*
X68892011Y-95915391D01*
X68822853Y-95925335D01*
X68802182Y-95920528D01*
X68755248Y-95905278D01*
X68569812Y-95875908D01*
X68529354Y-95869500D01*
X68300646Y-95869500D01*
X68260188Y-95875908D01*
X68074753Y-95905278D01*
X68074750Y-95905278D01*
X67857244Y-95975950D01*
X67653461Y-96079783D01*
X67587550Y-96127671D01*
X67468434Y-96214214D01*
X67468432Y-96214216D01*
X67468431Y-96214216D01*
X67306715Y-96375932D01*
X67245318Y-96460438D01*
X67189987Y-96503103D01*
X67120374Y-96509082D01*
X67058579Y-96476476D01*
X67044682Y-96460438D01*
X67033773Y-96445423D01*
X66983286Y-96375934D01*
X66821566Y-96214214D01*
X66636538Y-96079783D01*
X66543204Y-96032227D01*
X66432755Y-95975950D01*
X66215248Y-95905278D01*
X66029812Y-95875908D01*
X65989354Y-95869500D01*
X65760646Y-95869500D01*
X65720188Y-95875908D01*
X65534753Y-95905278D01*
X65534750Y-95905278D01*
X65317244Y-95975950D01*
X65113461Y-96079783D01*
X65047550Y-96127671D01*
X64928434Y-96214214D01*
X64928432Y-96214216D01*
X64928431Y-96214216D01*
X64766716Y-96375931D01*
X64766716Y-96375932D01*
X64766714Y-96375934D01*
X64708980Y-96455396D01*
X64632283Y-96560961D01*
X64528450Y-96764744D01*
X64457778Y-96982250D01*
X64457778Y-96982253D01*
X64422000Y-97208146D01*
X64422000Y-97531853D01*
X64457778Y-97757746D01*
X64457778Y-97757749D01*
X64528450Y-97975255D01*
X64578108Y-98072713D01*
X64632283Y-98179038D01*
X64766714Y-98364066D01*
X64928434Y-98525786D01*
X65113462Y-98660217D01*
X65317242Y-98764048D01*
X65317244Y-98764049D01*
X65534751Y-98834721D01*
X65534752Y-98834721D01*
X65534755Y-98834722D01*
X65760646Y-98870500D01*
X65760647Y-98870500D01*
X65989353Y-98870500D01*
X65989354Y-98870500D01*
X66215245Y-98834722D01*
X66215248Y-98834721D01*
X66215249Y-98834721D01*
X66432755Y-98764049D01*
X66432755Y-98764048D01*
X66432758Y-98764048D01*
X66636538Y-98660217D01*
X66821566Y-98525786D01*
X66983286Y-98364066D01*
X67044683Y-98279559D01*
X67100012Y-98236896D01*
X67169625Y-98230917D01*
X67231420Y-98263523D01*
X67245314Y-98279556D01*
X67306714Y-98364066D01*
X67468434Y-98525786D01*
X67653462Y-98660217D01*
X67857242Y-98764048D01*
X67857244Y-98764049D01*
X68074751Y-98834721D01*
X68074752Y-98834721D01*
X68074755Y-98834722D01*
X68300646Y-98870500D01*
X68300647Y-98870500D01*
X68529353Y-98870500D01*
X68529354Y-98870500D01*
X68755245Y-98834722D01*
X68755248Y-98834721D01*
X68755249Y-98834721D01*
X68972755Y-98764049D01*
X68972755Y-98764048D01*
X68972758Y-98764048D01*
X69176538Y-98660217D01*
X69359245Y-98527472D01*
X69425046Y-98503994D01*
X69493100Y-98519819D01*
X69541795Y-98569924D01*
X69548308Y-98584459D01*
X69558702Y-98612328D01*
X69558706Y-98612335D01*
X69644952Y-98727544D01*
X69644955Y-98727547D01*
X69760164Y-98813793D01*
X69760171Y-98813797D01*
X69895017Y-98864091D01*
X69895016Y-98864091D01*
X69901944Y-98864835D01*
X69954627Y-98870500D01*
X71955372Y-98870499D01*
X72014983Y-98864091D01*
X72149831Y-98813796D01*
X72265046Y-98727546D01*
X72351296Y-98612331D01*
X72401591Y-98477483D01*
X72408000Y-98417873D01*
X72407999Y-96322128D01*
X72401591Y-96262517D01*
X72351296Y-96127669D01*
X72351295Y-96127668D01*
X72351293Y-96127664D01*
X72265047Y-96012455D01*
X72265044Y-96012452D01*
X72149835Y-95926206D01*
X72149828Y-95926202D01*
X72014982Y-95875908D01*
X72014983Y-95875908D01*
X71955383Y-95869501D01*
X71955381Y-95869500D01*
X71955373Y-95869500D01*
X71955365Y-95869500D01*
X70289500Y-95869500D01*
X70222461Y-95849815D01*
X70176706Y-95797011D01*
X70165500Y-95745500D01*
X70165500Y-90290945D01*
X70165500Y-90290943D01*
X70124577Y-90138216D01*
X70124573Y-90138209D01*
X70045524Y-90001290D01*
X70045521Y-90001286D01*
X70045520Y-90001284D01*
X69933716Y-89889480D01*
X69933715Y-89889479D01*
X69929385Y-89885149D01*
X69929374Y-89885139D01*
X68552590Y-88508355D01*
X68552588Y-88508352D01*
X68433717Y-88389481D01*
X68433716Y-88389480D01*
X68346904Y-88339360D01*
X68346904Y-88339359D01*
X68346900Y-88339358D01*
X68296785Y-88310423D01*
X68144057Y-88269499D01*
X67985943Y-88269499D01*
X67978347Y-88269499D01*
X67978331Y-88269500D01*
X64899500Y-88269500D01*
X64832461Y-88249815D01*
X64786706Y-88197011D01*
X64775500Y-88145500D01*
X64775500Y-87669997D01*
X64775499Y-87669984D01*
X64768368Y-87600186D01*
X64764999Y-87567203D01*
X64709814Y-87400666D01*
X64697245Y-87380289D01*
X64617713Y-87251348D01*
X64617710Y-87251344D01*
X64493655Y-87127289D01*
X64493651Y-87127286D01*
X64344337Y-87035187D01*
X64344335Y-87035186D01*
X64261065Y-87007593D01*
X64177797Y-86980001D01*
X64177795Y-86980000D01*
X64075015Y-86969500D01*
X64075008Y-86969500D01*
X61674992Y-86969500D01*
X61674984Y-86969500D01*
X61572204Y-86980000D01*
X61572203Y-86980001D01*
X61405664Y-87035186D01*
X61405662Y-87035187D01*
X61256348Y-87127286D01*
X61256344Y-87127289D01*
X61132289Y-87251344D01*
X61132286Y-87251348D01*
X61040187Y-87400662D01*
X61040186Y-87400664D01*
X60985001Y-87567203D01*
X60985000Y-87567204D01*
X60974500Y-87669984D01*
X60974500Y-88145500D01*
X60954815Y-88212539D01*
X60902011Y-88258294D01*
X60850500Y-88269500D01*
X58651669Y-88269500D01*
X58651653Y-88269499D01*
X58644057Y-88269499D01*
X58485943Y-88269499D01*
X58378587Y-88298265D01*
X58333210Y-88310424D01*
X58333209Y-88310425D01*
X58283096Y-88339359D01*
X58283095Y-88339360D01*
X58264200Y-88350269D01*
X58196285Y-88389479D01*
X58196282Y-88389481D01*
X53814481Y-92771282D01*
X53814477Y-92771287D01*
X53796025Y-92803250D01*
X53794477Y-92805931D01*
X53735423Y-92908215D01*
X53694499Y-93060943D01*
X53694499Y-93060945D01*
X53694499Y-93229046D01*
X53694500Y-93229059D01*
X53694500Y-95921742D01*
X53674815Y-95988781D01*
X53626795Y-96032227D01*
X53533461Y-96079783D01*
X53467550Y-96127671D01*
X53348434Y-96214214D01*
X53348432Y-96214216D01*
X53348431Y-96214216D01*
X53186716Y-96375931D01*
X53186716Y-96375932D01*
X53186714Y-96375934D01*
X53128980Y-96455396D01*
X53052283Y-96560961D01*
X52948450Y-96764744D01*
X52877778Y-96982250D01*
X52877778Y-96982253D01*
X52842000Y-97208146D01*
X41700500Y-97208146D01*
X41700500Y-75208146D01*
X52342000Y-75208146D01*
X52342000Y-75531853D01*
X52377778Y-75757746D01*
X52377778Y-75757749D01*
X52448450Y-75975255D01*
X52510728Y-76097482D01*
X52552283Y-76179038D01*
X52686714Y-76364066D01*
X52848434Y-76525786D01*
X53033462Y-76660217D01*
X53237242Y-76764048D01*
X53237244Y-76764049D01*
X53454751Y-76834721D01*
X53454752Y-76834721D01*
X53454755Y-76834722D01*
X53680646Y-76870500D01*
X53680647Y-76870500D01*
X53909353Y-76870500D01*
X53909354Y-76870500D01*
X54135245Y-76834722D01*
X54135248Y-76834721D01*
X54135249Y-76834721D01*
X54352755Y-76764049D01*
X54352755Y-76764048D01*
X54352758Y-76764048D01*
X54556538Y-76660217D01*
X54741566Y-76525786D01*
X54903286Y-76364066D01*
X54964683Y-76279559D01*
X55020012Y-76236896D01*
X55089625Y-76230917D01*
X55151420Y-76263523D01*
X55165314Y-76279556D01*
X55226714Y-76364066D01*
X55388434Y-76525786D01*
X55573462Y-76660217D01*
X55666795Y-76707772D01*
X55717590Y-76755745D01*
X55734500Y-76818256D01*
X55734500Y-77243330D01*
X55734499Y-77243348D01*
X55734499Y-77409054D01*
X55734498Y-77409054D01*
X55774465Y-77558213D01*
X55775423Y-77561785D01*
X55796070Y-77597546D01*
X55845864Y-77683793D01*
X55854479Y-77698714D01*
X55854481Y-77698717D01*
X55973349Y-77817585D01*
X55973355Y-77817590D01*
X61113098Y-82957334D01*
X61146583Y-83018657D01*
X61141599Y-83088349D01*
X61139978Y-83092467D01*
X61071498Y-83257792D01*
X61007017Y-83498438D01*
X60974501Y-83745424D01*
X60974500Y-83745441D01*
X60974500Y-83994558D01*
X60974501Y-83994575D01*
X61007017Y-84241561D01*
X61071498Y-84482207D01*
X61166830Y-84712361D01*
X61166837Y-84712376D01*
X61291400Y-84928126D01*
X61443060Y-85125774D01*
X61443066Y-85125781D01*
X61619218Y-85301933D01*
X61619225Y-85301939D01*
X61816873Y-85453599D01*
X62032623Y-85578162D01*
X62032638Y-85578169D01*
X62131825Y-85619253D01*
X62262793Y-85673502D01*
X62503435Y-85737982D01*
X62750435Y-85770500D01*
X62750442Y-85770500D01*
X62999558Y-85770500D01*
X62999565Y-85770500D01*
X63246565Y-85737982D01*
X63487207Y-85673502D01*
X63717373Y-85578164D01*
X63933127Y-85453599D01*
X64130776Y-85301938D01*
X64306938Y-85125776D01*
X64458599Y-84928127D01*
X64583164Y-84712373D01*
X64678502Y-84482207D01*
X64742982Y-84241565D01*
X64775500Y-83994565D01*
X64775500Y-83745435D01*
X64742982Y-83498435D01*
X64678502Y-83257793D01*
X64602019Y-83073147D01*
X64583169Y-83027638D01*
X64583162Y-83027623D01*
X64458599Y-82811873D01*
X64306939Y-82614225D01*
X64306933Y-82614218D01*
X64130781Y-82438066D01*
X64130774Y-82438060D01*
X63933126Y-82286400D01*
X63717376Y-82161837D01*
X63717366Y-82161832D01*
X63552047Y-82093355D01*
X63497644Y-82049514D01*
X63475579Y-81983220D01*
X63475500Y-81978794D01*
X63475500Y-78090096D01*
X63495185Y-78023057D01*
X63511814Y-78002420D01*
X64693282Y-76820951D01*
X64754603Y-76787468D01*
X64819278Y-76790702D01*
X64954755Y-76834722D01*
X65180646Y-76870500D01*
X65180647Y-76870500D01*
X65409353Y-76870500D01*
X65409354Y-76870500D01*
X65635245Y-76834722D01*
X65635248Y-76834721D01*
X65635249Y-76834721D01*
X65852755Y-76764049D01*
X65852755Y-76764048D01*
X65852758Y-76764048D01*
X66056538Y-76660217D01*
X66241566Y-76525786D01*
X66403286Y-76364066D01*
X66464683Y-76279559D01*
X66520012Y-76236896D01*
X66589625Y-76230917D01*
X66651420Y-76263523D01*
X66665314Y-76279556D01*
X66726714Y-76364066D01*
X66888434Y-76525786D01*
X67073462Y-76660217D01*
X67277242Y-76764048D01*
X67277244Y-76764049D01*
X67494751Y-76834721D01*
X67494752Y-76834721D01*
X67494755Y-76834722D01*
X67720646Y-76870500D01*
X67720647Y-76870500D01*
X67949353Y-76870500D01*
X67949354Y-76870500D01*
X68175245Y-76834722D01*
X68175248Y-76834721D01*
X68175249Y-76834721D01*
X68392755Y-76764049D01*
X68392755Y-76764048D01*
X68392758Y-76764048D01*
X68596538Y-76660217D01*
X68779245Y-76527472D01*
X68845046Y-76503994D01*
X68913100Y-76519819D01*
X68961795Y-76569924D01*
X68968308Y-76584459D01*
X68978702Y-76612328D01*
X68978706Y-76612335D01*
X69064952Y-76727544D01*
X69064955Y-76727547D01*
X69180164Y-76813793D01*
X69180171Y-76813797D01*
X69315017Y-76864091D01*
X69315016Y-76864091D01*
X69321944Y-76864835D01*
X69374627Y-76870500D01*
X71375372Y-76870499D01*
X71434983Y-76864091D01*
X71569831Y-76813796D01*
X71685046Y-76727546D01*
X71771296Y-76612331D01*
X71821591Y-76477483D01*
X71828000Y-76417873D01*
X71827999Y-74322128D01*
X71821591Y-74262517D01*
X71816922Y-74250000D01*
X71771297Y-74127671D01*
X71771293Y-74127664D01*
X71685047Y-74012455D01*
X71685044Y-74012452D01*
X71569835Y-73926206D01*
X71569829Y-73926203D01*
X71519666Y-73907493D01*
X71463733Y-73865621D01*
X71439316Y-73800156D01*
X71439000Y-73791311D01*
X71439000Y-72618199D01*
X71458685Y-72551160D01*
X71506706Y-72507714D01*
X71556610Y-72482287D01*
X71606144Y-72446298D01*
X71722213Y-72361971D01*
X71722215Y-72361968D01*
X71722219Y-72361966D01*
X71866966Y-72217219D01*
X71866968Y-72217215D01*
X71866971Y-72217213D01*
X71919732Y-72144590D01*
X71987287Y-72051610D01*
X72080220Y-71869219D01*
X72143477Y-71674534D01*
X72175500Y-71472352D01*
X72175500Y-71267648D01*
X72143477Y-71065466D01*
X72138199Y-71049223D01*
X72088582Y-70896516D01*
X72080220Y-70870781D01*
X72080218Y-70870778D01*
X72080218Y-70870776D01*
X72040170Y-70792179D01*
X71987287Y-70688390D01*
X71961104Y-70652352D01*
X71866971Y-70522786D01*
X71722213Y-70378028D01*
X71556613Y-70257715D01*
X71556612Y-70257714D01*
X71556610Y-70257713D01*
X71485434Y-70221447D01*
X71374223Y-70164781D01*
X71179534Y-70101522D01*
X71004995Y-70073878D01*
X70977352Y-70069500D01*
X70772648Y-70069500D01*
X70748329Y-70073351D01*
X70570465Y-70101522D01*
X70375776Y-70164781D01*
X70193386Y-70257715D01*
X70027786Y-70378028D01*
X69883028Y-70522786D01*
X69762715Y-70688386D01*
X69669781Y-70870776D01*
X69606522Y-71065465D01*
X69574500Y-71267648D01*
X69574500Y-71472351D01*
X69606522Y-71674534D01*
X69669781Y-71869223D01*
X69725480Y-71978536D01*
X69734605Y-71996446D01*
X69762715Y-72051613D01*
X69883028Y-72217213D01*
X70027786Y-72361971D01*
X70193388Y-72482286D01*
X70243294Y-72507714D01*
X70294090Y-72555687D01*
X70311000Y-72618199D01*
X70311000Y-73745500D01*
X70291315Y-73812539D01*
X70238511Y-73858294D01*
X70187000Y-73869500D01*
X69374629Y-73869500D01*
X69374623Y-73869501D01*
X69315016Y-73875908D01*
X69180171Y-73926202D01*
X69180164Y-73926206D01*
X69064955Y-74012452D01*
X69064952Y-74012455D01*
X68978706Y-74127664D01*
X68978703Y-74127670D01*
X68968308Y-74155541D01*
X68926436Y-74211474D01*
X68860972Y-74235891D01*
X68792699Y-74221039D01*
X68779250Y-74212531D01*
X68596538Y-74079783D01*
X68553219Y-74057711D01*
X68392755Y-73975950D01*
X68175248Y-73905278D01*
X67989812Y-73875908D01*
X67949354Y-73869500D01*
X67720646Y-73869500D01*
X67680188Y-73875908D01*
X67494753Y-73905278D01*
X67494750Y-73905278D01*
X67277244Y-73975950D01*
X67073461Y-74079783D01*
X67007551Y-74127670D01*
X66888434Y-74214214D01*
X66888432Y-74214216D01*
X66888431Y-74214216D01*
X66726715Y-74375932D01*
X66665318Y-74460438D01*
X66609987Y-74503103D01*
X66540374Y-74509082D01*
X66478579Y-74476476D01*
X66464682Y-74460438D01*
X66453773Y-74445423D01*
X66403286Y-74375934D01*
X66241566Y-74214214D01*
X66056538Y-74079783D01*
X66013219Y-74057711D01*
X65852755Y-73975950D01*
X65635248Y-73905278D01*
X65449812Y-73875908D01*
X65409354Y-73869500D01*
X65180646Y-73869500D01*
X65140188Y-73875908D01*
X64954753Y-73905278D01*
X64954750Y-73905278D01*
X64737244Y-73975950D01*
X64533461Y-74079783D01*
X64467551Y-74127670D01*
X64348434Y-74214214D01*
X64348432Y-74214216D01*
X64348431Y-74214216D01*
X64186716Y-74375931D01*
X64186716Y-74375932D01*
X64186714Y-74375934D01*
X64128980Y-74455396D01*
X64052283Y-74560961D01*
X63948450Y-74764744D01*
X63877778Y-74982250D01*
X63877778Y-74982253D01*
X63842000Y-75208146D01*
X63842000Y-75531853D01*
X63877778Y-75757746D01*
X63898498Y-75821516D01*
X63900493Y-75891357D01*
X63868248Y-75947515D01*
X62506286Y-77309478D01*
X62394481Y-77421282D01*
X62394479Y-77421284D01*
X62373645Y-77457372D01*
X62359235Y-77482331D01*
X62315423Y-77558215D01*
X62274499Y-77710943D01*
X62274499Y-77710945D01*
X62274499Y-77879046D01*
X62274500Y-77879059D01*
X62274500Y-81978795D01*
X62268867Y-81997976D01*
X62268154Y-82017954D01*
X62259225Y-82030813D01*
X62254815Y-82045834D01*
X62239708Y-82058923D01*
X62228306Y-82075347D01*
X62204356Y-82089556D01*
X62202011Y-82091589D01*
X62197963Y-82093351D01*
X62162362Y-82108098D01*
X62097468Y-82134978D01*
X62027998Y-82142447D01*
X61965519Y-82111172D01*
X61962334Y-82108098D01*
X56971819Y-77117583D01*
X56938334Y-77056260D01*
X56935500Y-77029902D01*
X56935500Y-76818256D01*
X56955185Y-76751217D01*
X57003204Y-76707772D01*
X57096538Y-76660217D01*
X57279245Y-76527472D01*
X57345046Y-76503994D01*
X57413100Y-76519819D01*
X57461795Y-76569924D01*
X57468308Y-76584459D01*
X57478702Y-76612328D01*
X57478706Y-76612335D01*
X57564952Y-76727544D01*
X57564955Y-76727547D01*
X57680164Y-76813793D01*
X57680171Y-76813797D01*
X57815017Y-76864091D01*
X57815016Y-76864091D01*
X57821944Y-76864835D01*
X57874627Y-76870500D01*
X59875372Y-76870499D01*
X59934983Y-76864091D01*
X60069831Y-76813796D01*
X60185046Y-76727546D01*
X60271296Y-76612331D01*
X60321591Y-76477483D01*
X60328000Y-76417873D01*
X60327999Y-74322128D01*
X60321591Y-74262517D01*
X60316922Y-74250000D01*
X60271297Y-74127671D01*
X60271293Y-74127664D01*
X60185047Y-74012455D01*
X60185044Y-74012452D01*
X60069835Y-73926206D01*
X60069828Y-73926202D01*
X59934982Y-73875908D01*
X59934983Y-73875908D01*
X59875383Y-73869501D01*
X59875381Y-73869500D01*
X59875373Y-73869500D01*
X59875365Y-73869500D01*
X59599500Y-73869500D01*
X59532461Y-73849815D01*
X59486706Y-73797011D01*
X59475500Y-73745500D01*
X59475500Y-72599601D01*
X59495185Y-72532562D01*
X59543206Y-72489116D01*
X59556610Y-72482287D01*
X59722219Y-72361966D01*
X59866966Y-72217219D01*
X59866968Y-72217215D01*
X59866971Y-72217213D01*
X59919732Y-72144590D01*
X59987287Y-72051610D01*
X60080220Y-71869219D01*
X60143477Y-71674534D01*
X60175500Y-71472352D01*
X60175500Y-71267648D01*
X60143477Y-71065466D01*
X60138199Y-71049223D01*
X60088582Y-70896516D01*
X60080220Y-70870781D01*
X60080218Y-70870778D01*
X60080218Y-70870776D01*
X60040170Y-70792179D01*
X59987287Y-70688390D01*
X59961104Y-70652352D01*
X59866971Y-70522786D01*
X59722213Y-70378028D01*
X59556613Y-70257715D01*
X59556612Y-70257714D01*
X59556610Y-70257713D01*
X59485434Y-70221447D01*
X59374223Y-70164781D01*
X59179534Y-70101522D01*
X59004995Y-70073878D01*
X58977352Y-70069500D01*
X58772648Y-70069500D01*
X58748329Y-70073351D01*
X58570465Y-70101522D01*
X58375776Y-70164781D01*
X58193386Y-70257715D01*
X58027786Y-70378028D01*
X57883028Y-70522786D01*
X57762715Y-70688386D01*
X57669781Y-70870776D01*
X57606522Y-71065465D01*
X57574500Y-71267648D01*
X57574500Y-71472351D01*
X57606522Y-71674534D01*
X57669781Y-71869223D01*
X57725480Y-71978536D01*
X57734605Y-71996446D01*
X57762715Y-72051613D01*
X57883028Y-72217213D01*
X57883034Y-72217219D01*
X58027781Y-72361966D01*
X58193390Y-72482287D01*
X58206793Y-72489116D01*
X58257589Y-72537088D01*
X58274500Y-72599601D01*
X58274500Y-73745500D01*
X58254815Y-73812539D01*
X58202011Y-73858294D01*
X58150500Y-73869500D01*
X57874630Y-73869500D01*
X57874623Y-73869501D01*
X57815016Y-73875908D01*
X57680171Y-73926202D01*
X57680164Y-73926206D01*
X57564955Y-74012452D01*
X57564952Y-74012455D01*
X57478706Y-74127664D01*
X57478703Y-74127670D01*
X57468308Y-74155541D01*
X57426436Y-74211474D01*
X57360972Y-74235891D01*
X57292699Y-74221039D01*
X57279250Y-74212531D01*
X57096538Y-74079783D01*
X57053219Y-74057711D01*
X56892755Y-73975950D01*
X56675248Y-73905278D01*
X56489812Y-73875908D01*
X56449354Y-73869500D01*
X56220646Y-73869500D01*
X56180188Y-73875908D01*
X55994753Y-73905278D01*
X55994750Y-73905278D01*
X55777244Y-73975950D01*
X55573461Y-74079783D01*
X55507551Y-74127670D01*
X55388434Y-74214214D01*
X55388432Y-74214216D01*
X55388431Y-74214216D01*
X55226715Y-74375932D01*
X55165318Y-74460438D01*
X55109987Y-74503103D01*
X55040374Y-74509082D01*
X54978579Y-74476476D01*
X54964682Y-74460438D01*
X54953773Y-74445423D01*
X54903286Y-74375934D01*
X54741566Y-74214214D01*
X54556538Y-74079783D01*
X54513219Y-74057711D01*
X54352755Y-73975950D01*
X54135248Y-73905278D01*
X53949812Y-73875908D01*
X53909354Y-73869500D01*
X53680646Y-73869500D01*
X53640188Y-73875908D01*
X53454753Y-73905278D01*
X53454750Y-73905278D01*
X53237244Y-73975950D01*
X53033461Y-74079783D01*
X52967551Y-74127670D01*
X52848434Y-74214214D01*
X52848432Y-74214216D01*
X52848431Y-74214216D01*
X52686716Y-74375931D01*
X52686716Y-74375932D01*
X52686714Y-74375934D01*
X52628980Y-74455396D01*
X52552283Y-74560961D01*
X52448450Y-74764744D01*
X52377778Y-74982250D01*
X52377778Y-74982253D01*
X52342000Y-75208146D01*
X41700500Y-75208146D01*
X41700500Y-62902135D01*
X57574500Y-62902135D01*
X57574500Y-64597870D01*
X57574501Y-64597876D01*
X57580908Y-64657483D01*
X57631202Y-64792328D01*
X57631206Y-64792335D01*
X57717452Y-64907544D01*
X57717455Y-64907547D01*
X57832664Y-64993793D01*
X57832671Y-64993797D01*
X57967517Y-65044091D01*
X57967516Y-65044091D01*
X57974444Y-65044835D01*
X58027127Y-65050500D01*
X59722872Y-65050499D01*
X59782483Y-65044091D01*
X59917331Y-64993796D01*
X60032546Y-64907546D01*
X60118796Y-64792331D01*
X60169091Y-64657483D01*
X60175500Y-64597873D01*
X60175499Y-62902128D01*
X60169091Y-62842517D01*
X60142420Y-62771009D01*
X60118797Y-62707671D01*
X60118793Y-62707664D01*
X60032547Y-62592455D01*
X60032544Y-62592452D01*
X59917335Y-62506206D01*
X59917328Y-62506202D01*
X59782482Y-62455908D01*
X59782483Y-62455908D01*
X59722883Y-62449501D01*
X59722881Y-62449500D01*
X59722873Y-62449500D01*
X59722864Y-62449500D01*
X58027129Y-62449500D01*
X58027123Y-62449501D01*
X57967516Y-62455908D01*
X57832671Y-62506202D01*
X57832664Y-62506206D01*
X57717455Y-62592452D01*
X57717452Y-62592455D01*
X57631206Y-62707664D01*
X57631202Y-62707671D01*
X57580908Y-62842517D01*
X57577336Y-62875747D01*
X57574501Y-62902123D01*
X57574500Y-62902135D01*
X41700500Y-62902135D01*
X41700500Y-58744398D01*
X55264500Y-58744398D01*
X55264500Y-58949101D01*
X55296522Y-59151284D01*
X55359781Y-59345973D01*
X55452715Y-59528363D01*
X55573028Y-59693963D01*
X55717786Y-59838721D01*
X55860977Y-59942753D01*
X55883390Y-59959037D01*
X55980355Y-60008443D01*
X56065776Y-60051968D01*
X56065778Y-60051968D01*
X56065781Y-60051970D01*
X56170137Y-60085877D01*
X56260465Y-60115227D01*
X56361557Y-60131238D01*
X56462648Y-60147250D01*
X56462649Y-60147250D01*
X56667351Y-60147250D01*
X56667352Y-60147250D01*
X56869534Y-60115227D01*
X57064219Y-60051970D01*
X57246610Y-59959037D01*
X57339590Y-59891482D01*
X57412213Y-59838721D01*
X57412215Y-59838718D01*
X57412219Y-59838716D01*
X57556966Y-59693969D01*
X57556968Y-59693965D01*
X57556971Y-59693963D01*
X57661913Y-59549520D01*
X57677287Y-59528360D01*
X57724516Y-59435667D01*
X57772489Y-59384873D01*
X57840310Y-59368078D01*
X57906445Y-59390615D01*
X57945485Y-59435669D01*
X57992715Y-59528364D01*
X58113028Y-59693963D01*
X58257786Y-59838721D01*
X58400977Y-59942753D01*
X58423390Y-59959037D01*
X58520355Y-60008443D01*
X58605776Y-60051968D01*
X58605778Y-60051968D01*
X58605781Y-60051970D01*
X58710137Y-60085877D01*
X58800465Y-60115227D01*
X58901557Y-60131238D01*
X59002648Y-60147250D01*
X59002649Y-60147250D01*
X59207351Y-60147250D01*
X59207352Y-60147250D01*
X59409534Y-60115227D01*
X59604219Y-60051970D01*
X59786610Y-59959037D01*
X59879590Y-59891482D01*
X59952213Y-59838721D01*
X59952215Y-59838718D01*
X59952219Y-59838716D01*
X60096966Y-59693969D01*
X60096968Y-59693965D01*
X60096971Y-59693963D01*
X60201913Y-59549520D01*
X60217287Y-59528360D01*
X60264516Y-59435667D01*
X60312489Y-59384873D01*
X60380310Y-59368078D01*
X60446445Y-59390615D01*
X60485485Y-59435669D01*
X60532715Y-59528364D01*
X60653028Y-59693963D01*
X60797786Y-59838721D01*
X60963388Y-59959036D01*
X61013294Y-59984464D01*
X61064090Y-60032437D01*
X61081000Y-60094949D01*
X61081000Y-62875747D01*
X61081000Y-63024253D01*
X61099202Y-63092184D01*
X61119435Y-63167696D01*
X61193687Y-63296304D01*
X61193689Y-63296306D01*
X61305761Y-63408378D01*
X61305767Y-63408383D01*
X61989346Y-64091962D01*
X61989356Y-64091973D01*
X62098697Y-64201314D01*
X62124060Y-64215957D01*
X62179926Y-64248211D01*
X62179927Y-64248212D01*
X62227300Y-64275563D01*
X62227301Y-64275563D01*
X62227304Y-64275565D01*
X62370748Y-64314000D01*
X62519253Y-64314000D01*
X66743268Y-64314000D01*
X66810307Y-64333685D01*
X66856062Y-64386489D01*
X66866006Y-64455647D01*
X66857829Y-64485452D01*
X66795264Y-64636498D01*
X66795261Y-64636510D01*
X66764500Y-64791153D01*
X66764500Y-64948846D01*
X66795261Y-65103489D01*
X66795264Y-65103501D01*
X66855602Y-65249172D01*
X66855609Y-65249185D01*
X66943210Y-65380288D01*
X66943213Y-65380292D01*
X67054707Y-65491786D01*
X67054711Y-65491789D01*
X67185814Y-65579390D01*
X67185827Y-65579397D01*
X67313263Y-65632182D01*
X67331503Y-65639737D01*
X67486153Y-65670499D01*
X67486156Y-65670500D01*
X67486158Y-65670500D01*
X67643844Y-65670500D01*
X67643845Y-65670499D01*
X67798497Y-65639737D01*
X67944179Y-65579394D01*
X68075289Y-65491789D01*
X68186789Y-65380289D01*
X68274394Y-65249179D01*
X68334737Y-65103497D01*
X68365500Y-64948842D01*
X68365500Y-64791158D01*
X68365500Y-64791155D01*
X68365499Y-64791153D01*
X68334737Y-64636503D01*
X68318740Y-64597883D01*
X68272171Y-64485452D01*
X68264702Y-64415983D01*
X68295978Y-64353504D01*
X68356067Y-64317852D01*
X68386732Y-64314000D01*
X69450501Y-64314000D01*
X69517540Y-64333685D01*
X69563295Y-64386489D01*
X69574501Y-64438000D01*
X69574501Y-64597876D01*
X69580908Y-64657483D01*
X69631202Y-64792328D01*
X69631206Y-64792335D01*
X69717452Y-64907544D01*
X69717455Y-64907547D01*
X69832664Y-64993793D01*
X69832671Y-64993797D01*
X69967517Y-65044091D01*
X69967516Y-65044091D01*
X69974444Y-65044835D01*
X70027127Y-65050500D01*
X71722872Y-65050499D01*
X71782483Y-65044091D01*
X71917331Y-64993796D01*
X72032546Y-64907546D01*
X72118796Y-64792331D01*
X72169091Y-64657483D01*
X72175500Y-64597873D01*
X72175499Y-62902128D01*
X72169091Y-62842517D01*
X72142420Y-62771009D01*
X72118797Y-62707671D01*
X72118793Y-62707664D01*
X72032547Y-62592455D01*
X72032544Y-62592452D01*
X71917335Y-62506206D01*
X71917328Y-62506202D01*
X71782482Y-62455908D01*
X71782483Y-62455908D01*
X71722883Y-62449501D01*
X71722881Y-62449500D01*
X71722873Y-62449500D01*
X71722864Y-62449500D01*
X70027129Y-62449500D01*
X70027123Y-62449501D01*
X69967516Y-62455908D01*
X69832671Y-62506202D01*
X69832664Y-62506206D01*
X69717455Y-62592452D01*
X69717452Y-62592455D01*
X69631206Y-62707664D01*
X69631202Y-62707671D01*
X69580908Y-62842517D01*
X69577336Y-62875747D01*
X69574501Y-62902123D01*
X69574500Y-62902135D01*
X69574500Y-63062000D01*
X69554815Y-63129039D01*
X69502011Y-63174794D01*
X69450500Y-63186000D01*
X68139257Y-63186000D01*
X68139253Y-63185999D01*
X67990748Y-63185999D01*
X67990744Y-63186000D01*
X62729978Y-63186000D01*
X62662939Y-63166315D01*
X62642297Y-63149681D01*
X62245319Y-62752703D01*
X62211834Y-62691380D01*
X62209000Y-62665022D01*
X62209000Y-60094949D01*
X62228685Y-60027910D01*
X62276706Y-59984464D01*
X62326610Y-59959037D01*
X62376144Y-59923048D01*
X62492213Y-59838721D01*
X62492215Y-59838718D01*
X62492219Y-59838716D01*
X62636966Y-59693969D01*
X62636968Y-59693965D01*
X62636971Y-59693963D01*
X62741913Y-59549520D01*
X62757287Y-59528360D01*
X62804516Y-59435667D01*
X62852489Y-59384873D01*
X62920310Y-59368078D01*
X62986445Y-59390615D01*
X63025485Y-59435669D01*
X63072715Y-59528364D01*
X63193028Y-59693963D01*
X63337786Y-59838721D01*
X63480977Y-59942753D01*
X63503390Y-59959037D01*
X63600355Y-60008443D01*
X63685776Y-60051968D01*
X63685778Y-60051968D01*
X63685781Y-60051970D01*
X63790137Y-60085877D01*
X63880465Y-60115227D01*
X63981557Y-60131238D01*
X64082648Y-60147250D01*
X64082649Y-60147250D01*
X64287351Y-60147250D01*
X64287352Y-60147250D01*
X64489534Y-60115227D01*
X64684219Y-60051970D01*
X64866610Y-59959037D01*
X64959590Y-59891482D01*
X65032213Y-59838721D01*
X65032215Y-59838718D01*
X65032219Y-59838716D01*
X65176966Y-59693969D01*
X65176968Y-59693965D01*
X65176971Y-59693963D01*
X65255130Y-59586384D01*
X65297287Y-59528360D01*
X65390220Y-59345969D01*
X65453477Y-59151284D01*
X65485500Y-58949102D01*
X65485500Y-58744398D01*
X65453477Y-58542216D01*
X65390220Y-58347531D01*
X65390218Y-58347528D01*
X65390218Y-58347526D01*
X65344515Y-58257830D01*
X65297287Y-58165140D01*
X65289556Y-58154499D01*
X65176971Y-57999536D01*
X65032213Y-57854778D01*
X64866613Y-57734465D01*
X64866612Y-57734464D01*
X64866610Y-57734463D01*
X64809653Y-57705441D01*
X64684223Y-57641531D01*
X64489534Y-57578272D01*
X64314995Y-57550628D01*
X64287352Y-57546250D01*
X64082648Y-57546250D01*
X64058329Y-57550101D01*
X63880465Y-57578272D01*
X63685776Y-57641531D01*
X63503386Y-57734465D01*
X63337786Y-57854778D01*
X63193028Y-57999536D01*
X63072715Y-58165136D01*
X63025485Y-58257830D01*
X62977510Y-58308626D01*
X62909689Y-58325421D01*
X62843554Y-58302884D01*
X62804515Y-58257830D01*
X62803883Y-58256590D01*
X62757287Y-58165140D01*
X62749556Y-58154499D01*
X62636971Y-57999536D01*
X62492213Y-57854778D01*
X62326613Y-57734465D01*
X62326612Y-57734464D01*
X62326610Y-57734463D01*
X62269653Y-57705441D01*
X62144223Y-57641531D01*
X61949534Y-57578272D01*
X61774995Y-57550628D01*
X61747352Y-57546250D01*
X61542648Y-57546250D01*
X61518329Y-57550101D01*
X61340465Y-57578272D01*
X61145776Y-57641531D01*
X60963386Y-57734465D01*
X60797786Y-57854778D01*
X60653028Y-57999536D01*
X60532715Y-58165136D01*
X60485485Y-58257830D01*
X60437510Y-58308626D01*
X60369689Y-58325421D01*
X60303554Y-58302884D01*
X60264515Y-58257830D01*
X60263883Y-58256590D01*
X60217287Y-58165140D01*
X60209556Y-58154499D01*
X60096971Y-57999536D01*
X59952213Y-57854778D01*
X59786613Y-57734465D01*
X59786612Y-57734464D01*
X59786610Y-57734463D01*
X59729653Y-57705441D01*
X59604223Y-57641531D01*
X59409534Y-57578272D01*
X59234995Y-57550628D01*
X59207352Y-57546250D01*
X59002648Y-57546250D01*
X58978329Y-57550101D01*
X58800465Y-57578272D01*
X58605776Y-57641531D01*
X58423386Y-57734465D01*
X58257786Y-57854778D01*
X58113028Y-57999536D01*
X57992715Y-58165136D01*
X57945485Y-58257830D01*
X57897510Y-58308626D01*
X57829689Y-58325421D01*
X57763554Y-58302884D01*
X57724515Y-58257830D01*
X57723883Y-58256590D01*
X57677287Y-58165140D01*
X57669556Y-58154499D01*
X57556971Y-57999536D01*
X57412213Y-57854778D01*
X57246613Y-57734465D01*
X57246612Y-57734464D01*
X57246610Y-57734463D01*
X57189653Y-57705441D01*
X57064223Y-57641531D01*
X56869534Y-57578272D01*
X56694995Y-57550628D01*
X56667352Y-57546250D01*
X56462648Y-57546250D01*
X56438329Y-57550101D01*
X56260465Y-57578272D01*
X56065776Y-57641531D01*
X55883386Y-57734465D01*
X55717786Y-57854778D01*
X55573028Y-57999536D01*
X55452715Y-58165136D01*
X55359781Y-58347526D01*
X55296522Y-58542215D01*
X55264500Y-58744398D01*
X41700500Y-58744398D01*
X41700500Y-46424500D01*
X41720185Y-46357461D01*
X41772989Y-46311706D01*
X41824500Y-46300500D01*
X136975500Y-46300500D01*
X137042539Y-46320185D01*
G37*
G04 #@! TD.AperFunction*
M02*
