M48
; DRILL file {KiCad 9.0.1} date 2026-06-14T16:48:35+0300
; FORMAT={-:-/ absolute / metric / decimal}
; #@! TF.CreationDate,2026-06-14T16:48:35+03:00
; #@! TF.GenerationSoftware,Kicad,Pcbnew,9.0.1
; #@! TF.FileFunction,Plated,1,4,PTH
FMAT,2
METRIC
; #@! TA.AperFunction,Plated,PTH,ViaDrill
T1C0.300
; #@! TA.AperFunction,Plated,PTH,ComponentDrill
T2C0.800
; #@! TA.AperFunction,Plated,PTH,ComponentDrill
T3C1.000
; #@! TA.AperFunction,Plated,PTH,ComponentDrill
T4C1.100
; #@! TA.AperFunction,Plated,PTH,ComponentDrill
T5C1.200
; #@! TA.AperFunction,Plated,PTH,ComponentDrill
T6C1.300
; #@! TA.AperFunction,Plated,PTH,ComponentDrill
T7C1.600
%
G90
G05
T1
X67.565Y-64.87
X67.924Y-92.87
X95.565Y-122.87
X98.565Y-111.37
X102.065Y-86.87
X102.565Y-104.87
X110.065Y-54.87
T2
X48.0Y-108.1
X48.0Y-123.1
X56.565Y-51.227
X56.565Y-58.847
X58.875Y-63.75
X58.875Y-71.37
X59.105Y-51.227
X59.105Y-58.847
X60.375Y-104.25
X60.375Y-111.87
X61.645Y-51.227
X61.645Y-58.847
X63.565Y-115.055
X63.565Y-122.675
X64.185Y-51.227
X64.185Y-58.847
X66.105Y-115.055
X66.105Y-122.675
X68.645Y-115.055
X68.645Y-122.675
X70.875Y-63.75
X70.875Y-71.37
X71.185Y-115.055
X71.185Y-122.675
X71.375Y-103.75
X71.375Y-111.37
X81.755Y-84.185
X81.755Y-99.185
X92.255Y-103.565
X92.255Y-111.185
X93.255Y-50.065
X93.255Y-57.685
X94.215Y-62.93
X94.215Y-70.55
X95.795Y-50.065
X95.795Y-57.685
X98.215Y-114.87
X98.215Y-122.49
X98.335Y-50.065
X98.335Y-57.685
X100.755Y-114.87
X100.755Y-122.49
X100.875Y-50.065
X100.875Y-57.685
X103.295Y-114.87
X103.295Y-122.49
X105.835Y-114.87
X105.835Y-122.49
X106.295Y-62.93
X106.295Y-70.55
X108.255Y-103.875
X108.255Y-111.495
T3
X78.0Y-61.26
X78.0Y-63.8
X78.0Y-66.34
X78.0Y-68.88
X78.0Y-71.42
X78.0Y-73.96
X78.0Y-76.5
X83.0Y-71.5
X83.0Y-74.04
X83.0Y-76.58
T4
X53.795Y-75.37
X54.295Y-97.37
X56.335Y-75.37
X56.835Y-97.37
X58.875Y-75.37
X59.375Y-97.37
X65.295Y-75.37
X65.875Y-97.37
X67.835Y-75.37
X68.415Y-97.37
X70.375Y-75.37
X70.955Y-97.37
X89.215Y-76.24
X90.255Y-98.685
X91.755Y-76.24
X92.795Y-98.685
X94.295Y-76.24
X95.335Y-98.685
X101.675Y-98.685
X101.715Y-76.24
X104.215Y-98.685
X104.255Y-76.24
X106.755Y-98.685
X106.795Y-76.24
T5
X115.6Y-102.742
X116.1Y-62.85
X133.6Y-102.742
X134.1Y-62.85
T6
X62.875Y-83.87
X62.875Y-88.87
X99.222Y-84.435
X99.222Y-89.435
X117.6Y-81.85
X117.6Y-86.85
X128.1Y-72.35
X133.1Y-72.35
T7
X117.1Y-69.31
X117.1Y-74.39
M30
