G04 #@! TF.GenerationSoftware,KiCad,Pcbnew,9.0.1*
G04 #@! TF.CreationDate,2026-06-14T16:48:45+03:00*
G04 #@! TF.ProjectId,arco,6172636f-2e6b-4696-9361-645f70636258,rev?*
G04 #@! TF.SameCoordinates,Original*
G04 #@! TF.FileFunction,Legend,Top*
G04 #@! TF.FilePolarity,Positive*
%FSLAX46Y46*%
G04 Gerber Fmt 4.6, Leading zero omitted, Abs format (unit mm)*
G04 Created by KiCad (PCBNEW 9.0.1) date 2026-06-14 16:48:45*
%MOMM*%
%LPD*%
G01*
G04 APERTURE LIST*
G04 Aperture macros list*
%AMRoundRect*
0 Rectangle with rounded corners*
0 $1 Rounding radius*
0 $2 $3 $4 $5 $6 $7 $8 $9 X,Y pos of 4 corners*
0 Add a 4 corners polygon primitive as box body*
4,1,4,$2,$3,$4,$5,$6,$7,$8,$9,$2,$3,0*
0 Add four circle primitives for the rounded corners*
1,1,$1+$1,$2,$3*
1,1,$1+$1,$4,$5*
1,1,$1+$1,$6,$7*
1,1,$1+$1,$8,$9*
0 Add four rect primitives between the rounded corners*
20,1,$1+$1,$2,$3,$4,$5,0*
20,1,$1+$1,$4,$5,$6,$7,0*
20,1,$1+$1,$6,$7,$8,$9,0*
20,1,$1+$1,$8,$9,$2,$3,0*%
G04 Aperture macros list end*
%ADD10C,0.150000*%
%ADD11C,0.120000*%
%ADD12R,2.400000X2.400000*%
%ADD13C,2.400000*%
%ADD14R,1.905000X2.000000*%
%ADD15O,1.905000X2.000000*%
%ADD16C,1.600000*%
%ADD17RoundRect,0.250000X0.450000X-0.350000X0.450000X0.350000X-0.450000X0.350000X-0.450000X-0.350000X0*%
%ADD18R,1.700000X1.700000*%
%ADD19C,1.700000*%
%ADD20R,1.600000X1.600000*%
%ADD21O,1.600000X1.600000*%
%ADD22RoundRect,0.250001X1.149999X1.149999X-1.149999X1.149999X-1.149999X-1.149999X1.149999X-1.149999X0*%
%ADD23C,2.800000*%
%ADD24RoundRect,0.250000X0.550000X-0.550000X0.550000X0.550000X-0.550000X0.550000X-0.550000X-0.550000X0*%
%ADD25RoundRect,0.250000X0.475000X-0.337500X0.475000X0.337500X-0.475000X0.337500X-0.475000X-0.337500X0*%
%ADD26RoundRect,0.250000X-0.900000X1.500000X-0.900000X-1.500000X0.900000X-1.500000X0.900000X1.500000X0*%
%ADD27RoundRect,0.250001X1.149999X-1.149999X1.149999X1.149999X-1.149999X1.149999X-1.149999X-1.149999X0*%
%ADD28RoundRect,0.250000X0.650000X-0.412500X0.650000X0.412500X-0.650000X0.412500X-0.650000X-0.412500X0*%
%ADD29RoundRect,0.250000X-0.650000X0.412500X-0.650000X-0.412500X0.650000X-0.412500X0.650000X0.412500X0*%
%ADD30C,2.600000*%
%ADD31RoundRect,0.250000X-0.450000X0.350000X-0.450000X-0.350000X0.450000X-0.350000X0.450000X0.350000X0*%
%ADD32RoundRect,0.250000X-0.337500X-0.475000X0.337500X-0.475000X0.337500X0.475000X-0.337500X0.475000X0*%
%ADD33RoundRect,0.250000X-0.475000X0.337500X-0.475000X-0.337500X0.475000X-0.337500X0.475000X0.337500X0*%
%ADD34RoundRect,0.250000X0.337500X0.475000X-0.337500X0.475000X-0.337500X-0.475000X0.337500X-0.475000X0*%
%ADD35RoundRect,0.250000X-0.550000X0.550000X-0.550000X-0.550000X0.550000X-0.550000X0.550000X0.550000X0*%
%ADD36RoundRect,0.250000X-0.300000X2.050000X-0.300000X-2.050000X0.300000X-2.050000X0.300000X2.050000X0*%
%ADD37RoundRect,0.250002X-5.149998X4.449998X-5.149998X-4.449998X5.149998X-4.449998X5.149998X4.449998X0*%
%ADD38RoundRect,0.250000X0.900000X-1.500000X0.900000X1.500000X-0.900000X1.500000X-0.900000X-1.500000X0*%
%ADD39R,3.200000X3.200000*%
%ADD40O,3.200000X3.200000*%
G04 APERTURE END LIST*
D10*
X91659761Y-81060057D02*
X91564523Y-81012438D01*
X91564523Y-81012438D02*
X91469285Y-80917200D01*
X91469285Y-80917200D02*
X91326428Y-80774342D01*
X91326428Y-80774342D02*
X91231190Y-80726723D01*
X91231190Y-80726723D02*
X91135952Y-80726723D01*
X91183571Y-80964819D02*
X91088333Y-80917200D01*
X91088333Y-80917200D02*
X90993095Y-80821961D01*
X90993095Y-80821961D02*
X90945476Y-80631485D01*
X90945476Y-80631485D02*
X90945476Y-80298152D01*
X90945476Y-80298152D02*
X90993095Y-80107676D01*
X90993095Y-80107676D02*
X91088333Y-80012438D01*
X91088333Y-80012438D02*
X91183571Y-79964819D01*
X91183571Y-79964819D02*
X91374047Y-79964819D01*
X91374047Y-79964819D02*
X91469285Y-80012438D01*
X91469285Y-80012438D02*
X91564523Y-80107676D01*
X91564523Y-80107676D02*
X91612142Y-80298152D01*
X91612142Y-80298152D02*
X91612142Y-80631485D01*
X91612142Y-80631485D02*
X91564523Y-80821961D01*
X91564523Y-80821961D02*
X91469285Y-80917200D01*
X91469285Y-80917200D02*
X91374047Y-80964819D01*
X91374047Y-80964819D02*
X91183571Y-80964819D01*
X92183571Y-80393390D02*
X92088333Y-80345771D01*
X92088333Y-80345771D02*
X92040714Y-80298152D01*
X92040714Y-80298152D02*
X91993095Y-80202914D01*
X91993095Y-80202914D02*
X91993095Y-80155295D01*
X91993095Y-80155295D02*
X92040714Y-80060057D01*
X92040714Y-80060057D02*
X92088333Y-80012438D01*
X92088333Y-80012438D02*
X92183571Y-79964819D01*
X92183571Y-79964819D02*
X92374047Y-79964819D01*
X92374047Y-79964819D02*
X92469285Y-80012438D01*
X92469285Y-80012438D02*
X92516904Y-80060057D01*
X92516904Y-80060057D02*
X92564523Y-80155295D01*
X92564523Y-80155295D02*
X92564523Y-80202914D01*
X92564523Y-80202914D02*
X92516904Y-80298152D01*
X92516904Y-80298152D02*
X92469285Y-80345771D01*
X92469285Y-80345771D02*
X92374047Y-80393390D01*
X92374047Y-80393390D02*
X92183571Y-80393390D01*
X92183571Y-80393390D02*
X92088333Y-80441009D01*
X92088333Y-80441009D02*
X92040714Y-80488628D01*
X92040714Y-80488628D02*
X91993095Y-80583866D01*
X91993095Y-80583866D02*
X91993095Y-80774342D01*
X91993095Y-80774342D02*
X92040714Y-80869580D01*
X92040714Y-80869580D02*
X92088333Y-80917200D01*
X92088333Y-80917200D02*
X92183571Y-80964819D01*
X92183571Y-80964819D02*
X92374047Y-80964819D01*
X92374047Y-80964819D02*
X92469285Y-80917200D01*
X92469285Y-80917200D02*
X92516904Y-80869580D01*
X92516904Y-80869580D02*
X92564523Y-80774342D01*
X92564523Y-80774342D02*
X92564523Y-80583866D01*
X92564523Y-80583866D02*
X92516904Y-80488628D01*
X92516904Y-80488628D02*
X92469285Y-80441009D01*
X92469285Y-80441009D02*
X92374047Y-80393390D01*
X48359580Y-115766666D02*
X48407200Y-115814285D01*
X48407200Y-115814285D02*
X48454819Y-115957142D01*
X48454819Y-115957142D02*
X48454819Y-116052380D01*
X48454819Y-116052380D02*
X48407200Y-116195237D01*
X48407200Y-116195237D02*
X48311961Y-116290475D01*
X48311961Y-116290475D02*
X48216723Y-116338094D01*
X48216723Y-116338094D02*
X48026247Y-116385713D01*
X48026247Y-116385713D02*
X47883390Y-116385713D01*
X47883390Y-116385713D02*
X47692914Y-116338094D01*
X47692914Y-116338094D02*
X47597676Y-116290475D01*
X47597676Y-116290475D02*
X47502438Y-116195237D01*
X47502438Y-116195237D02*
X47454819Y-116052380D01*
X47454819Y-116052380D02*
X47454819Y-115957142D01*
X47454819Y-115957142D02*
X47502438Y-115814285D01*
X47502438Y-115814285D02*
X47550057Y-115766666D01*
X48454819Y-115290475D02*
X48454819Y-115099999D01*
X48454819Y-115099999D02*
X48407200Y-115004761D01*
X48407200Y-115004761D02*
X48359580Y-114957142D01*
X48359580Y-114957142D02*
X48216723Y-114861904D01*
X48216723Y-114861904D02*
X48026247Y-114814285D01*
X48026247Y-114814285D02*
X47645295Y-114814285D01*
X47645295Y-114814285D02*
X47550057Y-114861904D01*
X47550057Y-114861904D02*
X47502438Y-114909523D01*
X47502438Y-114909523D02*
X47454819Y-115004761D01*
X47454819Y-115004761D02*
X47454819Y-115195237D01*
X47454819Y-115195237D02*
X47502438Y-115290475D01*
X47502438Y-115290475D02*
X47550057Y-115338094D01*
X47550057Y-115338094D02*
X47645295Y-115385713D01*
X47645295Y-115385713D02*
X47883390Y-115385713D01*
X47883390Y-115385713D02*
X47978628Y-115338094D01*
X47978628Y-115338094D02*
X48026247Y-115290475D01*
X48026247Y-115290475D02*
X48073866Y-115195237D01*
X48073866Y-115195237D02*
X48073866Y-115004761D01*
X48073866Y-115004761D02*
X48026247Y-114909523D01*
X48026247Y-114909523D02*
X47978628Y-114861904D01*
X47978628Y-114861904D02*
X47883390Y-114814285D01*
X66179819Y-68536666D02*
X65703628Y-68869999D01*
X66179819Y-69108094D02*
X65179819Y-69108094D01*
X65179819Y-69108094D02*
X65179819Y-68727142D01*
X65179819Y-68727142D02*
X65227438Y-68631904D01*
X65227438Y-68631904D02*
X65275057Y-68584285D01*
X65275057Y-68584285D02*
X65370295Y-68536666D01*
X65370295Y-68536666D02*
X65513152Y-68536666D01*
X65513152Y-68536666D02*
X65608390Y-68584285D01*
X65608390Y-68584285D02*
X65656009Y-68631904D01*
X65656009Y-68631904D02*
X65703628Y-68727142D01*
X65703628Y-68727142D02*
X65703628Y-69108094D01*
X65513152Y-67679523D02*
X66179819Y-67679523D01*
X65132200Y-67917618D02*
X65846485Y-68155713D01*
X65846485Y-68155713D02*
X65846485Y-67536666D01*
X80095238Y-79804819D02*
X80095238Y-78804819D01*
X81142856Y-79804819D02*
X80809523Y-79328628D01*
X80571428Y-79804819D02*
X80571428Y-78804819D01*
X80571428Y-78804819D02*
X80952380Y-78804819D01*
X80952380Y-78804819D02*
X81047618Y-78852438D01*
X81047618Y-78852438D02*
X81095237Y-78900057D01*
X81095237Y-78900057D02*
X81142856Y-78995295D01*
X81142856Y-78995295D02*
X81142856Y-79138152D01*
X81142856Y-79138152D02*
X81095237Y-79233390D01*
X81095237Y-79233390D02*
X81047618Y-79281009D01*
X81047618Y-79281009D02*
X80952380Y-79328628D01*
X80952380Y-79328628D02*
X80571428Y-79328628D01*
X81333333Y-79900057D02*
X82095237Y-79900057D01*
X82333333Y-79138152D02*
X82333333Y-80138152D01*
X82333333Y-79185771D02*
X82428571Y-79138152D01*
X82428571Y-79138152D02*
X82619047Y-79138152D01*
X82619047Y-79138152D02*
X82714285Y-79185771D01*
X82714285Y-79185771D02*
X82761904Y-79233390D01*
X82761904Y-79233390D02*
X82809523Y-79328628D01*
X82809523Y-79328628D02*
X82809523Y-79614342D01*
X82809523Y-79614342D02*
X82761904Y-79709580D01*
X82761904Y-79709580D02*
X82714285Y-79757200D01*
X82714285Y-79757200D02*
X82619047Y-79804819D01*
X82619047Y-79804819D02*
X82428571Y-79804819D01*
X82428571Y-79804819D02*
X82333333Y-79757200D01*
X83238095Y-79804819D02*
X83238095Y-79138152D01*
X83238095Y-78804819D02*
X83190476Y-78852438D01*
X83190476Y-78852438D02*
X83238095Y-78900057D01*
X83238095Y-78900057D02*
X83285714Y-78852438D01*
X83285714Y-78852438D02*
X83238095Y-78804819D01*
X83238095Y-78804819D02*
X83238095Y-78900057D01*
X83714285Y-79138152D02*
X83714285Y-79804819D01*
X83714285Y-79233390D02*
X83761904Y-79185771D01*
X83761904Y-79185771D02*
X83857142Y-79138152D01*
X83857142Y-79138152D02*
X83999999Y-79138152D01*
X83999999Y-79138152D02*
X84095237Y-79185771D01*
X84095237Y-79185771D02*
X84142856Y-79281009D01*
X84142856Y-79281009D02*
X84142856Y-79804819D01*
X84571428Y-79757200D02*
X84666666Y-79804819D01*
X84666666Y-79804819D02*
X84857142Y-79804819D01*
X84857142Y-79804819D02*
X84952380Y-79757200D01*
X84952380Y-79757200D02*
X84999999Y-79661961D01*
X84999999Y-79661961D02*
X84999999Y-79614342D01*
X84999999Y-79614342D02*
X84952380Y-79519104D01*
X84952380Y-79519104D02*
X84857142Y-79471485D01*
X84857142Y-79471485D02*
X84714285Y-79471485D01*
X84714285Y-79471485D02*
X84619047Y-79423866D01*
X84619047Y-79423866D02*
X84571428Y-79328628D01*
X84571428Y-79328628D02*
X84571428Y-79281009D01*
X84571428Y-79281009D02*
X84619047Y-79185771D01*
X84619047Y-79185771D02*
X84714285Y-79138152D01*
X84714285Y-79138152D02*
X84857142Y-79138152D01*
X84857142Y-79138152D02*
X84952380Y-79185771D01*
X85952380Y-79804819D02*
X85380952Y-79804819D01*
X85666666Y-79804819D02*
X85666666Y-78804819D01*
X85666666Y-78804819D02*
X85571428Y-78947676D01*
X85571428Y-78947676D02*
X85476190Y-79042914D01*
X85476190Y-79042914D02*
X85380952Y-79090533D01*
X73829819Y-112608094D02*
X72829819Y-112608094D01*
X72829819Y-112608094D02*
X72829819Y-112369999D01*
X72829819Y-112369999D02*
X72877438Y-112227142D01*
X72877438Y-112227142D02*
X72972676Y-112131904D01*
X72972676Y-112131904D02*
X73067914Y-112084285D01*
X73067914Y-112084285D02*
X73258390Y-112036666D01*
X73258390Y-112036666D02*
X73401247Y-112036666D01*
X73401247Y-112036666D02*
X73591723Y-112084285D01*
X73591723Y-112084285D02*
X73686961Y-112131904D01*
X73686961Y-112131904D02*
X73782200Y-112227142D01*
X73782200Y-112227142D02*
X73829819Y-112369999D01*
X73829819Y-112369999D02*
X73829819Y-112608094D01*
X73163152Y-111179523D02*
X73829819Y-111179523D01*
X72782200Y-111417618D02*
X73496485Y-111655713D01*
X73496485Y-111655713D02*
X73496485Y-111036666D01*
X70029819Y-111631904D02*
X69029819Y-111631904D01*
X70029819Y-111060476D02*
X69458390Y-111489047D01*
X69029819Y-111060476D02*
X69601247Y-111631904D01*
X128730952Y-77924819D02*
X128730952Y-76924819D01*
X129207142Y-77258152D02*
X129207142Y-77924819D01*
X129207142Y-77353390D02*
X129254761Y-77305771D01*
X129254761Y-77305771D02*
X129349999Y-77258152D01*
X129349999Y-77258152D02*
X129492856Y-77258152D01*
X129492856Y-77258152D02*
X129588094Y-77305771D01*
X129588094Y-77305771D02*
X129635713Y-77401009D01*
X129635713Y-77401009D02*
X129635713Y-77924819D01*
X130111904Y-77258152D02*
X130111904Y-78258152D01*
X130111904Y-77305771D02*
X130207142Y-77258152D01*
X130207142Y-77258152D02*
X130397618Y-77258152D01*
X130397618Y-77258152D02*
X130492856Y-77305771D01*
X130492856Y-77305771D02*
X130540475Y-77353390D01*
X130540475Y-77353390D02*
X130588094Y-77448628D01*
X130588094Y-77448628D02*
X130588094Y-77734342D01*
X130588094Y-77734342D02*
X130540475Y-77829580D01*
X130540475Y-77829580D02*
X130492856Y-77877200D01*
X130492856Y-77877200D02*
X130397618Y-77924819D01*
X130397618Y-77924819D02*
X130207142Y-77924819D01*
X130207142Y-77924819D02*
X130111904Y-77877200D01*
X131445237Y-77258152D02*
X131445237Y-77924819D01*
X131016666Y-77258152D02*
X131016666Y-77781961D01*
X131016666Y-77781961D02*
X131064285Y-77877200D01*
X131064285Y-77877200D02*
X131159523Y-77924819D01*
X131159523Y-77924819D02*
X131302380Y-77924819D01*
X131302380Y-77924819D02*
X131397618Y-77877200D01*
X131397618Y-77877200D02*
X131445237Y-77829580D01*
X131778571Y-77258152D02*
X132159523Y-77258152D01*
X131921428Y-76924819D02*
X131921428Y-77781961D01*
X131921428Y-77781961D02*
X131969047Y-77877200D01*
X131969047Y-77877200D02*
X132064285Y-77924819D01*
X132064285Y-77924819D02*
X132159523Y-77924819D01*
X133016666Y-77924819D02*
X132445238Y-77924819D01*
X132730952Y-77924819D02*
X132730952Y-76924819D01*
X132730952Y-76924819D02*
X132635714Y-77067676D01*
X132635714Y-77067676D02*
X132540476Y-77162914D01*
X132540476Y-77162914D02*
X132445238Y-77210533D01*
X111019819Y-112608094D02*
X110019819Y-112608094D01*
X110019819Y-112608094D02*
X110019819Y-112369999D01*
X110019819Y-112369999D02*
X110067438Y-112227142D01*
X110067438Y-112227142D02*
X110162676Y-112131904D01*
X110162676Y-112131904D02*
X110257914Y-112084285D01*
X110257914Y-112084285D02*
X110448390Y-112036666D01*
X110448390Y-112036666D02*
X110591247Y-112036666D01*
X110591247Y-112036666D02*
X110781723Y-112084285D01*
X110781723Y-112084285D02*
X110876961Y-112131904D01*
X110876961Y-112131904D02*
X110972200Y-112227142D01*
X110972200Y-112227142D02*
X111019819Y-112369999D01*
X111019819Y-112369999D02*
X111019819Y-112608094D01*
X110019819Y-111179523D02*
X110019819Y-111369999D01*
X110019819Y-111369999D02*
X110067438Y-111465237D01*
X110067438Y-111465237D02*
X110115057Y-111512856D01*
X110115057Y-111512856D02*
X110257914Y-111608094D01*
X110257914Y-111608094D02*
X110448390Y-111655713D01*
X110448390Y-111655713D02*
X110829342Y-111655713D01*
X110829342Y-111655713D02*
X110924580Y-111608094D01*
X110924580Y-111608094D02*
X110972200Y-111560475D01*
X110972200Y-111560475D02*
X111019819Y-111465237D01*
X111019819Y-111465237D02*
X111019819Y-111274761D01*
X111019819Y-111274761D02*
X110972200Y-111179523D01*
X110972200Y-111179523D02*
X110924580Y-111131904D01*
X110924580Y-111131904D02*
X110829342Y-111084285D01*
X110829342Y-111084285D02*
X110591247Y-111084285D01*
X110591247Y-111084285D02*
X110496009Y-111131904D01*
X110496009Y-111131904D02*
X110448390Y-111179523D01*
X110448390Y-111179523D02*
X110400771Y-111274761D01*
X110400771Y-111274761D02*
X110400771Y-111465237D01*
X110400771Y-111465237D02*
X110448390Y-111560475D01*
X110448390Y-111560475D02*
X110496009Y-111608094D01*
X110496009Y-111608094D02*
X110591247Y-111655713D01*
X106909819Y-111756904D02*
X105909819Y-111756904D01*
X106909819Y-111185476D02*
X106338390Y-111614047D01*
X105909819Y-111185476D02*
X106481247Y-111756904D01*
X97238095Y-124454819D02*
X97238095Y-125264342D01*
X97238095Y-125264342D02*
X97285714Y-125359580D01*
X97285714Y-125359580D02*
X97333333Y-125407200D01*
X97333333Y-125407200D02*
X97428571Y-125454819D01*
X97428571Y-125454819D02*
X97619047Y-125454819D01*
X97619047Y-125454819D02*
X97714285Y-125407200D01*
X97714285Y-125407200D02*
X97761904Y-125359580D01*
X97761904Y-125359580D02*
X97809523Y-125264342D01*
X97809523Y-125264342D02*
X97809523Y-124454819D01*
X98761904Y-124454819D02*
X98285714Y-124454819D01*
X98285714Y-124454819D02*
X98238095Y-124931009D01*
X98238095Y-124931009D02*
X98285714Y-124883390D01*
X98285714Y-124883390D02*
X98380952Y-124835771D01*
X98380952Y-124835771D02*
X98619047Y-124835771D01*
X98619047Y-124835771D02*
X98714285Y-124883390D01*
X98714285Y-124883390D02*
X98761904Y-124931009D01*
X98761904Y-124931009D02*
X98809523Y-125026247D01*
X98809523Y-125026247D02*
X98809523Y-125264342D01*
X98809523Y-125264342D02*
X98761904Y-125359580D01*
X98761904Y-125359580D02*
X98714285Y-125407200D01*
X98714285Y-125407200D02*
X98619047Y-125454819D01*
X98619047Y-125454819D02*
X98380952Y-125454819D01*
X98380952Y-125454819D02*
X98285714Y-125407200D01*
X98285714Y-125407200D02*
X98238095Y-125359580D01*
X58209819Y-107988094D02*
X57209819Y-107988094D01*
X57209819Y-107988094D02*
X57209819Y-107749999D01*
X57209819Y-107749999D02*
X57257438Y-107607142D01*
X57257438Y-107607142D02*
X57352676Y-107511904D01*
X57352676Y-107511904D02*
X57447914Y-107464285D01*
X57447914Y-107464285D02*
X57638390Y-107416666D01*
X57638390Y-107416666D02*
X57781247Y-107416666D01*
X57781247Y-107416666D02*
X57971723Y-107464285D01*
X57971723Y-107464285D02*
X58066961Y-107511904D01*
X58066961Y-107511904D02*
X58162200Y-107607142D01*
X58162200Y-107607142D02*
X58209819Y-107749999D01*
X58209819Y-107749999D02*
X58209819Y-107988094D01*
X57209819Y-107083332D02*
X57209819Y-106464285D01*
X57209819Y-106464285D02*
X57590771Y-106797618D01*
X57590771Y-106797618D02*
X57590771Y-106654761D01*
X57590771Y-106654761D02*
X57638390Y-106559523D01*
X57638390Y-106559523D02*
X57686009Y-106511904D01*
X57686009Y-106511904D02*
X57781247Y-106464285D01*
X57781247Y-106464285D02*
X58019342Y-106464285D01*
X58019342Y-106464285D02*
X58114580Y-106511904D01*
X58114580Y-106511904D02*
X58162200Y-106559523D01*
X58162200Y-106559523D02*
X58209819Y-106654761D01*
X58209819Y-106654761D02*
X58209819Y-106940475D01*
X58209819Y-106940475D02*
X58162200Y-107035713D01*
X58162200Y-107035713D02*
X58114580Y-107083332D01*
X59029819Y-112131904D02*
X58029819Y-112131904D01*
X59029819Y-111560476D02*
X58458390Y-111989047D01*
X58029819Y-111560476D02*
X58601247Y-112131904D01*
X78859580Y-117791666D02*
X78907200Y-117839285D01*
X78907200Y-117839285D02*
X78954819Y-117982142D01*
X78954819Y-117982142D02*
X78954819Y-118077380D01*
X78954819Y-118077380D02*
X78907200Y-118220237D01*
X78907200Y-118220237D02*
X78811961Y-118315475D01*
X78811961Y-118315475D02*
X78716723Y-118363094D01*
X78716723Y-118363094D02*
X78526247Y-118410713D01*
X78526247Y-118410713D02*
X78383390Y-118410713D01*
X78383390Y-118410713D02*
X78192914Y-118363094D01*
X78192914Y-118363094D02*
X78097676Y-118315475D01*
X78097676Y-118315475D02*
X78002438Y-118220237D01*
X78002438Y-118220237D02*
X77954819Y-118077380D01*
X77954819Y-118077380D02*
X77954819Y-117982142D01*
X77954819Y-117982142D02*
X78002438Y-117839285D01*
X78002438Y-117839285D02*
X78050057Y-117791666D01*
X77954819Y-116886904D02*
X77954819Y-117363094D01*
X77954819Y-117363094D02*
X78431009Y-117410713D01*
X78431009Y-117410713D02*
X78383390Y-117363094D01*
X78383390Y-117363094D02*
X78335771Y-117267856D01*
X78335771Y-117267856D02*
X78335771Y-117029761D01*
X78335771Y-117029761D02*
X78383390Y-116934523D01*
X78383390Y-116934523D02*
X78431009Y-116886904D01*
X78431009Y-116886904D02*
X78526247Y-116839285D01*
X78526247Y-116839285D02*
X78764342Y-116839285D01*
X78764342Y-116839285D02*
X78859580Y-116886904D01*
X78859580Y-116886904D02*
X78907200Y-116934523D01*
X78907200Y-116934523D02*
X78954819Y-117029761D01*
X78954819Y-117029761D02*
X78954819Y-117267856D01*
X78954819Y-117267856D02*
X78907200Y-117363094D01*
X78907200Y-117363094D02*
X78859580Y-117410713D01*
X88019819Y-119423094D02*
X87019819Y-119423094D01*
X87019819Y-119423094D02*
X87019819Y-119184999D01*
X87019819Y-119184999D02*
X87067438Y-119042142D01*
X87067438Y-119042142D02*
X87162676Y-118946904D01*
X87162676Y-118946904D02*
X87257914Y-118899285D01*
X87257914Y-118899285D02*
X87448390Y-118851666D01*
X87448390Y-118851666D02*
X87591247Y-118851666D01*
X87591247Y-118851666D02*
X87781723Y-118899285D01*
X87781723Y-118899285D02*
X87876961Y-118946904D01*
X87876961Y-118946904D02*
X87972200Y-119042142D01*
X87972200Y-119042142D02*
X88019819Y-119184999D01*
X88019819Y-119184999D02*
X88019819Y-119423094D01*
X88019819Y-118375475D02*
X88019819Y-118184999D01*
X88019819Y-118184999D02*
X87972200Y-118089761D01*
X87972200Y-118089761D02*
X87924580Y-118042142D01*
X87924580Y-118042142D02*
X87781723Y-117946904D01*
X87781723Y-117946904D02*
X87591247Y-117899285D01*
X87591247Y-117899285D02*
X87210295Y-117899285D01*
X87210295Y-117899285D02*
X87115057Y-117946904D01*
X87115057Y-117946904D02*
X87067438Y-117994523D01*
X87067438Y-117994523D02*
X87019819Y-118089761D01*
X87019819Y-118089761D02*
X87019819Y-118280237D01*
X87019819Y-118280237D02*
X87067438Y-118375475D01*
X87067438Y-118375475D02*
X87115057Y-118423094D01*
X87115057Y-118423094D02*
X87210295Y-118470713D01*
X87210295Y-118470713D02*
X87448390Y-118470713D01*
X87448390Y-118470713D02*
X87543628Y-118423094D01*
X87543628Y-118423094D02*
X87591247Y-118375475D01*
X87591247Y-118375475D02*
X87638866Y-118280237D01*
X87638866Y-118280237D02*
X87638866Y-118089761D01*
X87638866Y-118089761D02*
X87591247Y-117994523D01*
X87591247Y-117994523D02*
X87543628Y-117946904D01*
X87543628Y-117946904D02*
X87448390Y-117899285D01*
X58209819Y-88334285D02*
X57209819Y-88334285D01*
X57209819Y-88334285D02*
X57924104Y-88000952D01*
X57924104Y-88000952D02*
X57209819Y-87667619D01*
X57209819Y-87667619D02*
X58209819Y-87667619D01*
X57209819Y-87000952D02*
X57209819Y-86810476D01*
X57209819Y-86810476D02*
X57257438Y-86715238D01*
X57257438Y-86715238D02*
X57352676Y-86620000D01*
X57352676Y-86620000D02*
X57543152Y-86572381D01*
X57543152Y-86572381D02*
X57876485Y-86572381D01*
X57876485Y-86572381D02*
X58066961Y-86620000D01*
X58066961Y-86620000D02*
X58162200Y-86715238D01*
X58162200Y-86715238D02*
X58209819Y-86810476D01*
X58209819Y-86810476D02*
X58209819Y-87000952D01*
X58209819Y-87000952D02*
X58162200Y-87096190D01*
X58162200Y-87096190D02*
X58066961Y-87191428D01*
X58066961Y-87191428D02*
X57876485Y-87239047D01*
X57876485Y-87239047D02*
X57543152Y-87239047D01*
X57543152Y-87239047D02*
X57352676Y-87191428D01*
X57352676Y-87191428D02*
X57257438Y-87096190D01*
X57257438Y-87096190D02*
X57209819Y-87000952D01*
X57209819Y-86286666D02*
X57209819Y-85715238D01*
X58209819Y-86000952D02*
X57209819Y-86000952D01*
X58209819Y-84858095D02*
X58209819Y-85429523D01*
X58209819Y-85143809D02*
X57209819Y-85143809D01*
X57209819Y-85143809D02*
X57352676Y-85239047D01*
X57352676Y-85239047D02*
X57447914Y-85334285D01*
X57447914Y-85334285D02*
X57495533Y-85429523D01*
X56239761Y-80190057D02*
X56144523Y-80142438D01*
X56144523Y-80142438D02*
X56049285Y-80047200D01*
X56049285Y-80047200D02*
X55906428Y-79904342D01*
X55906428Y-79904342D02*
X55811190Y-79856723D01*
X55811190Y-79856723D02*
X55715952Y-79856723D01*
X55763571Y-80094819D02*
X55668333Y-80047200D01*
X55668333Y-80047200D02*
X55573095Y-79951961D01*
X55573095Y-79951961D02*
X55525476Y-79761485D01*
X55525476Y-79761485D02*
X55525476Y-79428152D01*
X55525476Y-79428152D02*
X55573095Y-79237676D01*
X55573095Y-79237676D02*
X55668333Y-79142438D01*
X55668333Y-79142438D02*
X55763571Y-79094819D01*
X55763571Y-79094819D02*
X55954047Y-79094819D01*
X55954047Y-79094819D02*
X56049285Y-79142438D01*
X56049285Y-79142438D02*
X56144523Y-79237676D01*
X56144523Y-79237676D02*
X56192142Y-79428152D01*
X56192142Y-79428152D02*
X56192142Y-79761485D01*
X56192142Y-79761485D02*
X56144523Y-79951961D01*
X56144523Y-79951961D02*
X56049285Y-80047200D01*
X56049285Y-80047200D02*
X55954047Y-80094819D01*
X55954047Y-80094819D02*
X55763571Y-80094819D01*
X57049285Y-79428152D02*
X57049285Y-80094819D01*
X56811190Y-79047200D02*
X56573095Y-79761485D01*
X56573095Y-79761485D02*
X57192142Y-79761485D01*
X76359580Y-117791666D02*
X76407200Y-117839285D01*
X76407200Y-117839285D02*
X76454819Y-117982142D01*
X76454819Y-117982142D02*
X76454819Y-118077380D01*
X76454819Y-118077380D02*
X76407200Y-118220237D01*
X76407200Y-118220237D02*
X76311961Y-118315475D01*
X76311961Y-118315475D02*
X76216723Y-118363094D01*
X76216723Y-118363094D02*
X76026247Y-118410713D01*
X76026247Y-118410713D02*
X75883390Y-118410713D01*
X75883390Y-118410713D02*
X75692914Y-118363094D01*
X75692914Y-118363094D02*
X75597676Y-118315475D01*
X75597676Y-118315475D02*
X75502438Y-118220237D01*
X75502438Y-118220237D02*
X75454819Y-118077380D01*
X75454819Y-118077380D02*
X75454819Y-117982142D01*
X75454819Y-117982142D02*
X75502438Y-117839285D01*
X75502438Y-117839285D02*
X75550057Y-117791666D01*
X75454819Y-117458332D02*
X75454819Y-116791666D01*
X75454819Y-116791666D02*
X76454819Y-117220237D01*
X123204819Y-84516666D02*
X123204819Y-84992856D01*
X123204819Y-84992856D02*
X122204819Y-84992856D01*
X123204819Y-83659523D02*
X123204819Y-84230951D01*
X123204819Y-83945237D02*
X122204819Y-83945237D01*
X122204819Y-83945237D02*
X122347676Y-84040475D01*
X122347676Y-84040475D02*
X122442914Y-84135713D01*
X122442914Y-84135713D02*
X122490533Y-84230951D01*
X53679819Y-108036666D02*
X53203628Y-108369999D01*
X53679819Y-108608094D02*
X52679819Y-108608094D01*
X52679819Y-108608094D02*
X52679819Y-108227142D01*
X52679819Y-108227142D02*
X52727438Y-108131904D01*
X52727438Y-108131904D02*
X52775057Y-108084285D01*
X52775057Y-108084285D02*
X52870295Y-108036666D01*
X52870295Y-108036666D02*
X53013152Y-108036666D01*
X53013152Y-108036666D02*
X53108390Y-108084285D01*
X53108390Y-108084285D02*
X53156009Y-108131904D01*
X53156009Y-108131904D02*
X53203628Y-108227142D01*
X53203628Y-108227142D02*
X53203628Y-108608094D01*
X53679819Y-107084285D02*
X53679819Y-107655713D01*
X53679819Y-107369999D02*
X52679819Y-107369999D01*
X52679819Y-107369999D02*
X52822676Y-107465237D01*
X52822676Y-107465237D02*
X52917914Y-107560475D01*
X52917914Y-107560475D02*
X52965533Y-107655713D01*
X104159761Y-81060057D02*
X104064523Y-81012438D01*
X104064523Y-81012438D02*
X103969285Y-80917200D01*
X103969285Y-80917200D02*
X103826428Y-80774342D01*
X103826428Y-80774342D02*
X103731190Y-80726723D01*
X103731190Y-80726723D02*
X103635952Y-80726723D01*
X103683571Y-80964819D02*
X103588333Y-80917200D01*
X103588333Y-80917200D02*
X103493095Y-80821961D01*
X103493095Y-80821961D02*
X103445476Y-80631485D01*
X103445476Y-80631485D02*
X103445476Y-80298152D01*
X103445476Y-80298152D02*
X103493095Y-80107676D01*
X103493095Y-80107676D02*
X103588333Y-80012438D01*
X103588333Y-80012438D02*
X103683571Y-79964819D01*
X103683571Y-79964819D02*
X103874047Y-79964819D01*
X103874047Y-79964819D02*
X103969285Y-80012438D01*
X103969285Y-80012438D02*
X104064523Y-80107676D01*
X104064523Y-80107676D02*
X104112142Y-80298152D01*
X104112142Y-80298152D02*
X104112142Y-80631485D01*
X104112142Y-80631485D02*
X104064523Y-80821961D01*
X104064523Y-80821961D02*
X103969285Y-80917200D01*
X103969285Y-80917200D02*
X103874047Y-80964819D01*
X103874047Y-80964819D02*
X103683571Y-80964819D01*
X104445476Y-79964819D02*
X105112142Y-79964819D01*
X105112142Y-79964819D02*
X104683571Y-80964819D01*
X90104819Y-71666666D02*
X89628628Y-71999999D01*
X90104819Y-72238094D02*
X89104819Y-72238094D01*
X89104819Y-72238094D02*
X89104819Y-71857142D01*
X89104819Y-71857142D02*
X89152438Y-71761904D01*
X89152438Y-71761904D02*
X89200057Y-71714285D01*
X89200057Y-71714285D02*
X89295295Y-71666666D01*
X89295295Y-71666666D02*
X89438152Y-71666666D01*
X89438152Y-71666666D02*
X89533390Y-71714285D01*
X89533390Y-71714285D02*
X89581009Y-71761904D01*
X89581009Y-71761904D02*
X89628628Y-71857142D01*
X89628628Y-71857142D02*
X89628628Y-72238094D01*
X89533390Y-71095237D02*
X89485771Y-71190475D01*
X89485771Y-71190475D02*
X89438152Y-71238094D01*
X89438152Y-71238094D02*
X89342914Y-71285713D01*
X89342914Y-71285713D02*
X89295295Y-71285713D01*
X89295295Y-71285713D02*
X89200057Y-71238094D01*
X89200057Y-71238094D02*
X89152438Y-71190475D01*
X89152438Y-71190475D02*
X89104819Y-71095237D01*
X89104819Y-71095237D02*
X89104819Y-70904761D01*
X89104819Y-70904761D02*
X89152438Y-70809523D01*
X89152438Y-70809523D02*
X89200057Y-70761904D01*
X89200057Y-70761904D02*
X89295295Y-70714285D01*
X89295295Y-70714285D02*
X89342914Y-70714285D01*
X89342914Y-70714285D02*
X89438152Y-70761904D01*
X89438152Y-70761904D02*
X89485771Y-70809523D01*
X89485771Y-70809523D02*
X89533390Y-70904761D01*
X89533390Y-70904761D02*
X89533390Y-71095237D01*
X89533390Y-71095237D02*
X89581009Y-71190475D01*
X89581009Y-71190475D02*
X89628628Y-71238094D01*
X89628628Y-71238094D02*
X89723866Y-71285713D01*
X89723866Y-71285713D02*
X89914342Y-71285713D01*
X89914342Y-71285713D02*
X90009580Y-71238094D01*
X90009580Y-71238094D02*
X90057200Y-71190475D01*
X90057200Y-71190475D02*
X90104819Y-71095237D01*
X90104819Y-71095237D02*
X90104819Y-70904761D01*
X90104819Y-70904761D02*
X90057200Y-70809523D01*
X90057200Y-70809523D02*
X90009580Y-70761904D01*
X90009580Y-70761904D02*
X89914342Y-70714285D01*
X89914342Y-70714285D02*
X89723866Y-70714285D01*
X89723866Y-70714285D02*
X89628628Y-70761904D01*
X89628628Y-70761904D02*
X89581009Y-70809523D01*
X89581009Y-70809523D02*
X89533390Y-70904761D01*
X100612142Y-109864580D02*
X100564523Y-109912200D01*
X100564523Y-109912200D02*
X100421666Y-109959819D01*
X100421666Y-109959819D02*
X100326428Y-109959819D01*
X100326428Y-109959819D02*
X100183571Y-109912200D01*
X100183571Y-109912200D02*
X100088333Y-109816961D01*
X100088333Y-109816961D02*
X100040714Y-109721723D01*
X100040714Y-109721723D02*
X99993095Y-109531247D01*
X99993095Y-109531247D02*
X99993095Y-109388390D01*
X99993095Y-109388390D02*
X100040714Y-109197914D01*
X100040714Y-109197914D02*
X100088333Y-109102676D01*
X100088333Y-109102676D02*
X100183571Y-109007438D01*
X100183571Y-109007438D02*
X100326428Y-108959819D01*
X100326428Y-108959819D02*
X100421666Y-108959819D01*
X100421666Y-108959819D02*
X100564523Y-109007438D01*
X100564523Y-109007438D02*
X100612142Y-109055057D01*
X101564523Y-109959819D02*
X100993095Y-109959819D01*
X101278809Y-109959819D02*
X101278809Y-108959819D01*
X101278809Y-108959819D02*
X101183571Y-109102676D01*
X101183571Y-109102676D02*
X101088333Y-109197914D01*
X101088333Y-109197914D02*
X100993095Y-109245533D01*
X102516904Y-109959819D02*
X101945476Y-109959819D01*
X102231190Y-109959819D02*
X102231190Y-108959819D01*
X102231190Y-108959819D02*
X102135952Y-109102676D01*
X102135952Y-109102676D02*
X102040714Y-109197914D01*
X102040714Y-109197914D02*
X101945476Y-109245533D01*
X63398333Y-64229580D02*
X63350714Y-64277200D01*
X63350714Y-64277200D02*
X63207857Y-64324819D01*
X63207857Y-64324819D02*
X63112619Y-64324819D01*
X63112619Y-64324819D02*
X62969762Y-64277200D01*
X62969762Y-64277200D02*
X62874524Y-64181961D01*
X62874524Y-64181961D02*
X62826905Y-64086723D01*
X62826905Y-64086723D02*
X62779286Y-63896247D01*
X62779286Y-63896247D02*
X62779286Y-63753390D01*
X62779286Y-63753390D02*
X62826905Y-63562914D01*
X62826905Y-63562914D02*
X62874524Y-63467676D01*
X62874524Y-63467676D02*
X62969762Y-63372438D01*
X62969762Y-63372438D02*
X63112619Y-63324819D01*
X63112619Y-63324819D02*
X63207857Y-63324819D01*
X63207857Y-63324819D02*
X63350714Y-63372438D01*
X63350714Y-63372438D02*
X63398333Y-63420057D01*
X64255476Y-63658152D02*
X64255476Y-64324819D01*
X64017381Y-63277200D02*
X63779286Y-63991485D01*
X63779286Y-63991485D02*
X64398333Y-63991485D01*
X88519819Y-56131904D02*
X89329342Y-56131904D01*
X89329342Y-56131904D02*
X89424580Y-56084285D01*
X89424580Y-56084285D02*
X89472200Y-56036666D01*
X89472200Y-56036666D02*
X89519819Y-55941428D01*
X89519819Y-55941428D02*
X89519819Y-55750952D01*
X89519819Y-55750952D02*
X89472200Y-55655714D01*
X89472200Y-55655714D02*
X89424580Y-55608095D01*
X89424580Y-55608095D02*
X89329342Y-55560476D01*
X89329342Y-55560476D02*
X88519819Y-55560476D01*
X88519819Y-55179523D02*
X88519819Y-54512857D01*
X88519819Y-54512857D02*
X89519819Y-54941428D01*
X108549819Y-63191904D02*
X107549819Y-63191904D01*
X108549819Y-62620476D02*
X107978390Y-63049047D01*
X107549819Y-62620476D02*
X108121247Y-63191904D01*
X52869819Y-68036666D02*
X52393628Y-68369999D01*
X52869819Y-68608094D02*
X51869819Y-68608094D01*
X51869819Y-68608094D02*
X51869819Y-68227142D01*
X51869819Y-68227142D02*
X51917438Y-68131904D01*
X51917438Y-68131904D02*
X51965057Y-68084285D01*
X51965057Y-68084285D02*
X52060295Y-68036666D01*
X52060295Y-68036666D02*
X52203152Y-68036666D01*
X52203152Y-68036666D02*
X52298390Y-68084285D01*
X52298390Y-68084285D02*
X52346009Y-68131904D01*
X52346009Y-68131904D02*
X52393628Y-68227142D01*
X52393628Y-68227142D02*
X52393628Y-68608094D01*
X51965057Y-67655713D02*
X51917438Y-67608094D01*
X51917438Y-67608094D02*
X51869819Y-67512856D01*
X51869819Y-67512856D02*
X51869819Y-67274761D01*
X51869819Y-67274761D02*
X51917438Y-67179523D01*
X51917438Y-67179523D02*
X51965057Y-67131904D01*
X51965057Y-67131904D02*
X52060295Y-67084285D01*
X52060295Y-67084285D02*
X52155533Y-67084285D01*
X52155533Y-67084285D02*
X52298390Y-67131904D01*
X52298390Y-67131904D02*
X52869819Y-67703332D01*
X52869819Y-67703332D02*
X52869819Y-67084285D01*
X96519819Y-108584285D02*
X95519819Y-108584285D01*
X95519819Y-108584285D02*
X95519819Y-108346190D01*
X95519819Y-108346190D02*
X95567438Y-108203333D01*
X95567438Y-108203333D02*
X95662676Y-108108095D01*
X95662676Y-108108095D02*
X95757914Y-108060476D01*
X95757914Y-108060476D02*
X95948390Y-108012857D01*
X95948390Y-108012857D02*
X96091247Y-108012857D01*
X96091247Y-108012857D02*
X96281723Y-108060476D01*
X96281723Y-108060476D02*
X96376961Y-108108095D01*
X96376961Y-108108095D02*
X96472200Y-108203333D01*
X96472200Y-108203333D02*
X96519819Y-108346190D01*
X96519819Y-108346190D02*
X96519819Y-108584285D01*
X96519819Y-107060476D02*
X96519819Y-107631904D01*
X96519819Y-107346190D02*
X95519819Y-107346190D01*
X95519819Y-107346190D02*
X95662676Y-107441428D01*
X95662676Y-107441428D02*
X95757914Y-107536666D01*
X95757914Y-107536666D02*
X95805533Y-107631904D01*
X95519819Y-106441428D02*
X95519819Y-106346190D01*
X95519819Y-106346190D02*
X95567438Y-106250952D01*
X95567438Y-106250952D02*
X95615057Y-106203333D01*
X95615057Y-106203333D02*
X95710295Y-106155714D01*
X95710295Y-106155714D02*
X95900771Y-106108095D01*
X95900771Y-106108095D02*
X96138866Y-106108095D01*
X96138866Y-106108095D02*
X96329342Y-106155714D01*
X96329342Y-106155714D02*
X96424580Y-106203333D01*
X96424580Y-106203333D02*
X96472200Y-106250952D01*
X96472200Y-106250952D02*
X96519819Y-106346190D01*
X96519819Y-106346190D02*
X96519819Y-106441428D01*
X96519819Y-106441428D02*
X96472200Y-106536666D01*
X96472200Y-106536666D02*
X96424580Y-106584285D01*
X96424580Y-106584285D02*
X96329342Y-106631904D01*
X96329342Y-106631904D02*
X96138866Y-106679523D01*
X96138866Y-106679523D02*
X95900771Y-106679523D01*
X95900771Y-106679523D02*
X95710295Y-106631904D01*
X95710295Y-106631904D02*
X95615057Y-106584285D01*
X95615057Y-106584285D02*
X95567438Y-106536666D01*
X95567438Y-106536666D02*
X95519819Y-106441428D01*
X90909819Y-111446904D02*
X89909819Y-111446904D01*
X90909819Y-110875476D02*
X90338390Y-111304047D01*
X89909819Y-110875476D02*
X90481247Y-111446904D01*
X53454819Y-59761904D02*
X54264342Y-59761904D01*
X54264342Y-59761904D02*
X54359580Y-59714285D01*
X54359580Y-59714285D02*
X54407200Y-59666666D01*
X54407200Y-59666666D02*
X54454819Y-59571428D01*
X54454819Y-59571428D02*
X54454819Y-59380952D01*
X54454819Y-59380952D02*
X54407200Y-59285714D01*
X54407200Y-59285714D02*
X54359580Y-59238095D01*
X54359580Y-59238095D02*
X54264342Y-59190476D01*
X54264342Y-59190476D02*
X53454819Y-59190476D01*
X53454819Y-58809523D02*
X53454819Y-58190476D01*
X53454819Y-58190476D02*
X53835771Y-58523809D01*
X53835771Y-58523809D02*
X53835771Y-58380952D01*
X53835771Y-58380952D02*
X53883390Y-58285714D01*
X53883390Y-58285714D02*
X53931009Y-58238095D01*
X53931009Y-58238095D02*
X54026247Y-58190476D01*
X54026247Y-58190476D02*
X54264342Y-58190476D01*
X54264342Y-58190476D02*
X54359580Y-58238095D01*
X54359580Y-58238095D02*
X54407200Y-58285714D01*
X54407200Y-58285714D02*
X54454819Y-58380952D01*
X54454819Y-58380952D02*
X54454819Y-58666666D01*
X54454819Y-58666666D02*
X54407200Y-58761904D01*
X54407200Y-58761904D02*
X54359580Y-58809523D01*
X61449819Y-68298094D02*
X60449819Y-68298094D01*
X60449819Y-68298094D02*
X60449819Y-68059999D01*
X60449819Y-68059999D02*
X60497438Y-67917142D01*
X60497438Y-67917142D02*
X60592676Y-67821904D01*
X60592676Y-67821904D02*
X60687914Y-67774285D01*
X60687914Y-67774285D02*
X60878390Y-67726666D01*
X60878390Y-67726666D02*
X61021247Y-67726666D01*
X61021247Y-67726666D02*
X61211723Y-67774285D01*
X61211723Y-67774285D02*
X61306961Y-67821904D01*
X61306961Y-67821904D02*
X61402200Y-67917142D01*
X61402200Y-67917142D02*
X61449819Y-68059999D01*
X61449819Y-68059999D02*
X61449819Y-68298094D01*
X60449819Y-66821904D02*
X60449819Y-67298094D01*
X60449819Y-67298094D02*
X60926009Y-67345713D01*
X60926009Y-67345713D02*
X60878390Y-67298094D01*
X60878390Y-67298094D02*
X60830771Y-67202856D01*
X60830771Y-67202856D02*
X60830771Y-66964761D01*
X60830771Y-66964761D02*
X60878390Y-66869523D01*
X60878390Y-66869523D02*
X60926009Y-66821904D01*
X60926009Y-66821904D02*
X61021247Y-66774285D01*
X61021247Y-66774285D02*
X61259342Y-66774285D01*
X61259342Y-66774285D02*
X61354580Y-66821904D01*
X61354580Y-66821904D02*
X61402200Y-66869523D01*
X61402200Y-66869523D02*
X61449819Y-66964761D01*
X61449819Y-66964761D02*
X61449819Y-67202856D01*
X61449819Y-67202856D02*
X61402200Y-67298094D01*
X61402200Y-67298094D02*
X61354580Y-67345713D01*
X61129819Y-64011904D02*
X60129819Y-64011904D01*
X61129819Y-63440476D02*
X60558390Y-63869047D01*
X60129819Y-63440476D02*
X60701247Y-64011904D01*
X123254819Y-91761904D02*
X124064342Y-91761904D01*
X124064342Y-91761904D02*
X124159580Y-91714285D01*
X124159580Y-91714285D02*
X124207200Y-91666666D01*
X124207200Y-91666666D02*
X124254819Y-91571428D01*
X124254819Y-91571428D02*
X124254819Y-91380952D01*
X124254819Y-91380952D02*
X124207200Y-91285714D01*
X124207200Y-91285714D02*
X124159580Y-91238095D01*
X124159580Y-91238095D02*
X124064342Y-91190476D01*
X124064342Y-91190476D02*
X123254819Y-91190476D01*
X124254819Y-90190476D02*
X124254819Y-90761904D01*
X124254819Y-90476190D02*
X123254819Y-90476190D01*
X123254819Y-90476190D02*
X123397676Y-90571428D01*
X123397676Y-90571428D02*
X123492914Y-90666666D01*
X123492914Y-90666666D02*
X123540533Y-90761904D01*
X74519819Y-54108094D02*
X73519819Y-54108094D01*
X73519819Y-54108094D02*
X73519819Y-53869999D01*
X73519819Y-53869999D02*
X73567438Y-53727142D01*
X73567438Y-53727142D02*
X73662676Y-53631904D01*
X73662676Y-53631904D02*
X73757914Y-53584285D01*
X73757914Y-53584285D02*
X73948390Y-53536666D01*
X73948390Y-53536666D02*
X74091247Y-53536666D01*
X74091247Y-53536666D02*
X74281723Y-53584285D01*
X74281723Y-53584285D02*
X74376961Y-53631904D01*
X74376961Y-53631904D02*
X74472200Y-53727142D01*
X74472200Y-53727142D02*
X74519819Y-53869999D01*
X74519819Y-53869999D02*
X74519819Y-54108094D01*
X73948390Y-52965237D02*
X73900771Y-53060475D01*
X73900771Y-53060475D02*
X73853152Y-53108094D01*
X73853152Y-53108094D02*
X73757914Y-53155713D01*
X73757914Y-53155713D02*
X73710295Y-53155713D01*
X73710295Y-53155713D02*
X73615057Y-53108094D01*
X73615057Y-53108094D02*
X73567438Y-53060475D01*
X73567438Y-53060475D02*
X73519819Y-52965237D01*
X73519819Y-52965237D02*
X73519819Y-52774761D01*
X73519819Y-52774761D02*
X73567438Y-52679523D01*
X73567438Y-52679523D02*
X73615057Y-52631904D01*
X73615057Y-52631904D02*
X73710295Y-52584285D01*
X73710295Y-52584285D02*
X73757914Y-52584285D01*
X73757914Y-52584285D02*
X73853152Y-52631904D01*
X73853152Y-52631904D02*
X73900771Y-52679523D01*
X73900771Y-52679523D02*
X73948390Y-52774761D01*
X73948390Y-52774761D02*
X73948390Y-52965237D01*
X73948390Y-52965237D02*
X73996009Y-53060475D01*
X73996009Y-53060475D02*
X74043628Y-53108094D01*
X74043628Y-53108094D02*
X74138866Y-53155713D01*
X74138866Y-53155713D02*
X74329342Y-53155713D01*
X74329342Y-53155713D02*
X74424580Y-53108094D01*
X74424580Y-53108094D02*
X74472200Y-53060475D01*
X74472200Y-53060475D02*
X74519819Y-52965237D01*
X74519819Y-52965237D02*
X74519819Y-52774761D01*
X74519819Y-52774761D02*
X74472200Y-52679523D01*
X74472200Y-52679523D02*
X74424580Y-52631904D01*
X74424580Y-52631904D02*
X74329342Y-52584285D01*
X74329342Y-52584285D02*
X74138866Y-52584285D01*
X74138866Y-52584285D02*
X74043628Y-52631904D01*
X74043628Y-52631904D02*
X73996009Y-52679523D01*
X73996009Y-52679523D02*
X73948390Y-52774761D01*
X67739761Y-80190057D02*
X67644523Y-80142438D01*
X67644523Y-80142438D02*
X67549285Y-80047200D01*
X67549285Y-80047200D02*
X67406428Y-79904342D01*
X67406428Y-79904342D02*
X67311190Y-79856723D01*
X67311190Y-79856723D02*
X67215952Y-79856723D01*
X67263571Y-80094819D02*
X67168333Y-80047200D01*
X67168333Y-80047200D02*
X67073095Y-79951961D01*
X67073095Y-79951961D02*
X67025476Y-79761485D01*
X67025476Y-79761485D02*
X67025476Y-79428152D01*
X67025476Y-79428152D02*
X67073095Y-79237676D01*
X67073095Y-79237676D02*
X67168333Y-79142438D01*
X67168333Y-79142438D02*
X67263571Y-79094819D01*
X67263571Y-79094819D02*
X67454047Y-79094819D01*
X67454047Y-79094819D02*
X67549285Y-79142438D01*
X67549285Y-79142438D02*
X67644523Y-79237676D01*
X67644523Y-79237676D02*
X67692142Y-79428152D01*
X67692142Y-79428152D02*
X67692142Y-79761485D01*
X67692142Y-79761485D02*
X67644523Y-79951961D01*
X67644523Y-79951961D02*
X67549285Y-80047200D01*
X67549285Y-80047200D02*
X67454047Y-80094819D01*
X67454047Y-80094819D02*
X67263571Y-80094819D01*
X68025476Y-79094819D02*
X68644523Y-79094819D01*
X68644523Y-79094819D02*
X68311190Y-79475771D01*
X68311190Y-79475771D02*
X68454047Y-79475771D01*
X68454047Y-79475771D02*
X68549285Y-79523390D01*
X68549285Y-79523390D02*
X68596904Y-79571009D01*
X68596904Y-79571009D02*
X68644523Y-79666247D01*
X68644523Y-79666247D02*
X68644523Y-79904342D01*
X68644523Y-79904342D02*
X68596904Y-79999580D01*
X68596904Y-79999580D02*
X68549285Y-80047200D01*
X68549285Y-80047200D02*
X68454047Y-80094819D01*
X68454047Y-80094819D02*
X68168333Y-80094819D01*
X68168333Y-80094819D02*
X68073095Y-80047200D01*
X68073095Y-80047200D02*
X68025476Y-79999580D01*
X87519819Y-107036666D02*
X87043628Y-107369999D01*
X87519819Y-107608094D02*
X86519819Y-107608094D01*
X86519819Y-107608094D02*
X86519819Y-107227142D01*
X86519819Y-107227142D02*
X86567438Y-107131904D01*
X86567438Y-107131904D02*
X86615057Y-107084285D01*
X86615057Y-107084285D02*
X86710295Y-107036666D01*
X86710295Y-107036666D02*
X86853152Y-107036666D01*
X86853152Y-107036666D02*
X86948390Y-107084285D01*
X86948390Y-107084285D02*
X86996009Y-107131904D01*
X86996009Y-107131904D02*
X87043628Y-107227142D01*
X87043628Y-107227142D02*
X87043628Y-107608094D01*
X86519819Y-106703332D02*
X86519819Y-106036666D01*
X86519819Y-106036666D02*
X87519819Y-106465237D01*
X73129819Y-64011904D02*
X72129819Y-64011904D01*
X73129819Y-63440476D02*
X72558390Y-63869047D01*
X72129819Y-63440476D02*
X72701247Y-64011904D01*
X60689819Y-118131904D02*
X61499342Y-118131904D01*
X61499342Y-118131904D02*
X61594580Y-118084285D01*
X61594580Y-118084285D02*
X61642200Y-118036666D01*
X61642200Y-118036666D02*
X61689819Y-117941428D01*
X61689819Y-117941428D02*
X61689819Y-117750952D01*
X61689819Y-117750952D02*
X61642200Y-117655714D01*
X61642200Y-117655714D02*
X61594580Y-117608095D01*
X61594580Y-117608095D02*
X61499342Y-117560476D01*
X61499342Y-117560476D02*
X60689819Y-117560476D01*
X60785057Y-117131904D02*
X60737438Y-117084285D01*
X60737438Y-117084285D02*
X60689819Y-116989047D01*
X60689819Y-116989047D02*
X60689819Y-116750952D01*
X60689819Y-116750952D02*
X60737438Y-116655714D01*
X60737438Y-116655714D02*
X60785057Y-116608095D01*
X60785057Y-116608095D02*
X60880295Y-116560476D01*
X60880295Y-116560476D02*
X60975533Y-116560476D01*
X60975533Y-116560476D02*
X61118390Y-116608095D01*
X61118390Y-116608095D02*
X61689819Y-117179523D01*
X61689819Y-117179523D02*
X61689819Y-116560476D01*
X90019819Y-69382857D02*
X89543628Y-69716190D01*
X90019819Y-69954285D02*
X89019819Y-69954285D01*
X89019819Y-69954285D02*
X89019819Y-69573333D01*
X89019819Y-69573333D02*
X89067438Y-69478095D01*
X89067438Y-69478095D02*
X89115057Y-69430476D01*
X89115057Y-69430476D02*
X89210295Y-69382857D01*
X89210295Y-69382857D02*
X89353152Y-69382857D01*
X89353152Y-69382857D02*
X89448390Y-69430476D01*
X89448390Y-69430476D02*
X89496009Y-69478095D01*
X89496009Y-69478095D02*
X89543628Y-69573333D01*
X89543628Y-69573333D02*
X89543628Y-69954285D01*
X90019819Y-68430476D02*
X90019819Y-69001904D01*
X90019819Y-68716190D02*
X89019819Y-68716190D01*
X89019819Y-68716190D02*
X89162676Y-68811428D01*
X89162676Y-68811428D02*
X89257914Y-68906666D01*
X89257914Y-68906666D02*
X89305533Y-69001904D01*
X89019819Y-67811428D02*
X89019819Y-67716190D01*
X89019819Y-67716190D02*
X89067438Y-67620952D01*
X89067438Y-67620952D02*
X89115057Y-67573333D01*
X89115057Y-67573333D02*
X89210295Y-67525714D01*
X89210295Y-67525714D02*
X89400771Y-67478095D01*
X89400771Y-67478095D02*
X89638866Y-67478095D01*
X89638866Y-67478095D02*
X89829342Y-67525714D01*
X89829342Y-67525714D02*
X89924580Y-67573333D01*
X89924580Y-67573333D02*
X89972200Y-67620952D01*
X89972200Y-67620952D02*
X90019819Y-67716190D01*
X90019819Y-67716190D02*
X90019819Y-67811428D01*
X90019819Y-67811428D02*
X89972200Y-67906666D01*
X89972200Y-67906666D02*
X89924580Y-67954285D01*
X89924580Y-67954285D02*
X89829342Y-68001904D01*
X89829342Y-68001904D02*
X89638866Y-68049523D01*
X89638866Y-68049523D02*
X89400771Y-68049523D01*
X89400771Y-68049523D02*
X89210295Y-68001904D01*
X89210295Y-68001904D02*
X89115057Y-67954285D01*
X89115057Y-67954285D02*
X89067438Y-67906666D01*
X89067438Y-67906666D02*
X89019819Y-67811428D01*
X51604819Y-64166666D02*
X51128628Y-64499999D01*
X51604819Y-64738094D02*
X50604819Y-64738094D01*
X50604819Y-64738094D02*
X50604819Y-64357142D01*
X50604819Y-64357142D02*
X50652438Y-64261904D01*
X50652438Y-64261904D02*
X50700057Y-64214285D01*
X50700057Y-64214285D02*
X50795295Y-64166666D01*
X50795295Y-64166666D02*
X50938152Y-64166666D01*
X50938152Y-64166666D02*
X51033390Y-64214285D01*
X51033390Y-64214285D02*
X51081009Y-64261904D01*
X51081009Y-64261904D02*
X51128628Y-64357142D01*
X51128628Y-64357142D02*
X51128628Y-64738094D01*
X50604819Y-63261904D02*
X50604819Y-63738094D01*
X50604819Y-63738094D02*
X51081009Y-63785713D01*
X51081009Y-63785713D02*
X51033390Y-63738094D01*
X51033390Y-63738094D02*
X50985771Y-63642856D01*
X50985771Y-63642856D02*
X50985771Y-63404761D01*
X50985771Y-63404761D02*
X51033390Y-63309523D01*
X51033390Y-63309523D02*
X51081009Y-63261904D01*
X51081009Y-63261904D02*
X51176247Y-63214285D01*
X51176247Y-63214285D02*
X51414342Y-63214285D01*
X51414342Y-63214285D02*
X51509580Y-63261904D01*
X51509580Y-63261904D02*
X51557200Y-63309523D01*
X51557200Y-63309523D02*
X51604819Y-63404761D01*
X51604819Y-63404761D02*
X51604819Y-63642856D01*
X51604819Y-63642856D02*
X51557200Y-63738094D01*
X51557200Y-63738094D02*
X51509580Y-63785713D01*
X56739761Y-102190057D02*
X56644523Y-102142438D01*
X56644523Y-102142438D02*
X56549285Y-102047200D01*
X56549285Y-102047200D02*
X56406428Y-101904342D01*
X56406428Y-101904342D02*
X56311190Y-101856723D01*
X56311190Y-101856723D02*
X56215952Y-101856723D01*
X56263571Y-102094819D02*
X56168333Y-102047200D01*
X56168333Y-102047200D02*
X56073095Y-101951961D01*
X56073095Y-101951961D02*
X56025476Y-101761485D01*
X56025476Y-101761485D02*
X56025476Y-101428152D01*
X56025476Y-101428152D02*
X56073095Y-101237676D01*
X56073095Y-101237676D02*
X56168333Y-101142438D01*
X56168333Y-101142438D02*
X56263571Y-101094819D01*
X56263571Y-101094819D02*
X56454047Y-101094819D01*
X56454047Y-101094819D02*
X56549285Y-101142438D01*
X56549285Y-101142438D02*
X56644523Y-101237676D01*
X56644523Y-101237676D02*
X56692142Y-101428152D01*
X56692142Y-101428152D02*
X56692142Y-101761485D01*
X56692142Y-101761485D02*
X56644523Y-101951961D01*
X56644523Y-101951961D02*
X56549285Y-102047200D01*
X56549285Y-102047200D02*
X56454047Y-102094819D01*
X56454047Y-102094819D02*
X56263571Y-102094819D01*
X57644523Y-102094819D02*
X57073095Y-102094819D01*
X57358809Y-102094819D02*
X57358809Y-101094819D01*
X57358809Y-101094819D02*
X57263571Y-101237676D01*
X57263571Y-101237676D02*
X57168333Y-101332914D01*
X57168333Y-101332914D02*
X57073095Y-101380533D01*
X87484580Y-92327857D02*
X87532200Y-92375476D01*
X87532200Y-92375476D02*
X87579819Y-92518333D01*
X87579819Y-92518333D02*
X87579819Y-92613571D01*
X87579819Y-92613571D02*
X87532200Y-92756428D01*
X87532200Y-92756428D02*
X87436961Y-92851666D01*
X87436961Y-92851666D02*
X87341723Y-92899285D01*
X87341723Y-92899285D02*
X87151247Y-92946904D01*
X87151247Y-92946904D02*
X87008390Y-92946904D01*
X87008390Y-92946904D02*
X86817914Y-92899285D01*
X86817914Y-92899285D02*
X86722676Y-92851666D01*
X86722676Y-92851666D02*
X86627438Y-92756428D01*
X86627438Y-92756428D02*
X86579819Y-92613571D01*
X86579819Y-92613571D02*
X86579819Y-92518333D01*
X86579819Y-92518333D02*
X86627438Y-92375476D01*
X86627438Y-92375476D02*
X86675057Y-92327857D01*
X87579819Y-91375476D02*
X87579819Y-91946904D01*
X87579819Y-91661190D02*
X86579819Y-91661190D01*
X86579819Y-91661190D02*
X86722676Y-91756428D01*
X86722676Y-91756428D02*
X86817914Y-91851666D01*
X86817914Y-91851666D02*
X86865533Y-91946904D01*
X86675057Y-90994523D02*
X86627438Y-90946904D01*
X86627438Y-90946904D02*
X86579819Y-90851666D01*
X86579819Y-90851666D02*
X86579819Y-90613571D01*
X86579819Y-90613571D02*
X86627438Y-90518333D01*
X86627438Y-90518333D02*
X86675057Y-90470714D01*
X86675057Y-90470714D02*
X86770295Y-90423095D01*
X86770295Y-90423095D02*
X86865533Y-90423095D01*
X86865533Y-90423095D02*
X87008390Y-90470714D01*
X87008390Y-90470714D02*
X87579819Y-91042142D01*
X87579819Y-91042142D02*
X87579819Y-90423095D01*
X96789819Y-67954285D02*
X95789819Y-67954285D01*
X95789819Y-67954285D02*
X95789819Y-67716190D01*
X95789819Y-67716190D02*
X95837438Y-67573333D01*
X95837438Y-67573333D02*
X95932676Y-67478095D01*
X95932676Y-67478095D02*
X96027914Y-67430476D01*
X96027914Y-67430476D02*
X96218390Y-67382857D01*
X96218390Y-67382857D02*
X96361247Y-67382857D01*
X96361247Y-67382857D02*
X96551723Y-67430476D01*
X96551723Y-67430476D02*
X96646961Y-67478095D01*
X96646961Y-67478095D02*
X96742200Y-67573333D01*
X96742200Y-67573333D02*
X96789819Y-67716190D01*
X96789819Y-67716190D02*
X96789819Y-67954285D01*
X96789819Y-66430476D02*
X96789819Y-67001904D01*
X96789819Y-66716190D02*
X95789819Y-66716190D01*
X95789819Y-66716190D02*
X95932676Y-66811428D01*
X95932676Y-66811428D02*
X96027914Y-66906666D01*
X96027914Y-66906666D02*
X96075533Y-67001904D01*
X95885057Y-66049523D02*
X95837438Y-66001904D01*
X95837438Y-66001904D02*
X95789819Y-65906666D01*
X95789819Y-65906666D02*
X95789819Y-65668571D01*
X95789819Y-65668571D02*
X95837438Y-65573333D01*
X95837438Y-65573333D02*
X95885057Y-65525714D01*
X95885057Y-65525714D02*
X95980295Y-65478095D01*
X95980295Y-65478095D02*
X96075533Y-65478095D01*
X96075533Y-65478095D02*
X96218390Y-65525714D01*
X96218390Y-65525714D02*
X96789819Y-66097142D01*
X96789819Y-66097142D02*
X96789819Y-65478095D01*
X113834819Y-72588094D02*
X112834819Y-72588094D01*
X112834819Y-72588094D02*
X112834819Y-72349999D01*
X112834819Y-72349999D02*
X112882438Y-72207142D01*
X112882438Y-72207142D02*
X112977676Y-72111904D01*
X112977676Y-72111904D02*
X113072914Y-72064285D01*
X113072914Y-72064285D02*
X113263390Y-72016666D01*
X113263390Y-72016666D02*
X113406247Y-72016666D01*
X113406247Y-72016666D02*
X113596723Y-72064285D01*
X113596723Y-72064285D02*
X113691961Y-72111904D01*
X113691961Y-72111904D02*
X113787200Y-72207142D01*
X113787200Y-72207142D02*
X113834819Y-72349999D01*
X113834819Y-72349999D02*
X113834819Y-72588094D01*
X113834819Y-71064285D02*
X113834819Y-71635713D01*
X113834819Y-71349999D02*
X112834819Y-71349999D01*
X112834819Y-71349999D02*
X112977676Y-71445237D01*
X112977676Y-71445237D02*
X113072914Y-71540475D01*
X113072914Y-71540475D02*
X113120533Y-71635713D01*
X119869104Y-69548094D02*
X119869104Y-69071904D01*
X120154819Y-69643332D02*
X119154819Y-69309999D01*
X119154819Y-69309999D02*
X120154819Y-68976666D01*
X104119761Y-94965057D02*
X104024523Y-94917438D01*
X104024523Y-94917438D02*
X103929285Y-94822200D01*
X103929285Y-94822200D02*
X103786428Y-94679342D01*
X103786428Y-94679342D02*
X103691190Y-94631723D01*
X103691190Y-94631723D02*
X103595952Y-94631723D01*
X103643571Y-94869819D02*
X103548333Y-94822200D01*
X103548333Y-94822200D02*
X103453095Y-94726961D01*
X103453095Y-94726961D02*
X103405476Y-94536485D01*
X103405476Y-94536485D02*
X103405476Y-94203152D01*
X103405476Y-94203152D02*
X103453095Y-94012676D01*
X103453095Y-94012676D02*
X103548333Y-93917438D01*
X103548333Y-93917438D02*
X103643571Y-93869819D01*
X103643571Y-93869819D02*
X103834047Y-93869819D01*
X103834047Y-93869819D02*
X103929285Y-93917438D01*
X103929285Y-93917438D02*
X104024523Y-94012676D01*
X104024523Y-94012676D02*
X104072142Y-94203152D01*
X104072142Y-94203152D02*
X104072142Y-94536485D01*
X104072142Y-94536485D02*
X104024523Y-94726961D01*
X104024523Y-94726961D02*
X103929285Y-94822200D01*
X103929285Y-94822200D02*
X103834047Y-94869819D01*
X103834047Y-94869819D02*
X103643571Y-94869819D01*
X104929285Y-93869819D02*
X104738809Y-93869819D01*
X104738809Y-93869819D02*
X104643571Y-93917438D01*
X104643571Y-93917438D02*
X104595952Y-93965057D01*
X104595952Y-93965057D02*
X104500714Y-94107914D01*
X104500714Y-94107914D02*
X104453095Y-94298390D01*
X104453095Y-94298390D02*
X104453095Y-94679342D01*
X104453095Y-94679342D02*
X104500714Y-94774580D01*
X104500714Y-94774580D02*
X104548333Y-94822200D01*
X104548333Y-94822200D02*
X104643571Y-94869819D01*
X104643571Y-94869819D02*
X104834047Y-94869819D01*
X104834047Y-94869819D02*
X104929285Y-94822200D01*
X104929285Y-94822200D02*
X104976904Y-94774580D01*
X104976904Y-94774580D02*
X105024523Y-94679342D01*
X105024523Y-94679342D02*
X105024523Y-94441247D01*
X105024523Y-94441247D02*
X104976904Y-94346009D01*
X104976904Y-94346009D02*
X104929285Y-94298390D01*
X104929285Y-94298390D02*
X104834047Y-94250771D01*
X104834047Y-94250771D02*
X104643571Y-94250771D01*
X104643571Y-94250771D02*
X104548333Y-94298390D01*
X104548333Y-94298390D02*
X104500714Y-94346009D01*
X104500714Y-94346009D02*
X104453095Y-94441247D01*
X112544580Y-115770357D02*
X112592200Y-115817976D01*
X112592200Y-115817976D02*
X112639819Y-115960833D01*
X112639819Y-115960833D02*
X112639819Y-116056071D01*
X112639819Y-116056071D02*
X112592200Y-116198928D01*
X112592200Y-116198928D02*
X112496961Y-116294166D01*
X112496961Y-116294166D02*
X112401723Y-116341785D01*
X112401723Y-116341785D02*
X112211247Y-116389404D01*
X112211247Y-116389404D02*
X112068390Y-116389404D01*
X112068390Y-116389404D02*
X111877914Y-116341785D01*
X111877914Y-116341785D02*
X111782676Y-116294166D01*
X111782676Y-116294166D02*
X111687438Y-116198928D01*
X111687438Y-116198928D02*
X111639819Y-116056071D01*
X111639819Y-116056071D02*
X111639819Y-115960833D01*
X111639819Y-115960833D02*
X111687438Y-115817976D01*
X111687438Y-115817976D02*
X111735057Y-115770357D01*
X112639819Y-114817976D02*
X112639819Y-115389404D01*
X112639819Y-115103690D02*
X111639819Y-115103690D01*
X111639819Y-115103690D02*
X111782676Y-115198928D01*
X111782676Y-115198928D02*
X111877914Y-115294166D01*
X111877914Y-115294166D02*
X111925533Y-115389404D01*
X111639819Y-114198928D02*
X111639819Y-114103690D01*
X111639819Y-114103690D02*
X111687438Y-114008452D01*
X111687438Y-114008452D02*
X111735057Y-113960833D01*
X111735057Y-113960833D02*
X111830295Y-113913214D01*
X111830295Y-113913214D02*
X112020771Y-113865595D01*
X112020771Y-113865595D02*
X112258866Y-113865595D01*
X112258866Y-113865595D02*
X112449342Y-113913214D01*
X112449342Y-113913214D02*
X112544580Y-113960833D01*
X112544580Y-113960833D02*
X112592200Y-114008452D01*
X112592200Y-114008452D02*
X112639819Y-114103690D01*
X112639819Y-114103690D02*
X112639819Y-114198928D01*
X112639819Y-114198928D02*
X112592200Y-114294166D01*
X112592200Y-114294166D02*
X112544580Y-114341785D01*
X112544580Y-114341785D02*
X112449342Y-114389404D01*
X112449342Y-114389404D02*
X112258866Y-114437023D01*
X112258866Y-114437023D02*
X112020771Y-114437023D01*
X112020771Y-114437023D02*
X111830295Y-114389404D01*
X111830295Y-114389404D02*
X111735057Y-114341785D01*
X111735057Y-114341785D02*
X111687438Y-114294166D01*
X111687438Y-114294166D02*
X111639819Y-114198928D01*
X103519819Y-55084285D02*
X102519819Y-55084285D01*
X102519819Y-55084285D02*
X102519819Y-54846190D01*
X102519819Y-54846190D02*
X102567438Y-54703333D01*
X102567438Y-54703333D02*
X102662676Y-54608095D01*
X102662676Y-54608095D02*
X102757914Y-54560476D01*
X102757914Y-54560476D02*
X102948390Y-54512857D01*
X102948390Y-54512857D02*
X103091247Y-54512857D01*
X103091247Y-54512857D02*
X103281723Y-54560476D01*
X103281723Y-54560476D02*
X103376961Y-54608095D01*
X103376961Y-54608095D02*
X103472200Y-54703333D01*
X103472200Y-54703333D02*
X103519819Y-54846190D01*
X103519819Y-54846190D02*
X103519819Y-55084285D01*
X103519819Y-53560476D02*
X103519819Y-54131904D01*
X103519819Y-53846190D02*
X102519819Y-53846190D01*
X102519819Y-53846190D02*
X102662676Y-53941428D01*
X102662676Y-53941428D02*
X102757914Y-54036666D01*
X102757914Y-54036666D02*
X102805533Y-54131904D01*
X102519819Y-53227142D02*
X102519819Y-52608095D01*
X102519819Y-52608095D02*
X102900771Y-52941428D01*
X102900771Y-52941428D02*
X102900771Y-52798571D01*
X102900771Y-52798571D02*
X102948390Y-52703333D01*
X102948390Y-52703333D02*
X102996009Y-52655714D01*
X102996009Y-52655714D02*
X103091247Y-52608095D01*
X103091247Y-52608095D02*
X103329342Y-52608095D01*
X103329342Y-52608095D02*
X103424580Y-52655714D01*
X103424580Y-52655714D02*
X103472200Y-52703333D01*
X103472200Y-52703333D02*
X103519819Y-52798571D01*
X103519819Y-52798571D02*
X103519819Y-53084285D01*
X103519819Y-53084285D02*
X103472200Y-53179523D01*
X103472200Y-53179523D02*
X103424580Y-53227142D01*
X77666666Y-78334819D02*
X77666666Y-79049104D01*
X77666666Y-79049104D02*
X77619047Y-79191961D01*
X77619047Y-79191961D02*
X77523809Y-79287200D01*
X77523809Y-79287200D02*
X77380952Y-79334819D01*
X77380952Y-79334819D02*
X77285714Y-79334819D01*
X78666666Y-79334819D02*
X78095238Y-79334819D01*
X78380952Y-79334819D02*
X78380952Y-78334819D01*
X78380952Y-78334819D02*
X78285714Y-78477676D01*
X78285714Y-78477676D02*
X78190476Y-78572914D01*
X78190476Y-78572914D02*
X78095238Y-78620533D01*
X110544580Y-115770357D02*
X110592200Y-115817976D01*
X110592200Y-115817976D02*
X110639819Y-115960833D01*
X110639819Y-115960833D02*
X110639819Y-116056071D01*
X110639819Y-116056071D02*
X110592200Y-116198928D01*
X110592200Y-116198928D02*
X110496961Y-116294166D01*
X110496961Y-116294166D02*
X110401723Y-116341785D01*
X110401723Y-116341785D02*
X110211247Y-116389404D01*
X110211247Y-116389404D02*
X110068390Y-116389404D01*
X110068390Y-116389404D02*
X109877914Y-116341785D01*
X109877914Y-116341785D02*
X109782676Y-116294166D01*
X109782676Y-116294166D02*
X109687438Y-116198928D01*
X109687438Y-116198928D02*
X109639819Y-116056071D01*
X109639819Y-116056071D02*
X109639819Y-115960833D01*
X109639819Y-115960833D02*
X109687438Y-115817976D01*
X109687438Y-115817976D02*
X109735057Y-115770357D01*
X110639819Y-114817976D02*
X110639819Y-115389404D01*
X110639819Y-115103690D02*
X109639819Y-115103690D01*
X109639819Y-115103690D02*
X109782676Y-115198928D01*
X109782676Y-115198928D02*
X109877914Y-115294166D01*
X109877914Y-115294166D02*
X109925533Y-115389404D01*
X109639819Y-114484642D02*
X109639819Y-113865595D01*
X109639819Y-113865595D02*
X110020771Y-114198928D01*
X110020771Y-114198928D02*
X110020771Y-114056071D01*
X110020771Y-114056071D02*
X110068390Y-113960833D01*
X110068390Y-113960833D02*
X110116009Y-113913214D01*
X110116009Y-113913214D02*
X110211247Y-113865595D01*
X110211247Y-113865595D02*
X110449342Y-113865595D01*
X110449342Y-113865595D02*
X110544580Y-113913214D01*
X110544580Y-113913214D02*
X110592200Y-113960833D01*
X110592200Y-113960833D02*
X110639819Y-114056071D01*
X110639819Y-114056071D02*
X110639819Y-114341785D01*
X110639819Y-114341785D02*
X110592200Y-114437023D01*
X110592200Y-114437023D02*
X110544580Y-114484642D01*
X94557319Y-88899285D02*
X93557319Y-88899285D01*
X93557319Y-88899285D02*
X94271604Y-88565952D01*
X94271604Y-88565952D02*
X93557319Y-88232619D01*
X93557319Y-88232619D02*
X94557319Y-88232619D01*
X93557319Y-87565952D02*
X93557319Y-87375476D01*
X93557319Y-87375476D02*
X93604938Y-87280238D01*
X93604938Y-87280238D02*
X93700176Y-87185000D01*
X93700176Y-87185000D02*
X93890652Y-87137381D01*
X93890652Y-87137381D02*
X94223985Y-87137381D01*
X94223985Y-87137381D02*
X94414461Y-87185000D01*
X94414461Y-87185000D02*
X94509700Y-87280238D01*
X94509700Y-87280238D02*
X94557319Y-87375476D01*
X94557319Y-87375476D02*
X94557319Y-87565952D01*
X94557319Y-87565952D02*
X94509700Y-87661190D01*
X94509700Y-87661190D02*
X94414461Y-87756428D01*
X94414461Y-87756428D02*
X94223985Y-87804047D01*
X94223985Y-87804047D02*
X93890652Y-87804047D01*
X93890652Y-87804047D02*
X93700176Y-87756428D01*
X93700176Y-87756428D02*
X93604938Y-87661190D01*
X93604938Y-87661190D02*
X93557319Y-87565952D01*
X93557319Y-86851666D02*
X93557319Y-86280238D01*
X94557319Y-86565952D02*
X93557319Y-86565952D01*
X93652557Y-85994523D02*
X93604938Y-85946904D01*
X93604938Y-85946904D02*
X93557319Y-85851666D01*
X93557319Y-85851666D02*
X93557319Y-85613571D01*
X93557319Y-85613571D02*
X93604938Y-85518333D01*
X93604938Y-85518333D02*
X93652557Y-85470714D01*
X93652557Y-85470714D02*
X93747795Y-85423095D01*
X93747795Y-85423095D02*
X93843033Y-85423095D01*
X93843033Y-85423095D02*
X93985890Y-85470714D01*
X93985890Y-85470714D02*
X94557319Y-86042142D01*
X94557319Y-86042142D02*
X94557319Y-85423095D01*
X60829819Y-120608094D02*
X59829819Y-120608094D01*
X59829819Y-120608094D02*
X59829819Y-120369999D01*
X59829819Y-120369999D02*
X59877438Y-120227142D01*
X59877438Y-120227142D02*
X59972676Y-120131904D01*
X59972676Y-120131904D02*
X60067914Y-120084285D01*
X60067914Y-120084285D02*
X60258390Y-120036666D01*
X60258390Y-120036666D02*
X60401247Y-120036666D01*
X60401247Y-120036666D02*
X60591723Y-120084285D01*
X60591723Y-120084285D02*
X60686961Y-120131904D01*
X60686961Y-120131904D02*
X60782200Y-120227142D01*
X60782200Y-120227142D02*
X60829819Y-120369999D01*
X60829819Y-120369999D02*
X60829819Y-120608094D01*
X59829819Y-119703332D02*
X59829819Y-119036666D01*
X59829819Y-119036666D02*
X60829819Y-119465237D01*
X66708333Y-109324819D02*
X66375000Y-108848628D01*
X66136905Y-109324819D02*
X66136905Y-108324819D01*
X66136905Y-108324819D02*
X66517857Y-108324819D01*
X66517857Y-108324819D02*
X66613095Y-108372438D01*
X66613095Y-108372438D02*
X66660714Y-108420057D01*
X66660714Y-108420057D02*
X66708333Y-108515295D01*
X66708333Y-108515295D02*
X66708333Y-108658152D01*
X66708333Y-108658152D02*
X66660714Y-108753390D01*
X66660714Y-108753390D02*
X66613095Y-108801009D01*
X66613095Y-108801009D02*
X66517857Y-108848628D01*
X66517857Y-108848628D02*
X66136905Y-108848628D01*
X67041667Y-108324819D02*
X67660714Y-108324819D01*
X67660714Y-108324819D02*
X67327381Y-108705771D01*
X67327381Y-108705771D02*
X67470238Y-108705771D01*
X67470238Y-108705771D02*
X67565476Y-108753390D01*
X67565476Y-108753390D02*
X67613095Y-108801009D01*
X67613095Y-108801009D02*
X67660714Y-108896247D01*
X67660714Y-108896247D02*
X67660714Y-109134342D01*
X67660714Y-109134342D02*
X67613095Y-109229580D01*
X67613095Y-109229580D02*
X67565476Y-109277200D01*
X67565476Y-109277200D02*
X67470238Y-109324819D01*
X67470238Y-109324819D02*
X67184524Y-109324819D01*
X67184524Y-109324819D02*
X67089286Y-109277200D01*
X67089286Y-109277200D02*
X67041667Y-109229580D01*
X72529761Y-95387557D02*
X72434523Y-95339938D01*
X72434523Y-95339938D02*
X72339285Y-95244700D01*
X72339285Y-95244700D02*
X72196428Y-95101842D01*
X72196428Y-95101842D02*
X72101190Y-95054223D01*
X72101190Y-95054223D02*
X72005952Y-95054223D01*
X72053571Y-95292319D02*
X71958333Y-95244700D01*
X71958333Y-95244700D02*
X71863095Y-95149461D01*
X71863095Y-95149461D02*
X71815476Y-94958985D01*
X71815476Y-94958985D02*
X71815476Y-94625652D01*
X71815476Y-94625652D02*
X71863095Y-94435176D01*
X71863095Y-94435176D02*
X71958333Y-94339938D01*
X71958333Y-94339938D02*
X72053571Y-94292319D01*
X72053571Y-94292319D02*
X72244047Y-94292319D01*
X72244047Y-94292319D02*
X72339285Y-94339938D01*
X72339285Y-94339938D02*
X72434523Y-94435176D01*
X72434523Y-94435176D02*
X72482142Y-94625652D01*
X72482142Y-94625652D02*
X72482142Y-94958985D01*
X72482142Y-94958985D02*
X72434523Y-95149461D01*
X72434523Y-95149461D02*
X72339285Y-95244700D01*
X72339285Y-95244700D02*
X72244047Y-95292319D01*
X72244047Y-95292319D02*
X72053571Y-95292319D01*
X72863095Y-94387557D02*
X72910714Y-94339938D01*
X72910714Y-94339938D02*
X73005952Y-94292319D01*
X73005952Y-94292319D02*
X73244047Y-94292319D01*
X73244047Y-94292319D02*
X73339285Y-94339938D01*
X73339285Y-94339938D02*
X73386904Y-94387557D01*
X73386904Y-94387557D02*
X73434523Y-94482795D01*
X73434523Y-94482795D02*
X73434523Y-94578033D01*
X73434523Y-94578033D02*
X73386904Y-94720890D01*
X73386904Y-94720890D02*
X72815476Y-95292319D01*
X72815476Y-95292319D02*
X73434523Y-95292319D01*
X104019819Y-107536666D02*
X103543628Y-107869999D01*
X104019819Y-108108094D02*
X103019819Y-108108094D01*
X103019819Y-108108094D02*
X103019819Y-107727142D01*
X103019819Y-107727142D02*
X103067438Y-107631904D01*
X103067438Y-107631904D02*
X103115057Y-107584285D01*
X103115057Y-107584285D02*
X103210295Y-107536666D01*
X103210295Y-107536666D02*
X103353152Y-107536666D01*
X103353152Y-107536666D02*
X103448390Y-107584285D01*
X103448390Y-107584285D02*
X103496009Y-107631904D01*
X103496009Y-107631904D02*
X103543628Y-107727142D01*
X103543628Y-107727142D02*
X103543628Y-108108094D01*
X103019819Y-106679523D02*
X103019819Y-106869999D01*
X103019819Y-106869999D02*
X103067438Y-106965237D01*
X103067438Y-106965237D02*
X103115057Y-107012856D01*
X103115057Y-107012856D02*
X103257914Y-107108094D01*
X103257914Y-107108094D02*
X103448390Y-107155713D01*
X103448390Y-107155713D02*
X103829342Y-107155713D01*
X103829342Y-107155713D02*
X103924580Y-107108094D01*
X103924580Y-107108094D02*
X103972200Y-107060475D01*
X103972200Y-107060475D02*
X104019819Y-106965237D01*
X104019819Y-106965237D02*
X104019819Y-106774761D01*
X104019819Y-106774761D02*
X103972200Y-106679523D01*
X103972200Y-106679523D02*
X103924580Y-106631904D01*
X103924580Y-106631904D02*
X103829342Y-106584285D01*
X103829342Y-106584285D02*
X103591247Y-106584285D01*
X103591247Y-106584285D02*
X103496009Y-106631904D01*
X103496009Y-106631904D02*
X103448390Y-106679523D01*
X103448390Y-106679523D02*
X103400771Y-106774761D01*
X103400771Y-106774761D02*
X103400771Y-106965237D01*
X103400771Y-106965237D02*
X103448390Y-107060475D01*
X103448390Y-107060475D02*
X103496009Y-107108094D01*
X103496009Y-107108094D02*
X103591247Y-107155713D01*
X87044580Y-56957857D02*
X87092200Y-57005476D01*
X87092200Y-57005476D02*
X87139819Y-57148333D01*
X87139819Y-57148333D02*
X87139819Y-57243571D01*
X87139819Y-57243571D02*
X87092200Y-57386428D01*
X87092200Y-57386428D02*
X86996961Y-57481666D01*
X86996961Y-57481666D02*
X86901723Y-57529285D01*
X86901723Y-57529285D02*
X86711247Y-57576904D01*
X86711247Y-57576904D02*
X86568390Y-57576904D01*
X86568390Y-57576904D02*
X86377914Y-57529285D01*
X86377914Y-57529285D02*
X86282676Y-57481666D01*
X86282676Y-57481666D02*
X86187438Y-57386428D01*
X86187438Y-57386428D02*
X86139819Y-57243571D01*
X86139819Y-57243571D02*
X86139819Y-57148333D01*
X86139819Y-57148333D02*
X86187438Y-57005476D01*
X86187438Y-57005476D02*
X86235057Y-56957857D01*
X87139819Y-56005476D02*
X87139819Y-56576904D01*
X87139819Y-56291190D02*
X86139819Y-56291190D01*
X86139819Y-56291190D02*
X86282676Y-56386428D01*
X86282676Y-56386428D02*
X86377914Y-56481666D01*
X86377914Y-56481666D02*
X86425533Y-56576904D01*
X86139819Y-55100714D02*
X86139819Y-55576904D01*
X86139819Y-55576904D02*
X86616009Y-55624523D01*
X86616009Y-55624523D02*
X86568390Y-55576904D01*
X86568390Y-55576904D02*
X86520771Y-55481666D01*
X86520771Y-55481666D02*
X86520771Y-55243571D01*
X86520771Y-55243571D02*
X86568390Y-55148333D01*
X86568390Y-55148333D02*
X86616009Y-55100714D01*
X86616009Y-55100714D02*
X86711247Y-55053095D01*
X86711247Y-55053095D02*
X86949342Y-55053095D01*
X86949342Y-55053095D02*
X87044580Y-55100714D01*
X87044580Y-55100714D02*
X87092200Y-55148333D01*
X87092200Y-55148333D02*
X87139819Y-55243571D01*
X87139819Y-55243571D02*
X87139819Y-55481666D01*
X87139819Y-55481666D02*
X87092200Y-55576904D01*
X87092200Y-55576904D02*
X87044580Y-55624523D01*
X92699761Y-94965057D02*
X92604523Y-94917438D01*
X92604523Y-94917438D02*
X92509285Y-94822200D01*
X92509285Y-94822200D02*
X92366428Y-94679342D01*
X92366428Y-94679342D02*
X92271190Y-94631723D01*
X92271190Y-94631723D02*
X92175952Y-94631723D01*
X92223571Y-94869819D02*
X92128333Y-94822200D01*
X92128333Y-94822200D02*
X92033095Y-94726961D01*
X92033095Y-94726961D02*
X91985476Y-94536485D01*
X91985476Y-94536485D02*
X91985476Y-94203152D01*
X91985476Y-94203152D02*
X92033095Y-94012676D01*
X92033095Y-94012676D02*
X92128333Y-93917438D01*
X92128333Y-93917438D02*
X92223571Y-93869819D01*
X92223571Y-93869819D02*
X92414047Y-93869819D01*
X92414047Y-93869819D02*
X92509285Y-93917438D01*
X92509285Y-93917438D02*
X92604523Y-94012676D01*
X92604523Y-94012676D02*
X92652142Y-94203152D01*
X92652142Y-94203152D02*
X92652142Y-94536485D01*
X92652142Y-94536485D02*
X92604523Y-94726961D01*
X92604523Y-94726961D02*
X92509285Y-94822200D01*
X92509285Y-94822200D02*
X92414047Y-94869819D01*
X92414047Y-94869819D02*
X92223571Y-94869819D01*
X93556904Y-93869819D02*
X93080714Y-93869819D01*
X93080714Y-93869819D02*
X93033095Y-94346009D01*
X93033095Y-94346009D02*
X93080714Y-94298390D01*
X93080714Y-94298390D02*
X93175952Y-94250771D01*
X93175952Y-94250771D02*
X93414047Y-94250771D01*
X93414047Y-94250771D02*
X93509285Y-94298390D01*
X93509285Y-94298390D02*
X93556904Y-94346009D01*
X93556904Y-94346009D02*
X93604523Y-94441247D01*
X93604523Y-94441247D02*
X93604523Y-94679342D01*
X93604523Y-94679342D02*
X93556904Y-94774580D01*
X93556904Y-94774580D02*
X93509285Y-94822200D01*
X93509285Y-94822200D02*
X93414047Y-94869819D01*
X93414047Y-94869819D02*
X93175952Y-94869819D01*
X93175952Y-94869819D02*
X93080714Y-94822200D01*
X93080714Y-94822200D02*
X93033095Y-94774580D01*
D11*
X117540000Y-62850000D02*
X119480000Y-62850000D01*
X119480000Y-65470000D02*
X119480000Y-60230000D01*
X127120000Y-60230000D02*
X119480000Y-60230000D01*
X127120000Y-65470000D02*
X119480000Y-65470000D01*
X128020000Y-61130000D02*
X127120000Y-60230000D01*
X128020000Y-64570000D02*
X127120000Y-65470000D01*
X128920000Y-60230000D02*
X128020000Y-61130000D01*
X128920000Y-65470000D02*
X128020000Y-64570000D01*
X130720000Y-60230000D02*
X128920000Y-60230000D01*
X130720000Y-65470000D02*
X128920000Y-65470000D01*
X130720000Y-65470000D02*
X130720000Y-60230000D01*
X131920000Y-66350000D02*
X131920000Y-64550000D01*
X132660000Y-62850000D02*
X130720000Y-62850000D01*
X132820000Y-65450000D02*
X131020000Y-65450000D01*
X86635000Y-79510000D02*
X86635000Y-74869000D01*
X89904000Y-79510000D02*
X89904000Y-78000000D01*
X93605000Y-79510000D02*
X93605000Y-78000000D01*
X96875000Y-74869000D02*
X86635000Y-74869000D01*
X96875000Y-78000000D02*
X86635000Y-78000000D01*
X96875000Y-79510000D02*
X86635000Y-79510000D01*
X96875000Y-79510000D02*
X96875000Y-74869000D01*
X43630000Y-109480000D02*
X43630000Y-121720000D01*
X43630000Y-121720000D02*
X52370000Y-121720000D01*
X48000000Y-109140000D02*
X48000000Y-109480000D01*
X48000000Y-122060000D02*
X48000000Y-121720000D01*
X52370000Y-109480000D02*
X43630000Y-109480000D01*
X52370000Y-121720000D02*
X52370000Y-109480000D01*
X66640000Y-68597064D02*
X66640000Y-68142936D01*
X68110000Y-68597064D02*
X68110000Y-68142936D01*
X81670000Y-75310000D02*
X81670000Y-70170000D01*
X81670000Y-77910000D02*
X81670000Y-76580000D01*
X83000000Y-77910000D02*
X81670000Y-77910000D01*
X84330000Y-70170000D02*
X81670000Y-70170000D01*
X84330000Y-75310000D02*
X81670000Y-75310000D01*
X84330000Y-75310000D02*
X84330000Y-70170000D01*
X70255000Y-105440000D02*
X70255000Y-109680000D01*
X70255000Y-108840000D02*
X72495000Y-108840000D01*
X70255000Y-108960000D02*
X72495000Y-108960000D01*
X70255000Y-109080000D02*
X72495000Y-109080000D01*
X70255000Y-109680000D02*
X72495000Y-109680000D01*
X71375000Y-104790000D02*
X71375000Y-105440000D01*
X71375000Y-110330000D02*
X71375000Y-109680000D01*
X72495000Y-105440000D02*
X70255000Y-105440000D01*
X72495000Y-109680000D02*
X72495000Y-105440000D01*
X125480000Y-76470000D02*
X125480000Y-68430000D01*
X126288000Y-71850000D02*
X125480000Y-71850000D01*
X126288000Y-72850000D02*
X125480000Y-72850000D01*
X127557000Y-70550000D02*
X125480000Y-70550000D01*
X131220000Y-70550000D02*
X128643000Y-70550000D01*
X131220000Y-71850000D02*
X129912000Y-71850000D01*
X131220000Y-72850000D02*
X129912000Y-72850000D01*
X132800000Y-68430000D02*
X125480000Y-68430000D01*
X136220000Y-68430000D02*
X133400000Y-68430000D01*
X136220000Y-70550000D02*
X134980000Y-70550000D01*
X136220000Y-71850000D02*
X134980000Y-71850000D01*
X136220000Y-72850000D02*
X134980000Y-72850000D01*
X136220000Y-76470000D02*
X125480000Y-76470000D01*
X136220000Y-76470000D02*
X136220000Y-68430000D01*
X133100000Y-68430000D02*
X132660000Y-67820000D01*
X133540000Y-67820000D01*
X133100000Y-68430000D01*
G36*
X133100000Y-68430000D02*
G01*
X132660000Y-67820000D01*
X133540000Y-67820000D01*
X133100000Y-68430000D01*
G37*
X107135000Y-105565000D02*
X107135000Y-109805000D01*
X107135000Y-108965000D02*
X109375000Y-108965000D01*
X107135000Y-109085000D02*
X109375000Y-109085000D01*
X107135000Y-109205000D02*
X109375000Y-109205000D01*
X107135000Y-109805000D02*
X109375000Y-109805000D01*
X108255000Y-104915000D02*
X108255000Y-105565000D01*
X108255000Y-110455000D02*
X108255000Y-109805000D01*
X109375000Y-105565000D02*
X107135000Y-105565000D01*
X109375000Y-109805000D02*
X109375000Y-105565000D01*
X96885000Y-116030000D02*
X96885000Y-117680000D01*
X96885000Y-119680000D02*
X96885000Y-121330000D01*
X96885000Y-121330000D02*
X107165000Y-121330000D01*
X107165000Y-116030000D02*
X96885000Y-116030000D01*
X107165000Y-121330000D02*
X107165000Y-116030000D01*
X96885000Y-117680000D02*
G75*
G02*
X96885000Y-119680000I0J-1000000D01*
G01*
X59255000Y-105940000D02*
X59255000Y-110180000D01*
X59255000Y-109340000D02*
X61495000Y-109340000D01*
X59255000Y-109460000D02*
X61495000Y-109460000D01*
X59255000Y-109580000D02*
X61495000Y-109580000D01*
X59255000Y-110180000D02*
X61495000Y-110180000D01*
X60375000Y-105290000D02*
X60375000Y-105940000D01*
X60375000Y-110830000D02*
X60375000Y-110180000D01*
X61495000Y-105940000D02*
X59255000Y-105940000D01*
X61495000Y-110180000D02*
X61495000Y-105940000D01*
X77765000Y-121576252D02*
X77765000Y-121053748D01*
X79235000Y-121576252D02*
X79235000Y-121053748D01*
X90105000Y-113975000D02*
X90105000Y-121385000D01*
X94405000Y-113975000D02*
X90105000Y-113975000D01*
X94405000Y-113975000D02*
X94405000Y-121385000D01*
X58755000Y-81250000D02*
X66795000Y-81250000D01*
X58755000Y-91990000D02*
X58755000Y-81250000D01*
X58755000Y-91990000D02*
X66795000Y-91990000D01*
X62375000Y-82058000D02*
X62375000Y-81250000D01*
X62375000Y-86990000D02*
X62375000Y-85682000D01*
X62375000Y-91990000D02*
X62375000Y-90750000D01*
X63375000Y-82058000D02*
X63375000Y-81250000D01*
X63375000Y-86990000D02*
X63375000Y-85682000D01*
X63375000Y-91990000D02*
X63375000Y-90750000D01*
X64675000Y-83327000D02*
X64675000Y-81250000D01*
X64675000Y-86990000D02*
X64675000Y-84413000D01*
X64675000Y-91990000D02*
X64675000Y-90750000D01*
X66795000Y-88570000D02*
X66795000Y-81250000D01*
X66795000Y-91990000D02*
X66795000Y-89170000D01*
X67405000Y-89310000D02*
X66795000Y-88870000D01*
X67405000Y-88430000D01*
X67405000Y-89310000D01*
G36*
X67405000Y-89310000D02*
G01*
X66795000Y-88870000D01*
X67405000Y-88430000D01*
X67405000Y-89310000D01*
G37*
X51215000Y-78640000D02*
X51215000Y-73999000D01*
X54484000Y-78640000D02*
X54484000Y-77130000D01*
X58185000Y-78640000D02*
X58185000Y-77130000D01*
X61455000Y-73999000D02*
X51215000Y-73999000D01*
X61455000Y-77130000D02*
X51215000Y-77130000D01*
X61455000Y-78640000D02*
X51215000Y-78640000D01*
X61455000Y-78640000D02*
X61455000Y-73999000D01*
X75090000Y-122273752D02*
X75090000Y-120851248D01*
X76910000Y-122273752D02*
X76910000Y-120851248D01*
X50566750Y-54453748D02*
X50566750Y-55876252D01*
X52386750Y-54453748D02*
X52386750Y-55876252D01*
X116040000Y-88054970D02*
G75*
G02*
X116040000Y-80645030I1560001J3704970D01*
G01*
X119160000Y-80645030D02*
G75*
G02*
X119160000Y-88054970I-1560001J-3704970D01*
G01*
X54140000Y-108097064D02*
X54140000Y-107642936D01*
X55610000Y-108097064D02*
X55610000Y-107642936D01*
X99135000Y-79510000D02*
X99135000Y-74869000D01*
X102404000Y-79510000D02*
X102404000Y-78000000D01*
X106105000Y-79510000D02*
X106105000Y-78000000D01*
X109375000Y-74869000D02*
X99135000Y-74869000D01*
X109375000Y-78000000D02*
X99135000Y-78000000D01*
X109375000Y-79510000D02*
X99135000Y-79510000D01*
X109375000Y-79510000D02*
X109375000Y-74869000D01*
X87265000Y-71272936D02*
X87265000Y-71727064D01*
X88735000Y-71272936D02*
X88735000Y-71727064D01*
X116880000Y-100142500D02*
X118680000Y-100142500D01*
X117040000Y-102742500D02*
X118980000Y-102742500D01*
X117780000Y-99242500D02*
X117780000Y-101042500D01*
X118980000Y-99622500D02*
X118980000Y-105862500D01*
X118980000Y-99622500D02*
X120780000Y-99622500D01*
X118980000Y-105862500D02*
X120780000Y-105862500D01*
X120780000Y-99622500D02*
X121680000Y-100522500D01*
X120780000Y-105862500D02*
X121680000Y-104962500D01*
X121680000Y-100522500D02*
X122580000Y-99622500D01*
X121680000Y-104962500D02*
X122580000Y-105862500D01*
X122580000Y-99622500D02*
X130220000Y-99622500D01*
X122580000Y-105862500D02*
X130220000Y-105862500D01*
X130220000Y-99622500D02*
X130220000Y-105862500D01*
X132160000Y-102742500D02*
X130220000Y-102742500D01*
X100993748Y-110450000D02*
X101516252Y-110450000D01*
X100993748Y-111920000D02*
X101516252Y-111920000D01*
X48265000Y-54776248D02*
X48265000Y-55298752D01*
X49735000Y-54776248D02*
X49735000Y-55298752D01*
X64098752Y-61135000D02*
X63576248Y-61135000D01*
X64098752Y-62605000D02*
X63576248Y-62605000D01*
X91925000Y-51225000D02*
X91925000Y-56525000D01*
X91925000Y-56525000D02*
X102205000Y-56525000D01*
X102205000Y-51225000D02*
X91925000Y-51225000D01*
X102205000Y-52875000D02*
X102205000Y-51225000D01*
X102205000Y-56525000D02*
X102205000Y-54875000D01*
X102205000Y-54875000D02*
G75*
G02*
X102205000Y-52875000I0J1000000D01*
G01*
X105175000Y-64620000D02*
X105175000Y-68860000D01*
X105175000Y-68860000D02*
X107415000Y-68860000D01*
X106295000Y-63970000D02*
X106295000Y-64620000D01*
X106295000Y-69510000D02*
X106295000Y-68860000D01*
X107415000Y-64620000D02*
X105175000Y-64620000D01*
X107415000Y-65220000D02*
X105175000Y-65220000D01*
X107415000Y-65340000D02*
X105175000Y-65340000D01*
X107415000Y-65460000D02*
X105175000Y-65460000D01*
X107415000Y-68860000D02*
X107415000Y-64620000D01*
X53640000Y-68597064D02*
X53640000Y-68142936D01*
X55110000Y-68597064D02*
X55110000Y-68142936D01*
X91135000Y-105255000D02*
X91135000Y-109495000D01*
X91135000Y-108655000D02*
X93375000Y-108655000D01*
X91135000Y-108775000D02*
X93375000Y-108775000D01*
X91135000Y-108895000D02*
X93375000Y-108895000D01*
X91135000Y-109495000D02*
X93375000Y-109495000D01*
X92255000Y-104605000D02*
X92255000Y-105255000D01*
X92255000Y-110145000D02*
X92255000Y-109495000D01*
X93375000Y-105255000D02*
X91135000Y-105255000D01*
X93375000Y-109495000D02*
X93375000Y-105255000D01*
X55235000Y-52386750D02*
X55235000Y-57686750D01*
X55235000Y-57686750D02*
X65515000Y-57686750D01*
X65515000Y-52386750D02*
X55235000Y-52386750D01*
X65515000Y-54036750D02*
X65515000Y-52386750D01*
X65515000Y-57686750D02*
X65515000Y-56036750D01*
X65515000Y-56036750D02*
G75*
G02*
X65515000Y-54036750I0J1000000D01*
G01*
X57755000Y-65440000D02*
X57755000Y-69680000D01*
X57755000Y-69680000D02*
X59995000Y-69680000D01*
X58875000Y-64790000D02*
X58875000Y-65440000D01*
X58875000Y-70330000D02*
X58875000Y-69680000D01*
X59995000Y-65440000D02*
X57755000Y-65440000D01*
X59995000Y-66040000D02*
X57755000Y-66040000D01*
X59995000Y-66160000D02*
X57755000Y-66160000D01*
X59995000Y-66280000D02*
X57755000Y-66280000D01*
X59995000Y-69680000D02*
X59995000Y-65440000D01*
X65613748Y-111135000D02*
X66136252Y-111135000D01*
X65613748Y-112605000D02*
X66136252Y-112605000D01*
X125300000Y-85175000D02*
X126250000Y-85175000D01*
X125300000Y-86540000D02*
X125300000Y-85175000D01*
X135700000Y-85175000D02*
X134750000Y-85175000D01*
X135700000Y-86540000D02*
X135700000Y-85175000D01*
X135180000Y-82690000D02*
X134710000Y-82350000D01*
X135180000Y-82010000D01*
X135180000Y-82690000D01*
G36*
X135180000Y-82690000D02*
G01*
X134710000Y-82350000D01*
X135180000Y-82010000D01*
X135180000Y-82690000D01*
G37*
X67035000Y-59756750D02*
X67035000Y-52346750D01*
X67035000Y-59756750D02*
X71335000Y-59756750D01*
X71335000Y-59756750D02*
X71335000Y-52346750D01*
X62715000Y-78640000D02*
X62715000Y-73999000D01*
X65984000Y-78640000D02*
X65984000Y-77130000D01*
X69685000Y-78640000D02*
X69685000Y-77130000D01*
X72955000Y-73999000D02*
X62715000Y-73999000D01*
X72955000Y-77130000D02*
X62715000Y-77130000D01*
X72955000Y-78640000D02*
X62715000Y-78640000D01*
X72955000Y-78640000D02*
X72955000Y-73999000D01*
X98723752Y-60765000D02*
X98201248Y-60765000D01*
X98723752Y-62235000D02*
X98201248Y-62235000D01*
X88520000Y-107412064D02*
X88520000Y-106957936D01*
X89990000Y-107412064D02*
X89990000Y-106957936D01*
X69755000Y-65440000D02*
X69755000Y-69680000D01*
X69755000Y-69680000D02*
X71995000Y-69680000D01*
X70875000Y-64790000D02*
X70875000Y-65440000D01*
X70875000Y-70330000D02*
X70875000Y-69680000D01*
X71995000Y-65440000D02*
X69755000Y-65440000D01*
X71995000Y-66040000D02*
X69755000Y-66040000D01*
X71995000Y-66160000D02*
X69755000Y-66160000D01*
X71995000Y-66280000D02*
X69755000Y-66280000D01*
X71995000Y-69680000D02*
X71995000Y-65440000D01*
X62235000Y-116215000D02*
X62235000Y-117865000D01*
X62235000Y-119865000D02*
X62235000Y-121515000D01*
X62235000Y-121515000D02*
X72515000Y-121515000D01*
X72515000Y-116215000D02*
X62235000Y-116215000D01*
X72515000Y-121515000D02*
X72515000Y-116215000D01*
X62235000Y-117865000D02*
G75*
G02*
X62235000Y-119865000I0J-1000000D01*
G01*
X90480000Y-68967064D02*
X90480000Y-68512936D01*
X91950000Y-68967064D02*
X91950000Y-68512936D01*
X48765000Y-63772936D02*
X48765000Y-64227064D01*
X50235000Y-63772936D02*
X50235000Y-64227064D01*
X82765000Y-51701248D02*
X82765000Y-52223752D01*
X84235000Y-51701248D02*
X84235000Y-52223752D01*
X51715000Y-100640000D02*
X51715000Y-95999000D01*
X54984000Y-100640000D02*
X54984000Y-99130000D01*
X58685000Y-100640000D02*
X58685000Y-99130000D01*
X61955000Y-95999000D02*
X51715000Y-95999000D01*
X61955000Y-99130000D02*
X51715000Y-99130000D01*
X61955000Y-100640000D02*
X51715000Y-100640000D01*
X61955000Y-100640000D02*
X61955000Y-95999000D01*
X77385000Y-85565000D02*
X77385000Y-97805000D01*
X77385000Y-97805000D02*
X86125000Y-97805000D01*
X81755000Y-85225000D02*
X81755000Y-85565000D01*
X81755000Y-98145000D02*
X81755000Y-97805000D01*
X86125000Y-85565000D02*
X77385000Y-85565000D01*
X86125000Y-97805000D02*
X86125000Y-85565000D01*
X93095000Y-64620000D02*
X93095000Y-68860000D01*
X93095000Y-68860000D02*
X95335000Y-68860000D01*
X94215000Y-63970000D02*
X94215000Y-64620000D01*
X94215000Y-69510000D02*
X94215000Y-68860000D01*
X95335000Y-64620000D02*
X93095000Y-64620000D01*
X95335000Y-65220000D02*
X93095000Y-65220000D01*
X95335000Y-65340000D02*
X93095000Y-65340000D01*
X95335000Y-65460000D02*
X93095000Y-65460000D01*
X95335000Y-68860000D02*
X95335000Y-64620000D01*
X117100000Y-71670000D02*
X117100000Y-71210000D01*
X119820000Y-74390000D02*
G75*
G02*
X114380000Y-74390000I-2720000J0D01*
G01*
X114380000Y-74390000D02*
G75*
G02*
X119820000Y-74390000I2720000J0D01*
G01*
X99095000Y-95415000D02*
X99095000Y-100056000D01*
X99095000Y-95415000D02*
X109335000Y-95415000D01*
X99095000Y-96925000D02*
X109335000Y-96925000D01*
X99095000Y-100056000D02*
X109335000Y-100056000D01*
X102365000Y-95415000D02*
X102365000Y-96925000D01*
X106066000Y-95415000D02*
X106066000Y-96925000D01*
X109335000Y-95415000D02*
X109335000Y-100056000D01*
X111765000Y-119698752D02*
X111765000Y-119176248D01*
X113235000Y-119698752D02*
X113235000Y-119176248D01*
X103915000Y-58580000D02*
X103915000Y-51170000D01*
X103915000Y-58580000D02*
X108215000Y-58580000D01*
X108215000Y-58580000D02*
X108215000Y-51170000D01*
X76620000Y-75230000D02*
X76620000Y-59880000D01*
X79380000Y-59880000D02*
X76620000Y-59880000D01*
X79380000Y-75230000D02*
X76620000Y-75230000D01*
X79380000Y-75230000D02*
X79380000Y-59880000D01*
X79380000Y-76500000D02*
X79380000Y-77880000D01*
X79380000Y-77880000D02*
X78000000Y-77880000D01*
X109090000Y-120148752D02*
X109090000Y-118726248D01*
X110910000Y-120148752D02*
X110910000Y-118726248D01*
X95102500Y-81815000D02*
X103142500Y-81815000D01*
X95102500Y-92555000D02*
X95102500Y-81815000D01*
X95102500Y-92555000D02*
X103142500Y-92555000D01*
X98722500Y-82623000D02*
X98722500Y-81815000D01*
X98722500Y-87555000D02*
X98722500Y-86247000D01*
X98722500Y-92555000D02*
X98722500Y-91315000D01*
X99722500Y-82623000D02*
X99722500Y-81815000D01*
X99722500Y-87555000D02*
X99722500Y-86247000D01*
X99722500Y-92555000D02*
X99722500Y-91315000D01*
X101022500Y-83892000D02*
X101022500Y-81815000D01*
X101022500Y-87555000D02*
X101022500Y-84978000D01*
X101022500Y-92555000D02*
X101022500Y-91315000D01*
X103142500Y-89135000D02*
X103142500Y-81815000D01*
X103142500Y-92555000D02*
X103142500Y-89735000D01*
X103752500Y-89875000D02*
X103142500Y-89435000D01*
X103752500Y-88995000D01*
X103752500Y-89875000D01*
G36*
X103752500Y-89875000D02*
G01*
X103142500Y-89435000D01*
X103752500Y-88995000D01*
X103752500Y-89875000D01*
G37*
X55225000Y-114460000D02*
X55225000Y-121870000D01*
X59525000Y-114460000D02*
X55225000Y-114460000D01*
X59525000Y-114460000D02*
X59525000Y-121870000D01*
X66140000Y-106597064D02*
X66140000Y-106142936D01*
X67610000Y-106597064D02*
X67610000Y-106142936D01*
X63295000Y-100640000D02*
X63295000Y-95999000D01*
X66564000Y-100640000D02*
X66564000Y-99130000D01*
X70265000Y-100640000D02*
X70265000Y-99130000D01*
X73535000Y-95999000D02*
X63295000Y-95999000D01*
X73535000Y-99130000D02*
X63295000Y-99130000D01*
X73535000Y-100640000D02*
X63295000Y-100640000D01*
X73535000Y-100640000D02*
X73535000Y-95999000D01*
X104520000Y-107912064D02*
X104520000Y-107457936D01*
X105990000Y-107912064D02*
X105990000Y-107457936D01*
X85590000Y-51351248D02*
X85590000Y-52773752D01*
X87410000Y-51351248D02*
X87410000Y-52773752D01*
X87675000Y-95415000D02*
X87675000Y-100056000D01*
X87675000Y-95415000D02*
X97915000Y-95415000D01*
X87675000Y-96925000D02*
X97915000Y-96925000D01*
X87675000Y-100056000D02*
X97915000Y-100056000D01*
X90945000Y-95415000D02*
X90945000Y-96925000D01*
X94646000Y-95415000D02*
X94646000Y-96925000D01*
X97915000Y-95415000D02*
X97915000Y-100056000D01*
X102060000Y-68467064D02*
X102060000Y-68012936D01*
X103530000Y-68467064D02*
X103530000Y-68012936D01*
%LPC*%
D12*
X134100000Y-62850000D03*
D13*
X116100000Y-62850000D03*
D14*
X94295000Y-76240000D03*
D15*
X91755000Y-76240000D03*
X89215000Y-76240000D03*
D16*
X48000000Y-123100000D03*
X48000000Y-108100000D03*
D17*
X67375000Y-69370000D03*
X67375000Y-67370000D03*
D18*
X83000000Y-76580000D03*
D19*
X83000000Y-74040000D03*
X83000000Y-71500000D03*
D20*
X71375000Y-111370000D03*
D21*
X71375000Y-103750000D03*
D22*
X133100000Y-72350000D03*
D23*
X128100000Y-72350000D03*
D20*
X108255000Y-111495000D03*
D21*
X108255000Y-103875000D03*
D24*
X98215000Y-122490000D03*
D16*
X100755000Y-122490000D03*
X103295000Y-122490000D03*
X105835000Y-122490000D03*
X105835000Y-114870000D03*
X103295000Y-114870000D03*
X100755000Y-114870000D03*
X98215000Y-114870000D03*
D20*
X60375000Y-111870000D03*
D21*
X60375000Y-104250000D03*
D25*
X78500000Y-122352500D03*
X78500000Y-120277500D03*
D26*
X92255000Y-115985000D03*
X92255000Y-121385000D03*
D27*
X62875000Y-88870000D03*
D23*
X62875000Y-83870000D03*
D14*
X58875000Y-75370000D03*
D15*
X56335000Y-75370000D03*
X53795000Y-75370000D03*
D28*
X76000000Y-123125000D03*
X76000000Y-120000000D03*
D29*
X51476750Y-53602500D03*
X51476750Y-56727500D03*
D30*
X117600000Y-81850000D03*
X117600000Y-86850000D03*
D17*
X54875000Y-108870000D03*
X54875000Y-106870000D03*
D14*
X106795000Y-76240000D03*
D15*
X104255000Y-76240000D03*
X101715000Y-76240000D03*
D31*
X88000000Y-70500000D03*
X88000000Y-72500000D03*
D12*
X115600000Y-102742500D03*
D13*
X133600000Y-102742500D03*
D32*
X100217500Y-111185000D03*
X102292500Y-111185000D03*
D33*
X49000000Y-54000000D03*
X49000000Y-56075000D03*
D34*
X64875000Y-61870000D03*
X62800000Y-61870000D03*
D35*
X100875000Y-50065000D03*
D16*
X98335000Y-50065000D03*
X95795000Y-50065000D03*
X93255000Y-50065000D03*
X93255000Y-57685000D03*
X95795000Y-57685000D03*
X98335000Y-57685000D03*
X100875000Y-57685000D03*
D20*
X106295000Y-62930000D03*
D21*
X106295000Y-70550000D03*
D17*
X54375000Y-69370000D03*
X54375000Y-67370000D03*
D20*
X92255000Y-111185000D03*
D21*
X92255000Y-103565000D03*
D35*
X64185000Y-51226750D03*
D16*
X61645000Y-51226750D03*
X59105000Y-51226750D03*
X56565000Y-51226750D03*
X56565000Y-58846750D03*
X59105000Y-58846750D03*
X61645000Y-58846750D03*
X64185000Y-58846750D03*
D20*
X58875000Y-63750000D03*
D21*
X58875000Y-71370000D03*
D32*
X64837500Y-111870000D03*
X66912500Y-111870000D03*
D36*
X133900000Y-82350000D03*
X132200000Y-82350000D03*
X130500000Y-82350000D03*
D37*
X130500000Y-91500000D03*
D36*
X128800000Y-82350000D03*
X127100000Y-82350000D03*
D38*
X69185000Y-57746750D03*
X69185000Y-52346750D03*
D14*
X70375000Y-75370000D03*
D15*
X67835000Y-75370000D03*
X65295000Y-75370000D03*
D34*
X99500000Y-61500000D03*
X97425000Y-61500000D03*
D17*
X89255000Y-108185000D03*
X89255000Y-106185000D03*
D20*
X70875000Y-63750000D03*
D21*
X70875000Y-71370000D03*
D24*
X63565000Y-122675000D03*
D16*
X66105000Y-122675000D03*
X68645000Y-122675000D03*
X71185000Y-122675000D03*
X71185000Y-115055000D03*
X68645000Y-115055000D03*
X66105000Y-115055000D03*
X63565000Y-115055000D03*
D17*
X91215000Y-69740000D03*
X91215000Y-67740000D03*
D31*
X49500000Y-63000000D03*
X49500000Y-65000000D03*
D33*
X83500000Y-50925000D03*
X83500000Y-53000000D03*
D14*
X59375000Y-97370000D03*
D15*
X56835000Y-97370000D03*
X54295000Y-97370000D03*
D16*
X81755000Y-84185000D03*
X81755000Y-99185000D03*
D20*
X94215000Y-62930000D03*
D21*
X94215000Y-70550000D03*
D39*
X117100000Y-74390000D03*
D40*
X117100000Y-69310000D03*
D14*
X101675000Y-98685000D03*
D15*
X104215000Y-98685000D03*
X106755000Y-98685000D03*
D25*
X112500000Y-120475000D03*
X112500000Y-118400000D03*
D38*
X106065000Y-56570000D03*
X106065000Y-51170000D03*
D18*
X78000000Y-76500000D03*
D19*
X78000000Y-73960000D03*
X78000000Y-71420000D03*
X78000000Y-68880000D03*
X78000000Y-66340000D03*
X78000000Y-63800000D03*
X78000000Y-61260000D03*
D28*
X110000000Y-121000000D03*
X110000000Y-117875000D03*
D27*
X99222500Y-89435000D03*
D23*
X99222500Y-84435000D03*
D26*
X57375000Y-116470000D03*
X57375000Y-121870000D03*
D17*
X66875000Y-107370000D03*
X66875000Y-105370000D03*
D14*
X70955000Y-97370000D03*
D15*
X68415000Y-97370000D03*
X65875000Y-97370000D03*
D17*
X105255000Y-108685000D03*
X105255000Y-106685000D03*
D29*
X86500000Y-50500000D03*
X86500000Y-53625000D03*
D14*
X90255000Y-98685000D03*
D15*
X92795000Y-98685000D03*
X95335000Y-98685000D03*
D17*
X102795000Y-69240000D03*
X102795000Y-67240000D03*
%LPD*%
M02*
